<svg width="591" height="394" viewBox="0 0 591 394" fill="none" xmlns="http://www.w3.org/2000/svg">
<path d="M292.5 67.5001L58 57.5001L210 237.5M292.5 67.5001H516L210 237.5M292.5 67.5001L210 237.5" stroke="#B8B8B8" stroke-width="2" stroke-dasharray="6 6"/>
<g filter="url(#filter0_i_2078_7078)">
<rect y="4.00009" width="110" height="110" rx="55" fill="white"/>
<rect x="0.5" y="4.50009" width="109" height="109" rx="54.5" stroke="#D1D1D1" stroke-opacity="0.48"/>
<path d="M60 58.9168L69.9167 49.0001L74.1667 53.2501L64.25 63.1668L60 58.9168Z" stroke="#9E32DD" stroke-width="1.5" stroke-linecap="round" stroke-linejoin="round"/>
<path d="M68.5 50.4168L66.375 39.7918L45.8334 34.8334L50.7917 55.3751L61.4167 57.5001L68.5 50.4168Z" stroke="#9E32DD" stroke-width="1.5" stroke-linecap="round" stroke-linejoin="round"/>
<path d="M45.8334 34.8334L56.5802 45.5803" stroke="#9E32DD" stroke-width="2" stroke-linecap="round" stroke-linejoin="round"/>
<path d="M58.5833 50.4168C60.1481 50.4168 61.4167 49.1482 61.4167 47.5834C61.4167 46.0186 60.1481 44.7501 58.5833 44.7501C57.0185 44.7501 55.75 46.0186 55.75 47.5834C55.75 49.1482 57.0185 50.4168 58.5833 50.4168Z" stroke="#9E32DD" stroke-width="2" stroke-linecap="round" stroke-linejoin="round"/>
<path d="M18 54.0001C20.0794 45.2503 38.4615 49.0001 32 42.0001C25.5385 35.0001 40.2048 35.557 46 35.0001" stroke="#9E32DD"/>
<path d="M25.364 76.2728H26.685V82.0129C26.685 82.6237 26.5415 83.1649 26.2546 83.6365C25.9677 84.1052 25.5643 84.4745 25.0444 84.7444C24.5245 85.0115 23.9151 85.145 23.2163 85.145C22.5202 85.145 21.9123 85.0115 21.3924 84.7444C20.8725 84.4745 20.4691 84.1052 20.1822 83.6365C19.8952 83.1649 19.7518 82.6237 19.7518 82.0129V76.2728H21.0685V81.9063C21.0685 82.3012 21.1552 82.6521 21.3285 82.9589C21.5046 83.2657 21.7532 83.5072 22.0742 83.6833C22.3952 83.8566 22.7759 83.9433 23.2163 83.9433C23.6594 83.9433 24.0415 83.8566 24.3626 83.6833C24.6864 83.5072 24.9336 83.2657 25.104 82.9589C25.2773 82.6521 25.364 82.3012 25.364 81.9063V76.2728ZM29.9162 76.2728V85.0001H28.5994V76.2728H29.9162ZM35.0554 75.8637L32.2429 86.3126H31.1051L33.9176 75.8637H35.0554ZM41.8523 76.2728H43.1733V82.0129C43.1733 82.6237 43.0298 83.1649 42.7429 83.6365C42.456 84.1052 42.0526 84.4745 41.5327 84.7444C41.0128 85.0115 40.4034 85.145 39.7045 85.145C39.0085 85.145 38.4006 85.0115 37.8807 84.7444C37.3608 84.4745 36.9574 84.1052 36.6705 83.6365C36.3835 83.1649 36.2401 82.6237 36.2401 82.0129V76.2728H37.5568V81.9063C37.5568 82.3012 37.6435 82.6521 37.8168 82.9589C37.9929 83.2657 38.2415 83.5072 38.5625 83.6833C38.8835 83.8566 39.2642 83.9433 39.7045 83.9433C40.1477 83.9433 40.5298 83.8566 40.8509 83.6833C41.1747 83.5072 41.4219 83.2657 41.5923 82.9589C41.7656 82.6521 41.8523 82.3012 41.8523 81.9063V76.2728ZM46.0039 76.2728L48.092 79.6862H48.1602L50.2482 76.2728H51.7738L49.055 80.6365L51.7908 85.0001H50.2567L48.1602 81.6336H48.092L45.9954 85.0001H44.4613L47.244 80.6365L44.4783 76.2728H46.0039ZM59.081 85.0001H56.2557V76.2728H59.1705C60.0256 76.2728 60.7599 76.4475 61.3736 76.797C61.9872 77.1436 62.4574 77.6421 62.7841 78.2927C63.1136 78.9404 63.2784 79.7174 63.2784 80.6237C63.2784 81.5328 63.1122 82.314 62.7798 82.9674C62.4503 83.6208 61.973 84.1237 61.348 84.4759C60.723 84.8254 59.9673 85.0001 59.081 85.0001ZM57.5724 83.8495H59.0085C59.6733 83.8495 60.2259 83.7245 60.6662 83.4745C61.1065 83.2217 61.4361 82.8566 61.6548 82.3794C61.8736 81.8992 61.983 81.314 61.983 80.6237C61.983 79.939 61.8736 79.358 61.6548 78.8808C61.4389 78.4035 61.1165 78.0413 60.6875 77.7941C60.2585 77.547 59.7259 77.4234 59.0895 77.4234H57.5724V83.8495ZM67.6346 85.1322C66.9897 85.1322 66.4343 84.9944 65.9684 84.7188C65.5053 84.4404 65.1474 84.0498 64.8945 83.547C64.6445 83.0413 64.5195 82.449 64.5195 81.77C64.5195 81.0995 64.6445 80.5086 64.8945 79.9973C65.1474 79.4859 65.4996 79.0867 65.9513 78.7998C66.4059 78.5129 66.9371 78.3694 67.5451 78.3694C67.9144 78.3694 68.2724 78.4305 68.619 78.5526C68.9656 78.6748 69.2766 78.8666 69.5522 79.1279C69.8278 79.3893 70.0451 79.7288 70.2042 80.1464C70.3633 80.5612 70.4428 81.0654 70.4428 81.6592V82.1109H65.2397V81.1563H69.1942C69.1942 80.8211 69.1261 80.5242 68.9897 80.2657C68.8533 80.0044 68.6616 79.7984 68.4144 79.6478C68.1701 79.4973 67.8832 79.422 67.5536 79.422C67.1957 79.422 66.8832 79.51 66.6161 79.6862C66.3519 79.8595 66.1474 80.0867 66.0025 80.368C65.8604 80.6464 65.7894 80.949 65.7894 81.2757V82.0214C65.7894 82.4589 65.8661 82.8311 66.0195 83.1379C66.1758 83.4447 66.3931 83.6791 66.6715 83.841C66.9499 84.0001 67.2752 84.0796 67.6474 84.0796C67.8888 84.0796 68.109 84.0455 68.3079 83.9774C68.5067 83.9063 68.6786 83.8012 68.8235 83.662C68.9684 83.5228 69.0792 83.3509 69.1559 83.1464L70.3619 83.3637C70.2653 83.7188 70.092 84.0299 69.842 84.297C69.5948 84.5612 69.2837 84.7671 68.9087 84.9149C68.5366 85.0598 68.1119 85.1322 67.6346 85.1322ZM76.7614 80.0526L75.6065 80.2572C75.5582 80.1095 75.4815 79.9688 75.3764 79.8353C75.2741 79.7018 75.1349 79.5924 74.9588 79.5072C74.7827 79.422 74.5625 79.3794 74.2983 79.3794C73.9375 79.3794 73.6364 79.4603 73.3949 79.6223C73.1534 79.7813 73.0327 79.9873 73.0327 80.2401C73.0327 80.4589 73.1136 80.635 73.2756 80.7686C73.4375 80.9021 73.6989 81.0115 74.0597 81.0967L75.0994 81.3353C75.7017 81.4745 76.1506 81.689 76.446 81.9788C76.7415 82.2686 76.8892 82.645 76.8892 83.108C76.8892 83.5001 76.7756 83.8495 76.5483 84.1563C76.3239 84.4603 76.0099 84.699 75.6065 84.8723C75.206 85.0455 74.7415 85.1322 74.2131 85.1322C73.4801 85.1322 72.8821 84.9759 72.419 84.6634C71.956 84.3481 71.6719 83.9007 71.5668 83.3211L72.7983 83.1336C72.875 83.4546 73.0327 83.6975 73.2713 83.8623C73.5099 84.0242 73.821 84.1052 74.2045 84.1052C74.6222 84.1052 74.956 84.0186 75.206 83.8453C75.456 83.6691 75.581 83.4546 75.581 83.2018C75.581 82.9973 75.5043 82.8254 75.3509 82.6862C75.2003 82.547 74.9688 82.4419 74.6562 82.3708L73.5483 82.1279C72.9375 81.9887 72.4858 81.7671 72.1932 81.4632C71.9034 81.1592 71.7585 80.7742 71.7585 80.3083C71.7585 79.922 71.8665 79.5839 72.0824 79.2941C72.2983 79.0044 72.5966 78.7785 72.9773 78.6166C73.358 78.4518 73.794 78.3694 74.2855 78.3694C74.9929 78.3694 75.5497 78.5228 75.956 78.8296C76.3622 79.1336 76.6307 79.5413 76.7614 80.0526ZM78.2901 85.0001V78.4546H79.5643V85.0001H78.2901ZM78.9336 77.4447C78.712 77.4447 78.5217 77.3708 78.3626 77.2231C78.2063 77.0725 78.1282 76.8936 78.1282 76.6862C78.1282 76.4759 78.2063 76.297 78.3626 76.1492C78.5217 75.9987 78.712 75.9234 78.9336 75.9234C79.1552 75.9234 79.3441 75.9987 79.5004 76.1492C79.6594 76.297 79.739 76.4759 79.739 76.6862C79.739 76.8936 79.6594 77.0725 79.5004 77.2231C79.3441 77.3708 79.1552 77.4447 78.9336 77.4447ZM84.0227 87.591C83.5028 87.591 83.0554 87.5228 82.6804 87.3865C82.3082 87.2501 82.0043 87.0697 81.7685 86.8453C81.5327 86.6208 81.3565 86.3751 81.2401 86.108L82.3352 85.6563C82.4119 85.7813 82.5142 85.9134 82.642 86.0526C82.7727 86.1947 82.9489 86.3154 83.1705 86.4149C83.3949 86.5143 83.6832 86.564 84.0355 86.564C84.5185 86.564 84.9176 86.4461 85.233 86.2103C85.5483 85.9774 85.706 85.6052 85.706 85.0938V83.8069H85.625C85.5483 83.9461 85.4375 84.1009 85.2926 84.2714C85.1506 84.4419 84.9545 84.5896 84.7045 84.7146C84.4545 84.8396 84.1293 84.9021 83.7287 84.9021C83.2116 84.9021 82.7457 84.7813 82.331 84.5399C81.919 84.2955 81.5923 83.9362 81.3509 83.4617C81.1122 82.9845 80.9929 82.3978 80.9929 81.7018C80.9929 81.0058 81.1108 80.4092 81.3466 79.912C81.5852 79.4149 81.9119 79.0342 82.3267 78.77C82.7415 78.5029 83.2116 78.3694 83.7372 78.3694C84.1435 78.3694 84.4716 78.4376 84.7216 78.574C84.9716 78.7075 85.1662 78.8637 85.3054 79.0427C85.4474 79.2217 85.5568 79.3794 85.6335 79.5157H85.7273V78.4546H86.9759V85.145C86.9759 85.7075 86.8452 86.1691 86.5838 86.5299C86.3224 86.8907 85.9688 87.1578 85.5227 87.3311C85.0795 87.5044 84.5795 87.591 84.0227 87.591ZM84.0099 83.8453C84.3764 83.8453 84.6861 83.76 84.9389 83.5896C85.1946 83.4163 85.3878 83.1691 85.5185 82.8481C85.652 82.5242 85.7188 82.1365 85.7188 81.6848C85.7188 81.2444 85.6534 80.8566 85.5227 80.5214C85.392 80.1862 85.2003 79.9248 84.9474 79.7373C84.6946 79.547 84.3821 79.4518 84.0099 79.4518C83.6264 79.4518 83.3068 79.5512 83.0511 79.7501C82.7955 79.9461 82.6023 80.2132 82.4716 80.5512C82.3438 80.8893 82.2798 81.2671 82.2798 81.6848C82.2798 82.1137 82.3452 82.4901 82.4759 82.814C82.6065 83.1379 82.7997 83.3907 83.0554 83.5725C83.3139 83.7544 83.6321 83.8453 84.0099 83.8453ZM89.9588 81.1137V85.0001H88.6847V78.4546H89.9077V79.52H89.9886C90.1392 79.1734 90.375 78.895 90.696 78.6848C91.0199 78.4745 91.4276 78.3694 91.919 78.3694C92.3651 78.3694 92.7557 78.4632 93.0909 78.6507C93.4261 78.8353 93.6861 79.1109 93.8707 79.4774C94.0554 79.8438 94.1477 80.297 94.1477 80.8367V85.0001H92.8736V80.9901C92.8736 80.5157 92.75 80.145 92.5028 79.8779C92.2557 79.608 91.9162 79.4731 91.4844 79.4731C91.1889 79.4731 90.9261 79.537 90.696 79.6649C90.4688 79.7927 90.2884 79.9802 90.1548 80.2274C90.0241 80.4717 89.9588 80.7671 89.9588 81.1137Z" fill="#1A1A1A"/>
</g>
<g filter="url(#filter1_i_2078_7078)">
<rect x="232" y="2.00009" width="110" height="110" rx="55" fill="white"/>
<rect x="232.5" y="2.50009" width="109" height="109" rx="54.5" stroke="#D1D1D1" stroke-opacity="0.48"/>
<path d="M295.5 52.6668L301.167 47.0001L295.5 41.3334" stroke="#9E32DD" stroke-width="2" stroke-linecap="round" stroke-linejoin="round"/>
<path d="M278.5 41.3334L272.833 47.0001L278.5 52.6668" stroke="#9E32DD" stroke-width="2" stroke-linecap="round" stroke-linejoin="round"/>
<path d="M290.542 35.6668L283.458 58.3334" stroke="#9E32DD" stroke-width="2" stroke-linecap="round" stroke-linejoin="round"/>
<path d="M262.037 83.0001V74.2728H267.449V75.4063H263.354V78.0654H267.061V79.1947H263.354V83.0001H262.037ZM268.884 83.0001V76.4546H270.115V77.4944H270.184C270.303 77.1421 270.513 76.8651 270.814 76.6634C271.118 76.4589 271.462 76.3566 271.846 76.3566C271.925 76.3566 272.019 76.3595 272.127 76.3651C272.238 76.3708 272.324 76.3779 272.387 76.3865V77.6052C272.336 77.591 272.245 77.5754 272.114 77.5583C271.983 77.5384 271.853 77.5285 271.722 77.5285C271.421 77.5285 271.152 77.5924 270.917 77.7203C270.684 77.8453 270.499 78.02 270.363 78.2444C270.226 78.466 270.158 78.7188 270.158 79.0029V83.0001H268.884ZM276.012 83.1322C275.398 83.1322 274.863 82.9916 274.406 82.7103C273.948 82.4291 273.593 82.0356 273.34 81.5299C273.087 81.0242 272.961 80.4333 272.961 79.7572C272.961 79.0782 273.087 78.4845 273.34 77.9759C273.593 77.4674 273.948 77.0725 274.406 76.7913C274.863 76.51 275.398 76.3694 276.012 76.3694C276.626 76.3694 277.161 76.51 277.619 76.7913C278.076 77.0725 278.431 77.4674 278.684 77.9759C278.937 78.4845 279.063 79.0782 279.063 79.7572C279.063 80.4333 278.937 81.0242 278.684 81.5299C278.431 82.0356 278.076 82.4291 277.619 82.7103C277.161 82.9916 276.626 83.1322 276.012 83.1322ZM276.016 82.0626C276.414 82.0626 276.744 81.9575 277.005 81.7473C277.266 81.537 277.46 81.2572 277.585 80.9078C277.712 80.5583 277.776 80.1734 277.776 79.7529C277.776 79.3353 277.712 78.9518 277.585 78.6024C277.46 78.2501 277.266 77.9674 277.005 77.7544C276.744 77.5413 276.414 77.4348 276.016 77.4348C275.616 77.4348 275.283 77.5413 275.019 77.7544C274.758 77.9674 274.563 78.2501 274.435 78.6024C274.31 78.9518 274.248 79.3353 274.248 79.7529C274.248 80.1734 274.31 80.5583 274.435 80.9078C274.563 81.2572 274.758 81.537 275.019 81.7473C275.283 81.9575 275.616 82.0626 276.016 82.0626ZM281.76 79.1137V83.0001H280.485V76.4546H281.708V77.52H281.789C281.94 77.1734 282.176 76.895 282.497 76.6848C282.821 76.4745 283.228 76.3694 283.72 76.3694C284.166 76.3694 284.556 76.4632 284.892 76.6507C285.227 76.8353 285.487 77.1109 285.672 77.4774C285.856 77.8438 285.949 78.297 285.949 78.8367V83.0001H284.674V78.9901C284.674 78.5157 284.551 78.145 284.304 77.8779C284.056 77.608 283.717 77.4731 283.285 77.4731C282.99 77.4731 282.727 77.537 282.497 77.6649C282.27 77.7927 282.089 77.9802 281.956 78.2274C281.825 78.4717 281.76 78.7671 281.76 79.1137ZM290.713 76.4546V77.4774H287.137V76.4546H290.713ZM288.096 74.8865H289.37V81.0782C289.37 81.3254 289.407 81.5115 289.481 81.6365C289.555 81.7586 289.65 81.8424 289.767 81.8879C289.886 81.9305 290.015 81.9518 290.154 81.9518C290.257 81.9518 290.346 81.9447 290.423 81.9305C290.5 81.9163 290.559 81.9049 290.602 81.8964L290.832 82.949C290.758 82.9774 290.653 83.0058 290.517 83.0342C290.38 83.0654 290.21 83.0825 290.005 83.0853C289.67 83.091 289.358 83.0313 289.068 82.9063C288.778 82.7813 288.544 82.5882 288.365 82.3268C288.186 82.0654 288.096 81.7373 288.096 81.3424V74.8865ZM294.873 83.1322C294.228 83.1322 293.673 82.9944 293.207 82.7188C292.744 82.4404 292.386 82.0498 292.133 81.547C291.883 81.0413 291.758 80.449 291.758 79.77C291.758 79.0995 291.883 78.5086 292.133 77.9973C292.386 77.4859 292.738 77.0867 293.19 76.7998C293.644 76.5129 294.175 76.3694 294.783 76.3694C295.153 76.3694 295.511 76.4305 295.857 76.5526C296.204 76.6748 296.515 76.8666 296.79 77.1279C297.066 77.3893 297.283 77.7288 297.442 78.1464C297.602 78.5612 297.681 79.0654 297.681 79.6592V80.1109H292.478V79.1563H296.433C296.433 78.8211 296.364 78.5242 296.228 78.2657C296.092 78.0044 295.9 77.7984 295.653 77.6478C295.408 77.4973 295.121 77.422 294.792 77.422C294.434 77.422 294.121 77.51 293.854 77.6862C293.59 77.8595 293.386 78.0867 293.241 78.368C293.099 78.6464 293.028 78.949 293.028 79.2757V80.0214C293.028 80.4589 293.104 80.8311 293.258 81.1379C293.414 81.4447 293.631 81.6791 293.91 81.841C294.188 82.0001 294.513 82.0796 294.886 82.0796C295.127 82.0796 295.347 82.0455 295.546 81.9774C295.745 81.9063 295.917 81.8012 296.062 81.662C296.207 81.5228 296.317 81.3509 296.394 81.1464L297.6 81.3637C297.504 81.7188 297.33 82.0299 297.08 82.297C296.833 82.5612 296.522 82.7671 296.147 82.9149C295.775 83.0598 295.35 83.1322 294.873 83.1322ZM300.369 79.1137V83.0001H299.095V76.4546H300.318V77.52H300.399C300.549 77.1734 300.785 76.895 301.106 76.6848C301.43 76.4745 301.838 76.3694 302.329 76.3694C302.775 76.3694 303.166 76.4632 303.501 76.6507C303.836 76.8353 304.096 77.1109 304.281 77.4774C304.466 77.8438 304.558 78.297 304.558 78.8367V83.0001H303.284V78.9901C303.284 78.5157 303.16 78.145 302.913 77.8779C302.666 77.608 302.326 77.4731 301.895 77.4731C301.599 77.4731 301.336 77.537 301.106 77.6649C300.879 77.7927 300.699 77.9802 300.565 78.2274C300.434 78.4717 300.369 78.7671 300.369 79.1137ZM308.717 83.1279C308.189 83.1279 307.717 82.993 307.302 82.7231C306.89 82.4504 306.566 82.0626 306.331 81.5598C306.098 81.0541 305.981 80.4475 305.981 79.7401C305.981 79.0328 306.099 78.4276 306.335 77.9248C306.574 77.422 306.9 77.037 307.315 76.77C307.73 76.5029 308.2 76.3694 308.725 76.3694C309.132 76.3694 309.458 76.4376 309.706 76.574C309.956 76.7075 310.149 76.8637 310.285 77.0427C310.424 77.2217 310.532 77.3794 310.609 77.5157H310.686V74.2728H311.96V83.0001H310.716V81.9816H310.609C310.532 82.1208 310.422 82.2799 310.277 82.4589C310.135 82.6379 309.939 82.7941 309.689 82.9276C309.439 83.0612 309.115 83.1279 308.717 83.1279ZM308.998 82.0413C309.365 82.0413 309.674 81.9447 309.927 81.7515C310.183 81.5555 310.376 81.2842 310.507 80.9376C310.64 80.591 310.707 80.1876 310.707 79.7274C310.707 79.2728 310.642 78.8751 310.511 78.5342C310.38 78.1933 310.189 77.9276 309.936 77.7373C309.683 77.547 309.37 77.4518 308.998 77.4518C308.615 77.4518 308.295 77.5512 308.039 77.7501C307.784 77.949 307.591 78.2203 307.46 78.564C307.332 78.9078 307.268 79.2955 307.268 79.7274C307.268 80.1649 307.333 80.5583 307.464 80.9078C307.595 81.2572 307.788 81.5342 308.044 81.7387C308.302 81.9404 308.62 82.0413 308.998 82.0413Z" fill="#1A1A1A"/>
</g>
<g filter="url(#filter2_i_2078_7078)">
<rect x="464" y="9.15527e-05" width="110" height="110" rx="55" fill="white"/>
<rect x="464.5" y="0.500092" width="109" height="109" rx="54.5" stroke="#D1D1D1" stroke-opacity="0.48"/>
<path d="M519 39.3334C526.042 39.3334 531.75 37.4306 531.75 35.0834C531.75 32.7362 526.042 30.8334 519 30.8334C511.958 30.8334 506.25 32.7362 506.25 35.0834C506.25 37.4306 511.958 39.3334 519 39.3334Z" stroke="#9E32DD" stroke-width="2" stroke-linecap="round" stroke-linejoin="round"/>
<path d="M531.75 45.0001C531.75 47.3518 526.083 49.2501 519 49.2501C511.917 49.2501 506.25 47.3518 506.25 45.0001" stroke="#9E32DD" stroke-width="2" stroke-linecap="round" stroke-linejoin="round"/>
<path d="M506.25 35.0834V54.9168C506.25 57.2684 511.917 59.1668 519 59.1668C526.083 59.1668 531.75 57.2684 531.75 54.9168V35.0834" stroke="#9E32DD" stroke-width="2" stroke-linecap="round" stroke-linejoin="round"/>
<path d="M495.144 81.0001V72.2728H498.34C498.96 72.2728 499.472 72.3751 499.879 72.5796C500.285 72.7813 500.589 73.0555 500.791 73.4021C500.992 73.7458 501.093 74.1336 501.093 74.5654C501.093 74.9291 501.026 75.2359 500.893 75.4859C500.759 75.733 500.58 75.9319 500.356 76.0825C500.134 76.2302 499.89 76.3382 499.623 76.4063V76.4916C499.913 76.5058 500.195 76.5995 500.471 76.7728C500.749 76.9433 500.98 77.1862 501.161 77.5015C501.343 77.8169 501.434 78.2004 501.434 78.6521C501.434 79.0981 501.329 79.4987 501.119 79.8538C500.911 80.2061 500.59 80.4859 500.156 80.6933C499.721 80.8978 499.166 81.0001 498.49 81.0001H495.144ZM496.461 79.8708H498.362C498.992 79.8708 499.444 79.7487 499.717 79.5044C499.99 79.26 500.126 78.9546 500.126 78.5882C500.126 78.3126 500.056 78.0598 499.917 77.8296C499.778 77.5995 499.579 77.4163 499.32 77.2799C499.065 77.1436 498.761 77.0754 498.409 77.0754H496.461V79.8708ZM496.461 76.0484H498.225C498.521 76.0484 498.786 75.9916 499.022 75.8779C499.261 75.7643 499.45 75.6052 499.589 75.4007C499.731 75.1933 499.802 74.949 499.802 74.6677C499.802 74.3069 499.676 74.0044 499.423 73.76C499.17 73.5157 498.782 73.3936 498.259 73.3936H496.461V76.0484ZM504.798 81.145C504.384 81.145 504.009 81.0683 503.673 80.9149C503.338 80.7586 503.073 80.5328 502.877 80.2373C502.683 79.9419 502.587 79.5796 502.587 79.1507C502.587 78.7813 502.658 78.4774 502.8 78.2387C502.942 78.0001 503.134 77.8112 503.375 77.672C503.617 77.5328 503.887 77.4276 504.185 77.3566C504.483 77.2856 504.787 77.2316 505.097 77.1947C505.489 77.1492 505.807 77.1123 506.051 77.0839C506.296 77.0526 506.473 77.0029 506.584 76.9348C506.695 76.8666 506.75 76.7558 506.75 76.6024V76.5725C506.75 76.2004 506.645 75.912 506.435 75.7075C506.227 75.5029 505.918 75.4007 505.506 75.4007C505.077 75.4007 504.739 75.4958 504.492 75.6862C504.247 75.8737 504.078 76.0825 503.985 76.3126L502.787 76.0399C502.929 75.6421 503.137 75.3211 503.409 75.0768C503.685 74.8296 504.002 74.6507 504.36 74.5399C504.718 74.4262 505.094 74.3694 505.489 74.3694C505.75 74.3694 506.027 74.4007 506.32 74.4632C506.615 74.5228 506.891 74.6336 507.146 74.7955C507.405 74.9575 507.617 75.189 507.781 75.4901C507.946 75.7884 508.029 76.1762 508.029 76.6535V81.0001H506.784V80.1052H506.733C506.651 80.27 506.527 80.4319 506.362 80.591C506.198 80.7501 505.986 80.8822 505.727 80.9873C505.469 81.0924 505.159 81.145 504.798 81.145ZM505.075 80.1223C505.428 80.1223 505.729 80.0526 505.979 79.9134C506.232 79.7742 506.423 79.5924 506.554 79.368C506.688 79.1407 506.754 78.8978 506.754 78.6393V77.7955C506.709 77.841 506.621 77.8836 506.49 77.9234C506.362 77.9603 506.216 77.993 506.051 78.0214C505.887 78.047 505.726 78.0711 505.57 78.0938C505.414 78.1137 505.283 78.1308 505.178 78.145C504.931 78.1762 504.705 78.2288 504.5 78.3026C504.298 78.3765 504.137 78.483 504.014 78.6223C503.895 78.7586 503.835 78.9404 503.835 79.1677C503.835 79.483 503.952 79.7217 504.185 79.8836C504.418 80.0427 504.715 80.1223 505.075 80.1223ZM512.483 81.1322C511.849 81.1322 511.304 80.9887 510.846 80.7018C510.392 80.412 510.042 80.0129 509.798 79.5044C509.554 78.9958 509.432 78.4134 509.432 77.7572C509.432 77.0924 509.557 76.5058 509.807 75.9973C510.057 75.4859 510.409 75.0867 510.863 74.7998C511.318 74.5129 511.854 74.3694 512.47 74.3694C512.967 74.3694 513.41 74.4617 513.8 74.6464C514.189 74.8282 514.503 75.0839 514.741 75.4134C514.983 75.743 515.126 76.1279 515.172 76.5683H513.932C513.863 76.2615 513.707 75.9973 513.463 75.7757C513.221 75.5541 512.898 75.4433 512.491 75.4433C512.136 75.4433 511.825 75.537 511.558 75.7245C511.294 75.9092 511.088 76.1734 510.94 76.5171C510.792 76.858 510.719 77.2615 510.719 77.7274C510.719 78.2046 510.791 78.6166 510.936 78.9632C511.081 79.3098 511.285 79.5782 511.55 79.7686C511.817 79.9589 512.131 80.0541 512.491 80.0541C512.733 80.0541 512.952 80.01 513.148 79.922C513.346 79.8311 513.513 79.7018 513.646 79.5342C513.782 79.3666 513.878 79.1649 513.932 78.9291H515.172C515.126 79.3524 514.988 79.7302 514.758 80.0626C514.528 80.395 514.22 80.6563 513.834 80.8467C513.45 81.037 513 81.1322 512.483 81.1322ZM517.706 78.7799L517.698 77.2245H517.919L520.527 74.4546H522.053L519.078 77.608H518.878L517.706 78.7799ZM516.534 81.0001V72.2728H517.808V81.0001H516.534ZM520.668 81.0001L518.324 77.8893L519.202 76.9987L522.232 81.0001H520.668ZM525.765 81.1322C525.121 81.1322 524.565 80.9944 524.099 80.7188C523.636 80.4404 523.278 80.0498 523.025 79.547C522.775 79.0413 522.65 78.449 522.65 77.77C522.65 77.0995 522.775 76.5086 523.025 75.9973C523.278 75.4859 523.631 75.0867 524.082 74.7998C524.537 74.5129 525.068 74.3694 525.676 74.3694C526.045 74.3694 526.403 74.4305 526.75 74.5526C527.096 74.6748 527.407 74.8666 527.683 75.1279C527.959 75.3893 528.176 75.7288 528.335 76.1464C528.494 76.5612 528.574 77.0654 528.574 77.6592V78.1109H523.371V77.1563H527.325C527.325 76.8211 527.257 76.5242 527.121 76.2657C526.984 76.0044 526.792 75.7984 526.545 75.6478C526.301 75.4973 526.014 75.422 525.684 75.422C525.327 75.422 525.014 75.51 524.747 75.6862C524.483 75.8595 524.278 76.0867 524.133 76.368C523.991 76.6464 523.92 76.949 523.92 77.2757V78.0214C523.92 78.4589 523.997 78.8311 524.15 79.1379C524.307 79.4447 524.524 79.6791 524.802 79.841C525.081 80.0001 525.406 80.0796 525.778 80.0796C526.02 80.0796 526.24 80.0455 526.439 79.9774C526.638 79.9063 526.809 79.8012 526.954 79.662C527.099 79.5228 527.21 79.3509 527.287 79.1464L528.493 79.3637C528.396 79.7188 528.223 80.0299 527.973 80.297C527.726 80.5612 527.415 80.7671 527.04 80.9149C526.667 81.0598 526.243 81.1322 525.765 81.1322ZM531.262 77.1137V81.0001H529.987V74.4546H531.21V75.52H531.291C531.442 75.1734 531.678 74.895 531.999 74.6848C532.323 74.4745 532.73 74.3694 533.222 74.3694C533.668 74.3694 534.058 74.4632 534.394 74.6507C534.729 74.8353 534.989 75.1109 535.173 75.4774C535.358 75.8438 535.45 76.297 535.45 76.8367V81.0001H534.176V76.9901C534.176 76.5157 534.053 76.145 533.806 75.8779C533.558 75.608 533.219 75.4731 532.787 75.4731C532.492 75.4731 532.229 75.537 531.999 75.6649C531.771 75.7927 531.591 75.9802 531.458 76.2274C531.327 76.4717 531.262 76.7671 531.262 77.1137ZM539.61 81.1279C539.081 81.1279 538.61 80.993 538.195 80.7231C537.783 80.4504 537.459 80.0626 537.223 79.5598C536.99 79.0541 536.874 78.4475 536.874 77.7401C536.874 77.0328 536.992 76.4276 537.227 75.9248C537.466 75.422 537.793 75.037 538.208 74.77C538.622 74.5029 539.093 74.3694 539.618 74.3694C540.024 74.3694 540.351 74.4376 540.598 74.574C540.848 74.7075 541.041 74.8637 541.178 75.0427C541.317 75.2217 541.425 75.3794 541.502 75.5157H541.578V72.2728H542.852V81.0001H541.608V79.9816H541.502C541.425 80.1208 541.314 80.2799 541.169 80.4589C541.027 80.6379 540.831 80.7941 540.581 80.9276C540.331 81.0612 540.007 81.1279 539.61 81.1279ZM539.891 80.0413C540.257 80.0413 540.567 79.9447 540.82 79.7515C541.075 79.5555 541.269 79.2842 541.399 78.9376C541.533 78.591 541.6 78.1876 541.6 77.7274C541.6 77.2728 541.534 76.8751 541.404 76.5342C541.273 76.1933 541.081 75.9276 540.828 75.7373C540.575 75.547 540.263 75.4518 539.891 75.4518C539.507 75.4518 539.188 75.5512 538.932 75.7501C538.676 75.949 538.483 76.2203 538.352 76.564C538.225 76.9078 538.161 77.2955 538.161 77.7274C538.161 78.1649 538.226 78.5583 538.357 78.9078C538.487 79.2572 538.681 79.5342 538.936 79.7387C539.195 79.9404 539.513 80.0413 539.891 80.0413Z" fill="#1A1A1A"/>
</g>
<g filter="url(#filter3_i_2078_7078)">
<rect x="144" y="186.578" width="110" height="110" rx="55" fill="white"/>
<rect x="144.5" y="187.078" width="109" height="109" rx="54.5" stroke="#D1D1D1" stroke-opacity="0.48"/>
<path d="M187.667 245.744H207.5C208.251 245.744 208.972 245.446 209.503 244.915C210.035 244.383 210.333 243.663 210.333 242.911V225.203L202.542 217.411H190.5C189.749 217.411 189.028 217.71 188.496 218.241C187.965 218.772 187.667 219.493 187.667 220.244V224.494" stroke="#9E32DD" stroke-width="2" stroke-linecap="round" stroke-linejoin="round"/>
<path d="M201.833 217.411V225.911H210.333" stroke="#9E32DD" stroke-width="2" stroke-linecap="round" stroke-linejoin="round"/>
<path d="M189.083 238.661C189.641 238.661 190.194 238.551 190.71 238.338C191.225 238.124 191.694 237.811 192.089 237.416C192.483 237.022 192.796 236.553 193.01 236.037C193.223 235.522 193.333 234.969 193.333 234.411C193.333 233.853 193.223 233.3 193.01 232.785C192.796 232.269 192.483 231.801 192.089 231.406C191.694 231.011 191.225 230.698 190.71 230.485C190.194 230.271 189.641 230.161 189.083 230.161C187.956 230.161 186.875 230.609 186.078 231.406C185.281 232.203 184.833 233.284 184.833 234.411C184.833 235.538 185.281 236.619 186.078 237.416C186.875 238.213 187.956 238.661 189.083 238.661Z" stroke="#9E32DD" stroke-width="2" stroke-linecap="round" stroke-linejoin="round"/>
<path d="M194.75 240.078L192.625 237.953" stroke="#9E32DD" stroke-width="2" stroke-linecap="round" stroke-linejoin="round"/>
<path d="M171.797 264.748H173.092L174.004 265.937L174.434 266.466L175.887 268.362H174.541L173.569 267.096L173.237 266.636L171.797 264.748ZM176.169 263.214C176.169 264.146 175.998 264.947 175.657 265.618C175.316 266.285 174.849 266.799 174.255 267.16C173.664 267.518 172.993 267.697 172.24 267.697C171.484 267.697 170.809 267.518 170.216 267.16C169.625 266.799 169.159 266.284 168.818 265.613C168.477 264.943 168.306 264.143 168.306 263.214C168.306 262.282 168.477 261.483 168.818 260.815C169.159 260.144 169.625 259.63 170.216 259.272C170.809 258.912 171.484 258.731 172.24 258.731C172.993 258.731 173.664 258.912 174.255 259.272C174.849 259.63 175.316 260.144 175.657 260.815C175.998 261.483 176.169 262.282 176.169 263.214ZM174.865 263.214C174.865 262.504 174.75 261.906 174.52 261.42C174.292 260.931 173.98 260.562 173.582 260.312C173.187 260.059 172.74 259.933 172.24 259.933C171.737 259.933 171.288 260.059 170.893 260.312C170.498 260.562 170.186 260.931 169.956 261.42C169.728 261.906 169.615 262.504 169.615 263.214C169.615 263.924 169.728 264.524 169.956 265.012C170.186 265.498 170.498 265.868 170.893 266.12C171.288 266.37 171.737 266.495 172.24 266.495C172.74 266.495 173.187 266.37 173.582 266.12C173.98 265.868 174.292 265.498 174.52 265.012C174.75 264.524 174.865 263.924 174.865 263.214ZM178.114 267.578H176.716L179.857 258.85H181.378L184.519 267.578H183.121L180.654 260.436H180.586L178.114 267.578ZM178.348 264.16H182.882V265.268H178.348V264.16ZM188.525 259.984V258.85H195.279V259.984H192.556V267.578H191.243V259.984H188.525ZM198.541 267.71C197.896 267.71 197.341 267.572 196.875 267.296C196.412 267.018 196.054 266.627 195.801 266.125C195.551 265.619 195.426 265.027 195.426 264.348C195.426 263.677 195.551 263.086 195.801 262.575C196.054 262.064 196.406 261.664 196.858 261.377C197.312 261.091 197.843 260.947 198.451 260.947C198.821 260.947 199.179 261.008 199.525 261.13C199.872 261.252 200.183 261.444 200.458 261.706C200.734 261.967 200.951 262.306 201.11 262.724C201.27 263.139 201.349 263.643 201.349 264.237V264.689H196.146V263.734H200.1C200.1 263.399 200.032 263.102 199.896 262.843C199.76 262.582 199.568 262.376 199.321 262.225C199.076 262.075 198.789 262 198.46 262C198.102 262 197.789 262.088 197.522 262.264C197.258 262.437 197.054 262.664 196.909 262.946C196.767 263.224 196.696 263.527 196.696 263.853V264.599C196.696 265.037 196.772 265.409 196.926 265.716C197.082 266.022 197.299 266.257 197.578 266.419C197.856 266.578 198.181 266.657 198.554 266.657C198.795 266.657 199.015 266.623 199.214 266.555C199.413 266.484 199.585 266.379 199.73 266.24C199.875 266.1 199.985 265.929 200.062 265.724L201.268 265.941C201.172 266.296 200.998 266.608 200.748 266.875C200.501 267.139 200.19 267.345 199.815 267.493C199.443 267.637 199.018 267.71 198.541 267.71ZM207.668 262.63L206.513 262.835C206.464 262.687 206.388 262.546 206.283 262.413C206.18 262.279 206.041 262.17 205.865 262.085C205.689 262 205.469 261.957 205.205 261.957C204.844 261.957 204.543 262.038 204.301 262.2C204.06 262.359 203.939 262.565 203.939 262.818C203.939 263.037 204.02 263.213 204.182 263.346C204.344 263.48 204.605 263.589 204.966 263.674L206.006 263.913C206.608 264.052 207.057 264.267 207.352 264.556C207.648 264.846 207.795 265.223 207.795 265.686C207.795 266.078 207.682 266.427 207.455 266.734C207.23 267.038 206.916 267.277 206.513 267.45C206.112 267.623 205.648 267.71 205.119 267.71C204.386 267.71 203.788 267.554 203.325 267.241C202.862 266.926 202.578 266.478 202.473 265.899L203.705 265.711C203.781 266.032 203.939 266.275 204.178 266.44C204.416 266.602 204.727 266.683 205.111 266.683C205.528 266.683 205.862 266.596 206.112 266.423C206.362 266.247 206.487 266.032 206.487 265.779C206.487 265.575 206.411 265.403 206.257 265.264C206.107 265.125 205.875 265.019 205.562 264.948L204.455 264.706C203.844 264.566 203.392 264.345 203.099 264.041C202.81 263.737 202.665 263.352 202.665 262.886C202.665 262.5 202.773 262.162 202.989 261.872C203.205 261.582 203.503 261.356 203.884 261.194C204.264 261.029 204.7 260.947 205.192 260.947C205.899 260.947 206.456 261.1 206.862 261.407C207.268 261.711 207.537 262.119 207.668 262.63ZM212.252 261.032V262.055H208.676V261.032H212.252ZM209.635 259.464H210.909V265.656C210.909 265.903 210.946 266.089 211.02 266.214C211.094 266.336 211.189 266.42 211.306 266.466C211.425 266.508 211.554 266.529 211.694 266.529C211.796 266.529 211.885 266.522 211.962 266.508C212.039 266.494 212.098 266.483 212.141 266.474L212.371 267.527C212.297 267.555 212.192 267.583 212.056 267.612C211.919 267.643 211.749 267.66 211.544 267.663C211.209 267.669 210.897 267.609 210.607 267.484C210.317 267.359 210.083 267.166 209.904 266.904C209.725 266.643 209.635 266.315 209.635 265.92V259.464ZM213.661 267.578V261.032H214.935V267.578H213.661ZM214.305 260.022C214.083 260.022 213.893 259.948 213.734 259.801C213.577 259.65 213.499 259.471 213.499 259.264C213.499 259.054 213.577 258.875 213.734 258.727C213.893 258.576 214.083 258.501 214.305 258.501C214.526 258.501 214.715 258.576 214.871 258.727C215.031 258.875 215.11 259.054 215.11 259.264C215.11 259.471 215.031 259.65 214.871 259.801C214.715 259.948 214.526 260.022 214.305 260.022ZM217.924 263.691V267.578H216.65V261.032H217.873V262.098H217.953C218.104 261.751 218.34 261.473 218.661 261.262C218.985 261.052 219.392 260.947 219.884 260.947C220.33 260.947 220.721 261.041 221.056 261.228C221.391 261.413 221.651 261.689 221.836 262.055C222.02 262.421 222.113 262.875 222.113 263.414V267.578H220.838V263.568C220.838 263.093 220.715 262.723 220.468 262.456C220.221 262.186 219.881 262.051 219.449 262.051C219.154 262.051 218.891 262.115 218.661 262.243C218.434 262.37 218.253 262.558 218.12 262.805C217.989 263.049 217.924 263.345 217.924 263.691ZM226.566 270.169C226.046 270.169 225.598 270.1 225.223 269.964C224.851 269.828 224.547 269.647 224.311 269.423C224.076 269.198 223.9 268.953 223.783 268.686L224.878 268.234C224.955 268.359 225.057 268.491 225.185 268.63C225.316 268.772 225.492 268.893 225.713 268.993C225.938 269.092 226.226 269.142 226.578 269.142C227.061 269.142 227.461 269.024 227.776 268.788C228.091 268.555 228.249 268.183 228.249 267.671V266.385H228.168C228.091 266.524 227.98 266.679 227.836 266.849C227.694 267.019 227.498 267.167 227.248 267.292C226.998 267.417 226.672 267.48 226.272 267.48C225.755 267.48 225.289 267.359 224.874 267.118C224.462 266.873 224.135 266.514 223.894 266.039C223.655 265.562 223.536 264.975 223.536 264.279C223.536 263.583 223.654 262.987 223.89 262.49C224.128 261.993 224.455 261.612 224.87 261.348C225.284 261.081 225.755 260.947 226.28 260.947C226.686 260.947 227.015 261.015 227.265 261.152C227.515 261.285 227.709 261.441 227.848 261.62C227.99 261.799 228.1 261.957 228.176 262.093H228.27V261.032H229.519V267.723C229.519 268.285 229.388 268.747 229.127 269.108C228.865 269.468 228.512 269.735 228.066 269.909C227.623 270.082 227.123 270.169 226.566 270.169ZM226.553 266.423C226.919 266.423 227.229 266.338 227.482 266.167C227.738 265.994 227.931 265.747 228.061 265.426C228.195 265.102 228.262 264.714 228.262 264.262C228.262 263.822 228.196 263.434 228.066 263.099C227.935 262.764 227.743 262.502 227.49 262.315C227.238 262.125 226.925 262.029 226.553 262.029C226.169 262.029 225.85 262.129 225.594 262.328C225.338 262.524 225.145 262.791 225.015 263.129C224.887 263.467 224.823 263.845 224.823 264.262C224.823 264.691 224.888 265.068 225.019 265.392C225.15 265.716 225.343 265.968 225.598 266.15C225.857 266.332 226.175 266.423 226.553 266.423Z" fill="#1A1A1A"/>
</g>
<g filter="url(#filter4_dd_2078_7078)">
<rect x="339.5" y="122.578" width="248" height="266.193" rx="9.24224" fill="white" shape-rendering="crispEdges"/>
<rect x="339.885" y="122.963" width="247.23" height="265.422" rx="8.85714" stroke="#D1D1D1" stroke-opacity="0.7" stroke-width="0.770186" shape-rendering="crispEdges"/>
<g filter="url(#filter5_dd_2078_7078)">
<rect x="348.742" y="137.981" width="118" height="25" rx="12.5" fill="#FBF5FF" shape-rendering="crispEdges"/>
<rect x="349.242" y="138.481" width="117" height="24" rx="12" stroke="#ECD6F8" shape-rendering="crispEdges"/>
<path d="M360.461 148.547C360.415 148.143 360.228 147.831 359.898 147.609C359.569 147.385 359.154 147.273 358.654 147.273C358.296 147.273 357.987 147.329 357.725 147.443C357.464 147.554 357.261 147.707 357.116 147.903C356.974 148.097 356.903 148.317 356.903 148.564C356.903 148.771 356.951 148.95 357.048 149.101C357.147 149.251 357.276 149.378 357.435 149.48C357.597 149.579 357.771 149.663 357.955 149.731C358.14 149.797 358.317 149.851 358.488 149.893L359.34 150.115C359.619 150.183 359.904 150.275 360.197 150.392C360.489 150.508 360.761 150.662 361.011 150.852C361.261 151.043 361.462 151.278 361.616 151.56C361.772 151.841 361.85 152.177 361.85 152.57C361.85 153.064 361.722 153.503 361.467 153.886C361.214 154.27 360.846 154.572 360.363 154.794C359.883 155.016 359.302 155.126 358.62 155.126C357.967 155.126 357.401 155.023 356.924 154.815C356.447 154.608 356.073 154.314 355.803 153.933C355.533 153.55 355.384 153.095 355.356 152.57H356.677C356.702 152.885 356.805 153.148 356.984 153.358C357.165 153.565 357.397 153.72 357.678 153.822C357.962 153.922 358.273 153.972 358.612 153.972C358.984 153.972 359.315 153.913 359.604 153.797C359.897 153.677 360.127 153.513 360.295 153.302C360.462 153.089 360.546 152.841 360.546 152.557C360.546 152.298 360.472 152.087 360.325 151.922C360.18 151.757 359.982 151.621 359.732 151.513C359.485 151.405 359.205 151.31 358.893 151.227L357.862 150.946C357.163 150.756 356.609 150.476 356.2 150.106C355.793 149.737 355.59 149.249 355.59 148.641C355.59 148.138 355.727 147.699 355.999 147.324C356.272 146.949 356.641 146.658 357.107 146.45C357.573 146.24 358.099 146.135 358.684 146.135C359.275 146.135 359.796 146.239 360.248 146.446C360.702 146.653 361.06 146.939 361.322 147.302C361.583 147.663 361.719 148.078 361.731 148.547H360.461ZM366.078 155.114C365.465 155.114 364.929 154.973 364.472 154.692C364.015 154.41 363.659 154.017 363.407 153.511C363.154 153.006 363.027 152.415 363.027 151.739C363.027 151.06 363.154 150.466 363.407 149.957C363.659 149.449 364.015 149.054 364.472 148.773C364.929 148.491 365.465 148.351 366.078 148.351C366.692 148.351 367.228 148.491 367.685 148.773C368.142 149.054 368.498 149.449 368.75 149.957C369.003 150.466 369.13 151.06 369.13 151.739C369.13 152.415 369.003 153.006 368.75 153.511C368.498 154.017 368.142 154.41 367.685 154.692C367.228 154.973 366.692 155.114 366.078 155.114ZM366.083 154.044C366.48 154.044 366.81 153.939 367.071 153.729C367.333 153.518 367.526 153.239 367.651 152.889C367.779 152.54 367.843 152.155 367.843 151.734C367.843 151.317 367.779 150.933 367.651 150.584C367.526 150.231 367.333 149.949 367.071 149.736C366.81 149.523 366.48 149.416 366.083 149.416C365.682 149.416 365.35 149.523 365.086 149.736C364.824 149.949 364.63 150.231 364.502 150.584C364.377 150.933 364.314 151.317 364.314 151.734C364.314 152.155 364.377 152.54 364.502 152.889C364.63 153.239 364.824 153.518 365.086 153.729C365.35 153.939 365.682 154.044 366.083 154.044ZM373.667 148.436V149.459H369.968V148.436H373.667ZM370.982 154.981V147.677C370.982 147.268 371.072 146.929 371.251 146.659C371.43 146.386 371.667 146.183 371.962 146.05C372.258 145.913 372.579 145.845 372.925 145.845C373.181 145.845 373.4 145.866 373.582 145.909C373.763 145.949 373.898 145.986 373.987 146.02L373.688 147.051C373.629 147.034 373.552 147.014 373.458 146.991C373.364 146.966 373.251 146.953 373.117 146.953C372.808 146.953 372.586 147.03 372.452 147.183C372.322 147.337 372.256 147.558 372.256 147.848V154.981H370.982ZM378.037 148.436V149.459H374.462V148.436H378.037ZM375.42 146.868H376.695V153.06C376.695 153.307 376.732 153.493 376.805 153.618C376.879 153.74 376.974 153.824 377.091 153.869C377.21 153.912 377.339 153.933 377.479 153.933C377.581 153.933 377.67 153.926 377.747 153.912C377.824 153.898 377.884 153.886 377.926 153.878L378.156 154.93C378.082 154.959 377.977 154.987 377.841 155.016C377.705 155.047 377.534 155.064 377.33 155.067C376.994 155.072 376.682 155.013 376.392 154.888C376.102 154.763 375.868 154.57 375.689 154.308C375.51 154.047 375.42 153.719 375.42 153.324V146.868ZM380.865 154.981L378.939 148.436H380.256L381.539 153.243H381.603L382.89 148.436H384.206L385.485 153.222H385.549L386.823 148.436H388.14L386.218 154.981H384.918L383.588 150.256H383.49L382.161 154.981H380.865ZM391.254 155.126C390.839 155.126 390.464 155.05 390.129 154.896C389.793 154.74 389.528 154.514 389.332 154.219C389.138 153.923 389.042 153.561 389.042 153.132C389.042 152.763 389.113 152.459 389.255 152.22C389.397 151.981 389.589 151.793 389.83 151.653C390.072 151.514 390.342 151.409 390.64 151.338C390.938 151.267 391.242 151.213 391.552 151.176C391.944 151.131 392.262 151.094 392.506 151.065C392.751 151.034 392.928 150.984 393.039 150.916C393.15 150.848 393.205 150.737 393.205 150.584V150.554C393.205 150.182 393.1 149.893 392.89 149.689C392.683 149.484 392.373 149.382 391.961 149.382C391.532 149.382 391.194 149.477 390.947 149.668C390.702 149.855 390.533 150.064 390.44 150.294L389.242 150.021C389.384 149.624 389.592 149.302 389.864 149.058C390.14 148.811 390.457 148.632 390.815 148.521C391.173 148.408 391.549 148.351 391.944 148.351C392.205 148.351 392.482 148.382 392.775 148.445C393.07 148.504 393.346 148.615 393.602 148.777C393.86 148.939 394.072 149.17 394.237 149.472C394.401 149.77 394.484 150.158 394.484 150.635V154.981H393.239V154.087H393.188C393.106 154.251 392.982 154.413 392.817 154.572C392.653 154.731 392.441 154.864 392.183 154.969C391.924 155.074 391.614 155.126 391.254 155.126ZM391.531 154.104C391.883 154.104 392.184 154.034 392.434 153.895C392.687 153.756 392.879 153.574 393.009 153.349C393.143 153.122 393.21 152.879 393.21 152.621V151.777C393.164 151.822 393.076 151.865 392.945 151.905C392.817 151.942 392.671 151.974 392.506 152.003C392.342 152.028 392.181 152.052 392.025 152.075C391.869 152.095 391.738 152.112 391.633 152.126C391.386 152.158 391.16 152.21 390.955 152.284C390.754 152.358 390.592 152.464 390.469 152.604C390.35 152.74 390.29 152.922 390.29 153.149C390.29 153.464 390.407 153.703 390.64 153.865C390.873 154.024 391.17 154.104 391.531 154.104ZM396.181 154.981V148.436H397.412V149.476H397.48C397.6 149.124 397.81 148.847 398.111 148.645C398.415 148.44 398.759 148.338 399.142 148.338C399.222 148.338 399.316 148.341 399.424 148.347C399.534 148.352 399.621 148.359 399.684 148.368V149.587C399.632 149.572 399.542 149.557 399.411 149.54C399.28 149.52 399.15 149.51 399.019 149.51C398.718 149.51 398.449 149.574 398.213 149.702C397.98 149.827 397.796 150.001 397.659 150.226C397.523 150.447 397.455 150.7 397.455 150.984V154.981H396.181ZM403.373 155.114C402.728 155.114 402.173 154.976 401.707 154.7C401.244 154.422 400.886 154.031 400.633 153.528C400.383 153.023 400.258 152.43 400.258 151.751C400.258 151.081 400.383 150.49 400.633 149.979C400.886 149.467 401.238 149.068 401.69 148.781C402.144 148.494 402.675 148.351 403.283 148.351C403.653 148.351 404.011 148.412 404.357 148.534C404.704 148.656 405.015 148.848 405.29 149.109C405.566 149.371 405.783 149.71 405.942 150.128C406.102 150.543 406.181 151.047 406.181 151.641V152.092H400.978V151.138H404.933C404.933 150.802 404.864 150.506 404.728 150.247C404.592 149.986 404.4 149.78 404.153 149.629C403.908 149.479 403.621 149.403 403.292 149.403C402.934 149.403 402.621 149.491 402.354 149.668C402.09 149.841 401.886 150.068 401.741 150.349C401.599 150.628 401.528 150.93 401.528 151.257V152.003C401.528 152.44 401.604 152.812 401.758 153.119C401.914 153.426 402.131 153.66 402.41 153.822C402.688 153.981 403.013 154.061 403.386 154.061C403.627 154.061 403.847 154.027 404.046 153.959C404.245 153.888 404.417 153.783 404.562 153.643C404.707 153.504 404.817 153.332 404.894 153.128L406.1 153.345C406.004 153.7 405.83 154.011 405.58 154.278C405.333 154.543 405.022 154.749 404.647 154.896C404.275 155.041 403.85 155.114 403.373 155.114ZM410.873 154.981V146.254H416.285V147.388H412.19V150.047H415.897V151.176H412.19V154.981H410.873ZM420.142 155.114C419.498 155.114 418.942 154.976 418.476 154.7C418.013 154.422 417.655 154.031 417.402 153.528C417.152 153.023 417.027 152.43 417.027 151.751C417.027 151.081 417.152 150.49 417.402 149.979C417.655 149.467 418.007 149.068 418.459 148.781C418.914 148.494 419.445 148.351 420.053 148.351C420.422 148.351 420.78 148.412 421.127 148.534C421.473 148.656 421.784 148.848 422.06 149.109C422.336 149.371 422.553 149.71 422.712 150.128C422.871 150.543 422.951 151.047 422.951 151.641V152.092H417.748V151.138H421.702C421.702 150.802 421.634 150.506 421.498 150.247C421.361 149.986 421.169 149.78 420.922 149.629C420.678 149.479 420.391 149.403 420.061 149.403C419.703 149.403 419.391 149.491 419.124 149.668C418.86 149.841 418.655 150.068 418.51 150.349C418.368 150.628 418.297 150.93 418.297 151.257V152.003C418.297 152.44 418.374 152.812 418.527 153.119C418.684 153.426 418.901 153.66 419.179 153.822C419.458 153.981 419.783 154.061 420.155 154.061C420.397 154.061 420.617 154.027 420.816 153.959C421.015 153.888 421.186 153.783 421.331 153.643C421.476 153.504 421.587 153.332 421.664 153.128L422.87 153.345C422.773 153.7 422.6 154.011 422.35 154.278C422.103 154.543 421.792 154.749 421.417 154.896C421.044 155.041 420.62 155.114 420.142 155.114ZM426.269 155.126C425.854 155.126 425.479 155.05 425.144 154.896C424.809 154.74 424.543 154.514 424.347 154.219C424.154 153.923 424.058 153.561 424.058 153.132C424.058 152.763 424.129 152.459 424.271 152.22C424.413 151.981 424.604 151.793 424.846 151.653C425.087 151.514 425.357 151.409 425.656 151.338C425.954 151.267 426.258 151.213 426.567 151.176C426.96 151.131 427.278 151.094 427.522 151.065C427.766 151.034 427.944 150.984 428.055 150.916C428.165 150.848 428.221 150.737 428.221 150.584V150.554C428.221 150.182 428.116 149.893 427.906 149.689C427.698 149.484 427.388 149.382 426.977 149.382C426.548 149.382 426.21 149.477 425.962 149.668C425.718 149.855 425.549 150.064 425.455 150.294L424.258 150.021C424.4 149.624 424.607 149.302 424.88 149.058C425.156 148.811 425.472 148.632 425.83 148.521C426.188 148.408 426.565 148.351 426.96 148.351C427.221 148.351 427.498 148.382 427.79 148.445C428.086 148.504 428.362 148.615 428.617 148.777C428.876 148.939 429.087 149.17 429.252 149.472C429.417 149.77 429.499 150.158 429.499 150.635V154.981H428.255V154.087H428.204C428.121 154.251 427.998 154.413 427.833 154.572C427.668 154.731 427.457 154.864 427.198 154.969C426.94 155.074 426.63 155.126 426.269 155.126ZM426.546 154.104C426.898 154.104 427.2 154.034 427.45 153.895C427.702 153.756 427.894 153.574 428.025 153.349C428.158 153.122 428.225 152.879 428.225 152.621V151.777C428.18 151.822 428.092 151.865 427.961 151.905C427.833 151.942 427.687 151.974 427.522 152.003C427.357 152.028 427.197 152.052 427.04 152.075C426.884 152.095 426.754 152.112 426.648 152.126C426.401 152.158 426.175 152.21 425.971 152.284C425.769 152.358 425.607 152.464 425.485 152.604C425.366 152.74 425.306 152.922 425.306 153.149C425.306 153.464 425.423 153.703 425.656 153.865C425.888 154.024 426.185 154.104 426.546 154.104ZM434.252 148.436V149.459H430.676V148.436H434.252ZM431.635 146.868H432.909V153.06C432.909 153.307 432.946 153.493 433.02 153.618C433.094 153.74 433.189 153.824 433.306 153.869C433.425 153.912 433.554 153.933 433.694 153.933C433.796 153.933 433.885 153.926 433.962 153.912C434.039 153.898 434.098 153.886 434.141 153.878L434.371 154.93C434.297 154.959 434.192 154.987 434.056 155.016C433.919 155.047 433.749 155.064 433.544 155.067C433.209 155.072 432.897 155.013 432.607 154.888C432.317 154.763 432.083 154.57 431.904 154.308C431.725 154.047 431.635 153.719 431.635 153.324V146.868ZM439.808 152.267V148.436H441.086V154.981H439.833V153.848H439.765C439.614 154.197 439.373 154.489 439.04 154.722C438.711 154.952 438.3 155.067 437.809 155.067C437.388 155.067 437.016 154.974 436.692 154.79C436.371 154.602 436.119 154.325 435.934 153.959C435.752 153.592 435.661 153.139 435.661 152.599V148.436H436.935V152.446C436.935 152.892 437.059 153.247 437.306 153.511C437.553 153.775 437.874 153.908 438.269 153.908C438.508 153.908 438.745 153.848 438.981 153.729C439.219 153.609 439.417 153.429 439.573 153.187C439.732 152.946 439.81 152.639 439.808 152.267ZM442.798 154.981V148.436H444.029V149.476H444.098C444.217 149.124 444.427 148.847 444.728 148.645C445.032 148.44 445.376 148.338 445.76 148.338C445.839 148.338 445.933 148.341 446.041 148.347C446.152 148.352 446.238 148.359 446.301 148.368V149.587C446.25 149.572 446.159 149.557 446.028 149.54C445.897 149.52 445.767 149.51 445.636 149.51C445.335 149.51 445.066 149.574 444.831 149.702C444.598 149.827 444.413 150.001 444.277 150.226C444.14 150.447 444.072 150.7 444.072 150.984V154.981H442.798ZM449.99 155.114C449.345 155.114 448.79 154.976 448.324 154.7C447.861 154.422 447.503 154.031 447.25 153.528C447 153.023 446.875 152.43 446.875 151.751C446.875 151.081 447 150.49 447.25 149.979C447.503 149.467 447.855 149.068 448.307 148.781C448.761 148.494 449.293 148.351 449.901 148.351C450.27 148.351 450.628 148.412 450.974 148.534C451.321 148.656 451.632 148.848 451.908 149.109C452.183 149.371 452.401 149.71 452.56 150.128C452.719 150.543 452.798 151.047 452.798 151.641V152.092H447.595V151.138H451.55C451.55 150.802 451.482 150.506 451.345 150.247C451.209 149.986 451.017 149.78 450.77 149.629C450.526 149.479 450.239 149.403 449.909 149.403C449.551 149.403 449.239 149.491 448.972 149.668C448.707 149.841 448.503 150.068 448.358 150.349C448.216 150.628 448.145 150.93 448.145 151.257V152.003C448.145 152.44 448.222 152.812 448.375 153.119C448.531 153.426 448.749 153.66 449.027 153.822C449.305 153.981 449.631 154.061 450.003 154.061C450.244 154.061 450.464 154.027 450.663 153.959C450.862 153.888 451.034 153.783 451.179 153.643C451.324 153.504 451.435 153.332 451.511 153.128L452.717 153.345C452.621 153.7 452.447 154.011 452.197 154.278C451.95 154.543 451.639 154.749 451.264 154.896C450.892 155.041 450.467 155.114 449.99 155.114ZM459.117 150.034L457.962 150.239C457.914 150.091 457.837 149.95 457.732 149.817C457.63 149.683 457.49 149.574 457.314 149.489C457.138 149.403 456.918 149.361 456.654 149.361C456.293 149.361 455.992 149.442 455.75 149.604C455.509 149.763 455.388 149.969 455.388 150.222C455.388 150.44 455.469 150.616 455.631 150.75C455.793 150.883 456.054 150.993 456.415 151.078L457.455 151.317C458.057 151.456 458.506 151.67 458.801 151.96C459.097 152.25 459.245 152.626 459.245 153.089C459.245 153.481 459.131 153.831 458.904 154.138C458.679 154.442 458.365 154.68 457.962 154.854C457.561 155.027 457.097 155.114 456.569 155.114C455.836 155.114 455.238 154.957 454.775 154.645C454.311 154.329 454.027 153.882 453.922 153.302L455.154 153.115C455.23 153.436 455.388 153.679 455.627 153.844C455.865 154.006 456.176 154.087 456.56 154.087C456.978 154.087 457.311 154 457.561 153.827C457.811 153.65 457.936 153.436 457.936 153.183C457.936 152.979 457.86 152.807 457.706 152.668C457.556 152.528 457.324 152.423 457.012 152.352L455.904 152.109C455.293 151.97 454.841 151.749 454.549 151.445C454.259 151.141 454.114 150.756 454.114 150.29C454.114 149.903 454.222 149.565 454.438 149.275C454.654 148.986 454.952 148.76 455.333 148.598C455.713 148.433 456.15 148.351 456.641 148.351C457.348 148.351 457.905 148.504 458.311 148.811C458.718 149.115 458.986 149.523 459.117 150.034Z" fill="#9E32DD"/>
</g>
<g clip-path="url(#clip0_2078_7078)">
<path d="M377.206 315.583H578.258" stroke="#E3E3E8" stroke-width="0.770186"/>
<path d="M377.206 283.19H578.258" stroke="#E3E3E8" stroke-width="0.770186"/>
<path d="M377.206 250.796H578.258" stroke="#E3E3E8" stroke-width="0.770186"/>
<path d="M377.206 219.234H578.258" stroke="#E3E3E8" stroke-width="0.770186"/>
<path d="M377.205 186.841H578.258" stroke="#E3E3E8" stroke-width="0.770186"/>
<path d="M377.606 315.583H485.69" stroke="#D1D1D1" stroke-width="0.770186"/>
<path d="M383.903 334.868L382.065 328.147H382.892L384.296 333.621H384.362L385.793 328.147H386.712L388.143 333.621H388.209L389.613 328.147H390.44L388.603 334.868H387.762L386.279 329.512H386.226L384.743 334.868H383.903ZM392.994 334.973C392.508 334.973 392.089 334.866 391.737 334.652C391.387 334.435 391.117 334.133 390.926 333.746C390.738 333.356 390.644 332.903 390.644 332.387C390.644 331.871 390.738 331.416 390.926 331.022C391.117 330.626 391.381 330.317 391.72 330.096C392.062 329.873 392.46 329.761 392.915 329.761C393.178 329.761 393.437 329.805 393.693 329.893C393.949 329.98 394.182 330.122 394.392 330.319C394.602 330.514 394.769 330.772 394.894 331.094C395.019 331.416 395.081 331.812 395.081 332.282V332.61H391.195V331.941H394.294C394.294 331.656 394.237 331.402 394.123 331.179C394.011 330.956 393.852 330.78 393.644 330.651C393.438 330.522 393.195 330.457 392.915 330.457C392.607 330.457 392.34 330.534 392.114 330.687C391.891 330.838 391.719 331.035 391.599 331.278C391.479 331.521 391.418 331.781 391.418 332.059V332.505C391.418 332.886 391.484 333.209 391.615 333.473C391.749 333.736 391.934 333.936 392.17 334.074C392.406 334.21 392.681 334.277 392.994 334.277C393.197 334.277 393.381 334.249 393.545 334.192C393.712 334.133 393.855 334.046 393.975 333.93C394.096 333.811 394.189 333.665 394.254 333.49L395.002 333.7C394.924 333.954 394.791 334.177 394.605 334.369C394.419 334.56 394.19 334.708 393.916 334.816C393.643 334.921 393.335 334.973 392.994 334.973ZM398.373 334.973C397.887 334.973 397.468 334.866 397.116 334.652C396.766 334.435 396.496 334.133 396.305 333.746C396.117 333.356 396.023 332.903 396.023 332.387C396.023 331.871 396.117 331.416 396.305 331.022C396.496 330.626 396.761 330.317 397.1 330.096C397.441 329.873 397.839 329.761 398.294 329.761C398.557 329.761 398.816 329.805 399.072 329.893C399.328 329.98 399.561 330.122 399.771 330.319C399.981 330.514 400.149 330.772 400.273 331.094C400.398 331.416 400.461 331.812 400.461 332.282V332.61H396.575V331.941H399.673C399.673 331.656 399.616 331.402 399.502 331.179C399.391 330.956 399.231 330.78 399.023 330.651C398.817 330.522 398.574 330.457 398.294 330.457C397.986 330.457 397.719 330.534 397.494 330.687C397.27 330.838 397.099 331.035 396.978 331.278C396.858 331.521 396.798 331.781 396.798 332.059V332.505C396.798 332.886 396.863 333.209 396.995 333.473C397.128 333.736 397.313 333.936 397.549 334.074C397.786 334.21 398.06 334.277 398.373 334.277C398.577 334.277 398.76 334.249 398.925 334.192C399.091 334.133 399.234 334.046 399.354 333.93C399.475 333.811 399.568 333.665 399.633 333.49L400.382 333.7C400.303 333.954 400.171 334.177 399.985 334.369C399.799 334.56 399.569 334.708 399.295 334.816C399.022 334.921 398.714 334.973 398.373 334.973ZM402.361 333.03L402.348 332.072H402.505L404.711 329.827H405.669L403.319 332.203H403.254L402.361 333.03ZM401.639 334.868V328.147H402.413V334.868H401.639ZM404.842 334.868L402.873 332.374L403.424 331.836L405.827 334.868H404.842ZM411.615 328.147V334.868H410.801V329H410.762L409.121 330.09V329.262L410.801 328.147H411.615Z" fill="#515A65"/>
<path d="M430.873 335.368L428.913 328.198H429.795L431.293 334.038H431.363L432.89 328.198H433.87L435.396 334.038H435.466L436.965 328.198H437.847L435.887 335.368H434.99L433.408 329.655H433.352L431.77 335.368H430.873ZM440.571 335.48C440.053 335.48 439.606 335.366 439.23 335.137C438.856 334.906 438.568 334.584 438.365 334.171C438.164 333.756 438.064 333.272 438.064 332.722C438.064 332.171 438.164 331.685 438.365 331.265C438.568 330.843 438.851 330.514 439.212 330.278C439.576 330.04 440.001 329.921 440.487 329.921C440.767 329.921 441.043 329.968 441.316 330.061C441.589 330.154 441.838 330.306 442.062 330.516C442.286 330.724 442.465 330.999 442.598 331.342C442.731 331.685 442.797 332.108 442.797 332.61V332.96H438.652V332.245H441.957C441.957 331.942 441.896 331.671 441.775 331.433C441.656 331.195 441.486 331.007 441.264 330.87C441.044 330.732 440.785 330.663 440.487 330.663C440.158 330.663 439.873 330.745 439.632 330.908C439.394 331.069 439.211 331.279 439.083 331.538C438.954 331.797 438.89 332.075 438.89 332.372V332.848C438.89 333.254 438.96 333.598 439.1 333.88C439.243 334.16 439.44 334.374 439.692 334.521C439.944 334.666 440.237 334.738 440.571 334.738C440.788 334.738 440.984 334.708 441.159 334.647C441.336 334.584 441.489 334.491 441.617 334.367C441.746 334.241 441.845 334.085 441.915 333.898L442.713 334.122C442.629 334.393 442.488 334.631 442.29 334.836C442.091 335.039 441.846 335.198 441.554 335.312C441.263 335.424 440.935 335.48 440.571 335.48ZM446.309 335.48C445.79 335.48 445.343 335.366 444.968 335.137C444.594 334.906 444.306 334.584 444.103 334.171C443.902 333.756 443.802 333.272 443.802 332.722C443.802 332.171 443.902 331.685 444.103 331.265C444.306 330.843 444.588 330.514 444.95 330.278C445.314 330.04 445.739 329.921 446.225 329.921C446.505 329.921 446.781 329.968 447.054 330.061C447.327 330.154 447.576 330.306 447.8 330.516C448.024 330.724 448.203 330.999 448.336 331.342C448.469 331.685 448.535 332.108 448.535 332.61V332.96H444.39V332.245H447.695C447.695 331.942 447.634 331.671 447.513 331.433C447.394 331.195 447.223 331.007 447.002 330.87C446.782 330.732 446.523 330.663 446.225 330.663C445.895 330.663 445.611 330.745 445.37 330.908C445.132 331.069 444.949 331.279 444.821 331.538C444.692 331.797 444.628 332.075 444.628 332.372V332.848C444.628 333.254 444.698 333.598 444.838 333.88C444.981 334.16 445.178 334.374 445.43 334.521C445.682 334.666 445.975 334.738 446.309 334.738C446.526 334.738 446.722 334.708 446.897 334.647C447.074 334.584 447.227 334.491 447.355 334.367C447.484 334.241 447.583 334.085 447.653 333.898L448.451 334.122C448.367 334.393 448.226 334.631 448.027 334.836C447.829 335.039 447.584 335.198 447.292 335.312C447.001 335.424 446.673 335.48 446.309 335.48ZM450.562 333.408L450.548 332.386H450.716L453.069 329.991H454.091L451.584 332.526H451.514L450.562 333.408ZM449.792 335.368V328.198H450.618V335.368H449.792ZM453.209 335.368L451.108 332.708L451.696 332.133L454.259 335.368H453.209ZM457.913 335.368V334.738L460.28 332.147C460.557 331.844 460.786 331.58 460.966 331.356C461.145 331.13 461.278 330.917 461.365 330.719C461.454 330.518 461.498 330.308 461.498 330.089C461.498 329.837 461.437 329.619 461.316 329.434C461.197 329.25 461.033 329.108 460.826 329.007C460.618 328.907 460.385 328.857 460.126 328.857C459.85 328.857 459.61 328.914 459.404 329.028C459.201 329.14 459.044 329.298 458.932 329.501C458.822 329.704 458.767 329.942 458.767 330.215H457.941C457.941 329.795 458.038 329.426 458.232 329.109C458.425 328.791 458.689 328.544 459.023 328.367C459.359 328.189 459.736 328.1 460.154 328.1C460.574 328.1 460.946 328.189 461.27 328.367C461.595 328.544 461.849 328.783 462.033 329.084C462.218 329.385 462.31 329.72 462.31 330.089C462.31 330.353 462.262 330.611 462.167 330.863C462.073 331.112 461.91 331.391 461.676 331.699C461.445 332.005 461.124 332.379 460.714 332.82L459.103 334.542V334.598H462.436V335.368H457.913Z" fill="#515A65"/>
<path d="M481.231 334.868L479.393 328.147H480.22L481.624 333.621H481.69L483.121 328.147H484.04L485.471 333.621H485.537L486.941 328.147H487.768L485.93 334.868H485.09L483.607 329.512H483.554L482.071 334.868H481.231ZM490.322 334.973C489.836 334.973 489.417 334.866 489.065 334.652C488.715 334.435 488.444 334.133 488.254 333.746C488.066 333.356 487.972 332.903 487.972 332.387C487.972 331.871 488.066 331.416 488.254 331.022C488.444 330.626 488.709 330.317 489.048 330.096C489.39 329.873 489.788 329.761 490.243 329.761C490.506 329.761 490.765 329.805 491.021 329.893C491.277 329.98 491.51 330.122 491.72 330.319C491.93 330.514 492.097 330.772 492.222 331.094C492.347 331.416 492.409 331.812 492.409 332.282V332.61H488.523V331.941H491.622C491.622 331.656 491.565 331.402 491.451 331.179C491.339 330.956 491.18 330.78 490.972 330.651C490.766 330.522 490.523 330.457 490.243 330.457C489.935 330.457 489.668 330.534 489.442 330.687C489.219 330.838 489.047 331.035 488.927 331.278C488.807 331.521 488.746 331.781 488.746 332.059V332.505C488.746 332.886 488.812 333.209 488.943 333.473C489.077 333.736 489.262 333.936 489.498 334.074C489.734 334.21 490.009 334.277 490.322 334.277C490.525 334.277 490.709 334.249 490.873 334.192C491.039 334.133 491.183 334.046 491.303 333.93C491.423 333.811 491.516 333.665 491.582 333.49L492.33 333.7C492.252 333.954 492.119 334.177 491.933 334.369C491.747 334.56 491.518 334.708 491.244 334.816C490.971 334.921 490.663 334.973 490.322 334.973ZM495.701 334.973C495.215 334.973 494.796 334.866 494.444 334.652C494.094 334.435 493.824 334.133 493.633 333.746C493.445 333.356 493.351 332.903 493.351 332.387C493.351 331.871 493.445 331.416 493.633 331.022C493.824 330.626 494.089 330.317 494.428 330.096C494.769 329.873 495.167 329.761 495.622 329.761C495.885 329.761 496.144 329.805 496.4 329.893C496.656 329.98 496.889 330.122 497.099 330.319C497.309 330.514 497.477 330.772 497.601 331.094C497.726 331.416 497.788 331.812 497.788 332.282V332.61H493.903V331.941H497.001C497.001 331.656 496.944 331.402 496.83 331.179C496.719 330.956 496.559 330.78 496.351 330.651C496.145 330.522 495.902 330.457 495.622 330.457C495.314 330.457 495.047 330.534 494.822 330.687C494.598 330.838 494.427 331.035 494.306 331.278C494.186 331.521 494.126 331.781 494.126 332.059V332.505C494.126 332.886 494.191 333.209 494.323 333.473C494.456 333.736 494.641 333.936 494.877 334.074C495.114 334.21 495.388 334.277 495.701 334.277C495.905 334.277 496.088 334.249 496.252 334.192C496.419 334.133 496.562 334.046 496.682 333.93C496.803 333.811 496.896 333.665 496.961 333.49L497.71 333.7C497.631 333.954 497.499 334.177 497.313 334.369C497.127 334.56 496.897 334.708 496.623 334.816C496.35 334.921 496.042 334.973 495.701 334.973ZM499.689 333.03L499.676 332.072H499.833L502.039 329.827H502.997L500.647 332.203H500.581L499.689 333.03ZM498.967 334.868V328.147H499.741V334.868H498.967ZM502.17 334.868L500.201 332.374L500.752 331.836L503.155 334.868H502.17ZM508.851 334.96C508.418 334.96 508.032 334.886 507.693 334.737C507.356 334.588 507.088 334.381 506.889 334.117C506.692 333.85 506.585 333.54 506.567 333.188H507.394C507.412 333.404 507.486 333.592 507.617 333.749C507.749 333.904 507.92 334.025 508.133 334.11C508.345 334.195 508.58 334.238 508.838 334.238C509.127 334.238 509.383 334.188 509.606 334.087C509.829 333.986 510.005 333.846 510.131 333.667C510.258 333.488 510.322 333.28 510.322 333.043C510.322 332.796 510.261 332.578 510.138 332.39C510.015 332.2 509.836 332.051 509.6 331.944C509.363 331.837 509.075 331.783 508.733 331.783H508.195V331.061H508.733C509 331.061 509.234 331.013 509.436 330.917C509.639 330.82 509.798 330.685 509.912 330.51C510.027 330.335 510.085 330.129 510.085 329.893C510.085 329.665 510.035 329.467 509.934 329.299C509.834 329.13 509.692 328.999 509.508 328.905C509.326 328.811 509.112 328.764 508.865 328.764C508.633 328.764 508.414 328.806 508.208 328.892C508.005 328.975 507.838 329.096 507.709 329.256C507.58 329.413 507.51 329.604 507.499 329.827H506.712C506.725 329.475 506.831 329.166 507.03 328.901C507.229 328.635 507.489 328.427 507.811 328.278C508.135 328.129 508.49 328.055 508.878 328.055C509.293 328.055 509.65 328.139 509.948 328.307C510.245 328.474 510.474 328.694 510.634 328.967C510.793 329.241 510.873 329.536 510.873 329.853C510.873 330.232 510.774 330.555 510.574 330.821C510.378 331.088 510.11 331.273 509.77 331.376V331.429C510.195 331.499 510.526 331.679 510.765 331.97C511.003 332.259 511.123 332.617 511.123 333.043C511.123 333.409 511.023 333.737 510.824 334.028C510.627 334.317 510.358 334.544 510.017 334.711C509.675 334.877 509.287 334.96 508.851 334.96Z" fill="#515A65"/>
<path d="M529.769 334.868L527.931 328.147H528.758L530.163 333.621H530.229L531.659 328.147H532.578L534.009 333.621H534.075L535.48 328.147H536.307L534.469 334.868H533.629L532.145 329.512H532.093L530.609 334.868H529.769ZM538.86 334.973C538.375 334.973 537.956 334.866 537.603 334.652C537.253 334.435 536.983 334.133 536.793 333.746C536.604 333.356 536.51 332.903 536.51 332.387C536.51 331.871 536.604 331.416 536.793 331.022C536.983 330.626 537.248 330.317 537.587 330.096C537.928 329.873 538.326 329.761 538.782 329.761C539.044 329.761 539.303 329.805 539.559 329.893C539.815 329.98 540.048 330.122 540.258 330.319C540.468 330.514 540.636 330.772 540.761 331.094C540.885 331.416 540.948 331.812 540.948 332.282V332.61H537.062V331.941H540.16C540.16 331.656 540.103 331.402 539.989 331.179C539.878 330.956 539.718 330.78 539.51 330.651C539.304 330.522 539.062 330.457 538.782 330.457C538.473 330.457 538.206 330.534 537.981 330.687C537.758 330.838 537.586 331.035 537.465 331.278C537.345 331.521 537.285 331.781 537.285 332.059V332.505C537.285 332.886 537.351 333.209 537.482 333.473C537.615 333.736 537.8 333.936 538.036 334.074C538.273 334.21 538.547 334.277 538.86 334.277C539.064 334.277 539.248 334.249 539.412 334.192C539.578 334.133 539.721 334.046 539.842 333.93C539.962 333.811 540.055 333.665 540.121 333.49L540.869 333.7C540.79 333.954 540.658 334.177 540.472 334.369C540.286 334.56 540.056 334.708 539.783 334.816C539.509 334.921 539.202 334.973 538.86 334.973ZM544.24 334.973C543.754 334.973 543.335 334.866 542.983 334.652C542.632 334.435 542.362 334.133 542.172 333.746C541.984 333.356 541.89 332.903 541.89 332.387C541.89 331.871 541.984 331.416 542.172 331.022C542.362 330.626 542.627 330.317 542.966 330.096C543.307 329.873 543.706 329.761 544.161 329.761C544.423 329.761 544.683 329.805 544.939 329.893C545.195 329.98 545.428 330.122 545.638 330.319C545.848 330.514 546.015 330.772 546.14 331.094C546.265 331.416 546.327 331.812 546.327 332.282V332.61H542.441V331.941H545.539C545.539 331.656 545.482 331.402 545.369 331.179C545.257 330.956 545.097 330.78 544.889 330.651C544.684 330.522 544.441 330.457 544.161 330.457C543.852 330.457 543.585 330.534 543.36 330.687C543.137 330.838 542.965 331.035 542.845 331.278C542.724 331.521 542.664 331.781 542.664 332.059V332.505C542.664 332.886 542.73 333.209 542.861 333.473C542.995 333.736 543.179 333.936 543.416 334.074C543.652 334.21 543.927 334.277 544.24 334.277C544.443 334.277 544.627 334.249 544.791 334.192C544.957 334.133 545.101 334.046 545.221 333.93C545.341 333.811 545.434 333.665 545.5 333.49L546.248 333.7C546.169 333.954 546.037 334.177 545.851 334.369C545.665 334.56 545.435 334.708 545.162 334.816C544.888 334.921 544.581 334.973 544.24 334.973ZM548.227 333.03L548.214 332.072H548.372L550.577 329.827H551.536L549.186 332.203H549.12L548.227 333.03ZM547.505 334.868V328.147H548.28V334.868H547.505ZM550.708 334.868L548.739 332.374L549.291 331.836L551.693 334.868H550.708ZM554.961 333.49V332.82L557.915 328.147H558.401V329.184H558.073L555.841 332.715V332.768H559.819V333.49H554.961ZM558.125 334.868V333.286V332.974V328.147H558.9V334.868H558.125Z" fill="#515A65"/>
<path d="M365.375 317.119C364.88 317.119 364.459 316.985 364.111 316.715C363.763 316.444 363.498 316.051 363.314 315.537C363.13 315.021 363.038 314.397 363.038 313.666C363.038 312.94 363.13 312.32 363.314 311.805C363.5 311.289 363.767 310.895 364.115 310.624C364.465 310.35 364.885 310.214 365.375 310.214C365.865 310.214 366.284 310.35 366.632 310.624C366.982 310.895 367.249 311.289 367.433 311.805C367.619 312.32 367.712 312.94 367.712 313.666C367.712 314.397 367.62 315.021 367.436 315.537C367.252 316.051 366.986 316.444 366.639 316.715C366.291 316.985 365.869 317.119 365.375 317.119ZM365.375 316.397C365.865 316.397 366.246 316.161 366.517 315.688C366.788 315.216 366.924 314.542 366.924 313.666C366.924 313.084 366.862 312.589 366.737 312.18C366.614 311.77 366.437 311.459 366.205 311.244C365.976 311.03 365.699 310.923 365.375 310.923C364.889 310.923 364.51 311.162 364.236 311.641C363.963 312.118 363.826 312.793 363.826 313.666C363.826 314.248 363.887 314.743 364.01 315.15C364.132 315.557 364.308 315.866 364.538 316.079C364.77 316.291 365.049 316.397 365.375 316.397Z" fill="#515A65"/>
<path d="M362.871 284.086V283.417L365.825 278.743H366.311V279.78H365.983L363.751 283.312V283.364H367.729V284.086H362.871ZM366.035 285.465V283.883V283.571V278.743H366.81V285.465H366.035Z" fill="#515A65"/>
<path d="M365.808 253.164C365.357 253.164 364.959 253.084 364.613 252.924C364.27 252.762 364.002 252.54 363.809 252.258C363.616 251.973 363.521 251.649 363.523 251.286C363.521 251.002 363.577 250.739 363.691 250.499C363.805 250.256 363.96 250.053 364.157 249.891C364.356 249.727 364.578 249.623 364.823 249.58V249.54C364.501 249.457 364.245 249.277 364.055 248.999C363.865 248.719 363.771 248.4 363.773 248.044C363.771 247.702 363.857 247.397 364.032 247.128C364.207 246.859 364.448 246.647 364.754 246.491C365.063 246.336 365.414 246.258 365.808 246.258C366.197 246.258 366.545 246.336 366.851 246.491C367.158 246.647 367.398 246.859 367.573 247.128C367.751 247.397 367.84 247.702 367.843 248.044C367.84 248.4 367.743 248.719 367.55 248.999C367.36 249.277 367.107 249.457 366.792 249.54V249.58C367.035 249.623 367.254 249.727 367.449 249.891C367.643 250.053 367.799 250.256 367.915 250.499C368.031 250.739 368.09 251.002 368.092 251.286C368.09 251.649 367.991 251.973 367.797 252.258C367.604 252.54 367.336 252.762 366.993 252.924C366.651 253.084 366.256 253.164 365.808 253.164ZM365.808 252.442C366.112 252.442 366.374 252.392 366.595 252.294C366.816 252.195 366.987 252.056 367.107 251.877C367.228 251.698 367.289 251.488 367.291 251.247C367.289 250.993 367.223 250.769 367.094 250.574C366.965 250.379 366.789 250.226 366.566 250.115C366.345 250.003 366.092 249.947 365.808 249.947C365.521 249.947 365.265 250.003 365.04 250.115C364.817 250.226 364.64 250.379 364.511 250.574C364.384 250.769 364.322 250.993 364.324 251.247C364.322 251.488 364.38 251.698 364.498 251.877C364.619 252.056 364.79 252.195 365.013 252.294C365.237 252.392 365.501 252.442 365.808 252.442ZM365.808 249.251C366.048 249.251 366.262 249.203 366.448 249.107C366.636 249.011 366.784 248.876 366.891 248.703C366.998 248.53 367.053 248.328 367.055 248.096C367.053 247.869 366.999 247.671 366.894 247.502C366.789 247.331 366.644 247.2 366.458 247.108C366.272 247.014 366.055 246.967 365.808 246.967C365.556 246.967 365.336 247.014 365.148 247.108C364.96 247.2 364.814 247.331 364.712 247.502C364.609 247.671 364.558 247.869 364.561 248.096C364.558 248.328 364.61 248.53 364.715 248.703C364.822 248.876 364.97 249.011 365.158 249.107C365.346 249.203 365.563 249.251 365.808 249.251Z" fill="#515A65"/>
<path d="M361.821 214.787V221.509H361.007V215.641H360.968L359.327 216.73V215.903L361.007 214.787H361.821ZM363.754 221.509V220.918L365.973 218.49C366.233 218.205 366.447 217.958 366.616 217.748C366.784 217.536 366.909 217.336 366.99 217.151C367.073 216.962 367.115 216.765 367.115 216.56C367.115 216.323 367.058 216.119 366.944 215.946C366.833 215.773 366.679 215.64 366.485 215.546C366.29 215.452 366.071 215.404 365.828 215.404C365.57 215.404 365.345 215.458 365.152 215.565C364.962 215.67 364.814 215.818 364.709 216.008C364.606 216.199 364.555 216.422 364.555 216.678H363.78C363.78 216.284 363.871 215.938 364.053 215.641C364.234 215.343 364.482 215.111 364.794 214.945C365.109 214.779 365.463 214.696 365.854 214.696C366.248 214.696 366.597 214.779 366.901 214.945C367.206 215.111 367.444 215.336 367.617 215.618C367.79 215.9 367.876 216.214 367.876 216.56C367.876 216.807 367.831 217.049 367.742 217.285C367.654 217.519 367.501 217.781 367.282 218.069C367.066 218.356 366.765 218.706 366.38 219.12L364.87 220.735V220.787H367.994V221.509H363.754Z" fill="#515A65"/>
<path d="M361.649 182.394V189.116H360.835V183.247H360.795L359.154 184.337V183.51L360.835 182.394H361.649ZM365.814 189.208C365.538 189.203 365.262 189.151 364.987 189.05C364.711 188.949 364.459 188.78 364.232 188.541C364.004 188.301 363.821 187.976 363.684 187.567C363.546 187.155 363.477 186.639 363.477 186.017C363.477 185.422 363.533 184.895 363.644 184.436C363.756 183.974 363.918 183.585 364.13 183.27C364.342 182.953 364.598 182.712 364.898 182.548C365.2 182.384 365.54 182.302 365.919 182.302C366.295 182.302 366.63 182.378 366.923 182.529C367.218 182.677 367.459 182.885 367.645 183.152C367.831 183.419 367.951 183.727 368.006 184.075H367.205C367.131 183.773 366.986 183.522 366.772 183.323C366.558 183.124 366.273 183.024 365.919 183.024C365.398 183.024 364.988 183.251 364.688 183.704C364.39 184.157 364.241 184.792 364.238 185.61H364.291C364.413 185.425 364.559 185.266 364.727 185.135C364.898 185.001 365.086 184.898 365.292 184.826C365.498 184.754 365.715 184.718 365.945 184.718C366.33 184.718 366.682 184.814 367.002 185.007C367.321 185.197 367.577 185.461 367.77 185.798C367.962 186.132 368.059 186.516 368.059 186.95C368.059 187.365 367.966 187.746 367.78 188.092C367.594 188.435 367.332 188.709 366.995 188.912C366.66 189.114 366.267 189.212 365.814 189.208ZM365.814 188.486C366.089 188.486 366.337 188.417 366.555 188.279C366.776 188.141 366.95 187.956 367.077 187.724C367.206 187.492 367.271 187.234 367.271 186.95C367.271 186.672 367.209 186.419 367.084 186.191C366.961 185.962 366.792 185.779 366.575 185.643C366.361 185.508 366.116 185.44 365.84 185.44C365.632 185.44 365.438 185.481 365.259 185.565C365.08 185.646 364.922 185.757 364.786 185.899C364.653 186.042 364.548 186.205 364.471 186.388C364.395 186.57 364.356 186.761 364.356 186.963C364.356 187.23 364.419 187.479 364.544 187.711C364.67 187.943 364.843 188.13 365.062 188.272C365.283 188.414 365.534 188.486 365.814 188.486Z" fill="#515A65"/>
<rect x="382.631" y="185.464" width="11.5528" height="130.161" fill="#9E32DD"/>
<rect x="394.184" y="203.179" width="13.0932" height="112.447" fill="#D8ADF1"/>
<rect x="435.004" y="238.607" width="11.5528" height="77.0186" fill="#9E32DD"/>
<rect x="446.557" y="254.781" width="13.0932" height="60.8447" fill="#D8ADF1"/>
<rect x="487.376" y="238.607" width="11.5528" height="77.0186" fill="#9E32DD"/>
<rect x="498.929" y="204.719" width="13.0932" height="110.907" fill="#D8ADF1"/>
<rect x="539.749" y="224.744" width="11.5528" height="90.882" fill="#9E32DD"/>
<rect x="551.302" y="278.657" width="13.0932" height="36.9689" fill="#D8ADF1"/>
</g>
<rect x="403.705" y="358.395" width="10.7826" height="10.7826" rx="5.3913" fill="#9E32DD"/>
<path d="M422.023 367.286H419.847V360.564H422.092C422.751 360.564 423.316 360.699 423.789 360.968C424.262 361.235 424.624 361.619 424.875 362.12C425.129 362.619 425.256 363.217 425.256 363.915C425.256 364.615 425.128 365.217 424.872 365.72C424.618 366.224 424.251 366.611 423.769 366.882C423.288 367.151 422.706 367.286 422.023 367.286ZM420.861 366.4H421.967C422.479 366.4 422.905 366.303 423.244 366.111C423.583 365.916 423.837 365.635 424.006 365.267C424.174 364.898 424.258 364.447 424.258 363.915C424.258 363.388 424.174 362.94 424.006 362.573C423.839 362.205 423.591 361.926 423.261 361.736C422.93 361.546 422.52 361.45 422.03 361.45H420.861V366.4ZM428.611 367.388C428.114 367.388 427.687 367.281 427.328 367.069C426.971 366.855 426.695 366.554 426.501 366.167C426.308 365.777 426.212 365.321 426.212 364.798C426.212 364.282 426.308 363.827 426.501 363.433C426.695 363.039 426.967 362.731 427.315 362.51C427.665 362.289 428.074 362.179 428.542 362.179C428.827 362.179 429.102 362.226 429.369 362.32C429.636 362.414 429.876 362.562 430.088 362.763C430.3 362.964 430.468 363.226 430.59 363.548C430.713 363.867 430.774 364.255 430.774 364.713V365.061H426.767V364.325H429.812C429.812 364.067 429.76 363.839 429.655 363.639C429.55 363.438 429.402 363.28 429.212 363.164C429.024 363.048 428.803 362.99 428.549 362.99C428.273 362.99 428.032 363.057 427.827 363.193C427.623 363.327 427.466 363.502 427.354 363.718C427.245 363.933 427.19 364.166 427.19 364.417V364.992C427.19 365.329 427.249 365.615 427.367 365.852C427.488 366.088 427.655 366.268 427.869 366.393C428.084 366.516 428.334 366.577 428.621 366.577C428.807 366.577 428.977 366.551 429.13 366.498C429.283 366.443 429.415 366.362 429.527 366.255C429.638 366.148 429.724 366.016 429.783 365.858L430.712 366.026C430.637 366.299 430.504 366.539 430.311 366.744C430.121 366.948 429.881 367.106 429.592 367.22C429.306 367.332 428.979 367.388 428.611 367.388ZM432.844 360.564V367.286H431.863V360.564H432.844ZM434.164 367.286V362.245H435.146V367.286H434.164ZM434.66 361.467C434.489 361.467 434.343 361.41 434.22 361.296C434.1 361.18 434.04 361.042 434.04 360.883C434.04 360.721 434.1 360.583 434.22 360.469C434.343 360.353 434.489 360.295 434.66 360.295C434.831 360.295 434.976 360.353 435.096 360.469C435.219 360.583 435.28 360.721 435.28 360.883C435.28 361.042 435.219 361.18 435.096 361.296C434.976 361.41 434.831 361.467 434.66 361.467ZM440.778 362.245L438.95 367.286H437.9L436.069 362.245H437.122L438.399 366.124H438.451L439.725 362.245H440.778ZM443.702 367.388C443.205 367.388 442.777 367.281 442.419 367.069C442.062 366.855 441.786 366.554 441.592 366.167C441.399 365.777 441.303 365.321 441.303 364.798C441.303 364.282 441.399 363.827 441.592 363.433C441.786 363.039 442.058 362.731 442.406 362.51C442.756 362.289 443.165 362.179 443.633 362.179C443.917 362.179 444.193 362.226 444.46 362.32C444.727 362.414 444.967 362.562 445.179 362.763C445.391 362.964 445.558 363.226 445.681 363.548C445.804 363.867 445.865 364.255 445.865 364.713V365.061H441.857V364.325H444.903C444.903 364.067 444.851 363.839 444.746 363.639C444.641 363.438 444.493 363.28 444.303 363.164C444.114 363.048 443.893 362.99 443.64 362.99C443.364 362.99 443.123 363.057 442.918 363.193C442.714 363.327 442.557 363.502 442.445 363.718C442.336 363.933 442.281 364.166 442.281 364.417V364.992C442.281 365.329 442.34 365.615 442.458 365.852C442.578 366.088 442.746 366.268 442.96 366.393C443.175 366.516 443.425 366.577 443.712 366.577C443.898 366.577 444.067 366.551 444.221 366.498C444.374 366.443 444.506 366.362 444.618 366.255C444.729 366.148 444.815 366.016 444.874 365.858L445.802 366.026C445.728 366.299 445.595 366.539 445.402 366.744C445.212 366.948 444.972 367.106 444.683 367.22C444.397 367.332 444.07 367.388 443.702 367.388ZM446.954 367.286V362.245H447.902V363.045H447.955C448.047 362.774 448.208 362.561 448.44 362.405C448.675 362.248 448.939 362.169 449.235 362.169C449.296 362.169 449.368 362.171 449.451 362.176C449.537 362.18 449.603 362.186 449.651 362.192V363.131C449.612 363.12 449.542 363.108 449.441 363.095C449.341 363.079 449.24 363.072 449.139 363.072C448.908 363.072 448.701 363.121 448.519 363.219C448.34 363.316 448.198 363.45 448.092 363.623C447.987 363.794 447.935 363.988 447.935 364.207V367.286H446.954ZM452.493 367.388C451.996 367.388 451.568 367.281 451.21 367.069C450.853 366.855 450.577 366.554 450.383 366.167C450.19 365.777 450.094 365.321 450.094 364.798C450.094 364.282 450.19 363.827 450.383 363.433C450.577 363.039 450.849 362.731 451.196 362.51C451.547 362.289 451.956 362.179 452.424 362.179C452.708 362.179 452.984 362.226 453.251 362.32C453.518 362.414 453.758 362.562 453.97 362.763C454.182 362.964 454.349 363.226 454.472 363.548C454.594 363.867 454.656 364.255 454.656 364.713V365.061H450.648V364.325H453.694C453.694 364.067 453.642 363.839 453.537 363.639C453.432 363.438 453.284 363.28 453.094 363.164C452.905 363.048 452.684 362.99 452.431 362.99C452.155 362.99 451.914 363.057 451.708 363.193C451.505 363.327 451.347 363.502 451.236 363.718C451.126 363.933 451.072 364.166 451.072 364.417V364.992C451.072 365.329 451.131 365.615 451.249 365.852C451.369 366.088 451.537 366.268 451.751 366.393C451.966 366.516 452.216 366.577 452.503 366.577C452.689 366.577 452.858 366.551 453.011 366.498C453.165 366.443 453.297 366.362 453.409 366.255C453.52 366.148 453.606 366.016 453.665 365.858L454.593 366.026C454.519 366.299 454.386 366.539 454.193 366.744C454.003 366.948 453.763 367.106 453.474 367.22C453.188 367.332 452.86 367.388 452.493 367.388ZM457.632 367.384C457.225 367.384 456.862 367.28 456.542 367.072C456.225 366.862 455.975 366.564 455.794 366.176C455.614 365.787 455.525 365.32 455.525 364.775C455.525 364.23 455.615 363.764 455.797 363.377C455.981 362.99 456.233 362.693 456.552 362.487C456.871 362.282 457.234 362.179 457.638 362.179C457.951 362.179 458.203 362.231 458.393 362.337C458.586 362.439 458.735 362.56 458.84 362.698C458.947 362.835 459.03 362.957 459.089 363.062H459.148V360.564H460.129V367.286H459.171V366.501H459.089C459.03 366.609 458.945 366.731 458.833 366.869C458.724 367.007 458.573 367.127 458.38 367.23C458.188 367.333 457.938 367.384 457.632 367.384ZM457.848 366.547C458.131 366.547 458.369 366.473 458.564 366.324C458.761 366.173 458.91 365.964 459.01 365.697C459.113 365.43 459.164 365.12 459.164 364.765C459.164 364.415 459.114 364.109 459.013 363.846C458.913 363.584 458.765 363.379 458.57 363.233C458.376 363.086 458.135 363.013 457.848 363.013C457.553 363.013 457.307 363.089 457.11 363.242C456.913 363.396 456.764 363.604 456.664 363.869C456.565 364.134 456.516 364.433 456.516 364.765C456.516 365.102 456.566 365.405 456.667 365.674C456.767 365.943 456.916 366.157 457.113 366.314C457.312 366.47 457.557 366.547 457.848 366.547Z" fill="#515A65"/>
<rect x="471.891" y="358.395" width="10.7826" height="10.7826" rx="5.3913" fill="#D8ADF1"/>
<path d="M488.034 367.286V360.564H490.429C490.952 360.564 491.386 360.659 491.729 360.85C492.073 361.04 492.33 361.3 492.5 361.631C492.671 361.959 492.756 362.329 492.756 362.74C492.756 363.154 492.67 363.526 492.497 363.856C492.326 364.184 492.068 364.445 491.723 364.637C491.379 364.828 490.947 364.923 490.426 364.923H488.779V364.063H490.334C490.665 364.063 490.933 364.006 491.138 363.892C491.344 363.776 491.495 363.619 491.591 363.42C491.688 363.22 491.736 362.994 491.736 362.74C491.736 362.486 491.688 362.261 491.591 362.064C491.495 361.867 491.343 361.713 491.135 361.601C490.929 361.49 490.658 361.434 490.321 361.434H489.048V367.286H488.034ZM494.848 360.564V367.286H493.867V360.564H494.848ZM497.635 367.397C497.316 367.397 497.027 367.338 496.769 367.22C496.51 367.1 496.306 366.926 496.155 366.698C496.006 366.471 495.932 366.192 495.932 365.861C495.932 365.577 495.986 365.343 496.096 365.159C496.205 364.975 496.353 364.83 496.539 364.723C496.725 364.615 496.933 364.534 497.163 364.48C497.392 364.425 497.626 364.383 497.865 364.355C498.167 364.32 498.412 364.292 498.6 364.27C498.788 364.246 498.925 364.207 499.01 364.155C499.096 364.102 499.138 364.017 499.138 363.899V363.876C499.138 363.589 499.057 363.367 498.895 363.21C498.736 363.052 498.497 362.973 498.18 362.973C497.85 362.973 497.589 363.047 497.399 363.193C497.211 363.338 497.08 363.498 497.008 363.676L496.086 363.466C496.195 363.159 496.355 362.912 496.565 362.724C496.777 362.533 497.021 362.396 497.297 362.31C497.573 362.223 497.863 362.179 498.167 362.179C498.368 362.179 498.581 362.203 498.807 362.251C499.034 362.297 499.247 362.382 499.444 362.507C499.643 362.632 499.806 362.81 499.933 363.042C500.059 363.272 500.123 363.571 500.123 363.938V367.286H499.165V366.597H499.125C499.062 366.724 498.967 366.848 498.84 366.971C498.713 367.093 498.55 367.195 498.351 367.276C498.151 367.357 497.913 367.397 497.635 367.397ZM497.848 366.61C498.12 366.61 498.352 366.556 498.544 366.449C498.739 366.342 498.887 366.202 498.987 366.029C499.09 365.854 499.142 365.667 499.142 365.468V364.818C499.107 364.853 499.039 364.886 498.938 364.916C498.84 364.945 498.727 364.97 498.6 364.992C498.473 365.011 498.35 365.03 498.229 365.047C498.109 365.063 498.008 365.076 497.927 365.087C497.737 365.111 497.563 365.151 497.405 365.208C497.25 365.265 497.125 365.347 497.031 365.454C496.939 365.559 496.893 365.7 496.893 365.875C496.893 366.117 496.983 366.301 497.163 366.426C497.342 366.548 497.571 366.61 497.848 366.61ZM502.411 364.293V367.286H501.43V362.245H502.372V363.065H502.434C502.55 362.798 502.732 362.584 502.979 362.422C503.229 362.26 503.543 362.179 503.921 362.179C504.265 362.179 504.565 362.251 504.824 362.396C505.082 362.538 505.282 362.75 505.424 363.032C505.566 363.315 505.638 363.664 505.638 364.079V367.286H504.656V364.197C504.656 363.832 504.561 363.546 504.371 363.341C504.18 363.133 503.919 363.029 503.586 363.029C503.359 363.029 503.156 363.078 502.979 363.177C502.804 363.275 502.665 363.42 502.562 363.61C502.462 363.798 502.411 364.026 502.411 364.293ZM507.935 364.293V367.286H506.954V362.245H507.896V363.065H507.958C508.074 362.798 508.256 362.584 508.503 362.422C508.752 362.26 509.066 362.179 509.445 362.179C509.788 362.179 510.089 362.251 510.347 362.396C510.605 362.538 510.806 362.75 510.948 363.032C511.09 363.315 511.161 363.664 511.161 364.079V367.286H510.18V364.197C510.18 363.832 510.085 363.546 509.894 363.341C509.704 363.133 509.443 363.029 509.11 363.029C508.882 363.029 508.68 363.078 508.503 363.177C508.328 363.275 508.189 363.42 508.086 363.61C507.985 363.798 507.935 364.026 507.935 364.293ZM514.65 367.388C514.153 367.388 513.726 367.281 513.367 367.069C513.01 366.855 512.734 366.554 512.54 366.167C512.347 365.777 512.251 365.321 512.251 364.798C512.251 364.282 512.347 363.827 512.54 363.433C512.734 363.039 513.006 362.731 513.354 362.51C513.704 362.289 514.113 362.179 514.581 362.179C514.866 362.179 515.141 362.226 515.408 362.32C515.675 362.414 515.915 362.562 516.127 362.763C516.339 362.964 516.507 363.226 516.629 363.548C516.752 363.867 516.813 364.255 516.813 364.713V365.061H512.806V364.325H515.851C515.851 364.067 515.799 363.839 515.694 363.639C515.589 363.438 515.441 363.28 515.251 363.164C515.063 363.048 514.842 362.99 514.588 362.99C514.312 362.99 514.071 363.057 513.866 363.193C513.662 363.327 513.505 363.502 513.393 363.718C513.284 363.933 513.229 364.166 513.229 364.417V364.992C513.229 365.329 513.288 365.615 513.406 365.852C513.527 366.088 513.694 366.268 513.908 366.393C514.123 366.516 514.373 366.577 514.66 366.577C514.846 366.577 515.015 366.551 515.169 366.498C515.322 366.443 515.454 366.362 515.566 366.255C515.677 366.148 515.763 366.016 515.822 365.858L516.751 366.026C516.676 366.299 516.543 366.539 516.35 366.744C516.16 366.948 515.92 367.106 515.631 367.22C515.345 367.332 515.018 367.388 514.65 367.388ZM519.789 367.384C519.382 367.384 519.019 367.28 518.699 367.072C518.382 366.862 518.133 366.564 517.951 366.176C517.772 365.787 517.682 365.32 517.682 364.775C517.682 364.23 517.773 363.764 517.954 363.377C518.138 362.99 518.39 362.693 518.709 362.487C519.029 362.282 519.391 362.179 519.795 362.179C520.108 362.179 520.36 362.231 520.55 362.337C520.743 362.439 520.892 362.56 520.997 362.698C521.104 362.835 521.187 362.957 521.246 363.062H521.305V360.564H522.287V367.286H521.328V366.501H521.246C521.187 366.609 521.102 366.731 520.99 366.869C520.881 367.007 520.73 367.127 520.537 367.23C520.345 367.333 520.095 367.384 519.789 367.384ZM520.006 366.547C520.288 366.547 520.526 366.473 520.721 366.324C520.918 366.173 521.067 365.964 521.167 365.697C521.27 365.43 521.322 365.12 521.322 364.765C521.322 364.415 521.271 364.109 521.171 363.846C521.07 363.584 520.922 363.379 520.728 363.233C520.533 363.086 520.292 363.013 520.006 363.013C519.71 363.013 519.464 363.089 519.267 363.242C519.07 363.396 518.921 363.604 518.821 363.869C518.722 364.134 518.673 364.433 518.673 364.765C518.673 365.102 518.723 365.405 518.824 365.674C518.925 365.943 519.073 366.157 519.27 366.314C519.469 366.47 519.715 366.547 520.006 366.547Z" fill="#6B7280"/>
</g>
<defs>
<filter id="filter0_i_2078_7078" x="0" y="4.00009" width="114" height="114" filterUnits="userSpaceOnUse" color-interpolation-filters="sRGB">
<feFlood flood-opacity="0" result="BackgroundImageFix"/>
<feBlend mode="normal" in="SourceGraphic" in2="BackgroundImageFix" result="shape"/>
<feColorMatrix in="SourceAlpha" type="matrix" values="0 0 0 0 0 0 0 0 0 0 0 0 0 0 0 0 0 0 127 0" result="hardAlpha"/>
<feOffset dx="4" dy="4"/>
<feGaussianBlur stdDeviation="4"/>
<feComposite in2="hardAlpha" operator="arithmetic" k2="-1" k3="1"/>
<feColorMatrix type="matrix" values="0 0 0 0 0 0 0 0 0 0 0 0 0 0 0 0 0 0 0.11 0"/>
<feBlend mode="normal" in2="shape" result="effect1_innerShadow_2078_7078"/>
</filter>
<filter id="filter1_i_2078_7078" x="232" y="2.00009" width="114" height="114" filterUnits="userSpaceOnUse" color-interpolation-filters="sRGB">
<feFlood flood-opacity="0" result="BackgroundImageFix"/>
<feBlend mode="normal" in="SourceGraphic" in2="BackgroundImageFix" result="shape"/>
<feColorMatrix in="SourceAlpha" type="matrix" values="0 0 0 0 0 0 0 0 0 0 0 0 0 0 0 0 0 0 127 0" result="hardAlpha"/>
<feOffset dx="4" dy="4"/>
<feGaussianBlur stdDeviation="4"/>
<feComposite in2="hardAlpha" operator="arithmetic" k2="-1" k3="1"/>
<feColorMatrix type="matrix" values="0 0 0 0 0 0 0 0 0 0 0 0 0 0 0 0 0 0 0.11 0"/>
<feBlend mode="normal" in2="shape" result="effect1_innerShadow_2078_7078"/>
</filter>
<filter id="filter2_i_2078_7078" x="464" y="9.15527e-05" width="114" height="114" filterUnits="userSpaceOnUse" color-interpolation-filters="sRGB">
<feFlood flood-opacity="0" result="BackgroundImageFix"/>
<feBlend mode="normal" in="SourceGraphic" in2="BackgroundImageFix" result="shape"/>
<feColorMatrix in="SourceAlpha" type="matrix" values="0 0 0 0 0 0 0 0 0 0 0 0 0 0 0 0 0 0 127 0" result="hardAlpha"/>
<feOffset dx="4" dy="4"/>
<feGaussianBlur stdDeviation="4"/>
<feComposite in2="hardAlpha" operator="arithmetic" k2="-1" k3="1"/>
<feColorMatrix type="matrix" values="0 0 0 0 0 0 0 0 0 0 0 0 0 0 0 0 0 0 0.11 0"/>
<feBlend mode="normal" in2="shape" result="effect1_innerShadow_2078_7078"/>
</filter>
<filter id="filter3_i_2078_7078" x="144" y="186.578" width="114" height="114" filterUnits="userSpaceOnUse" color-interpolation-filters="sRGB">
<feFlood flood-opacity="0" result="BackgroundImageFix"/>
<feBlend mode="normal" in="SourceGraphic" in2="BackgroundImageFix" result="shape"/>
<feColorMatrix in="SourceAlpha" type="matrix" values="0 0 0 0 0 0 0 0 0 0 0 0 0 0 0 0 0 0 127 0" result="hardAlpha"/>
<feOffset dx="4" dy="4"/>
<feGaussianBlur stdDeviation="4"/>
<feComposite in2="hardAlpha" operator="arithmetic" k2="-1" k3="1"/>
<feColorMatrix type="matrix" values="0 0 0 0 0 0 0 0 0 0 0 0 0 0 0 0 0 0 0.11 0"/>
<feBlend mode="normal" in2="shape" result="effect1_innerShadow_2078_7078"/>
</filter>
<filter id="filter4_dd_2078_7078" x="336.419" y="121.037" width="254.161" height="272.354" filterUnits="userSpaceOnUse" color-interpolation-filters="sRGB">
<feFlood flood-opacity="0" result="BackgroundImageFix"/>
<feColorMatrix in="SourceAlpha" type="matrix" values="0 0 0 0 0 0 0 0 0 0 0 0 0 0 0 0 0 0 127 0" result="hardAlpha"/>
<feOffset dy="1.54037"/>
<feGaussianBlur stdDeviation="1.54037"/>
<feComposite in2="hardAlpha" operator="out"/>
<feColorMatrix type="matrix" values="0 0 0 0 0 0 0 0 0 0 0 0 0 0 0 0 0 0 0.04 0"/>
<feBlend mode="normal" in2="BackgroundImageFix" result="effect1_dropShadow_2078_7078"/>
<feColorMatrix in="SourceAlpha" type="matrix" values="0 0 0 0 0 0 0 0 0 0 0 0 0 0 0 0 0 0 127 0" result="hardAlpha"/>
<feOffset dy="0.770186"/>
<feGaussianBlur stdDeviation="1.15528"/>
<feComposite in2="hardAlpha" operator="out"/>
<feColorMatrix type="matrix" values="0 0 0 0 0 0 0 0 0 0 0 0 0 0 0 0 0 0 0.02 0"/>
<feBlend mode="normal" in2="effect1_dropShadow_2078_7078" result="effect2_dropShadow_2078_7078"/>
<feBlend mode="normal" in="SourceGraphic" in2="effect2_dropShadow_2078_7078" result="shape"/>
</filter>
<filter id="filter5_dd_2078_7078" x="344.742" y="135.981" width="126" height="33" filterUnits="userSpaceOnUse" color-interpolation-filters="sRGB">
<feFlood flood-opacity="0" result="BackgroundImageFix"/>
<feColorMatrix in="SourceAlpha" type="matrix" values="0 0 0 0 0 0 0 0 0 0 0 0 0 0 0 0 0 0 127 0" result="hardAlpha"/>
<feOffset dy="2"/>
<feGaussianBlur stdDeviation="2"/>
<feComposite in2="hardAlpha" operator="out"/>
<feColorMatrix type="matrix" values="0 0 0 0 0 0 0 0 0 0 0 0 0 0 0 0 0 0 0.04 0"/>
<feBlend mode="normal" in2="BackgroundImageFix" result="effect1_dropShadow_2078_7078"/>
<feColorMatrix in="SourceAlpha" type="matrix" values="0 0 0 0 0 0 0 0 0 0 0 0 0 0 0 0 0 0 127 0" result="hardAlpha"/>
<feOffset dy="1"/>
<feGaussianBlur stdDeviation="1.5"/>
<feComposite in2="hardAlpha" operator="out"/>
<feColorMatrix type="matrix" values="0 0 0 0 0 0 0 0 0 0 0 0 0 0 0 0 0 0 0.02 0"/>
<feBlend mode="normal" in2="effect1_dropShadow_2078_7078" result="effect2_dropShadow_2078_7078"/>
<feBlend mode="normal" in="SourceGraphic" in2="effect2_dropShadow_2078_7078" result="shape"/>
</filter>
<clipPath id="clip0_2078_7078">
<rect width="229.516" height="180.224" fill="white" transform="translate(348.742 173.981)"/>
</clipPath>
</defs>
</svg>
