<svg width="591" height="394" viewBox="0 0 591 394" fill="none" xmlns="http://www.w3.org/2000/svg">
<path d="M292.5 67.5L58 57.5L210 237.5M292.5 67.5H516L210 237.5M292.5 67.5L210 237.5" stroke="#B8B8B8" stroke-width="2" stroke-dasharray="6 6"/>
<g filter="url(#filter0_i_91_2571)">
<rect y="4" width="110" height="110" rx="55" fill="white"/>
<rect x="0.5" y="4.5" width="109" height="109" rx="54.5" stroke="#D1D1D1" stroke-opacity="0.48"/>
<path d="M60 58.9167L69.9167 49L74.1667 53.25L64.25 63.1667L60 58.9167Z" stroke="#9E32DD" stroke-width="1.5" stroke-linecap="round" stroke-linejoin="round"/>
<path d="M68.4987 50.4168L66.3737 39.7918L45.832 34.8335L50.7904 55.3752L61.4154 57.5002L68.4987 50.4168Z" stroke="#9E32DD" stroke-width="1.5" stroke-linecap="round" stroke-linejoin="round"/>
<path d="M45.832 34.8335L56.5789 45.5803" stroke="#9E32DD" stroke-width="2" stroke-linecap="round" stroke-linejoin="round"/>
<path d="M58.5833 50.4167C60.1481 50.4167 61.4167 49.1481 61.4167 47.5833C61.4167 46.0185 60.1481 44.75 58.5833 44.75C57.0185 44.75 55.75 46.0185 55.75 47.5833C55.75 49.1481 57.0185 50.4167 58.5833 50.4167Z" stroke="#9E32DD" stroke-width="2" stroke-linecap="round" stroke-linejoin="round"/>
<path d="M18 54C20.0794 45.2502 38.4615 49 32 42C25.5385 35 40.2048 35.5569 46 35" stroke="#9E32DD"/>
<path d="M25.364 76.2727H26.685V82.0128C26.685 82.6236 26.5415 83.1648 26.2546 83.6364C25.9677 84.1051 25.5643 84.4744 25.0444 84.7443C24.5245 85.0114 23.9151 85.1449 23.2163 85.1449C22.5202 85.1449 21.9123 85.0114 21.3924 84.7443C20.8725 84.4744 20.4691 84.1051 20.1822 83.6364C19.8952 83.1648 19.7518 82.6236 19.7518 82.0128V76.2727H21.0685V81.9062C21.0685 82.3011 21.1552 82.652 21.3285 82.9588C21.5046 83.2656 21.7532 83.5071 22.0742 83.6832C22.3952 83.8565 22.7759 83.9432 23.2163 83.9432C23.6594 83.9432 24.0415 83.8565 24.3626 83.6832C24.6864 83.5071 24.9336 83.2656 25.104 82.9588C25.2773 82.652 25.364 82.3011 25.364 81.9062V76.2727ZM29.9162 76.2727V85H28.5994V76.2727H29.9162ZM35.0554 75.8636L32.2429 86.3125H31.1051L33.9176 75.8636H35.0554ZM41.8523 76.2727H43.1733V82.0128C43.1733 82.6236 43.0298 83.1648 42.7429 83.6364C42.456 84.1051 42.0526 84.4744 41.5327 84.7443C41.0128 85.0114 40.4034 85.1449 39.7045 85.1449C39.0085 85.1449 38.4006 85.0114 37.8807 84.7443C37.3608 84.4744 36.9574 84.1051 36.6705 83.6364C36.3835 83.1648 36.2401 82.6236 36.2401 82.0128V76.2727H37.5568V81.9062C37.5568 82.3011 37.6435 82.652 37.8168 82.9588C37.9929 83.2656 38.2415 83.5071 38.5625 83.6832C38.8835 83.8565 39.2642 83.9432 39.7045 83.9432C40.1477 83.9432 40.5298 83.8565 40.8509 83.6832C41.1747 83.5071 41.4219 83.2656 41.5923 82.9588C41.7656 82.652 41.8523 82.3011 41.8523 81.9062V76.2727ZM46.0039 76.2727L48.092 79.6861H48.1602L50.2482 76.2727H51.7738L49.055 80.6364L51.7908 85H50.2567L48.1602 81.6335H48.092L45.9954 85H44.4613L47.244 80.6364L44.4783 76.2727H46.0039ZM59.081 85H56.2557V76.2727H59.1705C60.0256 76.2727 60.7599 76.4474 61.3736 76.7969C61.9872 77.1435 62.4574 77.642 62.7841 78.2926C63.1136 78.9403 63.2784 79.7173 63.2784 80.6236C63.2784 81.5327 63.1122 82.3139 62.7798 82.9673C62.4503 83.6207 61.973 84.1236 61.348 84.4759C60.723 84.8253 59.9673 85 59.081 85ZM57.5724 83.8494H59.0085C59.6733 83.8494 60.2259 83.7244 60.6662 83.4744C61.1065 83.2216 61.4361 82.8565 61.6548 82.3793C61.8736 81.8991 61.983 81.3139 61.983 80.6236C61.983 79.9389 61.8736 79.358 61.6548 78.8807C61.4389 78.4034 61.1165 78.0412 60.6875 77.794C60.2585 77.5469 59.7259 77.4233 59.0895 77.4233H57.5724V83.8494ZM67.6346 85.1321C66.9897 85.1321 66.4343 84.9943 65.9684 84.7188C65.5053 84.4403 65.1474 84.0497 64.8945 83.5469C64.6445 83.0412 64.5195 82.4489 64.5195 81.7699C64.5195 81.0994 64.6445 80.5085 64.8945 79.9972C65.1474 79.4858 65.4996 79.0866 65.9513 78.7997C66.4059 78.5128 66.9371 78.3693 67.5451 78.3693C67.9144 78.3693 68.2724 78.4304 68.619 78.5526C68.9656 78.6747 69.2766 78.8665 69.5522 79.1278C69.8278 79.3892 70.0451 79.7287 70.2042 80.1463C70.3633 80.5611 70.4428 81.0653 70.4428 81.6591V82.1108H65.2397V81.1562H69.1942C69.1942 80.821 69.1261 80.5241 68.9897 80.2656C68.8533 80.0043 68.6616 79.7983 68.4144 79.6477C68.1701 79.4972 67.8832 79.4219 67.5536 79.4219C67.1957 79.4219 66.8832 79.5099 66.6161 79.6861C66.3519 79.8594 66.1474 80.0866 66.0025 80.3679C65.8604 80.6463 65.7894 80.9489 65.7894 81.2756V82.0213C65.7894 82.4588 65.8661 82.831 66.0195 83.1378C66.1758 83.4446 66.3931 83.679 66.6715 83.8409C66.9499 84 67.2752 84.0795 67.6474 84.0795C67.8888 84.0795 68.109 84.0455 68.3079 83.9773C68.5067 83.9062 68.6786 83.8011 68.8235 83.6619C68.9684 83.5227 69.0792 83.3509 69.1559 83.1463L70.3619 83.3636C70.2653 83.7187 70.092 84.0298 69.842 84.2969C69.5948 84.5611 69.2837 84.767 68.9087 84.9148C68.5366 85.0597 68.1119 85.1321 67.6346 85.1321ZM76.7614 80.0526L75.6065 80.2571C75.5582 80.1094 75.4815 79.9687 75.3764 79.8352C75.2741 79.7017 75.1349 79.5923 74.9588 79.5071C74.7827 79.4219 74.5625 79.3793 74.2983 79.3793C73.9375 79.3793 73.6364 79.4602 73.3949 79.6222C73.1534 79.7812 73.0327 79.9872 73.0327 80.2401C73.0327 80.4588 73.1136 80.6349 73.2756 80.7685C73.4375 80.902 73.6989 81.0114 74.0597 81.0966L75.0994 81.3352C75.7017 81.4744 76.1506 81.6889 76.446 81.9787C76.7415 82.2685 76.8892 82.6449 76.8892 83.108C76.8892 83.5 76.7756 83.8494 76.5483 84.1562C76.3239 84.4602 76.0099 84.6989 75.6065 84.8722C75.206 85.0455 74.7415 85.1321 74.2131 85.1321C73.4801 85.1321 72.8821 84.9759 72.419 84.6634C71.956 84.348 71.6719 83.9006 71.5668 83.321L72.7983 83.1335C72.875 83.4545 73.0327 83.6974 73.2713 83.8622C73.5099 84.0241 73.821 84.1051 74.2045 84.1051C74.6222 84.1051 74.956 84.0185 75.206 83.8452C75.456 83.669 75.581 83.4545 75.581 83.2017C75.581 82.9972 75.5043 82.8253 75.3509 82.6861C75.2003 82.5469 74.9688 82.4418 74.6562 82.3707L73.5483 82.1278C72.9375 81.9886 72.4858 81.767 72.1932 81.4631C71.9034 81.1591 71.7585 80.7741 71.7585 80.3082C71.7585 79.9219 71.8665 79.5838 72.0824 79.294C72.2983 79.0043 72.5966 78.7784 72.9773 78.6165C73.358 78.4517 73.794 78.3693 74.2855 78.3693C74.9929 78.3693 75.5497 78.5227 75.956 78.8295C76.3622 79.1335 76.6307 79.5412 76.7614 80.0526ZM78.2901 85V78.4545H79.5643V85H78.2901ZM78.9336 77.4446C78.712 77.4446 78.5217 77.3707 78.3626 77.223C78.2063 77.0724 78.1282 76.8935 78.1282 76.6861C78.1282 76.4759 78.2063 76.2969 78.3626 76.1491C78.5217 75.9986 78.712 75.9233 78.9336 75.9233C79.1552 75.9233 79.3441 75.9986 79.5004 76.1491C79.6594 76.2969 79.739 76.4759 79.739 76.6861C79.739 76.8935 79.6594 77.0724 79.5004 77.223C79.3441 77.3707 79.1552 77.4446 78.9336 77.4446ZM84.0227 87.5909C83.5028 87.5909 83.0554 87.5227 82.6804 87.3864C82.3082 87.25 82.0043 87.0696 81.7685 86.8452C81.5327 86.6207 81.3565 86.375 81.2401 86.108L82.3352 85.6562C82.4119 85.7812 82.5142 85.9134 82.642 86.0526C82.7727 86.1946 82.9489 86.3153 83.1705 86.4148C83.3949 86.5142 83.6832 86.5639 84.0355 86.5639C84.5185 86.5639 84.9176 86.446 85.233 86.2102C85.5483 85.9773 85.706 85.6051 85.706 85.0938V83.8068H85.625C85.5483 83.946 85.4375 84.1009 85.2926 84.2713C85.1506 84.4418 84.9545 84.5895 84.7045 84.7145C84.4545 84.8395 84.1293 84.902 83.7287 84.902C83.2116 84.902 82.7457 84.7812 82.331 84.5398C81.919 84.2955 81.5923 83.9361 81.3509 83.4616C81.1122 82.9844 80.9929 82.3977 80.9929 81.7017C80.9929 81.0057 81.1108 80.4091 81.3466 79.9119C81.5852 79.4148 81.9119 79.0341 82.3267 78.7699C82.7415 78.5028 83.2116 78.3693 83.7372 78.3693C84.1435 78.3693 84.4716 78.4375 84.7216 78.5739C84.9716 78.7074 85.1662 78.8636 85.3054 79.0426C85.4474 79.2216 85.5568 79.3793 85.6335 79.5156H85.7273V78.4545H86.9759V85.1449C86.9759 85.7074 86.8452 86.169 86.5838 86.5298C86.3224 86.8906 85.9688 87.1577 85.5227 87.331C85.0795 87.5043 84.5795 87.5909 84.0227 87.5909ZM84.0099 83.8452C84.3764 83.8452 84.6861 83.7599 84.9389 83.5895C85.1946 83.4162 85.3878 83.169 85.5185 82.848C85.652 82.5241 85.7188 82.1364 85.7188 81.6847C85.7188 81.2443 85.6534 80.8565 85.5227 80.5213C85.392 80.1861 85.2003 79.9247 84.9474 79.7372C84.6946 79.5469 84.3821 79.4517 84.0099 79.4517C83.6264 79.4517 83.3068 79.5511 83.0511 79.75C82.7955 79.946 82.6023 80.2131 82.4716 80.5511C82.3438 80.8892 82.2798 81.267 82.2798 81.6847C82.2798 82.1136 82.3452 82.4901 82.4759 82.8139C82.6065 83.1378 82.7997 83.3906 83.0554 83.5724C83.3139 83.7543 83.6321 83.8452 84.0099 83.8452ZM89.9588 81.1136V85H88.6847V78.4545H89.9077V79.5199H89.9886C90.1392 79.1733 90.375 78.8949 90.696 78.6847C91.0199 78.4744 91.4276 78.3693 91.919 78.3693C92.3651 78.3693 92.7557 78.4631 93.0909 78.6506C93.4261 78.8352 93.6861 79.1108 93.8707 79.4773C94.0554 79.8437 94.1477 80.2969 94.1477 80.8366V85H92.8736V80.9901C92.8736 80.5156 92.75 80.1449 92.5028 79.8778C92.2557 79.608 91.9162 79.473 91.4844 79.473C91.1889 79.473 90.9261 79.5369 90.696 79.6648C90.4688 79.7926 90.2884 79.9801 90.1548 80.2273C90.0241 80.4716 89.9588 80.767 89.9588 81.1136Z" fill="#1A1A1A"/>
</g>
<g filter="url(#filter1_i_91_2571)">
<rect x="232" y="2" width="110" height="110" rx="55" fill="white"/>
<rect x="232.5" y="2.5" width="109" height="109" rx="54.5" stroke="#D1D1D1" stroke-opacity="0.48"/>
<path d="M295.5 52.6668L301.167 47.0002L295.5 41.3335" stroke="#9E32DD" stroke-width="2" stroke-linecap="round" stroke-linejoin="round"/>
<path d="M278.499 41.3335L272.832 47.0002L278.499 52.6668" stroke="#9E32DD" stroke-width="2" stroke-linecap="round" stroke-linejoin="round"/>
<path d="M290.54 35.6665L283.457 58.3332" stroke="#9E32DD" stroke-width="2" stroke-linecap="round" stroke-linejoin="round"/>
<path d="M262.037 83V74.2727H267.449V75.4062H263.354V78.0653H267.061V79.1946H263.354V83H262.037ZM268.884 83V76.4545H270.115V77.4943H270.184C270.303 77.142 270.513 76.8651 270.814 76.6634C271.118 76.4588 271.462 76.3565 271.846 76.3565C271.925 76.3565 272.019 76.3594 272.127 76.3651C272.238 76.3707 272.324 76.3778 272.387 76.3864V77.6051C272.336 77.5909 272.245 77.5753 272.114 77.5582C271.983 77.5384 271.853 77.5284 271.722 77.5284C271.421 77.5284 271.152 77.5923 270.917 77.7202C270.684 77.8452 270.499 78.0199 270.363 78.2443C270.226 78.4659 270.158 78.7187 270.158 79.0028V83H268.884ZM276.012 83.1321C275.398 83.1321 274.863 82.9915 274.406 82.7102C273.948 82.429 273.593 82.0355 273.34 81.5298C273.087 81.0241 272.961 80.4332 272.961 79.7571C272.961 79.0781 273.087 78.4844 273.34 77.9759C273.593 77.4673 273.948 77.0724 274.406 76.7912C274.863 76.5099 275.398 76.3693 276.012 76.3693C276.626 76.3693 277.161 76.5099 277.619 76.7912C278.076 77.0724 278.431 77.4673 278.684 77.9759C278.937 78.4844 279.063 79.0781 279.063 79.7571C279.063 80.4332 278.937 81.0241 278.684 81.5298C278.431 82.0355 278.076 82.429 277.619 82.7102C277.161 82.9915 276.626 83.1321 276.012 83.1321ZM276.016 82.0625C276.414 82.0625 276.744 81.9574 277.005 81.7472C277.266 81.5369 277.46 81.2571 277.585 80.9077C277.712 80.5582 277.776 80.1733 277.776 79.7528C277.776 79.3352 277.712 78.9517 277.585 78.6023C277.46 78.25 277.266 77.9673 277.005 77.7543C276.744 77.5412 276.414 77.4347 276.016 77.4347C275.616 77.4347 275.283 77.5412 275.019 77.7543C274.758 77.9673 274.563 78.25 274.435 78.6023C274.31 78.9517 274.248 79.3352 274.248 79.7528C274.248 80.1733 274.31 80.5582 274.435 80.9077C274.563 81.2571 274.758 81.5369 275.019 81.7472C275.283 81.9574 275.616 82.0625 276.016 82.0625ZM281.76 79.1136V83H280.485V76.4545H281.708V77.5199H281.789C281.94 77.1733 282.176 76.8949 282.497 76.6847C282.821 76.4744 283.228 76.3693 283.72 76.3693C284.166 76.3693 284.556 76.4631 284.892 76.6506C285.227 76.8352 285.487 77.1108 285.672 77.4773C285.856 77.8437 285.949 78.2969 285.949 78.8366V83H284.674V78.9901C284.674 78.5156 284.551 78.1449 284.304 77.8778C284.056 77.608 283.717 77.473 283.285 77.473C282.99 77.473 282.727 77.5369 282.497 77.6648C282.27 77.7926 282.089 77.9801 281.956 78.2273C281.825 78.4716 281.76 78.767 281.76 79.1136ZM290.713 76.4545V77.4773H287.137V76.4545H290.713ZM288.096 74.8864H289.37V81.0781C289.37 81.3253 289.407 81.5114 289.481 81.6364C289.555 81.7585 289.65 81.8423 289.767 81.8878C289.886 81.9304 290.015 81.9517 290.154 81.9517C290.257 81.9517 290.346 81.9446 290.423 81.9304C290.5 81.9162 290.559 81.9048 290.602 81.8963L290.832 82.9489C290.758 82.9773 290.653 83.0057 290.517 83.0341C290.38 83.0653 290.21 83.0824 290.005 83.0852C289.67 83.0909 289.358 83.0312 289.068 82.9062C288.778 82.7812 288.544 82.5881 288.365 82.3267C288.186 82.0653 288.096 81.7372 288.096 81.3423V74.8864ZM294.873 83.1321C294.228 83.1321 293.673 82.9943 293.207 82.7188C292.744 82.4403 292.386 82.0497 292.133 81.5469C291.883 81.0412 291.758 80.4489 291.758 79.7699C291.758 79.0994 291.883 78.5085 292.133 77.9972C292.386 77.4858 292.738 77.0866 293.19 76.7997C293.644 76.5128 294.175 76.3693 294.783 76.3693C295.153 76.3693 295.511 76.4304 295.857 76.5526C296.204 76.6747 296.515 76.8665 296.79 77.1278C297.066 77.3892 297.283 77.7287 297.442 78.1463C297.602 78.5611 297.681 79.0653 297.681 79.6591V80.1108H292.478V79.1562H296.433C296.433 78.821 296.364 78.5241 296.228 78.2656C296.092 78.0043 295.9 77.7983 295.653 77.6477C295.408 77.4972 295.121 77.4219 294.792 77.4219C294.434 77.4219 294.121 77.5099 293.854 77.6861C293.59 77.8594 293.386 78.0866 293.241 78.3679C293.099 78.6463 293.028 78.9489 293.028 79.2756V80.0213C293.028 80.4588 293.104 80.831 293.258 81.1378C293.414 81.4446 293.631 81.679 293.91 81.8409C294.188 82 294.513 82.0795 294.886 82.0795C295.127 82.0795 295.347 82.0455 295.546 81.9773C295.745 81.9062 295.917 81.8011 296.062 81.6619C296.207 81.5227 296.317 81.3509 296.394 81.1463L297.6 81.3636C297.504 81.7187 297.33 82.0298 297.08 82.2969C296.833 82.5611 296.522 82.767 296.147 82.9148C295.775 83.0597 295.35 83.1321 294.873 83.1321ZM300.369 79.1136V83H299.095V76.4545H300.318V77.5199H300.399C300.549 77.1733 300.785 76.8949 301.106 76.6847C301.43 76.4744 301.838 76.3693 302.329 76.3693C302.775 76.3693 303.166 76.4631 303.501 76.6506C303.836 76.8352 304.096 77.1108 304.281 77.4773C304.466 77.8437 304.558 78.2969 304.558 78.8366V83H303.284V78.9901C303.284 78.5156 303.16 78.1449 302.913 77.8778C302.666 77.608 302.326 77.473 301.895 77.473C301.599 77.473 301.336 77.5369 301.106 77.6648C300.879 77.7926 300.699 77.9801 300.565 78.2273C300.434 78.4716 300.369 78.767 300.369 79.1136ZM308.717 83.1278C308.189 83.1278 307.717 82.9929 307.302 82.723C306.89 82.4503 306.566 82.0625 306.331 81.5597C306.098 81.054 305.981 80.4474 305.981 79.7401C305.981 79.0327 306.099 78.4276 306.335 77.9247C306.574 77.4219 306.9 77.0369 307.315 76.7699C307.73 76.5028 308.2 76.3693 308.725 76.3693C309.132 76.3693 309.458 76.4375 309.706 76.5739C309.956 76.7074 310.149 76.8636 310.285 77.0426C310.424 77.2216 310.532 77.3793 310.609 77.5156H310.686V74.2727H311.96V83H310.716V81.9815H310.609C310.532 82.1207 310.422 82.2798 310.277 82.4588C310.135 82.6378 309.939 82.794 309.689 82.9276C309.439 83.0611 309.115 83.1278 308.717 83.1278ZM308.998 82.0412C309.365 82.0412 309.674 81.9446 309.927 81.7514C310.183 81.5554 310.376 81.2841 310.507 80.9375C310.64 80.5909 310.707 80.1875 310.707 79.7273C310.707 79.2727 310.642 78.875 310.511 78.5341C310.38 78.1932 310.189 77.9276 309.936 77.7372C309.683 77.5469 309.37 77.4517 308.998 77.4517C308.615 77.4517 308.295 77.5511 308.039 77.75C307.784 77.9489 307.591 78.2202 307.46 78.5639C307.332 78.9077 307.268 79.2955 307.268 79.7273C307.268 80.1648 307.333 80.5582 307.464 80.9077C307.595 81.2571 307.788 81.5341 308.044 81.7386C308.302 81.9403 308.62 82.0412 308.998 82.0412Z" fill="#1A1A1A"/>
</g>
<g filter="url(#filter2_i_91_2571)">
<rect x="464" width="110" height="110" rx="55" fill="white"/>
<rect x="464.5" y="0.5" width="109" height="109" rx="54.5" stroke="#D1D1D1" stroke-opacity="0.48"/>
<path d="M519 39.3335C526.042 39.3335 531.75 37.4307 531.75 35.0835C531.75 32.7363 526.042 30.8335 519 30.8335C511.958 30.8335 506.25 32.7363 506.25 35.0835C506.25 37.4307 511.958 39.3335 519 39.3335Z" stroke="#9E32DD" stroke-width="2" stroke-linecap="round" stroke-linejoin="round"/>
<path d="M531.75 45C531.75 47.3517 526.083 49.25 519 49.25C511.917 49.25 506.25 47.3517 506.25 45" stroke="#9E32DD" stroke-width="2" stroke-linecap="round" stroke-linejoin="round"/>
<path d="M506.25 35.0835V54.9168C506.25 57.2685 511.917 59.1668 519 59.1668C526.083 59.1668 531.75 57.2685 531.75 54.9168V35.0835" stroke="#9E32DD" stroke-width="2" stroke-linecap="round" stroke-linejoin="round"/>
<path d="M495.144 81V72.2727H498.34C498.96 72.2727 499.472 72.375 499.879 72.5795C500.285 72.7812 500.589 73.0554 500.791 73.402C500.992 73.7457 501.093 74.1335 501.093 74.5653C501.093 74.929 501.026 75.2358 500.893 75.4858C500.759 75.733 500.58 75.9318 500.356 76.0824C500.134 76.2301 499.89 76.3381 499.623 76.4062V76.4915C499.913 76.5057 500.195 76.5994 500.471 76.7727C500.749 76.9432 500.98 77.1861 501.161 77.5014C501.343 77.8168 501.434 78.2003 501.434 78.652C501.434 79.098 501.329 79.4986 501.119 79.8537C500.911 80.206 500.59 80.4858 500.156 80.6932C499.721 80.8977 499.166 81 498.49 81H495.144ZM496.461 79.8707H498.362C498.992 79.8707 499.444 79.7486 499.717 79.5043C499.99 79.2599 500.126 78.9545 500.126 78.5881C500.126 78.3125 500.056 78.0597 499.917 77.8295C499.778 77.5994 499.579 77.4162 499.32 77.2798C499.065 77.1435 498.761 77.0753 498.409 77.0753H496.461V79.8707ZM496.461 76.0483H498.225C498.521 76.0483 498.786 75.9915 499.022 75.8778C499.261 75.7642 499.45 75.6051 499.589 75.4006C499.731 75.1932 499.802 74.9489 499.802 74.6676C499.802 74.3068 499.676 74.0043 499.423 73.7599C499.17 73.5156 498.782 73.3935 498.259 73.3935H496.461V76.0483ZM504.798 81.1449C504.384 81.1449 504.009 81.0682 503.673 80.9148C503.338 80.7585 503.073 80.5327 502.877 80.2372C502.683 79.9418 502.587 79.5795 502.587 79.1506C502.587 78.7812 502.658 78.4773 502.8 78.2386C502.942 78 503.134 77.8111 503.375 77.6719C503.617 77.5327 503.887 77.4276 504.185 77.3565C504.483 77.2855 504.787 77.2315 505.097 77.1946C505.489 77.1491 505.807 77.1122 506.051 77.0838C506.296 77.0526 506.473 77.0028 506.584 76.9347C506.695 76.8665 506.75 76.7557 506.75 76.6023V76.5724C506.75 76.2003 506.645 75.9119 506.435 75.7074C506.227 75.5028 505.918 75.4006 505.506 75.4006C505.077 75.4006 504.739 75.4957 504.492 75.6861C504.247 75.8736 504.078 76.0824 503.985 76.3125L502.787 76.0398C502.929 75.642 503.137 75.321 503.409 75.0767C503.685 74.8295 504.002 74.6506 504.36 74.5398C504.718 74.4261 505.094 74.3693 505.489 74.3693C505.75 74.3693 506.027 74.4006 506.32 74.4631C506.615 74.5227 506.891 74.6335 507.146 74.7955C507.405 74.9574 507.617 75.1889 507.781 75.4901C507.946 75.7884 508.029 76.1761 508.029 76.6534V81H506.784V80.1051H506.733C506.651 80.2699 506.527 80.4318 506.362 80.5909C506.198 80.75 505.986 80.8821 505.727 80.9872C505.469 81.0923 505.159 81.1449 504.798 81.1449ZM505.075 80.1222C505.428 80.1222 505.729 80.0526 505.979 79.9134C506.232 79.7741 506.423 79.5923 506.554 79.3679C506.688 79.1406 506.754 78.8977 506.754 78.6392V77.7955C506.709 77.8409 506.621 77.8835 506.49 77.9233C506.362 77.9602 506.216 77.9929 506.051 78.0213C505.887 78.0469 505.726 78.071 505.57 78.0938C505.414 78.1136 505.283 78.1307 505.178 78.1449C504.931 78.1761 504.705 78.2287 504.5 78.3026C504.298 78.3764 504.137 78.483 504.014 78.6222C503.895 78.7585 503.835 78.9403 503.835 79.1676C503.835 79.483 503.952 79.7216 504.185 79.8835C504.418 80.0426 504.715 80.1222 505.075 80.1222ZM512.483 81.1321C511.849 81.1321 511.304 80.9886 510.846 80.7017C510.392 80.4119 510.042 80.0128 509.798 79.5043C509.554 78.9957 509.432 78.4134 509.432 77.7571C509.432 77.0923 509.557 76.5057 509.807 75.9972C510.057 75.4858 510.409 75.0866 510.863 74.7997C511.318 74.5128 511.854 74.3693 512.47 74.3693C512.967 74.3693 513.41 74.4616 513.8 74.6463C514.189 74.8281 514.503 75.0838 514.741 75.4134C514.983 75.7429 515.126 76.1278 515.172 76.5682H513.932C513.863 76.2614 513.707 75.9972 513.463 75.7756C513.221 75.554 512.898 75.4432 512.491 75.4432C512.136 75.4432 511.825 75.5369 511.558 75.7244C511.294 75.9091 511.088 76.1733 510.94 76.517C510.792 76.858 510.719 77.2614 510.719 77.7273C510.719 78.2045 510.791 78.6165 510.936 78.9631C511.081 79.3097 511.285 79.5781 511.55 79.7685C511.817 79.9588 512.131 80.054 512.491 80.054C512.733 80.054 512.952 80.0099 513.148 79.9219C513.346 79.831 513.513 79.7017 513.646 79.5341C513.782 79.3665 513.878 79.1648 513.932 78.929H515.172C515.126 79.3523 514.988 79.7301 514.758 80.0625C514.528 80.3949 514.22 80.6562 513.834 80.8466C513.45 81.0369 513 81.1321 512.483 81.1321ZM517.706 78.7798L517.698 77.2244H517.919L520.527 74.4545H522.053L519.078 77.608H518.878L517.706 78.7798ZM516.534 81V72.2727H517.808V81H516.534ZM520.668 81L518.324 77.8892L519.202 76.9986L522.232 81H520.668ZM525.765 81.1321C525.121 81.1321 524.565 80.9943 524.099 80.7188C523.636 80.4403 523.278 80.0497 523.025 79.5469C522.775 79.0412 522.65 78.4489 522.65 77.7699C522.65 77.0994 522.775 76.5085 523.025 75.9972C523.278 75.4858 523.631 75.0866 524.082 74.7997C524.537 74.5128 525.068 74.3693 525.676 74.3693C526.045 74.3693 526.403 74.4304 526.75 74.5526C527.096 74.6747 527.407 74.8665 527.683 75.1278C527.959 75.3892 528.176 75.7287 528.335 76.1463C528.494 76.5611 528.574 77.0653 528.574 77.6591V78.1108H523.371V77.1562H527.325C527.325 76.821 527.257 76.5241 527.121 76.2656C526.984 76.0043 526.792 75.7983 526.545 75.6477C526.301 75.4972 526.014 75.4219 525.684 75.4219C525.327 75.4219 525.014 75.5099 524.747 75.6861C524.483 75.8594 524.278 76.0866 524.133 76.3679C523.991 76.6463 523.92 76.9489 523.92 77.2756V78.0213C523.92 78.4588 523.997 78.831 524.15 79.1378C524.307 79.4446 524.524 79.679 524.802 79.8409C525.081 80 525.406 80.0795 525.778 80.0795C526.02 80.0795 526.24 80.0455 526.439 79.9773C526.638 79.9062 526.809 79.8011 526.954 79.6619C527.099 79.5227 527.21 79.3509 527.287 79.1463L528.493 79.3636C528.396 79.7187 528.223 80.0298 527.973 80.2969C527.726 80.5611 527.415 80.767 527.04 80.9148C526.667 81.0597 526.243 81.1321 525.765 81.1321ZM531.262 77.1136V81H529.987V74.4545H531.21V75.5199H531.291C531.442 75.1733 531.678 74.8949 531.999 74.6847C532.323 74.4744 532.73 74.3693 533.222 74.3693C533.668 74.3693 534.058 74.4631 534.394 74.6506C534.729 74.8352 534.989 75.1108 535.173 75.4773C535.358 75.8437 535.45 76.2969 535.45 76.8366V81H534.176V76.9901C534.176 76.5156 534.053 76.1449 533.806 75.8778C533.558 75.608 533.219 75.473 532.787 75.473C532.492 75.473 532.229 75.5369 531.999 75.6648C531.771 75.7926 531.591 75.9801 531.458 76.2273C531.327 76.4716 531.262 76.767 531.262 77.1136ZM539.61 81.1278C539.081 81.1278 538.61 80.9929 538.195 80.723C537.783 80.4503 537.459 80.0625 537.223 79.5597C536.99 79.054 536.874 78.4474 536.874 77.7401C536.874 77.0327 536.992 76.4276 537.227 75.9247C537.466 75.4219 537.793 75.0369 538.208 74.7699C538.622 74.5028 539.093 74.3693 539.618 74.3693C540.024 74.3693 540.351 74.4375 540.598 74.5739C540.848 74.7074 541.041 74.8636 541.178 75.0426C541.317 75.2216 541.425 75.3793 541.502 75.5156H541.578V72.2727H542.852V81H541.608V79.9815H541.502C541.425 80.1207 541.314 80.2798 541.169 80.4588C541.027 80.6378 540.831 80.794 540.581 80.9276C540.331 81.0611 540.007 81.1278 539.61 81.1278ZM539.891 80.0412C540.257 80.0412 540.567 79.9446 540.82 79.7514C541.075 79.5554 541.269 79.2841 541.399 78.9375C541.533 78.5909 541.6 78.1875 541.6 77.7273C541.6 77.2727 541.534 76.875 541.404 76.5341C541.273 76.1932 541.081 75.9276 540.828 75.7372C540.575 75.5469 540.263 75.4517 539.891 75.4517C539.507 75.4517 539.188 75.5511 538.932 75.75C538.676 75.9489 538.483 76.2202 538.352 76.5639C538.225 76.9077 538.161 77.2955 538.161 77.7273C538.161 78.1648 538.226 78.5582 538.357 78.9077C538.487 79.2571 538.681 79.5341 538.936 79.7386C539.195 79.9403 539.513 80.0412 539.891 80.0412Z" fill="#1A1A1A"/>
</g>
<g filter="url(#filter3_i_91_2571)">
<rect x="144" y="186.578" width="110" height="110" rx="55" fill="white"/>
<rect x="144.5" y="187.078" width="109" height="109" rx="54.5" stroke="#D1D1D1" stroke-opacity="0.48"/>
<path d="M187.668 245.744H207.501C208.253 245.744 208.973 245.446 209.505 244.915C210.036 244.383 210.335 243.663 210.335 242.911V225.203L202.543 217.411H190.501C189.75 217.411 189.029 217.71 188.498 218.241C187.966 218.772 187.668 219.493 187.668 220.244V224.494" stroke="#9E32DD" stroke-width="2" stroke-linecap="round" stroke-linejoin="round"/>
<path d="M201.832 217.411V225.911H210.332" stroke="#9E32DD" stroke-width="2" stroke-linecap="round" stroke-linejoin="round"/>
<path d="M189.082 238.661C189.64 238.661 190.193 238.551 190.708 238.338C191.224 238.124 191.693 237.811 192.087 237.416C192.482 237.022 192.795 236.553 193.009 236.038C193.222 235.522 193.332 234.969 193.332 234.411C193.332 233.853 193.222 233.3 193.009 232.785C192.795 232.269 192.482 231.801 192.087 231.406C191.693 231.011 191.224 230.698 190.708 230.485C190.193 230.271 189.64 230.161 189.082 230.161C187.955 230.161 186.874 230.609 186.077 231.406C185.28 232.203 184.832 233.284 184.832 234.411C184.832 235.538 185.28 236.619 186.077 237.416C186.874 238.213 187.955 238.661 189.082 238.661Z" stroke="#9E32DD" stroke-width="2" stroke-linecap="round" stroke-linejoin="round"/>
<path d="M194.75 240.078L192.625 237.953" stroke="#9E32DD" stroke-width="2" stroke-linecap="round" stroke-linejoin="round"/>
<path d="M171.797 264.748H173.092L174.004 265.937L174.434 266.465L175.887 268.362H174.541L173.569 267.096L173.237 266.636L171.797 264.748ZM176.169 263.214C176.169 264.146 175.998 264.947 175.657 265.617C175.316 266.285 174.849 266.799 174.255 267.16C173.664 267.518 172.993 267.697 172.24 267.697C171.484 267.697 170.809 267.518 170.216 267.16C169.625 266.799 169.159 266.284 168.818 265.613C168.477 264.943 168.306 264.143 168.306 263.214C168.306 262.282 168.477 261.482 168.818 260.815C169.159 260.144 169.625 259.63 170.216 259.272C170.809 258.911 171.484 258.731 172.24 258.731C172.993 258.731 173.664 258.911 174.255 259.272C174.849 259.63 175.316 260.144 175.657 260.815C175.998 261.482 176.169 262.282 176.169 263.214ZM174.865 263.214C174.865 262.504 174.75 261.906 174.52 261.42C174.292 260.931 173.98 260.562 173.582 260.312C173.187 260.059 172.74 259.933 172.24 259.933C171.737 259.933 171.288 260.059 170.893 260.312C170.498 260.562 170.186 260.931 169.956 261.42C169.728 261.906 169.615 262.504 169.615 263.214C169.615 263.924 169.728 264.524 169.956 265.012C170.186 265.498 170.498 265.867 170.893 266.12C171.288 266.37 171.737 266.495 172.24 266.495C172.74 266.495 173.187 266.37 173.582 266.12C173.98 265.867 174.292 265.498 174.52 265.012C174.75 264.524 174.865 263.924 174.865 263.214ZM178.114 267.578H176.716L179.857 258.85H181.378L184.519 267.578H183.121L180.654 260.436H180.586L178.114 267.578ZM178.348 264.16H182.882V265.268H178.348V264.16ZM188.525 259.984V258.85H195.279V259.984H192.556V267.578H191.243V259.984H188.525ZM198.541 267.71C197.896 267.71 197.341 267.572 196.875 267.296C196.412 267.018 196.054 266.627 195.801 266.125C195.551 265.619 195.426 265.027 195.426 264.348C195.426 263.677 195.551 263.086 195.801 262.575C196.054 262.063 196.406 261.664 196.858 261.377C197.312 261.09 197.843 260.947 198.451 260.947C198.821 260.947 199.179 261.008 199.525 261.13C199.872 261.252 200.183 261.444 200.458 261.705C200.734 261.967 200.951 262.306 201.11 262.724C201.27 263.139 201.349 263.643 201.349 264.237V264.688H196.146V263.734H200.1C200.1 263.399 200.032 263.102 199.896 262.843C199.76 262.582 199.568 262.376 199.321 262.225C199.076 262.075 198.789 262 198.46 262C198.102 262 197.789 262.088 197.522 262.264C197.258 262.437 197.054 262.664 196.909 262.946C196.767 263.224 196.696 263.527 196.696 263.853V264.599C196.696 265.036 196.772 265.409 196.926 265.715C197.082 266.022 197.299 266.257 197.578 266.419C197.856 266.578 198.181 266.657 198.554 266.657C198.795 266.657 199.015 266.623 199.214 266.555C199.413 266.484 199.585 266.379 199.73 266.24C199.875 266.1 199.985 265.928 200.062 265.724L201.268 265.941C201.172 266.296 200.998 266.607 200.748 266.875C200.501 267.139 200.19 267.345 199.815 267.492C199.443 267.637 199.018 267.71 198.541 267.71ZM207.668 262.63L206.513 262.835C206.464 262.687 206.388 262.546 206.283 262.413C206.18 262.279 206.041 262.17 205.865 262.085C205.689 262 205.469 261.957 205.205 261.957C204.844 261.957 204.543 262.038 204.301 262.2C204.06 262.359 203.939 262.565 203.939 262.818C203.939 263.036 204.02 263.213 204.182 263.346C204.344 263.48 204.605 263.589 204.966 263.674L206.006 263.913C206.608 264.052 207.057 264.267 207.352 264.556C207.648 264.846 207.795 265.223 207.795 265.686C207.795 266.078 207.682 266.427 207.455 266.734C207.23 267.038 206.916 267.277 206.513 267.45C206.112 267.623 205.648 267.71 205.119 267.71C204.386 267.71 203.788 267.553 203.325 267.241C202.862 266.926 202.578 266.478 202.473 265.899L203.705 265.711C203.781 266.032 203.939 266.275 204.178 266.44C204.416 266.602 204.727 266.683 205.111 266.683C205.528 266.683 205.862 266.596 206.112 266.423C206.362 266.247 206.487 266.032 206.487 265.779C206.487 265.575 206.411 265.403 206.257 265.264C206.107 265.125 205.875 265.019 205.562 264.948L204.455 264.705C203.844 264.566 203.392 264.345 203.099 264.041C202.81 263.737 202.665 263.352 202.665 262.886C202.665 262.5 202.773 262.161 202.989 261.872C203.205 261.582 203.503 261.356 203.884 261.194C204.264 261.029 204.7 260.947 205.192 260.947C205.899 260.947 206.456 261.1 206.862 261.407C207.268 261.711 207.537 262.119 207.668 262.63ZM212.252 261.032V262.055H208.676V261.032H212.252ZM209.635 259.464H210.909V265.656C210.909 265.903 210.946 266.089 211.02 266.214C211.094 266.336 211.189 266.42 211.306 266.465C211.425 266.508 211.554 266.529 211.694 266.529C211.796 266.529 211.885 266.522 211.962 266.508C212.039 266.494 212.098 266.482 212.141 266.474L212.371 267.527C212.297 267.555 212.192 267.583 212.056 267.612C211.919 267.643 211.749 267.66 211.544 267.663C211.209 267.669 210.897 267.609 210.607 267.484C210.317 267.359 210.083 267.166 209.904 266.904C209.725 266.643 209.635 266.315 209.635 265.92V259.464ZM213.661 267.578V261.032H214.935V267.578H213.661ZM214.305 260.022C214.083 260.022 213.893 259.948 213.734 259.801C213.577 259.65 213.499 259.471 213.499 259.264C213.499 259.053 213.577 258.875 213.734 258.727C213.893 258.576 214.083 258.501 214.305 258.501C214.526 258.501 214.715 258.576 214.871 258.727C215.031 258.875 215.11 259.053 215.11 259.264C215.11 259.471 215.031 259.65 214.871 259.801C214.715 259.948 214.526 260.022 214.305 260.022ZM217.924 263.691V267.578H216.65V261.032H217.873V262.098H217.953C218.104 261.751 218.34 261.473 218.661 261.262C218.985 261.052 219.392 260.947 219.884 260.947C220.33 260.947 220.721 261.041 221.056 261.228C221.391 261.413 221.651 261.688 221.836 262.055C222.02 262.421 222.113 262.875 222.113 263.414V267.578H220.838V263.568C220.838 263.093 220.715 262.723 220.468 262.455C220.221 262.186 219.881 262.051 219.449 262.051C219.154 262.051 218.891 262.115 218.661 262.242C218.434 262.37 218.253 262.558 218.12 262.805C217.989 263.049 217.924 263.345 217.924 263.691ZM226.566 270.169C226.046 270.169 225.598 270.1 225.223 269.964C224.851 269.828 224.547 269.647 224.311 269.423C224.076 269.198 223.9 268.953 223.783 268.686L224.878 268.234C224.955 268.359 225.057 268.491 225.185 268.63C225.316 268.772 225.492 268.893 225.713 268.992C225.938 269.092 226.226 269.142 226.578 269.142C227.061 269.142 227.461 269.024 227.776 268.788C228.091 268.555 228.249 268.183 228.249 267.671V266.384H228.168C228.091 266.524 227.98 266.678 227.836 266.849C227.694 267.019 227.498 267.167 227.248 267.292C226.998 267.417 226.672 267.48 226.272 267.48C225.755 267.48 225.289 267.359 224.874 267.117C224.462 266.873 224.135 266.514 223.894 266.039C223.655 265.562 223.536 264.975 223.536 264.279C223.536 263.583 223.654 262.987 223.89 262.49C224.128 261.992 224.455 261.612 224.87 261.348C225.284 261.08 225.755 260.947 226.28 260.947C226.686 260.947 227.015 261.015 227.265 261.152C227.515 261.285 227.709 261.441 227.848 261.62C227.99 261.799 228.1 261.957 228.176 262.093H228.27V261.032H229.519V267.723C229.519 268.285 229.388 268.747 229.127 269.107C228.865 269.468 228.512 269.735 228.066 269.909C227.623 270.082 227.123 270.169 226.566 270.169ZM226.553 266.423C226.919 266.423 227.229 266.338 227.482 266.167C227.738 265.994 227.931 265.747 228.061 265.426C228.195 265.102 228.262 264.714 228.262 264.262C228.262 263.822 228.196 263.434 228.066 263.099C227.935 262.764 227.743 262.502 227.49 262.315C227.238 262.125 226.925 262.029 226.553 262.029C226.169 262.029 225.85 262.129 225.594 262.328C225.338 262.524 225.145 262.791 225.015 263.129C224.887 263.467 224.823 263.845 224.823 264.262C224.823 264.691 224.888 265.068 225.019 265.392C225.15 265.715 225.343 265.968 225.598 266.15C225.857 266.332 226.175 266.423 226.553 266.423Z" fill="#1A1A1A"/>
</g>
<g filter="url(#filter4_dd_91_2571)">
<rect x="339.5" y="122.578" width="248" height="266.193" rx="9.24224" fill="white" shape-rendering="crispEdges"/>
<rect x="339.885" y="122.963" width="247.23" height="265.422" rx="8.85714" stroke="#D1D1D1" stroke-opacity="0.7" stroke-width="0.770186" shape-rendering="crispEdges"/>
<g filter="url(#filter5_dd_91_2571)">
<rect x="348.742" y="137.981" width="118" height="25" rx="12.5" fill="#FBF5FF" shape-rendering="crispEdges"/>
<rect x="349.242" y="138.481" width="117" height="24" rx="12" stroke="#ECD6F8" shape-rendering="crispEdges"/>
<path d="M360.461 148.547C360.415 148.143 360.228 147.831 359.898 147.609C359.569 147.385 359.154 147.273 358.654 147.273C358.296 147.273 357.987 147.329 357.725 147.443C357.464 147.554 357.261 147.707 357.116 147.903C356.974 148.097 356.903 148.317 356.903 148.564C356.903 148.771 356.951 148.95 357.048 149.101C357.147 149.251 357.276 149.378 357.435 149.48C357.597 149.579 357.771 149.663 357.955 149.731C358.14 149.797 358.317 149.851 358.488 149.893L359.34 150.115C359.619 150.183 359.904 150.275 360.197 150.392C360.489 150.508 360.761 150.662 361.011 150.852C361.261 151.043 361.462 151.278 361.616 151.56C361.772 151.841 361.85 152.177 361.85 152.57C361.85 153.064 361.722 153.503 361.467 153.886C361.214 154.27 360.846 154.572 360.363 154.794C359.883 155.016 359.302 155.126 358.62 155.126C357.967 155.126 357.401 155.023 356.924 154.815C356.447 154.608 356.073 154.314 355.803 153.933C355.533 153.55 355.384 153.095 355.356 152.57H356.677C356.702 152.885 356.805 153.148 356.984 153.358C357.165 153.565 357.397 153.72 357.678 153.822C357.962 153.922 358.273 153.972 358.612 153.972C358.984 153.972 359.315 153.913 359.604 153.797C359.897 153.677 360.127 153.513 360.295 153.302C360.462 153.089 360.546 152.841 360.546 152.557C360.546 152.298 360.472 152.087 360.325 151.922C360.18 151.757 359.982 151.621 359.732 151.513C359.485 151.405 359.205 151.31 358.893 151.227L357.862 150.946C357.163 150.756 356.609 150.476 356.2 150.106C355.793 149.737 355.59 149.248 355.59 148.641C355.59 148.138 355.727 147.699 355.999 147.324C356.272 146.949 356.641 146.658 357.107 146.45C357.573 146.24 358.099 146.135 358.684 146.135C359.275 146.135 359.796 146.239 360.248 146.446C360.702 146.653 361.06 146.939 361.322 147.302C361.583 147.663 361.719 148.078 361.731 148.547H360.461ZM366.078 155.114C365.465 155.114 364.929 154.973 364.472 154.692C364.015 154.41 363.659 154.017 363.407 153.511C363.154 153.006 363.027 152.415 363.027 151.739C363.027 151.06 363.154 150.466 363.407 149.957C363.659 149.449 364.015 149.054 364.472 148.773C364.929 148.491 365.465 148.351 366.078 148.351C366.692 148.351 367.228 148.491 367.685 148.773C368.142 149.054 368.498 149.449 368.75 149.957C369.003 150.466 369.13 151.06 369.13 151.739C369.13 152.415 369.003 153.006 368.75 153.511C368.498 154.017 368.142 154.41 367.685 154.692C367.228 154.973 366.692 155.114 366.078 155.114ZM366.083 154.044C366.48 154.044 366.81 153.939 367.071 153.729C367.333 153.518 367.526 153.239 367.651 152.889C367.779 152.54 367.843 152.155 367.843 151.734C367.843 151.317 367.779 150.933 367.651 150.584C367.526 150.231 367.333 149.949 367.071 149.736C366.81 149.523 366.48 149.416 366.083 149.416C365.682 149.416 365.35 149.523 365.086 149.736C364.824 149.949 364.63 150.231 364.502 150.584C364.377 150.933 364.314 151.317 364.314 151.734C364.314 152.155 364.377 152.54 364.502 152.889C364.63 153.239 364.824 153.518 365.086 153.729C365.35 153.939 365.682 154.044 366.083 154.044ZM373.667 148.436V149.459H369.968V148.436H373.667ZM370.982 154.981V147.677C370.982 147.268 371.072 146.929 371.251 146.659C371.43 146.386 371.667 146.183 371.962 146.05C372.258 145.913 372.579 145.845 372.925 145.845C373.181 145.845 373.4 145.866 373.582 145.909C373.763 145.949 373.898 145.986 373.987 146.02L373.688 147.051C373.629 147.034 373.552 147.014 373.458 146.991C373.364 146.966 373.251 146.953 373.117 146.953C372.808 146.953 372.586 147.03 372.452 147.183C372.322 147.337 372.256 147.558 372.256 147.848V154.981H370.982ZM378.037 148.436V149.459H374.462V148.436H378.037ZM375.42 146.868H376.695V153.06C376.695 153.307 376.732 153.493 376.805 153.618C376.879 153.74 376.974 153.824 377.091 153.869C377.21 153.912 377.339 153.933 377.479 153.933C377.581 153.933 377.67 153.926 377.747 153.912C377.824 153.898 377.884 153.886 377.926 153.878L378.156 154.93C378.082 154.959 377.977 154.987 377.841 155.016C377.705 155.047 377.534 155.064 377.33 155.067C376.994 155.072 376.682 155.013 376.392 154.888C376.102 154.763 375.868 154.57 375.689 154.308C375.51 154.047 375.42 153.719 375.42 153.324V146.868ZM380.865 154.981L378.939 148.436H380.256L381.539 153.243H381.603L382.89 148.436H384.206L385.485 153.222H385.549L386.823 148.436H388.14L386.218 154.981H384.918L383.588 150.256H383.49L382.161 154.981H380.865ZM391.254 155.126C390.839 155.126 390.464 155.05 390.129 154.896C389.793 154.74 389.528 154.514 389.332 154.219C389.138 153.923 389.042 153.561 389.042 153.132C389.042 152.763 389.113 152.459 389.255 152.22C389.397 151.981 389.589 151.793 389.83 151.653C390.072 151.514 390.342 151.409 390.64 151.338C390.938 151.267 391.242 151.213 391.552 151.176C391.944 151.131 392.262 151.094 392.506 151.065C392.751 151.034 392.928 150.984 393.039 150.916C393.15 150.848 393.205 150.737 393.205 150.584V150.554C393.205 150.182 393.1 149.893 392.89 149.689C392.683 149.484 392.373 149.382 391.961 149.382C391.532 149.382 391.194 149.477 390.947 149.668C390.702 149.855 390.533 150.064 390.44 150.294L389.242 150.021C389.384 149.623 389.592 149.302 389.864 149.058C390.14 148.811 390.457 148.632 390.815 148.521C391.173 148.408 391.549 148.351 391.944 148.351C392.205 148.351 392.482 148.382 392.775 148.445C393.07 148.504 393.346 148.615 393.602 148.777C393.86 148.939 394.072 149.17 394.237 149.472C394.401 149.77 394.484 150.158 394.484 150.635V154.981H393.239V154.087H393.188C393.106 154.251 392.982 154.413 392.817 154.572C392.653 154.731 392.441 154.864 392.183 154.969C391.924 155.074 391.614 155.126 391.254 155.126ZM391.531 154.104C391.883 154.104 392.184 154.034 392.434 153.895C392.687 153.756 392.879 153.574 393.009 153.349C393.143 153.122 393.21 152.879 393.21 152.621V151.777C393.164 151.822 393.076 151.865 392.945 151.905C392.817 151.942 392.671 151.974 392.506 152.003C392.342 152.028 392.181 152.052 392.025 152.075C391.869 152.095 391.738 152.112 391.633 152.126C391.386 152.158 391.16 152.21 390.955 152.284C390.754 152.358 390.592 152.464 390.469 152.604C390.35 152.74 390.29 152.922 390.29 153.149C390.29 153.464 390.407 153.703 390.64 153.865C390.873 154.024 391.17 154.104 391.531 154.104ZM396.181 154.981V148.436H397.412V149.476H397.48C397.6 149.123 397.81 148.847 398.111 148.645C398.415 148.44 398.759 148.338 399.142 148.338C399.222 148.338 399.316 148.341 399.424 148.347C399.534 148.352 399.621 148.359 399.684 148.368V149.587C399.632 149.572 399.542 149.557 399.411 149.54C399.28 149.52 399.15 149.51 399.019 149.51C398.718 149.51 398.449 149.574 398.213 149.702C397.98 149.827 397.796 150.001 397.659 150.226C397.523 150.447 397.455 150.7 397.455 150.984V154.981H396.181ZM403.373 155.114C402.728 155.114 402.173 154.976 401.707 154.7C401.244 154.422 400.886 154.031 400.633 153.528C400.383 153.023 400.258 152.43 400.258 151.751C400.258 151.081 400.383 150.49 400.633 149.979C400.886 149.467 401.238 149.068 401.69 148.781C402.144 148.494 402.675 148.351 403.283 148.351C403.653 148.351 404.011 148.412 404.357 148.534C404.704 148.656 405.015 148.848 405.29 149.109C405.566 149.371 405.783 149.71 405.942 150.128C406.102 150.543 406.181 151.047 406.181 151.641V152.092H400.978V151.138H404.933C404.933 150.802 404.864 150.506 404.728 150.247C404.592 149.986 404.4 149.78 404.153 149.629C403.908 149.479 403.621 149.403 403.292 149.403C402.934 149.403 402.621 149.491 402.354 149.668C402.09 149.841 401.886 150.068 401.741 150.349C401.599 150.628 401.528 150.93 401.528 151.257V152.003C401.528 152.44 401.604 152.812 401.758 153.119C401.914 153.426 402.131 153.66 402.41 153.822C402.688 153.981 403.013 154.061 403.386 154.061C403.627 154.061 403.847 154.027 404.046 153.959C404.245 153.888 404.417 153.783 404.562 153.643C404.707 153.504 404.817 153.332 404.894 153.128L406.1 153.345C406.004 153.7 405.83 154.011 405.58 154.278C405.333 154.543 405.022 154.748 404.647 154.896C404.275 155.041 403.85 155.114 403.373 155.114ZM410.873 154.981V146.254H416.285V147.388H412.19V150.047H415.897V151.176H412.19V154.981H410.873ZM420.142 155.114C419.498 155.114 418.942 154.976 418.476 154.7C418.013 154.422 417.655 154.031 417.402 153.528C417.152 153.023 417.027 152.43 417.027 151.751C417.027 151.081 417.152 150.49 417.402 149.979C417.655 149.467 418.007 149.068 418.459 148.781C418.914 148.494 419.445 148.351 420.053 148.351C420.422 148.351 420.78 148.412 421.127 148.534C421.473 148.656 421.784 148.848 422.06 149.109C422.336 149.371 422.553 149.71 422.712 150.128C422.871 150.543 422.951 151.047 422.951 151.641V152.092H417.748V151.138H421.702C421.702 150.802 421.634 150.506 421.498 150.247C421.361 149.986 421.169 149.78 420.922 149.629C420.678 149.479 420.391 149.403 420.061 149.403C419.703 149.403 419.391 149.491 419.124 149.668C418.86 149.841 418.655 150.068 418.51 150.349C418.368 150.628 418.297 150.93 418.297 151.257V152.003C418.297 152.44 418.374 152.812 418.527 153.119C418.684 153.426 418.901 153.66 419.179 153.822C419.458 153.981 419.783 154.061 420.155 154.061C420.397 154.061 420.617 154.027 420.816 153.959C421.015 153.888 421.186 153.783 421.331 153.643C421.476 153.504 421.587 153.332 421.664 153.128L422.87 153.345C422.773 153.7 422.6 154.011 422.35 154.278C422.103 154.543 421.792 154.748 421.417 154.896C421.044 155.041 420.62 155.114 420.142 155.114ZM426.269 155.126C425.854 155.126 425.479 155.05 425.144 154.896C424.809 154.74 424.543 154.514 424.347 154.219C424.154 153.923 424.058 153.561 424.058 153.132C424.058 152.763 424.129 152.459 424.271 152.22C424.413 151.981 424.604 151.793 424.846 151.653C425.087 151.514 425.357 151.409 425.656 151.338C425.954 151.267 426.258 151.213 426.567 151.176C426.96 151.131 427.278 151.094 427.522 151.065C427.766 151.034 427.944 150.984 428.055 150.916C428.165 150.848 428.221 150.737 428.221 150.584V150.554C428.221 150.182 428.116 149.893 427.906 149.689C427.698 149.484 427.388 149.382 426.977 149.382C426.548 149.382 426.21 149.477 425.962 149.668C425.718 149.855 425.549 150.064 425.455 150.294L424.258 150.021C424.4 149.623 424.607 149.302 424.88 149.058C425.156 148.811 425.472 148.632 425.83 148.521C426.188 148.408 426.565 148.351 426.96 148.351C427.221 148.351 427.498 148.382 427.79 148.445C428.086 148.504 428.362 148.615 428.617 148.777C428.876 148.939 429.087 149.17 429.252 149.472C429.417 149.77 429.499 150.158 429.499 150.635V154.981H428.255V154.087H428.204C428.121 154.251 427.998 154.413 427.833 154.572C427.668 154.731 427.457 154.864 427.198 154.969C426.94 155.074 426.63 155.126 426.269 155.126ZM426.546 154.104C426.898 154.104 427.2 154.034 427.45 153.895C427.702 153.756 427.894 153.574 428.025 153.349C428.158 153.122 428.225 152.879 428.225 152.621V151.777C428.18 151.822 428.092 151.865 427.961 151.905C427.833 151.942 427.687 151.974 427.522 152.003C427.357 152.028 427.197 152.052 427.04 152.075C426.884 152.095 426.754 152.112 426.648 152.126C426.401 152.158 426.175 152.21 425.971 152.284C425.769 152.358 425.607 152.464 425.485 152.604C425.366 152.74 425.306 152.922 425.306 153.149C425.306 153.464 425.423 153.703 425.656 153.865C425.888 154.024 426.185 154.104 426.546 154.104ZM434.252 148.436V149.459H430.676V148.436H434.252ZM431.635 146.868H432.909V153.06C432.909 153.307 432.946 153.493 433.02 153.618C433.094 153.74 433.189 153.824 433.306 153.869C433.425 153.912 433.554 153.933 433.694 153.933C433.796 153.933 433.885 153.926 433.962 153.912C434.039 153.898 434.098 153.886 434.141 153.878L434.371 154.93C434.297 154.959 434.192 154.987 434.056 155.016C433.919 155.047 433.749 155.064 433.544 155.067C433.209 155.072 432.897 155.013 432.607 154.888C432.317 154.763 432.083 154.57 431.904 154.308C431.725 154.047 431.635 153.719 431.635 153.324V146.868ZM439.808 152.267V148.436H441.086V154.981H439.833V153.848H439.765C439.614 154.197 439.373 154.489 439.04 154.722C438.711 154.952 438.3 155.067 437.809 155.067C437.388 155.067 437.016 154.974 436.692 154.79C436.371 154.602 436.119 154.325 435.934 153.959C435.752 153.592 435.661 153.139 435.661 152.599V148.436H436.935V152.446C436.935 152.892 437.059 153.247 437.306 153.511C437.553 153.775 437.874 153.908 438.269 153.908C438.508 153.908 438.745 153.848 438.981 153.729C439.219 153.609 439.417 153.429 439.573 153.187C439.732 152.946 439.81 152.639 439.808 152.267ZM442.798 154.981V148.436H444.029V149.476H444.098C444.217 149.123 444.427 148.847 444.728 148.645C445.032 148.44 445.376 148.338 445.76 148.338C445.839 148.338 445.933 148.341 446.041 148.347C446.152 148.352 446.238 148.359 446.301 148.368V149.587C446.25 149.572 446.159 149.557 446.028 149.54C445.897 149.52 445.767 149.51 445.636 149.51C445.335 149.51 445.066 149.574 444.831 149.702C444.598 149.827 444.413 150.001 444.277 150.226C444.14 150.447 444.072 150.7 444.072 150.984V154.981H442.798ZM449.99 155.114C449.345 155.114 448.79 154.976 448.324 154.7C447.861 154.422 447.503 154.031 447.25 153.528C447 153.023 446.875 152.43 446.875 151.751C446.875 151.081 447 150.49 447.25 149.979C447.503 149.467 447.855 149.068 448.307 148.781C448.761 148.494 449.293 148.351 449.901 148.351C450.27 148.351 450.628 148.412 450.974 148.534C451.321 148.656 451.632 148.848 451.908 149.109C452.183 149.371 452.401 149.71 452.56 150.128C452.719 150.543 452.798 151.047 452.798 151.641V152.092H447.595V151.138H451.55C451.55 150.802 451.482 150.506 451.345 150.247C451.209 149.986 451.017 149.78 450.77 149.629C450.526 149.479 450.239 149.403 449.909 149.403C449.551 149.403 449.239 149.491 448.972 149.668C448.707 149.841 448.503 150.068 448.358 150.349C448.216 150.628 448.145 150.93 448.145 151.257V152.003C448.145 152.44 448.222 152.812 448.375 153.119C448.531 153.426 448.749 153.66 449.027 153.822C449.305 153.981 449.631 154.061 450.003 154.061C450.244 154.061 450.464 154.027 450.663 153.959C450.862 153.888 451.034 153.783 451.179 153.643C451.324 153.504 451.435 153.332 451.511 153.128L452.717 153.345C452.621 153.7 452.447 154.011 452.197 154.278C451.95 154.543 451.639 154.748 451.264 154.896C450.892 155.041 450.467 155.114 449.99 155.114ZM459.117 150.034L457.962 150.239C457.914 150.091 457.837 149.95 457.732 149.817C457.63 149.683 457.49 149.574 457.314 149.489C457.138 149.403 456.918 149.361 456.654 149.361C456.293 149.361 455.992 149.442 455.75 149.604C455.509 149.763 455.388 149.969 455.388 150.222C455.388 150.44 455.469 150.616 455.631 150.75C455.793 150.883 456.054 150.993 456.415 151.078L457.455 151.317C458.057 151.456 458.506 151.67 458.801 151.96C459.097 152.25 459.245 152.626 459.245 153.089C459.245 153.481 459.131 153.831 458.904 154.138C458.679 154.442 458.365 154.68 457.962 154.854C457.561 155.027 457.097 155.114 456.569 155.114C455.836 155.114 455.238 154.957 454.775 154.645C454.311 154.329 454.027 153.882 453.922 153.302L455.154 153.115C455.23 153.436 455.388 153.679 455.627 153.844C455.865 154.006 456.176 154.087 456.56 154.087C456.978 154.087 457.311 154 457.561 153.827C457.811 153.65 457.936 153.436 457.936 153.183C457.936 152.979 457.86 152.807 457.706 152.668C457.556 152.528 457.324 152.423 457.012 152.352L455.904 152.109C455.293 151.97 454.841 151.748 454.549 151.445C454.259 151.141 454.114 150.756 454.114 150.29C454.114 149.903 454.222 149.565 454.438 149.275C454.654 148.986 454.952 148.76 455.333 148.598C455.713 148.433 456.15 148.351 456.641 148.351C457.348 148.351 457.905 148.504 458.311 148.811C458.718 149.115 458.986 149.523 459.117 150.034Z" fill="#9E32DD"/>
</g>
<g clip-path="url(#clip0_91_2571)">
<path d="M377.207 315.583H578.26" stroke="#E3E3E8" stroke-width="0.770186"/>
<path d="M377.207 283.189H578.26" stroke="#E3E3E8" stroke-width="0.770186"/>
<path d="M377.207 250.796H578.26" stroke="#E3E3E8" stroke-width="0.770186"/>
<path d="M377.207 219.234H578.26" stroke="#E3E3E8" stroke-width="0.770186"/>
<path d="M377.207 186.841H578.26" stroke="#E3E3E8" stroke-width="0.770186"/>
<path d="M377.605 315.582H485.689" stroke="#D1D1D1" stroke-width="0.770186"/>
<path d="M383.902 334.868L382.064 328.147H382.891L384.296 333.621H384.361L385.792 328.147H386.711L388.142 333.621H388.208L389.613 328.147H390.44L388.602 334.868H387.761L386.278 329.512H386.225L384.742 334.868H383.902ZM392.993 334.973C392.507 334.973 392.088 334.866 391.736 334.652C391.386 334.435 391.116 334.133 390.925 333.746C390.737 333.356 390.643 332.903 390.643 332.387C390.643 331.871 390.737 331.415 390.925 331.022C391.116 330.626 391.38 330.317 391.72 330.096C392.061 329.873 392.459 329.761 392.914 329.761C393.177 329.761 393.436 329.805 393.692 329.893C393.948 329.98 394.181 330.122 394.391 330.319C394.601 330.514 394.769 330.772 394.893 331.094C395.018 331.415 395.08 331.811 395.08 332.282V332.61H391.194V331.941H394.293C394.293 331.656 394.236 331.402 394.122 331.179C394.01 330.956 393.851 330.78 393.643 330.651C393.437 330.522 393.194 330.457 392.914 330.457C392.606 330.457 392.339 330.534 392.113 330.687C391.89 330.838 391.718 331.035 391.598 331.278C391.478 331.52 391.418 331.781 391.418 332.059V332.505C391.418 332.886 391.483 333.209 391.615 333.473C391.748 333.736 391.933 333.936 392.169 334.074C392.406 334.21 392.68 334.277 392.993 334.277C393.197 334.277 393.38 334.249 393.544 334.192C393.711 334.133 393.854 334.045 393.974 333.929C394.095 333.811 394.188 333.665 394.253 333.49L395.002 333.7C394.923 333.954 394.79 334.177 394.605 334.369C394.419 334.56 394.189 334.708 393.915 334.816C393.642 334.921 393.334 334.973 392.993 334.973ZM398.372 334.973C397.887 334.973 397.468 334.866 397.115 334.652C396.765 334.435 396.495 334.133 396.305 333.746C396.116 333.356 396.022 332.903 396.022 332.387C396.022 331.871 396.116 331.415 396.305 331.022C396.495 330.626 396.76 330.317 397.099 330.096C397.44 329.873 397.838 329.761 398.294 329.761C398.556 329.761 398.815 329.805 399.071 329.893C399.327 329.98 399.56 330.122 399.77 330.319C399.98 330.514 400.148 330.772 400.273 331.094C400.397 331.415 400.46 331.811 400.46 332.282V332.61H396.574V331.941H399.672C399.672 331.656 399.615 331.402 399.501 331.179C399.39 330.956 399.23 330.78 399.022 330.651C398.816 330.522 398.574 330.457 398.294 330.457C397.985 330.457 397.718 330.534 397.493 330.687C397.27 330.838 397.098 331.035 396.977 331.278C396.857 331.52 396.797 331.781 396.797 332.059V332.505C396.797 332.886 396.863 333.209 396.994 333.473C397.127 333.736 397.312 333.936 397.549 334.074C397.785 334.21 398.059 334.277 398.372 334.277C398.576 334.277 398.76 334.249 398.924 334.192C399.09 334.133 399.233 334.045 399.354 333.929C399.474 333.811 399.567 333.665 399.633 333.49L400.381 333.7C400.302 333.954 400.17 334.177 399.984 334.369C399.798 334.56 399.568 334.708 399.295 334.816C399.021 334.921 398.714 334.973 398.372 334.973ZM402.36 333.03L402.347 332.072H402.504L404.71 329.827H405.668L403.318 332.203H403.253L402.36 333.03ZM401.638 334.868V328.147H402.412V334.868H401.638ZM404.841 334.868L402.872 332.374L403.423 331.836L405.826 334.868H404.841ZM411.615 328.147V334.868H410.801V329H410.761L409.12 330.09V329.262L410.801 328.147H411.615Z" fill="#515A65"/>
<path d="M430.874 335.368L428.913 328.198H429.796L431.294 334.038H431.364L432.89 328.198H433.871L435.397 334.038H435.467L436.965 328.198H437.848L435.887 335.368H434.991L433.409 329.655H433.353L431.77 335.368H430.874ZM440.571 335.48C440.053 335.48 439.606 335.366 439.23 335.137C438.857 334.906 438.569 334.584 438.366 334.171C438.165 333.755 438.065 333.272 438.065 332.722C438.065 332.171 438.165 331.685 438.366 331.265C438.569 330.843 438.851 330.514 439.213 330.278C439.577 330.04 440.002 329.921 440.487 329.921C440.767 329.921 441.044 329.968 441.317 330.061C441.59 330.154 441.839 330.306 442.063 330.516C442.287 330.724 442.465 330.999 442.598 331.342C442.731 331.685 442.798 332.108 442.798 332.609V332.96H438.653V332.245H441.958C441.958 331.942 441.897 331.671 441.776 331.433C441.657 331.195 441.486 331.007 441.264 330.87C441.045 330.732 440.786 330.663 440.487 330.663C440.158 330.663 439.873 330.745 439.633 330.908C439.395 331.069 439.212 331.279 439.083 331.538C438.955 331.797 438.891 332.075 438.891 332.371V332.848C438.891 333.254 438.961 333.598 439.101 333.88C439.243 334.16 439.44 334.374 439.693 334.521C439.945 334.666 440.238 334.738 440.571 334.738C440.788 334.738 440.984 334.708 441.159 334.647C441.337 334.584 441.49 334.491 441.618 334.367C441.746 334.241 441.846 334.085 441.916 333.898L442.714 334.122C442.63 334.393 442.489 334.631 442.29 334.836C442.092 335.039 441.847 335.198 441.555 335.312C441.263 335.424 440.935 335.48 440.571 335.48ZM446.309 335.48C445.791 335.48 445.344 335.366 444.968 335.137C444.595 334.906 444.307 334.584 444.104 334.171C443.903 333.755 443.803 333.272 443.803 332.722C443.803 332.171 443.903 331.685 444.104 331.265C444.307 330.843 444.589 330.514 444.951 330.278C445.315 330.04 445.74 329.921 446.225 329.921C446.505 329.921 446.782 329.968 447.055 330.061C447.328 330.154 447.576 330.306 447.801 330.516C448.025 330.724 448.203 330.999 448.336 331.342C448.469 331.685 448.536 332.108 448.536 332.609V332.96H444.391V332.245H447.695C447.695 331.942 447.635 331.671 447.513 331.433C447.394 331.195 447.224 331.007 447.002 330.87C446.783 330.732 446.524 330.663 446.225 330.663C445.896 330.663 445.611 330.745 445.371 330.908C445.133 331.069 444.95 331.279 444.821 331.538C444.693 331.797 444.629 332.075 444.629 332.371V332.848C444.629 333.254 444.699 333.598 444.839 333.88C444.981 334.16 445.178 334.374 445.43 334.521C445.683 334.666 445.975 334.738 446.309 334.738C446.526 334.738 446.722 334.708 446.897 334.647C447.075 334.584 447.228 334.491 447.356 334.367C447.484 334.241 447.583 334.085 447.653 333.898L448.452 334.122C448.368 334.393 448.226 334.631 448.028 334.836C447.83 335.039 447.585 335.198 447.293 335.312C447.001 335.424 446.673 335.48 446.309 335.48ZM450.563 333.408L450.549 332.385H450.717L453.069 329.991H454.092L451.585 332.525H451.515L450.563 333.408ZM449.792 335.368V328.198H450.619V335.368H449.792ZM453.209 335.368L451.109 332.708L451.697 332.133L454.26 335.368H453.209ZM457.914 335.368V334.738L460.28 332.147C460.558 331.844 460.787 331.58 460.966 331.356C461.146 331.13 461.279 330.917 461.365 330.719C461.454 330.518 461.498 330.308 461.498 330.089C461.498 329.837 461.438 329.619 461.316 329.434C461.197 329.25 461.034 329.107 460.826 329.007C460.619 328.907 460.385 328.857 460.126 328.857C459.851 328.857 459.61 328.914 459.405 329.028C459.202 329.14 459.044 329.298 458.932 329.501C458.823 329.704 458.768 329.942 458.768 330.215H457.942C457.942 329.795 458.038 329.426 458.232 329.109C458.426 328.791 458.69 328.544 459.023 328.366C459.359 328.189 459.736 328.1 460.154 328.1C460.574 328.1 460.946 328.189 461.271 328.366C461.595 328.544 461.85 328.783 462.034 329.084C462.218 329.385 462.311 329.72 462.311 330.089C462.311 330.353 462.263 330.611 462.167 330.863C462.074 331.112 461.91 331.391 461.677 331.699C461.446 332.005 461.125 332.378 460.714 332.82L459.104 334.542V334.598H462.437V335.368H457.914Z" fill="#515A65"/>
<path d="M481.229 334.868L479.391 328.147H480.218L481.622 333.621H481.688L483.119 328.147H484.038L485.469 333.621H485.535L486.939 328.147H487.766L485.928 334.868H485.088L483.605 329.512H483.552L482.069 334.868H481.229ZM490.32 334.973C489.834 334.973 489.415 334.866 489.063 334.652C488.713 334.435 488.443 334.133 488.252 333.746C488.064 333.356 487.97 332.903 487.97 332.387C487.97 331.871 488.064 331.415 488.252 331.022C488.443 330.626 488.707 330.317 489.046 330.096C489.388 329.873 489.786 329.761 490.241 329.761C490.504 329.761 490.763 329.805 491.019 329.893C491.275 329.98 491.508 330.122 491.718 330.319C491.928 330.514 492.095 330.772 492.22 331.094C492.345 331.415 492.407 331.811 492.407 332.282V332.61H488.521V331.941H491.62C491.62 331.656 491.563 331.402 491.449 331.179C491.337 330.956 491.178 330.78 490.97 330.651C490.764 330.522 490.521 330.457 490.241 330.457C489.933 330.457 489.666 330.534 489.44 330.687C489.217 330.838 489.045 331.035 488.925 331.278C488.805 331.52 488.744 331.781 488.744 332.059V332.505C488.744 332.886 488.81 333.209 488.941 333.473C489.075 333.736 489.26 333.936 489.496 334.074C489.732 334.21 490.007 334.277 490.32 334.277C490.523 334.277 490.707 334.249 490.871 334.192C491.038 334.133 491.181 334.045 491.301 333.929C491.422 333.811 491.515 333.665 491.58 333.49L492.328 333.7C492.25 333.954 492.117 334.177 491.931 334.369C491.745 334.56 491.516 334.708 491.242 334.816C490.969 334.921 490.661 334.973 490.32 334.973ZM495.699 334.973C495.213 334.973 494.794 334.866 494.442 334.652C494.092 334.435 493.822 334.133 493.631 333.746C493.443 333.356 493.349 332.903 493.349 332.387C493.349 331.871 493.443 331.415 493.631 331.022C493.822 330.626 494.087 330.317 494.426 330.096C494.767 329.873 495.165 329.761 495.62 329.761C495.883 329.761 496.142 329.805 496.398 329.893C496.654 329.98 496.887 330.122 497.097 330.319C497.307 330.514 497.475 330.772 497.599 331.094C497.724 331.415 497.787 331.811 497.787 332.282V332.61H493.901V331.941H496.999C496.999 331.656 496.942 331.402 496.828 331.179C496.717 330.956 496.557 330.78 496.349 330.651C496.143 330.522 495.9 330.457 495.62 330.457C495.312 330.457 495.045 330.534 494.82 330.687C494.596 330.838 494.425 331.035 494.304 331.278C494.184 331.52 494.124 331.781 494.124 332.059V332.505C494.124 332.886 494.189 333.209 494.321 333.473C494.454 333.736 494.639 333.936 494.875 334.074C495.112 334.21 495.386 334.277 495.699 334.277C495.903 334.277 496.086 334.249 496.251 334.192C496.417 334.133 496.56 334.045 496.68 333.929C496.801 333.811 496.894 333.665 496.959 333.49L497.708 333.7C497.629 333.954 497.497 334.177 497.311 334.369C497.125 334.56 496.895 334.708 496.621 334.816C496.348 334.921 496.04 334.973 495.699 334.973ZM499.687 333.03L499.674 332.072H499.831L502.037 329.827H502.995L500.645 332.203H500.58L499.687 333.03ZM498.965 334.868V328.147H499.739V334.868H498.965ZM502.168 334.868L500.199 332.374L500.75 331.836L503.153 334.868H502.168ZM508.849 334.96C508.416 334.96 508.03 334.886 507.691 334.737C507.354 334.588 507.086 334.381 506.887 334.117C506.69 333.85 506.583 333.54 506.565 333.188H507.392C507.41 333.404 507.484 333.591 507.615 333.749C507.747 333.904 507.918 334.025 508.131 334.11C508.343 334.195 508.578 334.238 508.836 334.238C509.125 334.238 509.381 334.188 509.604 334.087C509.828 333.986 510.003 333.846 510.129 333.667C510.256 333.488 510.32 333.28 510.32 333.043C510.32 332.796 510.259 332.578 510.136 332.39C510.013 332.2 509.834 332.051 509.598 331.944C509.361 331.837 509.073 331.783 508.731 331.783H508.193V331.061H508.731C508.998 331.061 509.232 331.013 509.434 330.917C509.637 330.82 509.796 330.685 509.91 330.51C510.026 330.335 510.084 330.129 510.084 329.893C510.084 329.665 510.033 329.467 509.933 329.299C509.832 329.13 509.69 328.999 509.506 328.905C509.324 328.811 509.11 328.764 508.863 328.764C508.631 328.764 508.412 328.806 508.206 328.892C508.003 328.975 507.836 329.096 507.707 329.256C507.578 329.413 507.508 329.604 507.497 329.827H506.71C506.723 329.475 506.829 329.166 507.028 328.901C507.227 328.634 507.487 328.427 507.809 328.278C508.133 328.129 508.488 328.055 508.876 328.055C509.291 328.055 509.648 328.139 509.946 328.307C510.243 328.474 510.472 328.694 510.632 328.967C510.791 329.241 510.871 329.536 510.871 329.853C510.871 330.232 510.772 330.554 510.573 330.821C510.376 331.088 510.108 331.273 509.768 331.376V331.429C510.193 331.499 510.524 331.679 510.763 331.97C511.001 332.259 511.121 332.617 511.121 333.043C511.121 333.409 511.021 333.737 510.822 334.028C510.625 334.317 510.356 334.544 510.015 334.711C509.673 334.877 509.285 334.96 508.849 334.96Z" fill="#515A65"/>
<path d="M529.769 334.868L527.931 328.147H528.758L530.162 333.621H530.228L531.659 328.147H532.578L534.009 333.621H534.075L535.479 328.147H536.306L534.468 334.868H533.628L532.145 329.512H532.092L530.609 334.868H529.769ZM538.86 334.973C538.374 334.973 537.955 334.866 537.603 334.652C537.253 334.435 536.982 334.133 536.792 333.746C536.604 333.356 536.51 332.903 536.51 332.387C536.51 331.871 536.604 331.415 536.792 331.022C536.982 330.626 537.247 330.317 537.586 330.096C537.928 329.873 538.326 329.761 538.781 329.761C539.044 329.761 539.303 329.805 539.559 329.893C539.815 329.98 540.048 330.122 540.258 330.319C540.468 330.514 540.635 330.772 540.76 331.094C540.885 331.415 540.947 331.811 540.947 332.282V332.61H537.061V331.941H540.159C540.159 331.656 540.103 331.402 539.989 331.179C539.877 330.956 539.718 330.78 539.51 330.651C539.304 330.522 539.061 330.457 538.781 330.457C538.473 330.457 538.206 330.534 537.98 330.687C537.757 330.838 537.585 331.035 537.465 331.278C537.345 331.52 537.284 331.781 537.284 332.059V332.505C537.284 332.886 537.35 333.209 537.481 333.473C537.615 333.736 537.8 333.936 538.036 334.074C538.272 334.21 538.547 334.277 538.86 334.277C539.063 334.277 539.247 334.249 539.411 334.192C539.577 334.133 539.721 334.045 539.841 333.929C539.961 333.811 540.054 333.665 540.12 333.49L540.868 333.7C540.79 333.954 540.657 334.177 540.471 334.369C540.285 334.56 540.056 334.708 539.782 334.816C539.509 334.921 539.201 334.973 538.86 334.973ZM544.239 334.973C543.753 334.973 543.334 334.866 542.982 334.652C542.632 334.435 542.362 334.133 542.171 333.746C541.983 333.356 541.889 332.903 541.889 332.387C541.889 331.871 541.983 331.415 542.171 331.022C542.362 330.626 542.626 330.317 542.966 330.096C543.307 329.873 543.705 329.761 544.16 329.761C544.423 329.761 544.682 329.805 544.938 329.893C545.194 329.98 545.427 330.122 545.637 330.319C545.847 330.514 546.015 330.772 546.139 331.094C546.264 331.415 546.326 331.811 546.326 332.282V332.61H542.441V331.941H545.539C545.539 331.656 545.482 331.402 545.368 331.179C545.257 330.956 545.097 330.78 544.889 330.651C544.683 330.522 544.44 330.457 544.16 330.457C543.852 330.457 543.585 330.534 543.359 330.687C543.136 330.838 542.965 331.035 542.844 331.278C542.724 331.52 542.664 331.781 542.664 332.059V332.505C542.664 332.886 542.729 333.209 542.861 333.473C542.994 333.736 543.179 333.936 543.415 334.074C543.652 334.21 543.926 334.277 544.239 334.277C544.443 334.277 544.626 334.249 544.79 334.192C544.957 334.133 545.1 334.045 545.22 333.929C545.341 333.811 545.434 333.665 545.499 333.49L546.248 333.7C546.169 333.954 546.037 334.177 545.851 334.369C545.665 334.56 545.435 334.708 545.161 334.816C544.888 334.921 544.58 334.973 544.239 334.973ZM548.227 333.03L548.214 332.072H548.371L550.577 329.827H551.535L549.185 332.203H549.119L548.227 333.03ZM547.505 334.868V328.147H548.279V334.868H547.505ZM550.708 334.868L548.739 332.374L549.29 331.836L551.693 334.868H550.708ZM554.961 333.49V332.82L557.915 328.147H558.4V329.184H558.072L555.84 332.715V332.768H559.818V333.49H554.961ZM558.125 334.868V333.286V332.974V328.147H558.899V334.868H558.125Z" fill="#515A65"/>
<path d="M365.375 317.119C364.88 317.119 364.459 316.985 364.111 316.716C363.763 316.444 363.498 316.051 363.314 315.537C363.13 315.021 363.038 314.397 363.038 313.667C363.038 312.94 363.13 312.32 363.314 311.806C363.5 311.289 363.767 310.895 364.115 310.624C364.465 310.351 364.885 310.214 365.375 310.214C365.865 310.214 366.284 310.351 366.632 310.624C366.982 310.895 367.249 311.289 367.433 311.806C367.619 312.32 367.712 312.94 367.712 313.667C367.712 314.397 367.62 315.021 367.436 315.537C367.252 316.051 366.986 316.444 366.639 316.716C366.291 316.985 365.869 317.119 365.375 317.119ZM365.375 316.397C365.865 316.397 366.246 316.161 366.517 315.688C366.788 315.216 366.924 314.542 366.924 313.667C366.924 313.085 366.862 312.589 366.737 312.18C366.614 311.771 366.437 311.459 366.205 311.244C365.976 311.03 365.699 310.923 365.375 310.923C364.889 310.923 364.51 311.162 364.236 311.642C363.963 312.118 363.826 312.794 363.826 313.667C363.826 314.249 363.887 314.743 364.01 315.15C364.132 315.557 364.308 315.867 364.538 316.079C364.77 316.291 365.049 316.397 365.375 316.397Z" fill="#515A65"/>
<path d="M362.872 284.086V283.417L365.826 278.743H366.312V279.78H365.984L363.752 283.312V283.364H367.73V284.086H362.872ZM366.036 285.465V283.883V283.571V278.743H366.811V285.465H366.036Z" fill="#515A65"/>
<path d="M365.809 253.164C365.358 253.164 364.96 253.084 364.614 252.924C364.271 252.762 364.003 252.54 363.81 252.258C363.618 251.973 363.522 251.65 363.525 251.286C363.522 251.002 363.578 250.739 363.692 250.499C363.806 250.256 363.961 250.053 364.158 249.891C364.357 249.727 364.579 249.623 364.824 249.58V249.54C364.503 249.457 364.247 249.277 364.056 248.999C363.866 248.719 363.772 248.4 363.774 248.044C363.772 247.702 363.858 247.397 364.033 247.128C364.208 246.859 364.449 246.647 364.755 246.491C365.064 246.336 365.415 246.258 365.809 246.258C366.198 246.258 366.546 246.336 366.853 246.491C367.159 246.647 367.4 246.859 367.575 247.128C367.752 247.397 367.842 247.702 367.844 248.044C367.842 248.4 367.744 248.719 367.552 248.999C367.361 249.277 367.109 249.457 366.794 249.54V249.58C367.036 249.623 367.255 249.727 367.45 249.891C367.645 250.053 367.8 250.256 367.916 250.499C368.032 250.739 368.091 251.002 368.093 251.286C368.091 251.65 367.993 251.973 367.798 252.258C367.605 252.54 367.337 252.762 366.994 252.924C366.652 253.084 366.257 253.164 365.809 253.164ZM365.809 252.442C366.113 252.442 366.376 252.392 366.597 252.294C366.818 252.195 366.988 252.057 367.109 251.877C367.229 251.698 367.29 251.488 367.292 251.247C367.29 250.993 367.225 250.769 367.096 250.574C366.966 250.379 366.79 250.226 366.567 250.115C366.346 250.003 366.093 249.947 365.809 249.947C365.522 249.947 365.266 250.003 365.041 250.115C364.818 250.226 364.642 250.379 364.513 250.574C364.386 250.769 364.323 250.993 364.325 251.247C364.323 251.488 364.381 251.698 364.499 251.877C364.62 252.057 364.792 252.195 365.015 252.294C365.238 252.392 365.503 252.442 365.809 252.442ZM365.809 249.251C366.05 249.251 366.263 249.203 366.449 249.107C366.637 249.011 366.785 248.876 366.892 248.703C366.999 248.531 367.054 248.328 367.056 248.096C367.054 247.869 367 247.671 366.895 247.502C366.79 247.331 366.645 247.2 366.459 247.108C366.273 247.014 366.056 246.967 365.809 246.967C365.557 246.967 365.337 247.014 365.149 247.108C364.961 247.2 364.816 247.331 364.713 247.502C364.61 247.671 364.56 247.869 364.562 248.096C364.56 248.328 364.611 248.531 364.716 248.703C364.823 248.876 364.971 249.011 365.159 249.107C365.347 249.203 365.564 249.251 365.809 249.251Z" fill="#515A65"/>
<path d="M361.822 214.788V221.509H361.008V215.641H360.969L359.328 216.731V215.904L361.008 214.788H361.822ZM363.755 221.509V220.919L365.974 218.49C366.234 218.205 366.449 217.958 366.617 217.748C366.786 217.536 366.91 217.337 366.991 217.151C367.074 216.963 367.116 216.766 367.116 216.56C367.116 216.324 367.059 216.119 366.945 215.946C366.834 215.773 366.681 215.64 366.486 215.546C366.291 215.452 366.072 215.405 365.829 215.405C365.571 215.405 365.346 215.458 365.153 215.565C364.963 215.671 364.815 215.818 364.71 216.009C364.607 216.199 364.556 216.422 364.556 216.678H363.781C363.781 216.284 363.872 215.939 364.054 215.641C364.235 215.343 364.483 215.111 364.796 214.945C365.111 214.779 365.464 214.696 365.856 214.696C366.25 214.696 366.599 214.779 366.903 214.945C367.207 215.111 367.445 215.336 367.618 215.618C367.791 215.9 367.877 216.214 367.877 216.56C367.877 216.807 367.833 217.049 367.743 217.285C367.655 217.519 367.502 217.781 367.283 218.07C367.067 218.356 366.766 218.706 366.381 219.12L364.871 220.735V220.787H367.996V221.509H363.755Z" fill="#515A65"/>
<path d="M361.649 182.394V189.116H360.835V183.247H360.795L359.154 184.337V183.51L360.835 182.394H361.649ZM365.814 189.208C365.538 189.203 365.262 189.151 364.987 189.05C364.711 188.949 364.459 188.78 364.232 188.541C364.004 188.301 363.821 187.976 363.684 187.567C363.546 187.155 363.477 186.639 363.477 186.017C363.477 185.422 363.533 184.895 363.644 184.436C363.756 183.974 363.918 183.585 364.13 183.27C364.342 182.953 364.598 182.712 364.898 182.548C365.2 182.384 365.54 182.302 365.919 182.302C366.295 182.302 366.63 182.378 366.923 182.529C367.218 182.677 367.459 182.885 367.645 183.152C367.831 183.419 367.951 183.727 368.006 184.075H367.205C367.131 183.773 366.986 183.522 366.772 183.323C366.558 183.124 366.273 183.024 365.919 183.024C365.398 183.024 364.988 183.251 364.688 183.704C364.39 184.157 364.241 184.792 364.238 185.61H364.291C364.413 185.425 364.559 185.266 364.727 185.135C364.898 185.001 365.086 184.898 365.292 184.826C365.498 184.754 365.715 184.718 365.945 184.718C366.33 184.718 366.682 184.814 367.002 185.007C367.321 185.197 367.577 185.461 367.77 185.798C367.962 186.132 368.059 186.516 368.059 186.95C368.059 187.365 367.966 187.746 367.78 188.092C367.594 188.435 367.332 188.709 366.995 188.912C366.66 189.114 366.267 189.212 365.814 189.208ZM365.814 188.486C366.089 188.486 366.337 188.417 366.555 188.279C366.776 188.141 366.95 187.956 367.077 187.724C367.206 187.492 367.271 187.234 367.271 186.95C367.271 186.672 367.209 186.419 367.084 186.191C366.961 185.962 366.792 185.779 366.575 185.643C366.361 185.508 366.116 185.44 365.84 185.44C365.632 185.44 365.438 185.481 365.259 185.565C365.08 185.646 364.922 185.757 364.786 185.899C364.653 186.042 364.548 186.205 364.471 186.388C364.395 186.57 364.356 186.761 364.356 186.963C364.356 187.23 364.419 187.479 364.544 187.711C364.67 187.943 364.843 188.13 365.062 188.272C365.283 188.414 365.534 188.486 365.814 188.486Z" fill="#515A65"/>
<rect x="382.629" y="185.464" width="11.5528" height="130.161" fill="#9E32DD"/>
<rect x="394.184" y="203.179" width="13.0932" height="112.447" fill="#D8ADF1"/>
<rect x="435" y="238.607" width="11.5528" height="77.0186" fill="#9E32DD"/>
<rect x="446.555" y="254.781" width="13.0932" height="60.8447" fill="#D8ADF1"/>
<rect x="487.375" y="238.607" width="11.5528" height="77.0186" fill="#9E32DD"/>
<rect x="498.926" y="204.719" width="13.0932" height="110.907" fill="#D8ADF1"/>
<rect x="539.746" y="224.744" width="11.5528" height="90.882" fill="#9E32DD"/>
<rect x="551.301" y="278.657" width="13.0932" height="36.9689" fill="#D8ADF1"/>
</g>
<rect x="403.703" y="358.395" width="10.7826" height="10.7826" rx="5.3913" fill="#9E32DD"/>
<path d="M422.02 367.286H419.844V360.564H422.089C422.747 360.564 423.313 360.699 423.786 360.968C424.258 361.235 424.62 361.619 424.872 362.12C425.126 362.619 425.253 363.217 425.253 363.915C425.253 364.615 425.125 365.217 424.869 365.72C424.615 366.223 424.247 366.611 423.766 366.882C423.285 367.151 422.703 367.286 422.02 367.286ZM420.858 366.399H421.964C422.476 366.399 422.902 366.303 423.241 366.111C423.58 365.916 423.834 365.635 424.002 365.267C424.171 364.897 424.255 364.447 424.255 363.915C424.255 363.388 424.171 362.94 424.002 362.573C423.836 362.205 423.588 361.926 423.257 361.736C422.927 361.545 422.517 361.45 422.026 361.45H420.858V366.399ZM428.608 367.387C428.111 367.387 427.683 367.281 427.325 367.069C426.968 366.855 426.692 366.554 426.497 366.166C426.305 365.777 426.209 365.321 426.209 364.798C426.209 364.281 426.305 363.826 426.497 363.433C426.692 363.039 426.964 362.731 427.311 362.51C427.661 362.289 428.071 362.179 428.539 362.179C428.823 362.179 429.099 362.226 429.366 362.32C429.633 362.414 429.872 362.562 430.085 362.763C430.297 362.964 430.464 363.226 430.587 363.547C430.709 363.867 430.771 364.255 430.771 364.713V365.06H426.763V364.325H429.809C429.809 364.067 429.757 363.838 429.651 363.639C429.546 363.438 429.399 363.279 429.208 363.163C429.02 363.047 428.799 362.989 428.545 362.989C428.27 362.989 428.029 363.057 427.823 363.193C427.62 363.326 427.462 363.501 427.351 363.718C427.241 363.932 427.187 364.166 427.187 364.417V364.991C427.187 365.328 427.246 365.615 427.364 365.851C427.484 366.088 427.652 366.268 427.866 366.393C428.08 366.515 428.331 366.577 428.618 366.577C428.804 366.577 428.973 366.55 429.126 366.498C429.28 366.443 429.412 366.362 429.523 366.255C429.635 366.148 429.72 366.015 429.779 365.858L430.708 366.025C430.634 366.299 430.5 366.538 430.308 366.744C430.118 366.948 429.878 367.106 429.589 367.22C429.303 367.332 428.975 367.387 428.608 367.387ZM432.841 360.564V367.286H431.859V360.564H432.841ZM434.161 367.286V362.244H435.142V367.286H434.161ZM434.657 361.467C434.486 361.467 434.339 361.41 434.217 361.296C434.096 361.18 434.036 361.042 434.036 360.882C434.036 360.72 434.096 360.583 434.217 360.469C434.339 360.353 434.486 360.295 434.657 360.295C434.827 360.295 434.973 360.353 435.093 360.469C435.216 360.583 435.277 360.72 435.277 360.882C435.277 361.042 435.216 361.18 435.093 361.296C434.973 361.41 434.827 361.467 434.657 361.467ZM440.775 362.244L438.947 367.286H437.897L436.065 362.244H437.119L438.396 366.124H438.448L439.722 362.244H440.775ZM443.699 367.387C443.202 367.387 442.774 367.281 442.415 367.069C442.059 366.855 441.783 366.554 441.588 366.166C441.396 365.777 441.299 365.321 441.299 364.798C441.299 364.281 441.396 363.826 441.588 363.433C441.783 363.039 442.054 362.731 442.402 362.51C442.752 362.289 443.161 362.179 443.63 362.179C443.914 362.179 444.19 362.226 444.457 362.32C444.724 362.414 444.963 362.562 445.176 362.763C445.388 362.964 445.555 363.226 445.678 363.547C445.8 363.867 445.862 364.255 445.862 364.713V365.06H441.854V364.325H444.9C444.9 364.067 444.847 363.838 444.742 363.639C444.637 363.438 444.49 363.279 444.299 363.163C444.111 363.047 443.89 362.989 443.636 362.989C443.361 362.989 443.12 363.057 442.914 363.193C442.711 363.326 442.553 363.501 442.442 363.718C442.332 363.932 442.278 364.166 442.278 364.417V364.991C442.278 365.328 442.337 365.615 442.455 365.851C442.575 366.088 442.742 366.268 442.957 366.393C443.171 366.515 443.422 366.577 443.708 366.577C443.894 366.577 444.064 366.55 444.217 366.498C444.37 366.443 444.503 366.362 444.614 366.255C444.726 366.148 444.811 366.015 444.87 365.858L445.799 366.025C445.725 366.299 445.591 366.538 445.399 366.744C445.208 366.948 444.969 367.106 444.68 367.22C444.393 367.332 444.066 367.387 443.699 367.387ZM446.95 367.286V362.244H447.899V363.045H447.951C448.043 362.774 448.205 362.561 448.437 362.405C448.671 362.248 448.936 362.169 449.231 362.169C449.293 362.169 449.365 362.171 449.448 362.176C449.533 362.18 449.6 362.185 449.648 362.192V363.131C449.609 363.12 449.539 363.108 449.438 363.094C449.337 363.079 449.237 363.072 449.136 363.072C448.904 363.072 448.697 363.121 448.516 363.219C448.336 363.315 448.194 363.45 448.089 363.623C447.984 363.794 447.932 363.988 447.932 364.207V367.286H446.95ZM452.49 367.387C451.993 367.387 451.565 367.281 451.206 367.069C450.85 366.855 450.574 366.554 450.379 366.166C450.187 365.777 450.09 365.321 450.09 364.798C450.09 364.281 450.187 363.826 450.379 363.433C450.574 363.039 450.845 362.731 451.193 362.51C451.543 362.289 451.952 362.179 452.421 362.179C452.705 362.179 452.981 362.226 453.248 362.32C453.515 362.414 453.754 362.562 453.967 362.763C454.179 362.964 454.346 363.226 454.469 363.547C454.591 363.867 454.652 364.255 454.652 364.713V365.06H450.645V364.325H453.691C453.691 364.067 453.638 363.838 453.533 363.639C453.428 363.438 453.281 363.279 453.09 363.163C452.902 363.047 452.681 362.989 452.427 362.989C452.152 362.989 451.911 363.057 451.705 363.193C451.502 363.326 451.344 363.501 451.233 363.718C451.123 363.932 451.068 364.166 451.068 364.417V364.991C451.068 365.328 451.128 365.615 451.246 365.851C451.366 366.088 451.533 366.268 451.748 366.393C451.962 366.515 452.213 366.577 452.499 366.577C452.685 366.577 452.855 366.55 453.008 366.498C453.161 366.443 453.294 366.362 453.405 366.255C453.517 366.148 453.602 366.015 453.661 365.858L454.59 366.025C454.516 366.299 454.382 366.538 454.19 366.744C453.999 366.948 453.76 367.106 453.471 367.22C453.184 367.332 452.857 367.387 452.49 367.387ZM457.628 367.384C457.221 367.384 456.858 367.28 456.539 367.072C456.222 366.862 455.972 366.564 455.791 366.176C455.611 365.787 455.521 365.32 455.521 364.775C455.521 364.23 455.612 363.764 455.794 363.377C455.978 362.989 456.229 362.693 456.549 362.487C456.868 362.282 457.23 362.179 457.635 362.179C457.948 362.179 458.2 362.231 458.39 362.336C458.582 362.439 458.731 362.56 458.836 362.697C458.943 362.835 459.027 362.957 459.086 363.062H459.145V360.564H460.126V367.286H459.168V366.501H459.086C459.027 366.608 458.941 366.731 458.83 366.869C458.72 367.007 458.569 367.127 458.377 367.23C458.184 367.333 457.935 367.384 457.628 367.384ZM457.845 366.547C458.127 366.547 458.366 366.473 458.561 366.324C458.757 366.173 458.906 365.964 459.007 365.697C459.11 365.43 459.161 365.119 459.161 364.765C459.161 364.415 459.111 364.109 459.01 363.846C458.91 363.583 458.762 363.379 458.567 363.232C458.372 363.086 458.132 363.012 457.845 363.012C457.55 363.012 457.304 363.089 457.107 363.242C456.91 363.395 456.761 363.604 456.66 363.869C456.562 364.134 456.513 364.432 456.513 364.765C456.513 365.102 456.563 365.405 456.664 365.674C456.764 365.943 456.913 366.157 457.11 366.314C457.309 366.47 457.554 366.547 457.845 366.547Z" fill="#515A65"/>
<rect x="471.891" y="358.395" width="10.7826" height="10.7826" rx="5.3913" fill="#D8ADF1"/>
<path d="M488.031 367.286V360.564H490.427C490.95 360.564 491.383 360.659 491.727 360.85C492.071 361.04 492.328 361.3 492.498 361.631C492.669 361.959 492.754 362.329 492.754 362.74C492.754 363.154 492.668 363.526 492.495 363.856C492.324 364.184 492.066 364.444 491.72 364.637C491.377 364.827 490.945 364.923 490.424 364.923H488.776V364.063H490.332C490.663 364.063 490.931 364.006 491.136 363.892C491.342 363.776 491.493 363.619 491.589 363.419C491.685 363.22 491.734 362.994 491.734 362.74C491.734 362.486 491.685 362.261 491.589 362.064C491.493 361.867 491.341 361.713 491.133 361.601C490.927 361.49 490.656 361.434 490.319 361.434H489.046V367.286H488.031ZM494.846 360.564V367.286H493.864V360.564H494.846ZM497.633 367.397C497.314 367.397 497.025 367.338 496.767 367.22C496.508 367.1 496.304 366.926 496.153 366.698C496.004 366.471 495.93 366.192 495.93 365.861C495.93 365.577 495.984 365.343 496.094 365.159C496.203 364.975 496.351 364.83 496.537 364.722C496.723 364.615 496.931 364.534 497.16 364.479C497.39 364.425 497.624 364.383 497.863 364.355C498.165 364.32 498.41 364.291 498.598 364.269C498.786 364.245 498.923 364.207 499.008 364.155C499.094 364.102 499.136 364.017 499.136 363.899V363.876C499.136 363.589 499.055 363.367 498.893 363.209C498.734 363.052 498.495 362.973 498.178 362.973C497.847 362.973 497.587 363.046 497.397 363.193C497.209 363.337 497.078 363.498 497.006 363.675L496.084 363.465C496.193 363.159 496.353 362.912 496.563 362.724C496.775 362.533 497.019 362.395 497.295 362.31C497.571 362.223 497.861 362.179 498.165 362.179C498.366 362.179 498.579 362.203 498.805 362.251C499.032 362.297 499.245 362.382 499.441 362.507C499.641 362.632 499.804 362.81 499.93 363.042C500.057 363.272 500.121 363.57 500.121 363.938V367.286H499.162V366.596H499.123C499.06 366.723 498.964 366.848 498.838 366.971C498.711 367.093 498.548 367.195 498.349 367.276C498.149 367.357 497.911 367.397 497.633 367.397ZM497.846 366.61C498.118 366.61 498.35 366.556 498.542 366.449C498.737 366.342 498.885 366.201 498.985 366.029C499.088 365.854 499.14 365.667 499.14 365.467V364.818C499.104 364.853 499.037 364.885 498.936 364.916C498.838 364.944 498.725 364.97 498.598 364.991C498.471 365.011 498.347 365.03 498.227 365.047C498.107 365.063 498.006 365.076 497.925 365.087C497.735 365.111 497.561 365.151 497.403 365.208C497.248 365.265 497.123 365.347 497.029 365.454C496.937 365.559 496.891 365.699 496.891 365.874C496.891 366.117 496.981 366.301 497.16 366.426C497.34 366.548 497.569 366.61 497.846 366.61ZM502.409 364.292V367.286H501.428V362.244H502.37V363.065H502.432C502.548 362.798 502.73 362.584 502.977 362.422C503.226 362.26 503.54 362.179 503.919 362.179C504.263 362.179 504.563 362.251 504.822 362.395C505.08 362.538 505.28 362.75 505.422 363.032C505.564 363.314 505.635 363.663 505.635 364.079V367.286H504.654V364.197C504.654 363.832 504.559 363.546 504.369 363.341C504.178 363.133 503.917 363.029 503.584 363.029C503.357 363.029 503.154 363.078 502.977 363.177C502.802 363.275 502.663 363.419 502.56 363.61C502.46 363.798 502.409 364.025 502.409 364.292ZM507.933 364.292V367.286H506.952V362.244H507.894V363.065H507.956C508.072 362.798 508.253 362.584 508.501 362.422C508.75 362.26 509.064 362.179 509.443 362.179C509.786 362.179 510.087 362.251 510.345 362.395C510.603 362.538 510.804 362.75 510.946 363.032C511.088 363.314 511.159 363.663 511.159 364.079V367.286H510.178V364.197C510.178 363.832 510.083 363.546 509.892 363.341C509.702 363.133 509.44 363.029 509.108 363.029C508.88 363.029 508.678 363.078 508.501 363.177C508.326 363.275 508.187 363.419 508.084 363.61C507.983 363.798 507.933 364.025 507.933 364.292ZM514.648 367.387C514.151 367.387 513.724 367.281 513.365 367.069C513.008 366.855 512.732 366.554 512.538 366.166C512.345 365.777 512.249 365.321 512.249 364.798C512.249 364.281 512.345 363.826 512.538 363.433C512.732 363.039 513.004 362.731 513.352 362.51C513.702 362.289 514.111 362.179 514.579 362.179C514.864 362.179 515.139 362.226 515.406 362.32C515.673 362.414 515.913 362.562 516.125 362.763C516.337 362.964 516.505 363.226 516.627 363.547C516.75 363.867 516.811 364.255 516.811 364.713V365.06H512.803V364.325H515.849C515.849 364.067 515.797 363.838 515.692 363.639C515.587 363.438 515.439 363.279 515.249 363.163C515.06 363.047 514.839 362.989 514.586 362.989C514.31 362.989 514.069 363.057 513.864 363.193C513.66 363.326 513.503 363.501 513.391 363.718C513.282 363.932 513.227 364.166 513.227 364.417V364.991C513.227 365.328 513.286 365.615 513.404 365.851C513.524 366.088 513.692 366.268 513.906 366.393C514.121 366.515 514.371 366.577 514.658 366.577C514.844 366.577 515.013 366.55 515.167 366.498C515.32 366.443 515.452 366.362 515.564 366.255C515.675 366.148 515.761 366.015 515.82 365.858L516.748 366.025C516.674 366.299 516.541 366.538 516.348 366.744C516.158 366.948 515.918 367.106 515.629 367.22C515.343 367.332 515.016 367.387 514.648 367.387ZM519.787 367.384C519.38 367.384 519.017 367.28 518.697 367.072C518.38 366.862 518.131 366.564 517.949 366.176C517.769 365.787 517.68 365.32 517.68 364.775C517.68 364.23 517.771 363.764 517.952 363.377C518.136 362.989 518.388 362.693 518.707 362.487C519.027 362.282 519.389 362.179 519.793 362.179C520.106 362.179 520.358 362.231 520.548 362.336C520.741 362.439 520.89 362.56 520.995 362.697C521.102 362.835 521.185 362.957 521.244 363.062H521.303V360.564H522.284V367.286H521.326V366.501H521.244C521.185 366.608 521.1 366.731 520.988 366.869C520.879 367.007 520.728 367.127 520.535 367.23C520.343 367.333 520.093 367.384 519.787 367.384ZM520.003 366.547C520.286 366.547 520.524 366.473 520.719 366.324C520.916 366.173 521.065 365.964 521.165 365.697C521.268 365.43 521.32 365.119 521.32 364.765C521.32 364.415 521.269 364.109 521.169 363.846C521.068 363.583 520.92 363.379 520.726 363.232C520.531 363.086 520.29 363.012 520.003 363.012C519.708 363.012 519.462 363.089 519.265 363.242C519.068 363.395 518.919 363.604 518.819 363.869C518.72 364.134 518.671 364.432 518.671 364.765C518.671 365.102 518.721 365.405 518.822 365.674C518.923 365.943 519.071 366.157 519.268 366.314C519.467 366.47 519.712 366.547 520.003 366.547Z" fill="#6B7280"/>
</g>
<defs>
<filter id="filter0_i_91_2571" x="0" y="4" width="114" height="114" filterUnits="userSpaceOnUse" color-interpolation-filters="sRGB">
<feFlood flood-opacity="0" result="BackgroundImageFix"/>
<feBlend mode="normal" in="SourceGraphic" in2="BackgroundImageFix" result="shape"/>
<feColorMatrix in="SourceAlpha" type="matrix" values="0 0 0 0 0 0 0 0 0 0 0 0 0 0 0 0 0 0 127 0" result="hardAlpha"/>
<feOffset dx="4" dy="4"/>
<feGaussianBlur stdDeviation="4"/>
<feComposite in2="hardAlpha" operator="arithmetic" k2="-1" k3="1"/>
<feColorMatrix type="matrix" values="0 0 0 0 0 0 0 0 0 0 0 0 0 0 0 0 0 0 0.11 0"/>
<feBlend mode="normal" in2="shape" result="effect1_innerShadow_91_2571"/>
</filter>
<filter id="filter1_i_91_2571" x="232" y="2" width="114" height="114" filterUnits="userSpaceOnUse" color-interpolation-filters="sRGB">
<feFlood flood-opacity="0" result="BackgroundImageFix"/>
<feBlend mode="normal" in="SourceGraphic" in2="BackgroundImageFix" result="shape"/>
<feColorMatrix in="SourceAlpha" type="matrix" values="0 0 0 0 0 0 0 0 0 0 0 0 0 0 0 0 0 0 127 0" result="hardAlpha"/>
<feOffset dx="4" dy="4"/>
<feGaussianBlur stdDeviation="4"/>
<feComposite in2="hardAlpha" operator="arithmetic" k2="-1" k3="1"/>
<feColorMatrix type="matrix" values="0 0 0 0 0 0 0 0 0 0 0 0 0 0 0 0 0 0 0.11 0"/>
<feBlend mode="normal" in2="shape" result="effect1_innerShadow_91_2571"/>
</filter>
<filter id="filter2_i_91_2571" x="464" y="0" width="114" height="114" filterUnits="userSpaceOnUse" color-interpolation-filters="sRGB">
<feFlood flood-opacity="0" result="BackgroundImageFix"/>
<feBlend mode="normal" in="SourceGraphic" in2="BackgroundImageFix" result="shape"/>
<feColorMatrix in="SourceAlpha" type="matrix" values="0 0 0 0 0 0 0 0 0 0 0 0 0 0 0 0 0 0 127 0" result="hardAlpha"/>
<feOffset dx="4" dy="4"/>
<feGaussianBlur stdDeviation="4"/>
<feComposite in2="hardAlpha" operator="arithmetic" k2="-1" k3="1"/>
<feColorMatrix type="matrix" values="0 0 0 0 0 0 0 0 0 0 0 0 0 0 0 0 0 0 0.11 0"/>
<feBlend mode="normal" in2="shape" result="effect1_innerShadow_91_2571"/>
</filter>
<filter id="filter3_i_91_2571" x="144" y="186.578" width="114" height="114" filterUnits="userSpaceOnUse" color-interpolation-filters="sRGB">
<feFlood flood-opacity="0" result="BackgroundImageFix"/>
<feBlend mode="normal" in="SourceGraphic" in2="BackgroundImageFix" result="shape"/>
<feColorMatrix in="SourceAlpha" type="matrix" values="0 0 0 0 0 0 0 0 0 0 0 0 0 0 0 0 0 0 127 0" result="hardAlpha"/>
<feOffset dx="4" dy="4"/>
<feGaussianBlur stdDeviation="4"/>
<feComposite in2="hardAlpha" operator="arithmetic" k2="-1" k3="1"/>
<feColorMatrix type="matrix" values="0 0 0 0 0 0 0 0 0 0 0 0 0 0 0 0 0 0 0.11 0"/>
<feBlend mode="normal" in2="shape" result="effect1_innerShadow_91_2571"/>
</filter>
<filter id="filter4_dd_91_2571" x="336.419" y="121.037" width="254.161" height="272.354" filterUnits="userSpaceOnUse" color-interpolation-filters="sRGB">
<feFlood flood-opacity="0" result="BackgroundImageFix"/>
<feColorMatrix in="SourceAlpha" type="matrix" values="0 0 0 0 0 0 0 0 0 0 0 0 0 0 0 0 0 0 127 0" result="hardAlpha"/>
<feOffset dy="1.54037"/>
<feGaussianBlur stdDeviation="1.54037"/>
<feComposite in2="hardAlpha" operator="out"/>
<feColorMatrix type="matrix" values="0 0 0 0 0 0 0 0 0 0 0 0 0 0 0 0 0 0 0.04 0"/>
<feBlend mode="normal" in2="BackgroundImageFix" result="effect1_dropShadow_91_2571"/>
<feColorMatrix in="SourceAlpha" type="matrix" values="0 0 0 0 0 0 0 0 0 0 0 0 0 0 0 0 0 0 127 0" result="hardAlpha"/>
<feOffset dy="0.770186"/>
<feGaussianBlur stdDeviation="1.15528"/>
<feComposite in2="hardAlpha" operator="out"/>
<feColorMatrix type="matrix" values="0 0 0 0 0 0 0 0 0 0 0 0 0 0 0 0 0 0 0.02 0"/>
<feBlend mode="normal" in2="effect1_dropShadow_91_2571" result="effect2_dropShadow_91_2571"/>
<feBlend mode="normal" in="SourceGraphic" in2="effect2_dropShadow_91_2571" result="shape"/>
</filter>
<filter id="filter5_dd_91_2571" x="344.742" y="135.981" width="126" height="33" filterUnits="userSpaceOnUse" color-interpolation-filters="sRGB">
<feFlood flood-opacity="0" result="BackgroundImageFix"/>
<feColorMatrix in="SourceAlpha" type="matrix" values="0 0 0 0 0 0 0 0 0 0 0 0 0 0 0 0 0 0 127 0" result="hardAlpha"/>
<feOffset dy="2"/>
<feGaussianBlur stdDeviation="2"/>
<feComposite in2="hardAlpha" operator="out"/>
<feColorMatrix type="matrix" values="0 0 0 0 0 0 0 0 0 0 0 0 0 0 0 0 0 0 0.04 0"/>
<feBlend mode="normal" in2="BackgroundImageFix" result="effect1_dropShadow_91_2571"/>
<feColorMatrix in="SourceAlpha" type="matrix" values="0 0 0 0 0 0 0 0 0 0 0 0 0 0 0 0 0 0 127 0" result="hardAlpha"/>
<feOffset dy="1"/>
<feGaussianBlur stdDeviation="1.5"/>
<feComposite in2="hardAlpha" operator="out"/>
<feColorMatrix type="matrix" values="0 0 0 0 0 0 0 0 0 0 0 0 0 0 0 0 0 0 0.02 0"/>
<feBlend mode="normal" in2="effect1_dropShadow_91_2571" result="effect2_dropShadow_91_2571"/>
<feBlend mode="normal" in="SourceGraphic" in2="effect2_dropShadow_91_2571" result="shape"/>
</filter>
<clipPath id="clip0_91_2571">
<rect width="229.516" height="180.224" fill="white" transform="translate(348.742 173.981)"/>
</clipPath>
</defs>
</svg>
