<svg width="254" height="183" viewBox="0 0 254 183" fill="none" xmlns="http://www.w3.org/2000/svg">
<g clip-path="url(#clip0_2077_6523)">
<rect width="253.045" height="182.192" rx="8.67583" fill="white"/>
<rect x="36.1492" y="32.7308" width="21.6896" height="21.6896" rx="10.8448" transform="rotate(180 36.1492 32.7308)" fill="#9E32DD"/>
<path d="M22.2371 24.8861H21.017L23.2384 18.5764H24.6494L26.8738 24.8861H25.6538L23.9685 19.8704H23.9192L22.2371 24.8861ZM22.2771 22.4121H25.6045V23.3303H22.2771V22.4121ZM28.8479 18.5764V24.8861H27.7049V18.5764H28.8479Z" fill="white"/>
<path d="M45.784 26.386V17.6587H47.1008V21.4513H51.4516V17.6587H52.7726V26.386H51.4516V22.5806H47.1008V26.386H45.784ZM55.3934 28.8405C55.203 28.8405 55.0297 28.8249 54.8735 28.7937C54.7172 28.7652 54.6008 28.734 54.5241 28.6999L54.8309 27.6559C55.0638 27.7184 55.2712 27.7454 55.453 27.7368C55.6349 27.7283 55.7954 27.6601 55.9346 27.5323C56.0766 27.4045 56.2016 27.1956 56.3096 26.9059L56.4672 26.4712L54.0724 19.8405H55.436L57.0937 24.9201H57.1618L58.8195 19.8405H60.1874L57.49 27.2596C57.365 27.6005 57.2059 27.8888 57.0127 28.1246C56.8195 28.3633 56.5894 28.5422 56.3224 28.6616C56.0553 28.7809 55.7456 28.8405 55.3934 28.8405ZM61.3849 28.8405V19.8405H62.6292V20.9016H62.7357C62.8096 20.7652 62.9161 20.6076 63.0553 20.4286C63.1945 20.2496 63.3877 20.0934 63.6349 19.9598C63.882 19.8235 64.2087 19.7553 64.615 19.7553C65.1434 19.7553 65.615 19.8888 66.0297 20.1559C66.4445 20.4229 66.7698 20.8079 67.0056 21.3107C67.2442 21.8135 67.3635 22.4187 67.3635 23.126C67.3635 23.8334 67.2457 24.44 67.0099 24.9456C66.7741 25.4485 66.4502 25.8363 66.0383 26.109C65.6263 26.3789 65.1562 26.5138 64.6278 26.5138C64.23 26.5138 63.9047 26.4471 63.6519 26.3135C63.4019 26.18 63.2059 26.0238 63.0638 25.8448C62.9218 25.6658 62.8124 25.5067 62.7357 25.3675H62.659V28.8405H61.3849ZM62.6334 23.1133C62.6334 23.5735 62.7002 23.9769 62.8337 24.3235C62.9672 24.6701 63.1604 24.9414 63.4133 25.1374C63.6661 25.3306 63.9758 25.4272 64.3422 25.4272C64.7229 25.4272 65.0411 25.3263 65.2968 25.1246C65.5525 24.9201 65.7457 24.6431 65.8763 24.2937C66.0099 23.9442 66.0766 23.5508 66.0766 23.1133C66.0766 22.6814 66.0113 22.2937 65.8806 21.9499C65.7528 21.6062 65.5596 21.3348 65.301 21.136C65.0454 20.9371 64.7258 20.8377 64.3422 20.8377C63.9729 20.8377 63.6604 20.9329 63.4047 21.1232C63.1519 21.3135 62.9601 21.5792 62.8295 21.9201C62.6988 22.261 62.6334 22.6587 62.6334 23.1133ZM71.6121 26.5181C70.9672 26.5181 70.4118 26.3803 69.9459 26.1047C69.4829 25.8263 69.1249 25.4357 68.8721 24.9329C68.6221 24.4272 68.4971 23.8348 68.4971 23.1559C68.4971 22.4854 68.6221 21.8945 68.8721 21.3831C69.1249 20.8718 69.4772 20.4726 69.9289 20.1857C70.3834 19.8988 70.9147 19.7553 71.5226 19.7553C71.892 19.7553 72.2499 19.8164 72.5965 19.9385C72.9431 20.0607 73.2542 20.2525 73.5297 20.5138C73.8053 20.7752 74.0226 21.1147 74.1817 21.5323C74.3408 21.9471 74.4204 22.4513 74.4204 23.0451V23.4968H69.2172V22.5422H73.1718C73.1718 22.207 73.1036 21.9101 72.9672 21.6516C72.8309 21.3902 72.6391 21.1843 72.392 21.0337C72.1476 20.8831 71.8607 20.8079 71.5312 20.8079C71.1732 20.8079 70.8607 20.8959 70.5937 21.0721C70.3295 21.2454 70.1249 21.4726 69.98 21.7539C69.838 22.0323 69.767 22.3348 69.767 22.6616V23.4073C69.767 23.8448 69.8437 24.217 69.9971 24.5238C70.1533 24.8306 70.3706 25.065 70.6491 25.2269C70.9275 25.386 71.2528 25.4655 71.6249 25.4655C71.8664 25.4655 72.0866 25.4314 72.2854 25.3633C72.4843 25.2922 72.6562 25.1871 72.801 25.0479C72.9459 24.9087 73.0567 24.7368 73.1334 24.5323L74.3394 24.7496C74.2428 25.1047 74.0695 25.4158 73.8195 25.6829C73.5724 25.9471 73.2613 26.153 72.8863 26.3008C72.5141 26.4456 72.0894 26.5181 71.6121 26.5181ZM75.8341 26.386V19.8405H77.0656V20.8803H77.1338C77.2531 20.528 77.4633 20.251 77.7645 20.0493C78.0684 19.8448 78.4122 19.7425 78.7957 19.7425C78.8753 19.7425 78.969 19.7454 79.077 19.751C79.1878 19.7567 79.2744 19.7638 79.3369 19.7723V20.9911C79.2858 20.9769 79.1949 20.9613 79.0642 20.9442C78.9335 20.9243 78.8028 20.9144 78.6721 20.9144C78.371 20.9144 78.1025 20.9783 77.8667 21.1062C77.6338 21.2312 77.4491 21.4059 77.3128 21.6303C77.1764 21.8519 77.1082 22.1047 77.1082 22.3888V26.386H75.8341ZM85.3444 21.4385L84.1895 21.6431C84.1412 21.4954 84.0645 21.3547 83.9594 21.2212C83.8572 21.0877 83.718 20.9783 83.5418 20.8931C83.3657 20.8079 83.1455 20.7652 82.8813 20.7652C82.5205 20.7652 82.2194 20.8462 81.9779 21.0081C81.7364 21.1672 81.6157 21.3732 81.6157 21.626C81.6157 21.8448 81.6966 22.0209 81.8586 22.1545C82.0205 22.288 82.2819 22.3973 82.6427 22.4826L83.6824 22.7212C84.2847 22.8604 84.7336 23.0749 85.029 23.3647C85.3245 23.6545 85.4722 24.0309 85.4722 24.4939C85.4722 24.886 85.3586 25.2354 85.1313 25.5422C84.9069 25.8462 84.593 26.0848 84.1895 26.2581C83.789 26.4314 83.3245 26.5181 82.7961 26.5181C82.0631 26.5181 81.4651 26.3618 81.002 26.0493C80.539 25.734 80.2549 25.2866 80.1498 24.707L81.3813 24.5195C81.458 24.8405 81.6157 25.0834 81.8543 25.2482C82.093 25.4101 82.404 25.4911 82.7876 25.4911C83.2052 25.4911 83.539 25.4045 83.789 25.2312C84.039 25.055 84.164 24.8405 84.164 24.5877C84.164 24.3831 84.0873 24.2113 83.9339 24.0721C83.7833 23.9329 83.5518 23.8277 83.2393 23.7567L82.1313 23.5138C81.5205 23.3746 81.0688 23.153 80.7762 22.8491C80.4864 22.5451 80.3415 22.1601 80.3415 21.6942C80.3415 21.3079 80.4495 20.9698 80.6654 20.68C80.8813 20.3902 81.1796 20.1644 81.5603 20.0025C81.941 19.8377 82.377 19.7553 82.8685 19.7553C83.5759 19.7553 84.1327 19.9087 84.539 20.2155C84.9452 20.5195 85.2137 20.9272 85.3444 21.4385ZM89.6302 26.5181C88.9967 26.5181 88.4513 26.3746 87.9939 26.0877C87.5393 25.7979 87.1899 25.3988 86.9456 24.8902C86.7013 24.3817 86.5791 23.7993 86.5791 23.1431C86.5791 22.4783 86.7041 21.8917 86.9541 21.3831C87.2041 20.8718 87.5564 20.4726 88.0109 20.1857C88.4655 19.8988 89.001 19.7553 89.6175 19.7553C90.1146 19.7553 90.5578 19.8476 90.947 20.0323C91.3362 20.2141 91.6501 20.4698 91.8888 20.7993C92.1302 21.1289 92.2737 21.5138 92.3192 21.9542H91.0791C91.0109 21.6473 90.8547 21.3831 90.6104 21.1616C90.3689 20.94 90.045 20.8292 89.6388 20.8292C89.2836 20.8292 88.9726 20.9229 88.7055 21.1104C88.4413 21.2951 88.2354 21.5593 88.0876 21.903C87.9399 22.2439 87.866 22.6473 87.866 23.1133C87.866 23.5905 87.9385 24.0025 88.0834 24.3491C88.2282 24.6956 88.4328 24.9641 88.697 25.1545C88.964 25.3448 89.278 25.44 89.6388 25.44C89.8802 25.44 90.099 25.3959 90.295 25.3079C90.4939 25.217 90.6601 25.0877 90.7936 24.9201C90.93 24.7525 91.0251 24.5508 91.0791 24.315H92.3192C92.2737 24.7383 92.1359 25.1161 91.9058 25.4485C91.6757 25.7809 91.3675 26.0422 90.9811 26.2326C90.5976 26.4229 90.1473 26.5181 89.6302 26.5181ZM95.5866 26.5309C95.1718 26.5309 94.7968 26.4542 94.4616 26.3008C94.1263 26.1445 93.8607 25.9187 93.6647 25.6232C93.4715 25.3277 93.3749 24.9655 93.3749 24.5366C93.3749 24.1672 93.4459 23.8633 93.588 23.6246C93.73 23.386 93.9218 23.1971 94.1633 23.0579C94.4047 22.9187 94.6746 22.8135 94.9729 22.7425C95.2712 22.6715 95.5752 22.6175 95.8849 22.5806C96.2769 22.5351 96.5951 22.4982 96.8394 22.4698C97.0837 22.4385 97.2613 22.3888 97.3721 22.3206C97.4829 22.2525 97.5383 22.1417 97.5383 21.9883V21.9584C97.5383 21.5863 97.4331 21.2979 97.2229 21.0934C97.0155 20.8888 96.7059 20.7866 96.2939 20.7866C95.865 20.7866 95.5269 20.8817 95.2797 21.0721C95.0354 21.2596 94.8664 21.4684 94.7726 21.6985L93.5752 21.4258C93.7172 21.028 93.9246 20.707 94.1974 20.4627C94.4729 20.2155 94.7897 20.0366 95.1476 19.9258C95.5056 19.8121 95.882 19.7553 96.2769 19.7553C96.5383 19.7553 96.8153 19.7866 97.1079 19.8491C97.4033 19.9087 97.6789 20.0195 97.9346 20.1814C98.1931 20.3434 98.4047 20.5749 98.5695 20.876C98.7343 21.1743 98.8167 21.5621 98.8167 22.0394V26.386H97.5724V25.4911H97.5212C97.4388 25.6559 97.3153 25.8178 97.1505 25.9769C96.9857 26.136 96.7741 26.2681 96.5155 26.3732C96.257 26.4783 95.9474 26.5309 95.5866 26.5309ZM95.8635 25.5081C96.2158 25.5081 96.517 25.4385 96.767 25.2993C97.0198 25.1601 97.2116 24.9783 97.3422 24.7539C97.4758 24.5266 97.5425 24.2837 97.5425 24.0252V23.1814C97.4971 23.2269 97.409 23.2695 97.2783 23.3093C97.1505 23.3462 97.0042 23.3789 96.8394 23.4073C96.6746 23.4329 96.5141 23.457 96.3579 23.4797C96.2016 23.4996 96.0709 23.5167 95.9658 23.5309C95.7187 23.5621 95.4928 23.6147 95.2883 23.6885C95.0866 23.7624 94.9246 23.8689 94.8025 24.0081C94.6831 24.1445 94.6235 24.3263 94.6235 24.5536C94.6235 24.8689 94.74 25.1076 94.9729 25.2695C95.2059 25.4286 95.5028 25.5081 95.8635 25.5081ZM101.788 17.6587V26.386H100.514V17.6587H101.788ZM106.323 26.5181C105.678 26.5181 105.123 26.3803 104.657 26.1047C104.194 25.8263 103.836 25.4357 103.583 24.9329C103.333 24.4272 103.208 23.8348 103.208 23.1559C103.208 22.4854 103.333 21.8945 103.583 21.3831C103.836 20.8718 104.188 20.4726 104.64 20.1857C105.094 19.8988 105.626 19.7553 106.234 19.7553C106.603 19.7553 106.961 19.8164 107.307 19.9385C107.654 20.0607 107.965 20.2525 108.241 20.5138C108.516 20.7752 108.734 21.1147 108.893 21.5323C109.052 21.9471 109.131 22.4513 109.131 23.0451V23.4968H103.928V22.5422H107.883C107.883 22.207 107.815 21.9101 107.678 21.6516C107.542 21.3902 107.35 21.1843 107.103 21.0337C106.859 20.8831 106.572 20.8079 106.242 20.8079C105.884 20.8079 105.572 20.8959 105.305 21.0721C105.04 21.2454 104.836 21.4726 104.691 21.7539C104.549 22.0323 104.478 22.3348 104.478 22.6616V23.4073C104.478 23.8448 104.555 24.217 104.708 24.5238C104.864 24.8306 105.082 25.065 105.36 25.2269C105.638 25.386 105.964 25.4655 106.336 25.4655C106.577 25.4655 106.797 25.4314 106.996 25.3633C107.195 25.2922 107.367 25.1871 107.512 25.0479C107.657 24.9087 107.768 24.7368 107.844 24.5323L109.05 24.7496C108.954 25.1047 108.78 25.4158 108.53 25.6829C108.283 25.9471 107.972 26.153 107.597 26.3008C107.225 26.4456 106.8 26.5181 106.323 26.5181ZM110.545 26.386V19.8405H111.777V20.8803H111.845C111.964 20.528 112.174 20.251 112.475 20.0493C112.779 19.8448 113.123 19.7425 113.507 19.7425C113.586 19.7425 113.68 19.7454 113.788 19.751C113.899 19.7567 113.985 19.7638 114.048 19.7723V20.9911C113.997 20.9769 113.906 20.9613 113.775 20.9442C113.644 20.9243 113.514 20.9144 113.383 20.9144C113.082 20.9144 112.813 20.9783 112.578 21.1062C112.345 21.2312 112.16 21.4059 112.024 21.6303C111.887 21.8519 111.819 22.1047 111.819 22.3888V26.386H110.545ZM119.166 26.386H117.768L120.909 17.6587H122.43L125.571 26.386H124.173L121.706 19.2439H121.637L119.166 26.386ZM119.4 22.9684H123.934V24.0763H119.4V22.9684ZM128.148 17.6587V26.386H126.831V17.6587H128.148Z" fill="#414851"/>
<path d="M14.4597 45.7445H161.949C166.74 45.7445 170.625 49.6288 170.625 54.4203V88.2042C170.625 92.9957 166.74 96.88 161.949 96.88H23.1355C18.344 96.88 14.4597 92.9957 14.4597 88.2042V45.7445Z" fill="#F0F0F0"/>
<path d="M26.8266 68.3123V61.0395H27.9239V64.2H31.5496V61.0395H32.6505V68.3123H31.5496V65.1411H27.9239V68.3123H26.8266ZM36.4608 68.4223C35.9495 68.4223 35.5032 68.3052 35.122 68.0708C34.7409 67.8364 34.445 67.5085 34.2343 67.0871C34.0236 66.6657 33.9182 66.1733 33.9182 65.6098C33.9182 65.044 34.0236 64.5492 34.2343 64.1255C34.445 63.7017 34.7409 63.3726 35.122 63.1383C35.5032 62.9039 35.9495 62.7867 36.4608 62.7867C36.9722 62.7867 37.4184 62.9039 37.7996 63.1383C38.1808 63.3726 38.4767 63.7017 38.6874 64.1255C38.8981 64.5492 39.0034 65.044 39.0034 65.6098C39.0034 66.1733 38.8981 66.6657 38.6874 67.0871C38.4767 67.5085 38.1808 67.8364 37.7996 68.0708C37.4184 68.3052 36.9722 68.4223 36.4608 68.4223ZM36.4644 67.531C36.7958 67.531 37.0704 67.4434 37.2882 67.2682C37.506 67.093 37.667 66.8598 37.7712 66.5686C37.8777 66.2775 37.931 65.9567 37.931 65.6063C37.931 65.2583 37.8777 64.9387 37.7712 64.6475C37.667 64.3539 37.506 64.1184 37.2882 63.9408C37.0704 63.7632 36.7958 63.6745 36.4644 63.6745C36.1306 63.6745 35.8536 63.7632 35.6334 63.9408C35.4156 64.1184 35.2534 64.3539 35.1469 64.6475C35.0427 64.9387 34.9907 65.2583 34.9907 65.6063C34.9907 65.9567 35.0427 66.2775 35.1469 66.5686C35.2534 66.8598 35.4156 67.093 35.6334 67.2682C35.8536 67.4434 36.1306 67.531 36.4644 67.531ZM41.2051 68.3123L39.6 62.8577H40.6973L41.7662 66.8634H41.8195L42.8919 62.8577H43.9892L45.0546 66.8456H45.1078L46.1696 62.8577H47.2669L45.6654 68.3123H44.5823L43.4743 64.374H43.3926L42.2847 68.3123H41.2051ZM53.2186 68.4223C52.6907 68.4223 52.2362 68.3028 51.855 68.0637C51.4762 67.8222 51.185 67.4896 50.9814 67.0658C50.7778 66.642 50.676 66.1567 50.676 65.6098C50.676 65.0559 50.7802 64.567 50.9885 64.1432C51.1969 63.7171 51.4904 63.3845 51.8692 63.1454C52.248 62.9062 52.6943 62.7867 53.208 62.7867C53.6223 62.7867 53.9916 62.8636 54.3159 63.0175C54.6403 63.169 54.9019 63.3821 55.1007 63.6567C55.302 63.9313 55.4215 64.2521 55.4594 64.6191H54.426C54.3692 64.3634 54.239 64.1432 54.0354 63.9586C53.8342 63.7739 53.5643 63.6816 53.2257 63.6816C52.9298 63.6816 52.6706 63.7597 52.448 63.9159C52.2279 64.0698 52.0562 64.29 51.9331 64.5765C51.81 64.8606 51.7485 65.1967 51.7485 65.585C51.7485 65.9827 51.8088 66.326 51.9296 66.6148C52.0503 66.9036 52.2208 67.1274 52.4409 67.286C52.6635 67.4446 52.9251 67.5239 53.2257 67.5239C53.427 67.5239 53.6093 67.4872 53.7726 67.4138C53.9383 67.3381 54.0768 67.2303 54.1881 67.0907C54.3017 66.951 54.381 66.7829 54.426 66.5864H55.4594C55.4215 66.9391 55.3067 67.254 55.1149 67.531C54.9232 67.808 54.6663 68.0258 54.3443 68.1844C54.0247 68.343 53.6495 68.4223 53.2186 68.4223ZM58.1822 68.433C57.8366 68.433 57.5241 68.3691 57.2447 68.2412C56.9654 68.111 56.744 67.9228 56.5807 67.6766C56.4197 67.4304 56.3392 67.1285 56.3392 66.7711C56.3392 66.4633 56.3984 66.21 56.5168 66.0111C56.6351 65.8123 56.7949 65.6548 56.9962 65.5388C57.1974 65.4228 57.4223 65.3352 57.6709 65.276C57.9195 65.2168 58.1728 65.1719 58.4308 65.1411C58.7575 65.1032 59.0227 65.0724 59.2263 65.0488C59.4299 65.0227 59.5778 64.9813 59.6702 64.9245C59.7625 64.8677 59.8087 64.7753 59.8087 64.6475V64.6226C59.8087 64.3125 59.7211 64.0722 59.5459 63.9017C59.3731 63.7313 59.115 63.6461 58.7717 63.6461C58.4142 63.6461 58.1325 63.7254 57.9266 63.884C57.723 64.0402 57.5821 64.2142 57.504 64.406L56.5061 64.1787C56.6245 63.8473 56.7973 63.5798 57.0246 63.3762C57.2542 63.1702 57.5182 63.0211 57.8165 62.9287C58.1148 62.834 58.4285 62.7867 58.7575 62.7867C58.9753 62.7867 59.2062 62.8127 59.45 62.8648C59.6962 62.9145 59.9258 63.0069 60.1389 63.1418C60.3544 63.2767 60.5307 63.4697 60.668 63.7206C60.8053 63.9692 60.874 64.2924 60.874 64.6901V68.3123H59.8371V67.5665H59.7945C59.7258 67.7038 59.6228 67.8388 59.4855 67.9713C59.3482 68.1039 59.1718 68.214 58.9564 68.3016C58.741 68.3892 58.4829 68.433 58.1822 68.433ZM58.4131 67.5807C58.7066 67.5807 58.9576 67.5227 59.1659 67.4067C59.3766 67.2907 59.5364 67.1392 59.6453 66.9522C59.7566 66.7628 59.8122 66.5604 59.8122 66.3449V65.6418C59.7743 65.6797 59.7009 65.7152 59.592 65.7483C59.4855 65.7791 59.3636 65.8063 59.2263 65.83C59.089 65.8513 58.9552 65.8714 58.825 65.8904C58.6948 65.907 58.5859 65.9212 58.4983 65.933C58.2923 65.959 58.1041 66.0028 57.9337 66.0644C57.7656 66.1259 57.6306 66.2147 57.5288 66.3307C57.4294 66.4444 57.3797 66.5959 57.3797 66.7853C57.3797 67.0481 57.4767 67.2469 57.6709 67.3819C57.865 67.5144 58.1124 67.5807 58.4131 67.5807ZM63.35 65.0736V68.3123H62.2882V62.8577H63.3074V63.7455H63.3749C63.5004 63.4567 63.6969 63.2247 63.9644 63.0495C64.2343 62.8743 64.574 62.7867 64.9836 62.7867C65.3552 62.7867 65.6808 62.8648 65.9601 63.0211C66.2395 63.1749 66.4561 63.4046 66.61 63.71C66.7639 64.0154 66.8408 64.393 66.8408 64.8428V68.3123H65.779V64.9706C65.779 64.5753 65.676 64.2663 65.4701 64.0438C65.2641 63.8189 64.9812 63.7064 64.6213 63.7064C64.3751 63.7064 64.1561 63.7597 63.9644 63.8662C63.775 63.9728 63.6247 64.129 63.5134 64.335C63.4045 64.5386 63.35 64.7848 63.35 65.0736ZM72.0938 61.0395V68.3123H70.9965V61.0395H72.0938ZM77.3149 65.0736V68.3123H76.2531V61.0395H77.3007V63.7455H77.3681C77.496 63.4519 77.6913 63.2187 77.9541 63.0459C78.2169 62.8731 78.5601 62.7867 78.9839 62.7867C79.358 62.7867 79.6847 62.8636 79.964 63.0175C80.2457 63.1714 80.4635 63.401 80.6174 63.7064C80.7737 64.0095 80.8518 64.3883 80.8518 64.8428V68.3123H79.79V64.9706C79.79 64.5705 79.687 64.2604 79.4811 64.0402C79.2751 63.8177 78.9886 63.7064 78.6217 63.7064C78.3707 63.7064 78.1458 63.7597 77.947 63.8662C77.7505 63.9728 77.5954 64.129 77.4818 64.335C77.3705 64.5386 77.3149 64.7848 77.3149 65.0736ZM84.6196 68.4223C84.0822 68.4223 83.6193 68.3075 83.2311 68.0779C82.8452 67.8459 82.5469 67.5204 82.3362 67.1013C82.1278 66.6799 82.0237 66.1863 82.0237 65.6205C82.0237 65.0618 82.1278 64.5694 82.3362 64.1432C82.5469 63.7171 82.8404 63.3845 83.2169 63.1454C83.5957 62.9062 84.0384 62.7867 84.545 62.7867C84.8528 62.7867 85.151 62.8376 85.4399 62.9394C85.7287 63.0412 85.9879 63.201 86.2176 63.4188C86.4472 63.6366 86.6283 63.9195 86.7609 64.2675C86.8935 64.6132 86.9598 65.0334 86.9598 65.5282V65.9046H82.6238V65.1091H85.9193C85.9193 64.8298 85.8625 64.5824 85.7488 64.3669C85.6352 64.1491 85.4754 63.9775 85.2694 63.852C85.0658 63.7266 84.8267 63.6638 84.5521 63.6638C84.2538 63.6638 83.9934 63.7372 83.7708 63.884C83.5507 64.0284 83.3802 64.2178 83.2595 64.4522C83.1411 64.6842 83.0819 64.9363 83.0819 65.2086V65.83C83.0819 66.1946 83.1458 66.5047 83.2737 66.7604C83.4039 67.0161 83.585 67.2114 83.817 67.3463C84.049 67.4789 84.3201 67.5452 84.6302 67.5452C84.8314 67.5452 85.0149 67.5168 85.1806 67.46C85.3464 67.4008 85.4896 67.3132 85.6103 67.1972C85.7311 67.0812 85.8234 66.938 85.8873 66.7675L86.8923 66.9486C86.8118 67.2445 86.6674 67.5038 86.4591 67.7263C86.2531 67.9465 85.9939 68.1181 85.6814 68.2412C85.3712 68.362 85.0173 68.4223 84.6196 68.4223ZM89.1996 61.0395V68.3123H88.1379V61.0395H89.1996ZM90.6281 70.3577V62.8577H91.665V63.7419H91.7538C91.8153 63.6283 91.9041 63.4969 92.0201 63.3478C92.1361 63.1986 92.2971 63.0684 92.5031 62.9571C92.7091 62.8435 92.9813 62.7867 93.3198 62.7867C93.7602 62.7867 94.1532 62.898 94.4988 63.1205C94.8445 63.343 95.1155 63.6638 95.312 64.0829C95.5109 64.5019 95.6103 65.0061 95.6103 65.5956C95.6103 66.1851 95.5121 66.6906 95.3156 67.112C95.1191 67.531 94.8492 67.8542 94.5059 68.0814C94.1626 68.3063 93.7708 68.4188 93.3305 68.4188C92.9991 68.4188 92.728 68.3632 92.5173 68.2519C92.309 68.1406 92.1456 68.0104 92.0272 67.8613C91.9089 67.7121 91.8177 67.5795 91.7538 67.4635H91.6899V70.3577H90.6281ZM91.6686 65.585C91.6686 65.9685 91.7242 66.3047 91.8355 66.5935C91.9467 66.8823 92.1077 67.1084 92.3184 67.2718C92.5291 67.4328 92.7872 67.5133 93.0926 67.5133C93.4098 67.5133 93.675 67.4292 93.888 67.2611C94.1011 67.0907 94.2621 66.8598 94.371 66.5686C94.4823 66.2775 94.5379 65.9496 94.5379 65.585C94.5379 65.2251 94.4834 64.902 94.3745 64.6155C94.268 64.3291 94.107 64.103 93.8916 63.9373C93.6785 63.7715 93.4122 63.6887 93.0926 63.6887C92.7848 63.6887 92.5244 63.768 92.3113 63.9266C92.1006 64.0852 91.9408 64.3066 91.8319 64.5907C91.723 64.8748 91.6686 65.2062 91.6686 65.585ZM100.118 70.3577C99.959 70.3577 99.8146 70.3447 99.6844 70.3186C99.5542 70.295 99.4571 70.2689 99.3932 70.2405L99.6489 69.3705C99.843 69.4226 100.016 69.4451 100.167 69.438C100.319 69.4309 100.453 69.374 100.569 69.2675C100.687 69.161 100.791 68.987 100.881 68.7455L101.012 68.3833L99.0168 62.8577H100.153L101.535 67.0907H101.591L102.973 62.8577H104.113L101.865 69.0402C101.761 69.3243 101.628 69.5646 101.467 69.7611C101.306 69.96 101.114 70.1091 100.892 70.2086C100.669 70.308 100.411 70.3577 100.118 70.3577ZM107.223 68.4223C106.711 68.4223 106.265 68.3052 105.884 68.0708C105.503 67.8364 105.207 67.5085 104.996 67.0871C104.785 66.6657 104.68 66.1733 104.68 65.6098C104.68 65.044 104.785 64.5492 104.996 64.1255C105.207 63.7017 105.503 63.3726 105.884 63.1383C106.265 62.9039 106.711 62.7867 107.223 62.7867C107.734 62.7867 108.18 62.9039 108.561 63.1383C108.942 63.3726 109.238 63.7017 109.449 64.1255C109.66 64.5492 109.765 65.044 109.765 65.6098C109.765 66.1733 109.66 66.6657 109.449 67.0871C109.238 67.5085 108.942 67.8364 108.561 68.0708C108.18 68.3052 107.734 68.4223 107.223 68.4223ZM107.226 67.531C107.558 67.531 107.832 67.4434 108.05 67.2682C108.268 67.093 108.429 66.8598 108.533 66.5686C108.639 66.2775 108.693 65.9567 108.693 65.6063C108.693 65.2583 108.639 64.9387 108.533 64.6475C108.429 64.3539 108.268 64.1184 108.05 63.9408C107.832 63.7632 107.558 63.6745 107.226 63.6745C106.892 63.6745 106.615 63.7632 106.395 63.9408C106.177 64.1184 106.015 64.3539 105.909 64.6475C105.804 64.9387 105.752 65.2583 105.752 65.6063C105.752 65.9567 105.804 66.2775 105.909 66.5686C106.015 66.8598 106.177 67.093 106.395 67.2682C106.615 67.4434 106.892 67.531 107.226 67.531ZM114.406 66.0502V62.8577H115.471V68.3123H114.427V67.3677H114.37C114.245 67.6588 114.043 67.9015 113.766 68.0956C113.492 68.2874 113.15 68.3833 112.74 68.3833C112.39 68.3833 112.08 68.3063 111.81 68.1525C111.542 67.9962 111.332 67.7654 111.178 67.46C111.026 67.1546 110.95 66.777 110.95 66.3272V62.8577H112.012V66.1993C112.012 66.571 112.115 66.8669 112.321 67.0871C112.527 67.3073 112.795 67.4174 113.124 67.4174C113.323 67.4174 113.52 67.3677 113.717 67.2682C113.916 67.1688 114.08 67.0185 114.21 66.8172C114.343 66.616 114.408 66.3603 114.406 66.0502ZM122.09 62.8577V63.71H119.111V62.8577H122.09ZM119.91 61.5509H120.972V66.7107C120.972 66.9167 121.002 67.0717 121.064 67.1759C121.126 67.2777 121.205 67.3475 121.302 67.3854C121.401 67.4209 121.509 67.4387 121.625 67.4387C121.71 67.4387 121.785 67.4328 121.849 67.4209C121.913 67.4091 121.962 67.3996 121.998 67.3925L122.19 68.2696C122.128 68.2933 122.041 68.317 121.927 68.3407C121.813 68.3667 121.671 68.3809 121.501 68.3833C121.221 68.388 120.961 68.3383 120.72 68.2341C120.478 68.13 120.283 67.969 120.134 67.7512C119.984 67.5334 119.91 67.2599 119.91 66.9309V61.5509ZM125.504 68.4223C124.992 68.4223 124.546 68.3052 124.165 68.0708C123.784 67.8364 123.488 67.5085 123.277 67.0871C123.067 66.6657 122.961 66.1733 122.961 65.6098C122.961 65.044 123.067 64.5492 123.277 64.1255C123.488 63.7017 123.784 63.3726 124.165 63.1383C124.546 62.9039 124.992 62.7867 125.504 62.7867C126.015 62.7867 126.461 62.9039 126.843 63.1383C127.224 63.3726 127.52 63.7017 127.73 64.1255C127.941 64.5492 128.046 65.044 128.046 65.6098C128.046 66.1733 127.941 66.6657 127.73 67.0871C127.52 67.5085 127.224 67.8364 126.843 68.0708C126.461 68.3052 126.015 68.4223 125.504 68.4223ZM125.507 67.531C125.839 67.531 126.113 67.4434 126.331 67.2682C126.549 67.093 126.71 66.8598 126.814 66.5686C126.921 66.2775 126.974 65.9567 126.974 65.6063C126.974 65.2583 126.921 64.9387 126.814 64.6475C126.71 64.3539 126.549 64.1184 126.331 63.9408C126.113 63.7632 125.839 63.6745 125.507 63.6745C125.174 63.6745 124.897 63.7632 124.676 63.9408C124.459 64.1184 124.296 64.3539 124.19 64.6475C124.086 64.9387 124.034 65.2583 124.034 65.6063C124.034 65.9567 124.086 66.2775 124.19 66.5686C124.296 66.8598 124.459 67.093 124.676 67.2682C124.897 67.4434 125.174 67.531 125.507 67.531ZM135.965 64.1894L135.003 64.3598C134.963 64.2367 134.899 64.1195 134.811 64.0083C134.726 63.897 134.61 63.8059 134.463 63.7348C134.317 63.6638 134.133 63.6283 133.913 63.6283C133.612 63.6283 133.361 63.6958 133.16 63.8307C132.959 63.9633 132.858 64.1349 132.858 64.3456C132.858 64.5279 132.926 64.6747 133.061 64.786C133.196 64.8972 133.413 64.9884 133.714 65.0594L134.581 65.2583C135.082 65.3743 135.456 65.553 135.703 65.7945C135.949 66.036 136.072 66.3497 136.072 66.7356C136.072 67.0623 135.977 67.3534 135.788 67.6091C135.601 67.8624 135.339 68.0613 135.003 68.2057C134.669 68.3501 134.282 68.4223 133.842 68.4223C133.231 68.4223 132.733 68.2921 132.347 68.0317C131.961 67.7689 131.724 67.3961 131.637 66.9131L132.663 66.7569C132.727 67.0244 132.858 67.2268 133.057 67.3641C133.256 67.499 133.515 67.5665 133.835 67.5665C134.183 67.5665 134.461 67.4943 134.669 67.3499C134.878 67.2031 134.982 67.0244 134.982 66.8137C134.982 66.6432 134.918 66.5 134.79 66.384C134.665 66.268 134.472 66.1804 134.211 66.1212L133.288 65.9188C132.779 65.8028 132.402 65.6181 132.159 65.3648C131.917 65.1115 131.796 64.7907 131.796 64.4025C131.796 64.0805 131.886 63.7988 132.066 63.5573C132.246 63.3158 132.495 63.1276 132.812 62.9927C133.129 62.8553 133.493 62.7867 133.902 62.7867C134.492 62.7867 134.956 62.9145 135.294 63.1702C135.633 63.4235 135.857 63.7633 135.965 64.1894ZM139.537 68.4223C139.009 68.4223 138.555 68.3028 138.173 68.0637C137.795 67.8222 137.503 67.4896 137.3 67.0658C137.096 66.642 136.994 66.1567 136.994 65.6098C136.994 65.0559 137.099 64.567 137.307 64.1432C137.515 63.7171 137.809 63.3845 138.188 63.1454C138.566 62.9062 139.013 62.7867 139.526 62.7867C139.941 62.7867 140.31 62.8636 140.634 63.0175C140.959 63.169 141.22 63.3821 141.419 63.6567C141.62 63.9313 141.74 64.2521 141.778 64.6191H140.744C140.688 64.3634 140.557 64.1432 140.354 63.9586C140.153 63.7739 139.883 63.6816 139.544 63.6816C139.248 63.6816 138.989 63.7597 138.766 63.9159C138.546 64.0698 138.375 64.29 138.251 64.5765C138.128 64.8606 138.067 65.1967 138.067 65.585C138.067 65.9827 138.127 66.326 138.248 66.6148C138.369 66.9036 138.539 67.1274 138.759 67.286C138.982 67.4446 139.243 67.5239 139.544 67.5239C139.745 67.5239 139.928 67.4872 140.091 67.4138C140.257 67.3381 140.395 67.2303 140.506 67.0907C140.62 66.951 140.699 66.7829 140.744 66.5864H141.778C141.74 66.9391 141.625 67.254 141.433 67.531C141.242 67.808 140.985 68.0258 140.663 68.1844C140.343 68.343 139.968 68.4223 139.537 68.4223ZM144.501 68.433C144.155 68.433 143.842 68.3691 143.563 68.2412C143.284 68.111 143.062 67.9228 142.899 67.6766C142.738 67.4304 142.658 67.1285 142.658 66.7711C142.658 66.4633 142.717 66.21 142.835 66.0111C142.953 65.8123 143.113 65.6548 143.315 65.5388C143.516 65.4228 143.741 65.3352 143.989 65.276C144.238 65.2168 144.491 65.1719 144.749 65.1411C145.076 65.1032 145.341 65.0724 145.545 65.0488C145.748 65.0227 145.896 64.9813 145.989 64.9245C146.081 64.8677 146.127 64.7753 146.127 64.6475V64.6226C146.127 64.3125 146.039 64.0722 145.864 63.9017C145.691 63.7313 145.433 63.6461 145.09 63.6461C144.733 63.6461 144.451 63.7254 144.245 63.884C144.041 64.0402 143.9 64.2142 143.822 64.406L142.824 64.1787C142.943 63.8473 143.116 63.5798 143.343 63.3762C143.573 63.1702 143.837 63.0211 144.135 62.9287C144.433 62.834 144.747 62.7867 145.076 62.7867C145.294 62.7867 145.525 62.8127 145.768 62.8648C146.015 62.9145 146.244 63.0069 146.457 63.1418C146.673 63.2767 146.849 63.4697 146.986 63.7206C147.124 63.9692 147.192 64.2924 147.192 64.6901V68.3123H146.155V67.5665H146.113C146.044 67.7038 145.941 67.8388 145.804 67.9713C145.667 68.1039 145.49 68.214 145.275 68.3016C145.059 68.3892 144.801 68.433 144.501 68.433ZM144.731 67.5807C145.025 67.5807 145.276 67.5227 145.484 67.4067C145.695 67.2907 145.855 67.1392 145.964 66.9522C146.075 66.7628 146.131 66.5604 146.131 66.3449V65.6418C146.093 65.6797 146.019 65.7152 145.91 65.7483C145.804 65.7791 145.682 65.8063 145.545 65.83C145.407 65.8513 145.274 65.8714 145.143 65.8904C145.013 65.907 144.904 65.9212 144.817 65.933C144.611 65.959 144.422 66.0028 144.252 66.0644C144.084 66.1259 143.949 66.2147 143.847 66.3307C143.748 66.4444 143.698 66.5959 143.698 66.7853C143.698 67.0481 143.795 67.2469 143.989 67.3819C144.183 67.5144 144.431 67.5807 144.731 67.5807ZM149.668 61.0395V68.3123H148.607V61.0395H149.668ZM153.448 68.4223C152.91 68.4223 152.447 68.3075 152.059 68.0779C151.673 67.8459 151.375 67.5204 151.164 67.1013C150.956 66.6799 150.852 66.1863 150.852 65.6205C150.852 65.0618 150.956 64.5694 151.164 64.1432C151.375 63.7171 151.669 63.3845 152.045 63.1454C152.424 62.9062 152.866 62.7867 153.373 62.7867C153.681 62.7867 153.979 62.8376 154.268 62.9394C154.557 63.0412 154.816 63.201 155.046 63.4188C155.275 63.6366 155.456 63.9195 155.589 64.2675C155.722 64.6132 155.788 65.0334 155.788 65.5282V65.9046H151.452V65.1091H154.747C154.747 64.8298 154.691 64.5824 154.577 64.3669C154.463 64.1491 154.304 63.9775 154.098 63.852C153.894 63.7266 153.655 63.6638 153.38 63.6638C153.082 63.6638 152.822 63.7372 152.599 63.884C152.379 64.0284 152.208 64.2178 152.088 64.4522C151.969 64.6842 151.91 64.9363 151.91 65.2086V65.83C151.91 66.1946 151.974 66.5047 152.102 66.7604C152.232 67.0161 152.413 67.2114 152.645 67.3463C152.877 67.4789 153.148 67.5452 153.458 67.5452C153.66 67.5452 153.843 67.5168 154.009 67.46C154.174 67.4008 154.318 67.3132 154.438 67.1972C154.559 67.0812 154.652 66.938 154.715 66.7675L155.72 66.9486C155.64 67.2445 155.496 67.5038 155.287 67.7263C155.081 67.9465 154.822 68.1181 154.509 68.2412C154.199 68.362 153.845 68.4223 153.448 68.4223ZM29.2875 76.8577V77.71H26.3081V76.8577H29.2875ZM27.1071 75.5509H28.1689V80.7107C28.1689 80.9167 28.1997 81.0717 28.2613 81.1759C28.3228 81.2777 28.4021 81.3475 28.4992 81.3854C28.5986 81.4209 28.7063 81.4387 28.8223 81.4387C28.9076 81.4387 28.9821 81.4328 29.0461 81.4209C29.11 81.4091 29.1597 81.3996 29.1952 81.3925L29.387 82.2696C29.3254 82.2933 29.2378 82.317 29.1242 82.3407C29.0105 82.3667 28.8685 82.3809 28.698 82.3833C28.4187 82.388 28.1583 82.3383 27.9168 82.2341C27.6753 82.13 27.48 81.969 27.3309 81.7512C27.1817 81.5334 27.1071 81.2599 27.1071 80.9309V75.5509ZM32.7011 82.4223C32.1897 82.4223 31.7434 82.3052 31.3623 82.0708C30.9811 81.8364 30.6852 81.5085 30.4745 81.0871C30.2638 80.6657 30.1584 80.1733 30.1584 79.6098C30.1584 79.044 30.2638 78.5492 30.4745 78.1255C30.6852 77.7017 30.9811 77.3726 31.3623 77.1383C31.7434 76.9039 32.1897 76.7867 32.7011 76.7867C33.2124 76.7867 33.6587 76.9039 34.0398 77.1383C34.421 77.3726 34.7169 77.7017 34.9276 78.1255C35.1383 78.5492 35.2437 79.044 35.2437 79.6098C35.2437 80.1733 35.1383 80.6657 34.9276 81.0871C34.7169 81.5085 34.421 81.8364 34.0398 82.0708C33.6587 82.3052 33.2124 82.4223 32.7011 82.4223ZM32.7046 81.531C33.0361 81.531 33.3107 81.4434 33.5285 81.2682C33.7463 81.093 33.9073 80.8598 34.0114 80.5686C34.118 80.2775 34.1712 79.9567 34.1712 79.6063C34.1712 79.2583 34.118 78.9387 34.0114 78.6475C33.9073 78.3539 33.7463 78.1184 33.5285 77.9408C33.3107 77.7632 33.0361 77.6745 32.7046 77.6745C32.3708 77.6745 32.0938 77.7632 31.8736 77.9408C31.6558 78.1184 31.4937 78.3539 31.3871 78.6475C31.283 78.9387 31.2309 79.2583 31.2309 79.6063C31.2309 79.9567 31.283 80.2775 31.3871 80.5686C31.4937 80.8598 31.6558 81.093 31.8736 81.2682C32.0938 81.4434 32.3708 81.531 32.7046 81.531ZM38.4708 82.4188C38.0304 82.4188 37.6374 82.3063 37.2918 82.0814C36.9485 81.8542 36.6786 81.531 36.4821 81.112C36.288 80.6906 36.1909 80.1851 36.1909 79.5956C36.1909 79.0061 36.2892 78.5019 36.4857 78.0829C36.6845 77.6638 36.9568 77.343 37.3024 77.1205C37.6481 76.898 38.0399 76.7867 38.4779 76.7867C38.8164 76.7867 39.0887 76.8435 39.2946 76.9571C39.503 77.0684 39.664 77.1986 39.7776 77.3478C39.8936 77.4969 39.9836 77.6283 40.0475 77.7419H40.1114V75.0395H41.1732V82.3123H40.1363V81.4635H40.0475C39.9836 81.5795 39.8912 81.7121 39.7705 81.8613C39.6521 82.0104 39.4888 82.1406 39.2804 82.2519C39.0721 82.3632 38.8022 82.4188 38.4708 82.4188ZM38.7051 81.5133C39.0105 81.5133 39.2686 81.4328 39.4793 81.2718C39.6924 81.1084 39.8533 80.8823 39.9622 80.5935C40.0735 80.3047 40.1292 79.9685 40.1292 79.585C40.1292 79.2062 40.0747 78.8748 39.9658 78.5907C39.8569 78.3066 39.6971 78.0852 39.4864 77.9266C39.2757 77.768 39.0153 77.6887 38.7051 77.6887C38.3855 77.6887 38.1192 77.7715 37.9061 77.9373C37.6931 78.103 37.5321 78.3291 37.4232 78.6155C37.3167 78.902 37.2634 79.2251 37.2634 79.585C37.2634 79.9496 37.3178 80.2775 37.4267 80.5686C37.5356 80.8598 37.6966 81.0907 37.9097 81.2611C38.1251 81.4292 38.3903 81.5133 38.7051 81.5133ZM44.276 82.433C43.9303 82.433 43.6178 82.3691 43.3385 82.2412C43.0591 82.111 42.8378 81.9228 42.6744 81.6766C42.5134 81.4304 42.433 81.1285 42.433 80.7711C42.433 80.4633 42.4921 80.21 42.6105 80.0111C42.7289 79.8123 42.8887 79.6548 43.0899 79.5388C43.2911 79.4228 43.516 79.3352 43.7646 79.276C44.0132 79.2168 44.2665 79.1719 44.5246 79.1411C44.8513 79.1032 45.1164 79.0724 45.32 79.0488C45.5236 79.0227 45.6716 78.9813 45.7639 78.9245C45.8562 78.8677 45.9024 78.7753 45.9024 78.6475V78.6226C45.9024 78.3125 45.8148 78.0722 45.6396 77.9017C45.4668 77.7313 45.2088 77.6461 44.8655 77.6461C44.508 77.6461 44.2263 77.7254 44.0203 77.884C43.8167 78.0402 43.6758 78.2142 43.5977 78.406L42.5999 78.1787C42.7182 77.8473 42.891 77.5798 43.1183 77.3762C43.348 77.1702 43.6119 77.0211 43.9102 76.9287C44.2085 76.834 44.5222 76.7867 44.8513 76.7867C45.0691 76.7867 45.2999 76.8127 45.5437 76.8648C45.79 76.9145 46.0196 77.0069 46.2327 77.1418C46.4481 77.2767 46.6245 77.4697 46.7618 77.7206C46.8991 77.9692 46.9678 78.2924 46.9678 78.6901V82.3123H45.9308V81.5665H45.8882C45.8196 81.7038 45.7166 81.8388 45.5793 81.9713C45.4419 82.1039 45.2656 82.214 45.0501 82.3016C44.8347 82.3892 44.5767 82.433 44.276 82.433ZM44.5068 81.5807C44.8004 81.5807 45.0513 81.5227 45.2597 81.4067C45.4704 81.2907 45.6302 81.1392 45.7391 80.9522C45.8503 80.7628 45.906 80.5604 45.906 80.3449V79.6418C45.8681 79.6797 45.7947 79.7152 45.6858 79.7483C45.5793 79.7791 45.4573 79.8063 45.32 79.83C45.1827 79.8513 45.049 79.8714 44.9187 79.8904C44.7885 79.907 44.6796 79.9212 44.592 79.933C44.3861 79.959 44.1979 80.0028 44.0274 80.0644C43.8593 80.1259 43.7244 80.2147 43.6226 80.3307C43.5231 80.4444 43.4734 80.5959 43.4734 80.7853C43.4734 81.0481 43.5705 81.2469 43.7646 81.3819C43.9588 81.5144 44.2062 81.5807 44.5068 81.5807ZM48.8578 84.3577C48.6992 84.3577 48.5548 84.3447 48.4246 84.3186C48.2944 84.295 48.1973 84.2689 48.1334 84.2405L48.3891 83.3705C48.5832 83.4226 48.756 83.4451 48.9076 83.438C49.0591 83.4309 49.1928 83.374 49.3088 83.2675C49.4272 83.161 49.5314 82.987 49.6213 82.7455L49.7527 82.3833L47.757 76.8577H48.8934L50.2747 81.0907H50.3316L51.713 76.8577H52.8529L50.605 83.0402C50.5008 83.3243 50.3683 83.5646 50.2073 83.7611C50.0463 83.96 49.8545 84.1091 49.632 84.2086C49.4095 84.308 49.1514 84.3577 48.8578 84.3577ZM55.012 80.2206V80.1532C55.0167 79.7128 55.0605 79.3624 55.1434 79.102C55.2286 78.8416 55.3493 78.6309 55.5056 78.4699C55.6618 78.3089 55.85 78.1622 56.0702 78.0296C56.2122 77.9396 56.3401 77.839 56.4537 77.7277C56.5674 77.6165 56.6573 77.4886 56.7236 77.3442C56.7899 77.1998 56.823 77.04 56.823 76.8648C56.823 76.6541 56.7733 76.4718 56.6739 76.3179C56.5745 76.1641 56.4419 76.0457 56.2762 75.9628C56.1128 75.8776 55.9305 75.835 55.7293 75.835C55.547 75.835 55.373 75.8729 55.2073 75.9486C55.0416 76.0244 54.9042 76.1427 54.7953 76.3037C54.6864 76.4624 54.6237 76.6671 54.6071 76.9181H53.5276C53.5442 76.4919 53.6519 76.1321 53.8507 75.8385C54.0496 75.5426 54.3124 75.3189 54.6391 75.1674C54.9682 75.0159 55.3316 74.9401 55.7293 74.9401C56.1649 74.9401 56.5461 75.0218 56.8728 75.1851C57.1995 75.3461 57.4528 75.5722 57.6327 75.8634C57.815 76.1522 57.9061 76.4896 57.9061 76.8755C57.9061 77.1406 57.8647 77.3797 57.7818 77.5928C57.699 77.8035 57.5806 77.9917 57.4267 78.1574C57.2752 78.3231 57.0929 78.4699 56.8799 78.5978C56.6786 78.7232 56.5153 78.8534 56.3898 78.9884C56.2667 79.1233 56.1767 79.2831 56.1199 79.4678C56.0631 79.6525 56.0323 79.8809 56.0276 80.1532V80.2206H55.012ZM55.5482 82.3797C55.3541 82.3797 55.1872 82.3111 55.0475 82.1738C54.9078 82.0341 54.838 81.866 54.838 81.6695C54.838 81.4754 54.9078 81.3097 55.0475 81.1723C55.1872 81.0327 55.3541 80.9628 55.5482 80.9628C55.7399 80.9628 55.9057 81.0327 56.0453 81.1723C56.1874 81.3097 56.2584 81.4754 56.2584 81.6695C56.2584 81.7997 56.2253 81.9193 56.159 82.0282C56.0951 82.1347 56.0098 82.2199 55.9033 82.2838C55.7968 82.3478 55.6784 82.3797 55.5482 82.3797Z" fill="#414851"/>
<path d="M93.988 114.232C93.988 109.44 97.8723 105.556 102.664 105.556H229.909C234.701 105.556 238.585 109.44 238.585 114.232V156.691H102.664C97.8723 156.691 93.988 152.807 93.988 148.016V114.232Z" fill="url(#paint0_linear_2077_6523)"/>
<path d="M107.452 120.851V128.124H106.355V120.851H107.452ZM112.673 124.885V128.124H111.611V122.669H112.63V123.557H112.698C112.823 123.268 113.02 123.036 113.287 122.861C113.557 122.686 113.897 122.598 114.307 122.598C114.678 122.598 115.004 122.676 115.283 122.833C115.562 122.987 115.779 123.216 115.933 123.522C116.087 123.827 116.164 124.205 116.164 124.654V128.124H115.102V124.782C115.102 124.387 114.999 124.078 114.793 123.855C114.587 123.631 114.304 123.518 113.944 123.518C113.698 123.518 113.479 123.571 113.287 123.678C113.098 123.784 112.948 123.941 112.836 124.147C112.727 124.35 112.673 124.596 112.673 124.885ZM119.939 128.234C119.401 128.234 118.938 128.119 118.55 127.89C118.164 127.658 117.866 127.332 117.655 126.913C117.447 126.492 117.343 125.998 117.343 125.432C117.343 124.873 117.447 124.381 117.655 123.955C117.866 123.529 118.16 123.196 118.536 122.957C118.915 122.718 119.357 122.598 119.864 122.598C120.172 122.598 120.47 122.649 120.759 122.751C121.048 122.853 121.307 123.013 121.537 123.23C121.766 123.448 121.947 123.731 122.08 124.079C122.213 124.425 122.279 124.845 122.279 125.34V125.716H117.943V124.921H121.238C121.238 124.641 121.182 124.394 121.068 124.179C120.954 123.961 120.794 123.789 120.589 123.664C120.385 123.538 120.146 123.475 119.871 123.475C119.573 123.475 119.312 123.549 119.09 123.696C118.87 123.84 118.699 124.029 118.579 124.264C118.46 124.496 118.401 124.748 118.401 125.02V125.642C118.401 126.006 118.465 126.316 118.593 126.572C118.723 126.828 118.904 127.023 119.136 127.158C119.368 127.291 119.639 127.357 119.949 127.357C120.151 127.357 120.334 127.328 120.5 127.272C120.665 127.212 120.809 127.125 120.929 127.009C121.05 126.893 121.142 126.75 121.206 126.579L122.211 126.76C122.131 127.056 121.986 127.315 121.778 127.538C121.572 127.758 121.313 127.93 121 128.053C120.69 128.174 120.336 128.234 119.939 128.234ZM125.808 128.234C125.27 128.234 124.808 128.119 124.419 127.89C124.033 127.658 123.735 127.332 123.524 126.913C123.316 126.492 123.212 125.998 123.212 125.432C123.212 124.873 123.316 124.381 123.524 123.955C123.735 123.529 124.029 123.196 124.405 122.957C124.784 122.718 125.227 122.598 125.733 122.598C126.041 122.598 126.339 122.649 126.628 122.751C126.917 122.853 127.176 123.013 127.406 123.23C127.635 123.448 127.817 123.731 127.949 124.079C128.082 124.425 128.148 124.845 128.148 125.34V125.716H123.812V124.921H127.108C127.108 124.641 127.051 124.394 126.937 124.179C126.823 123.961 126.664 123.789 126.458 123.664C126.254 123.538 126.015 123.475 125.74 123.475C125.442 123.475 125.182 123.549 124.959 123.696C124.739 123.84 124.568 124.029 124.448 124.264C124.329 124.496 124.27 124.748 124.27 125.02V125.642C124.27 126.006 124.334 126.316 124.462 126.572C124.592 126.828 124.773 127.023 125.005 127.158C125.237 127.291 125.508 127.357 125.818 127.357C126.02 127.357 126.203 127.328 126.369 127.272C126.535 127.212 126.678 127.125 126.799 127.009C126.919 126.893 127.012 126.75 127.076 126.579L128.081 126.76C128 127.056 127.856 127.315 127.647 127.538C127.441 127.758 127.182 127.93 126.87 128.053C126.559 128.174 126.206 128.234 125.808 128.234ZM131.368 128.23C130.928 128.23 130.535 128.118 130.189 127.893C129.846 127.666 129.576 127.343 129.379 126.924C129.185 126.502 129.088 125.997 129.088 125.407C129.088 124.818 129.186 124.314 129.383 123.894C129.582 123.475 129.854 123.155 130.2 122.932C130.545 122.71 130.937 122.598 131.375 122.598C131.714 122.598 131.986 122.655 132.192 122.769C132.4 122.88 132.561 123.01 132.675 123.159C132.791 123.309 132.881 123.44 132.945 123.554H133.009V120.851H134.07V128.124H133.033V127.275H132.945C132.881 127.391 132.788 127.524 132.668 127.673C132.549 127.822 132.386 127.952 132.178 128.064C131.969 128.175 131.699 128.23 131.368 128.23ZM131.602 127.325C131.908 127.325 132.166 127.244 132.377 127.083C132.59 126.92 132.751 126.694 132.859 126.405C132.971 126.116 133.026 125.78 133.026 125.397C133.026 125.018 132.972 124.686 132.863 124.402C132.754 124.118 132.594 123.897 132.384 123.738C132.173 123.58 131.912 123.5 131.602 123.5C131.283 123.5 131.016 123.583 130.803 123.749C130.59 123.915 130.429 124.141 130.32 124.427C130.214 124.714 130.161 125.037 130.161 125.397C130.161 125.761 130.215 126.089 130.324 126.38C130.433 126.671 130.594 126.902 130.807 127.073C131.022 127.241 131.287 127.325 131.602 127.325ZM139.294 124.885V128.124H138.232V120.851H139.28V123.557H139.347C139.475 123.264 139.671 123.03 139.933 122.858C140.196 122.685 140.539 122.598 140.963 122.598C141.337 122.598 141.664 122.675 141.943 122.829C142.225 122.983 142.443 123.213 142.597 123.518C142.753 123.821 142.831 124.2 142.831 124.654V128.124H141.769V124.782C141.769 124.382 141.666 124.072 141.46 123.852C141.254 123.629 140.968 123.518 140.601 123.518C140.35 123.518 140.125 123.571 139.926 123.678C139.73 123.784 139.575 123.941 139.461 124.147C139.35 124.35 139.294 124.596 139.294 124.885ZM146.599 128.234C146.061 128.234 145.599 128.119 145.21 127.89C144.824 127.658 144.526 127.332 144.315 126.913C144.107 126.492 144.003 125.998 144.003 125.432C144.003 124.873 144.107 124.381 144.315 123.955C144.526 123.529 144.82 123.196 145.196 122.957C145.575 122.718 146.018 122.598 146.524 122.598C146.832 122.598 147.13 122.649 147.419 122.751C147.708 122.853 147.967 123.013 148.197 123.23C148.426 123.448 148.608 123.731 148.74 124.079C148.873 124.425 148.939 124.845 148.939 125.34V125.716H144.603V124.921H147.899C147.899 124.641 147.842 124.394 147.728 124.179C147.614 123.961 147.455 123.789 147.249 123.664C147.045 123.538 146.806 123.475 146.531 123.475C146.233 123.475 145.973 123.549 145.75 123.696C145.53 123.84 145.359 124.029 145.239 124.264C145.12 124.496 145.061 124.748 145.061 125.02V125.642C145.061 126.006 145.125 126.316 145.253 126.572C145.383 126.828 145.564 127.023 145.796 127.158C146.028 127.291 146.299 127.357 146.609 127.357C146.811 127.357 146.994 127.328 147.16 127.272C147.326 127.212 147.469 127.125 147.59 127.009C147.71 126.893 147.803 126.75 147.867 126.579L148.872 126.76C148.791 127.056 148.647 127.315 148.438 127.538C148.232 127.758 147.973 127.93 147.661 128.053C147.35 128.174 146.997 128.234 146.599 128.234ZM151.179 120.851V128.124H150.117V120.851H151.179ZM152.607 130.169V122.669H153.644V123.554H153.733C153.795 123.44 153.883 123.309 153.999 123.159C154.115 123.01 154.276 122.88 154.482 122.769C154.688 122.655 154.961 122.598 155.299 122.598C155.739 122.598 156.132 122.71 156.478 122.932C156.824 123.155 157.095 123.475 157.291 123.894C157.49 124.314 157.59 124.818 157.59 125.407C157.59 125.997 157.491 126.502 157.295 126.924C157.098 127.343 156.828 127.666 156.485 127.893C156.142 128.118 155.75 128.23 155.31 128.23C154.978 128.23 154.707 128.175 154.497 128.064C154.288 127.952 154.125 127.822 154.006 127.673C153.888 127.524 153.797 127.391 153.733 127.275H153.669V130.169H152.607ZM153.648 125.397C153.648 125.78 153.703 126.116 153.815 126.405C153.926 126.694 154.087 126.92 154.298 127.083C154.508 127.244 154.766 127.325 155.072 127.325C155.389 127.325 155.654 127.241 155.867 127.073C156.08 126.902 156.241 126.671 156.35 126.38C156.461 126.089 156.517 125.761 156.517 125.397C156.517 125.037 156.463 124.714 156.354 124.427C156.247 124.141 156.086 123.915 155.871 123.749C155.658 123.583 155.391 123.5 155.072 123.5C154.764 123.5 154.504 123.58 154.291 123.738C154.08 123.897 153.92 124.118 153.811 124.402C153.702 124.686 153.648 125.018 153.648 125.397ZM162.608 128.124L161.003 122.669H162.1L163.169 126.675H163.223L164.295 122.669H165.392L166.458 126.657H166.511L167.573 122.669H168.67L167.068 128.124H165.985L164.877 124.186H164.796L163.688 128.124H162.608ZM169.678 128.124V122.669H170.739V128.124H169.678ZM170.214 121.828C170.029 121.828 169.871 121.766 169.738 121.643C169.608 121.518 169.543 121.368 169.543 121.196C169.543 121.02 169.608 120.871 169.738 120.748C169.871 120.623 170.029 120.56 170.214 120.56C170.399 120.56 170.556 120.623 170.686 120.748C170.819 120.871 170.885 121.02 170.885 121.196C170.885 121.368 170.819 121.518 170.686 121.643C170.556 121.766 170.399 121.828 170.214 121.828ZM174.714 122.669V123.522H171.735V122.669H174.714ZM172.534 121.363H173.595V126.522C173.595 126.728 173.626 126.883 173.688 126.988C173.749 127.089 173.829 127.159 173.926 127.197C174.025 127.233 174.133 127.25 174.249 127.25C174.334 127.25 174.409 127.244 174.473 127.233C174.536 127.221 174.586 127.211 174.622 127.204L174.813 128.081C174.752 128.105 174.664 128.129 174.551 128.152C174.437 128.178 174.295 128.193 174.125 128.195C173.845 128.2 173.585 128.15 173.343 128.046C173.102 127.942 172.907 127.781 172.757 127.563C172.608 127.345 172.534 127.072 172.534 126.743V121.363ZM177.068 124.885V128.124H176.006V120.851H177.053V123.557H177.121C177.249 123.264 177.444 123.03 177.707 122.858C177.97 122.685 178.313 122.598 178.737 122.598C179.111 122.598 179.437 122.675 179.717 122.829C179.998 122.983 180.216 123.213 180.37 123.518C180.526 123.821 180.604 124.2 180.604 124.654V128.124H179.543V124.782C179.543 124.382 179.44 124.072 179.234 123.852C179.028 123.629 178.741 123.518 178.374 123.518C178.123 123.518 177.899 123.571 177.7 123.678C177.503 123.784 177.348 123.941 177.234 124.147C177.123 124.35 177.068 124.596 177.068 124.885ZM184.668 128.124V122.669H185.687V123.557H185.755C185.868 123.256 186.054 123.022 186.312 122.854C186.57 122.684 186.879 122.598 187.239 122.598C187.603 122.598 187.909 122.684 188.155 122.854C188.404 123.024 188.587 123.259 188.706 123.557H188.762C188.893 123.266 189.1 123.034 189.384 122.861C189.668 122.686 190.006 122.598 190.399 122.598C190.894 122.598 191.298 122.753 191.61 123.064C191.925 123.374 192.083 123.841 192.083 124.466V128.124H191.021V124.566C191.021 124.196 190.92 123.929 190.719 123.763C190.518 123.597 190.277 123.515 189.998 123.515C189.652 123.515 189.384 123.621 189.192 123.834C189 124.045 188.904 124.316 188.904 124.647V128.124H187.846V124.498C187.846 124.202 187.754 123.964 187.569 123.784C187.384 123.604 187.144 123.515 186.848 123.515C186.647 123.515 186.461 123.568 186.291 123.674C186.123 123.778 185.987 123.924 185.882 124.111C185.781 124.298 185.73 124.515 185.73 124.761V128.124H184.668ZM193.982 130.169C193.823 130.169 193.679 130.156 193.548 130.13C193.418 130.107 193.321 130.081 193.257 130.052L193.513 129.182C193.707 129.234 193.88 129.257 194.031 129.25C194.183 129.243 194.317 129.186 194.433 129.079C194.551 128.973 194.655 128.799 194.745 128.557L194.877 128.195L192.881 122.669H194.017L195.399 126.902H195.455L196.837 122.669H197.977L195.729 128.852C195.625 129.136 195.492 129.376 195.331 129.573C195.17 129.772 194.978 129.921 194.756 130.02C194.533 130.12 194.275 130.169 193.982 130.169ZM106.269 142.124V136.669H107.289V137.557H107.356C107.47 137.256 107.656 137.022 107.914 136.854C108.172 136.684 108.481 136.598 108.84 136.598C109.205 136.598 109.51 136.684 109.757 136.854C110.005 137.024 110.189 137.259 110.307 137.557H110.364C110.494 137.266 110.701 137.034 110.985 136.861C111.269 136.686 111.608 136.598 112.001 136.598C112.496 136.598 112.899 136.753 113.212 137.064C113.527 137.374 113.684 137.841 113.684 138.466V142.124H112.622V138.566C112.622 138.196 112.522 137.929 112.321 137.763C112.119 137.597 111.879 137.515 111.6 137.515C111.254 137.515 110.985 137.621 110.794 137.834C110.602 138.045 110.506 138.316 110.506 138.647V142.124H109.448V138.498C109.448 138.202 109.355 137.964 109.171 137.784C108.986 137.604 108.746 137.515 108.45 137.515C108.249 137.515 108.063 137.568 107.892 137.674C107.724 137.778 107.588 137.924 107.484 138.111C107.382 138.298 107.331 138.515 107.331 138.761V142.124H106.269ZM116.695 142.245C116.349 142.245 116.037 142.181 115.757 142.053C115.478 141.923 115.256 141.734 115.093 141.488C114.932 141.242 114.852 140.94 114.852 140.583C114.852 140.275 114.911 140.022 115.029 139.823C115.148 139.624 115.307 139.466 115.509 139.35C115.71 139.234 115.935 139.147 116.183 139.088C116.432 139.028 116.685 138.984 116.943 138.953C117.27 138.915 117.535 138.884 117.739 138.86C117.942 138.834 118.09 138.793 118.183 138.736C118.275 138.679 118.321 138.587 118.321 138.459V138.434C118.321 138.124 118.234 137.884 118.058 137.713C117.886 137.543 117.627 137.458 117.284 137.458C116.927 137.458 116.645 137.537 116.439 137.696C116.235 137.852 116.095 138.026 116.016 138.218L115.019 137.99C115.137 137.659 115.31 137.391 115.537 137.188C115.767 136.982 116.031 136.833 116.329 136.74C116.627 136.646 116.941 136.598 117.27 136.598C117.488 136.598 117.719 136.624 117.962 136.676C118.209 136.726 118.438 136.819 118.651 136.953C118.867 137.088 119.043 137.281 119.18 137.532C119.318 137.781 119.386 138.104 119.386 138.502V142.124H118.35V141.378H118.307C118.238 141.515 118.135 141.65 117.998 141.783C117.861 141.916 117.684 142.026 117.469 142.113C117.253 142.201 116.995 142.245 116.695 142.245ZM116.926 141.392C117.219 141.392 117.47 141.334 117.678 141.218C117.889 141.102 118.049 140.951 118.158 140.764C118.269 140.574 118.325 140.372 118.325 140.157V139.453C118.287 139.491 118.213 139.527 118.104 139.56C117.998 139.591 117.876 139.618 117.739 139.642C117.601 139.663 117.468 139.683 117.337 139.702C117.207 139.719 117.098 139.733 117.011 139.745C116.805 139.771 116.617 139.814 116.446 139.876C116.278 139.938 116.143 140.026 116.041 140.142C115.942 140.256 115.892 140.408 115.892 140.597C115.892 140.86 115.989 141.059 116.183 141.194C116.377 141.326 116.625 141.392 116.926 141.392ZM120.801 142.124V136.669H121.827V137.536H121.884C121.983 137.242 122.158 137.011 122.409 136.843C122.663 136.673 122.949 136.588 123.269 136.588C123.335 136.588 123.413 136.59 123.503 136.595C123.595 136.6 123.668 136.605 123.72 136.613V137.628C123.677 137.616 123.601 137.603 123.492 137.589C123.384 137.573 123.275 137.564 123.166 137.564C122.915 137.564 122.691 137.618 122.495 137.724C122.3 137.828 122.147 137.974 122.033 138.161C121.919 138.345 121.862 138.556 121.862 138.793V142.124H120.801ZM125.615 140.274L125.608 138.978H125.793L127.966 136.669H129.237L126.759 139.297H126.592L125.615 140.274ZM124.639 142.124V134.851H125.7V142.124H124.639ZM128.083 142.124L126.13 139.532L126.862 138.789L129.386 142.124H128.083ZM132.331 142.234C131.794 142.234 131.331 142.119 130.943 141.89C130.557 141.658 130.259 141.332 130.048 140.913C129.84 140.492 129.735 139.998 129.735 139.432C129.735 138.873 129.84 138.381 130.048 137.955C130.259 137.529 130.552 137.196 130.929 136.957C131.307 136.718 131.75 136.598 132.257 136.598C132.564 136.598 132.863 136.649 133.152 136.751C133.44 136.853 133.7 137.013 133.929 137.23C134.159 137.448 134.34 137.731 134.473 138.079C134.605 138.425 134.671 138.845 134.671 139.34V139.716H130.335V138.921H133.631C133.631 138.641 133.574 138.394 133.46 138.179C133.347 137.961 133.187 137.789 132.981 137.664C132.777 137.538 132.538 137.475 132.264 137.475C131.965 137.475 131.705 137.549 131.483 137.696C131.262 137.84 131.092 138.029 130.971 138.264C130.853 138.496 130.794 138.748 130.794 139.02V139.642C130.794 140.006 130.858 140.316 130.985 140.572C131.116 140.828 131.297 141.023 131.529 141.158C131.761 141.291 132.032 141.357 132.342 141.357C132.543 141.357 132.727 141.328 132.892 141.272C133.058 141.212 133.201 141.125 133.322 141.009C133.443 140.893 133.535 140.75 133.599 140.579L134.604 140.76C134.523 141.056 134.379 141.315 134.171 141.538C133.965 141.758 133.706 141.93 133.393 142.053C133.083 142.174 132.729 142.234 132.331 142.234ZM138.396 136.669V137.522H135.416V136.669H138.396ZM136.215 135.363H137.277V140.522C137.277 140.728 137.308 140.883 137.369 140.988C137.431 141.089 137.51 141.159 137.607 141.197C137.707 141.233 137.814 141.25 137.93 141.25C138.016 141.25 138.09 141.244 138.154 141.233C138.218 141.221 138.268 141.211 138.303 141.204L138.495 142.081C138.434 142.105 138.346 142.129 138.232 142.152C138.119 142.178 137.977 142.193 137.806 142.195C137.527 142.2 137.266 142.15 137.025 142.046C136.783 141.942 136.588 141.781 136.439 141.563C136.29 141.345 136.215 141.072 136.215 140.743V135.363ZM139.57 142.124V136.669H140.632V142.124H139.57ZM140.106 135.828C139.922 135.828 139.763 135.766 139.631 135.643C139.5 135.518 139.435 135.368 139.435 135.196C139.435 135.02 139.5 134.871 139.631 134.748C139.763 134.623 139.922 134.56 140.106 134.56C140.291 134.56 140.449 134.623 140.579 134.748C140.711 134.871 140.778 135.02 140.778 135.196C140.778 135.368 140.711 135.518 140.579 135.643C140.449 135.766 140.291 135.828 140.106 135.828ZM143.122 138.885V142.124H142.06V136.669H143.08V137.557H143.147C143.273 137.268 143.469 137.036 143.737 136.861C144.006 136.686 144.346 136.598 144.756 136.598C145.127 136.598 145.453 136.676 145.732 136.833C146.012 136.987 146.228 137.216 146.382 137.522C146.536 137.827 146.613 138.205 146.613 138.654V142.124H145.551V138.782C145.551 138.387 145.448 138.078 145.242 137.855C145.036 137.631 144.753 137.518 144.394 137.518C144.147 137.518 143.928 137.571 143.737 137.678C143.547 137.784 143.397 137.941 143.286 138.147C143.177 138.35 143.122 138.596 143.122 138.885ZM150.324 144.283C149.891 144.283 149.518 144.226 149.205 144.113C148.895 143.999 148.642 143.849 148.445 143.662C148.249 143.475 148.102 143.27 148.005 143.047L148.918 142.671C148.982 142.775 149.067 142.885 149.173 143.001C149.282 143.119 149.429 143.22 149.614 143.303C149.801 143.386 150.041 143.427 150.335 143.427C150.737 143.427 151.07 143.329 151.332 143.132C151.595 142.938 151.727 142.628 151.727 142.202V141.13H151.659C151.595 141.246 151.503 141.375 151.382 141.517C151.264 141.659 151.1 141.782 150.892 141.886C150.684 141.99 150.413 142.042 150.079 142.042C149.648 142.042 149.26 141.942 148.914 141.74C148.571 141.537 148.299 141.237 148.097 140.842C147.899 140.444 147.799 139.955 147.799 139.375C147.799 138.795 147.897 138.298 148.094 137.884C148.293 137.47 148.565 137.152 148.911 136.932C149.256 136.71 149.648 136.598 150.086 136.598C150.425 136.598 150.698 136.655 150.906 136.769C151.115 136.88 151.277 137.01 151.393 137.159C151.511 137.309 151.602 137.44 151.666 137.554H151.744V136.669H152.785V142.245C152.785 142.713 152.676 143.098 152.458 143.399C152.24 143.699 151.946 143.922 151.574 144.066C151.205 144.211 150.788 144.283 150.324 144.283ZM150.313 141.162C150.619 141.162 150.877 141.091 151.087 140.948C151.301 140.804 151.461 140.598 151.57 140.331C151.682 140.061 151.737 139.738 151.737 139.361C151.737 138.994 151.683 138.671 151.574 138.392C151.465 138.112 151.305 137.894 151.095 137.738C150.884 137.58 150.623 137.5 150.313 137.5C149.994 137.5 149.727 137.583 149.514 137.749C149.301 137.912 149.14 138.135 149.031 138.417C148.925 138.698 148.872 139.013 148.872 139.361C148.872 139.719 148.926 140.032 149.035 140.302C149.144 140.572 149.305 140.783 149.518 140.934C149.733 141.086 149.998 141.162 150.313 141.162ZM154.908 142.191C154.714 142.191 154.547 142.123 154.408 141.985C154.268 141.846 154.198 141.678 154.198 141.481C154.198 141.287 154.268 141.121 154.408 140.984C154.547 140.844 154.714 140.774 154.908 140.774C155.103 140.774 155.27 140.844 155.409 140.984C155.549 141.121 155.619 141.287 155.619 141.481C155.619 141.611 155.586 141.731 155.519 141.84C155.455 141.946 155.37 142.032 155.264 142.095C155.157 142.159 155.039 142.191 154.908 142.191ZM157.741 142.191C157.546 142.191 157.379 142.123 157.24 141.985C157.1 141.846 157.03 141.678 157.03 141.481C157.03 141.287 157.1 141.121 157.24 140.984C157.379 140.844 157.546 140.774 157.741 140.774C157.935 140.774 158.102 140.844 158.241 140.984C158.381 141.121 158.451 141.287 158.451 141.481C158.451 141.611 158.418 141.731 158.351 141.84C158.287 141.946 158.202 142.032 158.096 142.095C157.989 142.159 157.871 142.191 157.741 142.191ZM160.573 142.191C160.378 142.191 160.211 142.123 160.072 141.985C159.932 141.846 159.862 141.678 159.862 141.481C159.862 141.287 159.932 141.121 160.072 140.984C160.211 140.844 160.378 140.774 160.573 140.774C160.767 140.774 160.934 140.844 161.073 140.984C161.213 141.121 161.283 141.287 161.283 141.481C161.283 141.611 161.25 141.731 161.183 141.84C161.119 141.946 161.034 142.032 160.928 142.095C160.821 142.159 160.703 142.191 160.573 142.191Z" fill="white"/>
<circle cx="17.3517" cy="168.259" r="2.89194" fill="#D8ADF1"/>
<circle cx="27.4735" cy="168.259" r="2.89194" fill="#D8ADF1"/>
<circle cx="37.5953" cy="168.259" r="2.89194" fill="#D8ADF1"/>
<g filter="url(#filter0_f_2077_6523)">
<ellipse cx="239" cy="6.80859" rx="39" ry="34" fill="url(#paint1_linear_2077_6523)"/>
</g>
</g>
<rect x="0.5" y="0.5" width="252.045" height="181.192" rx="8.17583" stroke="#ECD6F8"/>
<defs>
<filter id="filter0_f_2077_6523" x="40" y="-187.191" width="398" height="388" filterUnits="userSpaceOnUse" color-interpolation-filters="sRGB">
<feFlood flood-opacity="0" result="BackgroundImageFix"/>
<feBlend mode="normal" in="SourceGraphic" in2="BackgroundImageFix" result="shape"/>
<feGaussianBlur stdDeviation="80" result="effect1_foregroundBlur_2077_6523"/>
</filter>
<linearGradient id="paint0_linear_2077_6523" x1="154.422" y1="86.7352" x2="258.963" y2="190.315" gradientUnits="userSpaceOnUse">
<stop offset="0.148709" stop-color="#9E32DD"/>
<stop offset="1" stop-color="#D8ADF1"/>
</linearGradient>
<linearGradient id="paint1_linear_2077_6523" x1="281.9" y1="17.6886" x2="204.795" y2="-26.1123" gradientUnits="userSpaceOnUse">
<stop stop-color="#D946EF"/>
<stop offset="1" stop-color="#5B21B6"/>
</linearGradient>
<clipPath id="clip0_2077_6523">
<rect width="253.045" height="182.192" rx="8.67583" fill="white"/>
</clipPath>
</defs>
</svg>
