<svg width="317" height="177" viewBox="0 0 317 177" fill="none" xmlns="http://www.w3.org/2000/svg">
<g clip-path="url(#clip0_2077_6543)">
<rect width="223.101" height="177" rx="15.7333" fill="white"/>
<path d="M27.3768 31.7333V22.198H28.5315V30.709H32.964V31.7333H27.3768ZM37.6013 31.8823C36.9122 31.8823 36.3178 31.7302 35.818 31.426C35.3214 31.1188 34.9381 30.6904 34.668 30.141C34.4011 29.5885 34.2676 28.946 34.2676 28.2135C34.2676 27.4809 34.4011 26.8353 34.668 26.2766C34.9381 25.7148 35.3137 25.2771 35.7948 24.9636C36.279 24.647 36.8439 24.4887 37.4895 24.4887C37.862 24.4887 38.2298 24.5508 38.593 24.6749C38.9561 24.7991 39.2867 25.0009 39.5847 25.2802C39.8827 25.5565 40.1201 25.9227 40.2971 26.379C40.474 26.8353 40.5624 27.3971 40.5624 28.0645V28.5301H35.0498V27.5802H39.445C39.445 27.1767 39.3643 26.8167 39.2029 26.5001C39.0446 26.1835 38.818 25.9336 38.5231 25.7505C38.2314 25.5673 37.8868 25.4758 37.4895 25.4758C37.0519 25.4758 36.6732 25.5844 36.3535 25.8017C36.0369 26.0158 35.7932 26.2952 35.6225 26.6397C35.4518 26.9843 35.3664 27.3537 35.3664 27.7479V28.3811C35.3664 28.9212 35.4595 29.379 35.6458 29.7546C35.8351 30.127 36.0974 30.4111 36.4326 30.6066C36.7679 30.799 37.1574 30.8953 37.6013 30.8953C37.8899 30.8953 38.1507 30.8549 38.3835 30.7742C38.6194 30.6904 38.8227 30.5662 38.9934 30.4017C39.1641 30.2341 39.296 30.0262 39.3892 29.7778L40.4507 30.0758C40.339 30.4359 40.1512 30.7525 39.8873 31.0256C39.6235 31.2957 39.2976 31.5067 38.9096 31.6588C38.5216 31.8078 38.0855 31.8823 37.6013 31.8823ZM44.3384 31.901C43.8852 31.901 43.474 31.8156 43.1046 31.6449C42.7352 31.4711 42.4419 31.2212 42.2246 30.8953C42.0073 30.5662 41.8987 30.1689 41.8987 29.7033C41.8987 29.2936 41.9794 28.9615 42.1408 28.707C42.3022 28.4494 42.5179 28.2476 42.788 28.1017C43.058 27.9558 43.356 27.8472 43.6819 27.7758C44.0109 27.7013 44.3415 27.6423 44.6736 27.5989C45.1082 27.543 45.4605 27.5011 45.7305 27.4732C46.0037 27.4421 46.2023 27.3909 46.3265 27.3195C46.4538 27.2481 46.5174 27.124 46.5174 26.947V26.9098C46.5174 26.4504 46.3917 26.0934 46.1403 25.8389C45.8919 25.5844 45.5148 25.4571 45.0089 25.4571C44.4843 25.4571 44.073 25.572 43.775 25.8017C43.4771 26.0314 43.2675 26.2766 43.1465 26.5373L42.1036 26.1648C42.2898 25.7303 42.5381 25.392 42.8485 25.1498C43.162 24.9046 43.5034 24.7339 43.8728 24.6377C44.2453 24.5384 44.6116 24.4887 44.9716 24.4887C45.2013 24.4887 45.4651 24.5166 45.7631 24.5725C46.0642 24.6253 46.3544 24.7355 46.6338 24.9031C46.9162 25.0707 47.1506 25.3237 47.3368 25.662C47.5231 26.0003 47.6162 26.4535 47.6162 27.0215V31.7333H46.5174V30.7649H46.4615C46.387 30.9201 46.2629 31.0862 46.089 31.2631C45.9152 31.44 45.684 31.5906 45.3953 31.7147C45.1066 31.8389 44.7543 31.901 44.3384 31.901ZM44.506 30.9139C44.9406 30.9139 45.3068 30.8285 45.6048 30.6578C45.9059 30.4871 46.1325 30.2667 46.2846 29.9967C46.4398 29.7266 46.5174 29.4426 46.5174 29.1446V28.139C46.4708 28.1948 46.3684 28.246 46.2101 28.2926C46.0549 28.3361 45.8749 28.3749 45.67 28.409C45.4682 28.44 45.2711 28.468 45.0787 28.4928C44.8894 28.5145 44.7357 28.5332 44.6178 28.5487C44.3322 28.5859 44.0653 28.6465 43.8169 28.7303C43.5717 28.811 43.3731 28.9336 43.221 29.0981C43.072 29.2595 42.9975 29.4799 42.9975 29.7592C42.9975 30.141 43.1387 30.4297 43.4212 30.6252C43.7068 30.8177 44.0684 30.9139 44.506 30.9139ZM52.3222 31.8823C51.7262 31.8823 51.2001 31.7318 50.7438 31.4307C50.2875 31.1265 49.9306 30.6982 49.6729 30.1457C49.4153 29.5901 49.2865 28.9336 49.2865 28.1762C49.2865 27.425 49.4153 26.7732 49.6729 26.2207C49.9306 25.6682 50.2891 25.2414 50.7485 24.9403C51.2079 24.6392 51.7386 24.4887 52.3408 24.4887C52.8064 24.4887 53.1742 24.5663 53.4443 24.7215C53.7174 24.8736 53.9254 25.0474 54.0681 25.243C54.214 25.4354 54.3273 25.5937 54.408 25.7179H54.5012V22.198H55.6V31.7333H54.5384V30.6345H54.408C54.3273 30.7649 54.2125 30.9294 54.0635 31.1281C53.9145 31.3236 53.7019 31.499 53.4256 31.6542C53.1494 31.8063 52.7816 31.8823 52.3222 31.8823ZM52.4712 30.8953C52.9119 30.8953 53.2844 30.7804 53.5886 30.5507C53.8928 30.3179 54.124 29.9967 54.2823 29.587C54.4406 29.1741 54.5198 28.6977 54.5198 28.1576C54.5198 27.6237 54.4422 27.1566 54.287 26.7561C54.1318 26.3526 53.9021 26.0391 53.5979 25.8156C53.2937 25.5891 52.9181 25.4758 52.4712 25.4758C52.0056 25.4758 51.6176 25.5953 51.3072 25.8343C50.9999 26.0702 50.7686 26.3914 50.6134 26.798C50.4614 27.2016 50.3853 27.6547 50.3853 28.1576C50.3853 28.6666 50.4629 29.1291 50.6181 29.545C50.7764 29.9579 51.0092 30.2869 51.3165 30.5321C51.6269 30.7742 52.0118 30.8953 52.4712 30.8953ZM62.8306 26.1835L61.8436 26.4628C61.7815 26.2983 61.6899 26.1385 61.5689 25.9833C61.4509 25.825 61.2895 25.6946 61.0846 25.5922C60.8798 25.4897 60.6175 25.4385 60.2978 25.4385C59.8601 25.4385 59.4954 25.5394 59.2036 25.7411C58.915 25.9398 58.7706 26.1928 58.7706 26.5001C58.7706 26.7732 58.87 26.9889 59.0686 27.1472C59.2673 27.3055 59.5777 27.4375 59.9998 27.543L61.0614 27.8037C61.7008 27.9589 62.1772 28.1964 62.4907 28.5161C62.8042 28.8327 62.961 29.2409 62.961 29.7406C62.961 30.1503 62.843 30.5166 62.6071 30.8394C62.3743 31.1622 62.0484 31.4167 61.6294 31.603C61.2104 31.7892 60.723 31.8823 60.1674 31.8823C59.438 31.8823 58.8343 31.724 58.3563 31.4074C57.8783 31.0908 57.5756 30.6283 57.4484 30.02L58.4913 29.7592C58.5906 30.1441 58.7784 30.4328 59.0547 30.6252C59.334 30.8177 59.6987 30.9139 60.1488 30.9139C60.661 30.9139 61.0676 30.8053 61.3687 30.588C61.6728 30.3676 61.8249 30.1038 61.8249 29.7965C61.8249 29.5482 61.738 29.3402 61.5642 29.1726C61.3904 29.0019 61.1234 28.8746 60.7634 28.7908L59.5715 28.5114C58.9165 28.3562 58.4354 28.1157 58.1281 27.7898C57.8239 27.4607 57.6718 27.0495 57.6718 26.5559C57.6718 26.1524 57.7851 25.7955 58.0117 25.4851C58.2414 25.1747 58.5534 24.931 58.9476 24.7541C59.3449 24.5772 59.7949 24.4887 60.2978 24.4887C61.0055 24.4887 61.5611 24.6439 61.9646 24.9543C62.3712 25.2647 62.6599 25.6744 62.8306 26.1835Z" fill="#414851"/>
<path d="M32.1799 58.5381C31.2586 58.5381 30.4373 58.3686 29.716 58.0297C28.999 57.6907 28.4297 57.2236 28.0082 56.6282C27.5867 56.0329 27.3672 55.3507 27.3498 54.5815H30.0875C30.1179 55.0986 30.3352 55.518 30.7394 55.8395C31.1435 56.1611 31.6237 56.3219 32.1799 56.3219C32.6231 56.3219 33.0142 56.2241 33.3532 56.0286C33.6965 55.8287 33.9637 55.5527 34.155 55.2007C34.3505 54.8444 34.4483 54.4359 34.4483 53.9753C34.4483 53.506 34.3483 53.0931 34.1484 52.7368C33.9529 52.3805 33.6813 52.1024 33.3336 51.9025C32.986 51.7026 32.5884 51.6004 32.1408 51.5961C31.7497 51.5961 31.3695 51.6765 31.0001 51.8373C30.6351 51.9981 30.3504 52.2175 30.1462 52.4956L27.6366 52.0459L28.2689 45.0061H36.4298V47.3136H30.596L30.2505 50.6575H30.3287C30.5634 50.3272 30.9175 50.0534 31.3912 49.8362C31.8649 49.6189 32.395 49.5102 32.9817 49.5102C33.7856 49.5102 34.5026 49.6993 35.1327 50.0773C35.7628 50.4554 36.2604 50.9747 36.6254 51.6352C36.9904 52.2914 37.1708 53.0475 37.1664 53.9036C37.1708 54.8031 36.9622 55.6027 36.5407 56.3023C36.1235 56.9976 35.539 57.5451 34.7872 57.9449C34.0398 58.3404 33.1707 58.5381 32.1799 58.5381ZM41.7488 56.5305L41.6771 57.2475C41.6206 57.8211 41.5119 58.3925 41.3512 58.9618C41.1947 59.5354 41.0296 60.0547 40.8558 60.5197C40.6863 60.9846 40.5494 61.3497 40.4451 61.6147H38.6461C38.7112 61.3584 38.8003 60.9999 38.9133 60.5392C39.0263 60.0829 39.1328 59.5702 39.2327 59.0009C39.3327 58.4316 39.3957 57.8515 39.4217 57.2605L39.4543 56.5305H41.7488ZM44.0595 56.009V53.7863L49.6327 45.0061H51.5491V48.0827H50.4149L46.9015 53.6429V53.7471H54.8212V56.009H44.0595ZM50.467 58.3556V55.3311L50.5192 54.3468V45.0061H53.1656V58.3556H50.467ZM61.6361 58.5381C60.6627 58.5381 59.7958 58.3708 59.0353 58.0362C58.2792 57.6972 57.6817 57.2323 57.2428 56.6413C56.8082 56.0459 56.5845 55.3593 56.5714 54.5815H59.4134C59.4308 54.9074 59.5372 55.1942 59.7328 55.4419C59.9327 55.6853 60.1978 55.8743 60.528 56.009C60.8583 56.1437 61.2298 56.2111 61.6427 56.2111C62.0729 56.2111 62.4531 56.135 62.7834 55.9829C63.1136 55.8308 63.3722 55.6201 63.559 55.3507C63.7459 55.0812 63.8393 54.7705 63.8393 54.4185C63.8393 54.0622 63.7394 53.7471 63.5395 53.4734C63.3439 53.1953 63.0615 52.978 62.6921 52.8215C62.3271 52.6651 61.8925 52.5869 61.3884 52.5869H60.1434V50.5141H61.3884C61.8143 50.5141 62.1902 50.4402 62.5161 50.2924C62.8464 50.1447 63.1028 49.9405 63.2853 49.6797C63.4678 49.4146 63.559 49.1061 63.559 48.7541C63.559 48.4195 63.4786 48.1262 63.3179 47.8741C63.1614 47.6178 62.9398 47.4179 62.653 47.2745C62.3705 47.1311 62.0403 47.0594 61.6622 47.0594C61.2798 47.0594 60.93 47.1289 60.6128 47.2679C60.2955 47.4027 60.0413 47.596 59.8501 47.8481C59.6589 48.1001 59.5568 48.3956 59.5438 48.7346H56.8387C56.8517 47.9654 57.0712 47.2875 57.497 46.7009C57.9229 46.1142 58.4965 45.6558 59.2178 45.3255C59.9436 44.9909 60.7627 44.8236 61.6753 44.8236C62.5965 44.8236 63.4026 44.9909 64.0935 45.3255C64.7845 45.6601 65.3212 46.112 65.7036 46.6813C66.0903 47.2462 66.2815 47.8807 66.2772 48.5846C66.2815 49.3321 66.049 49.9557 65.5797 50.4554C65.1147 50.9551 64.5085 51.2724 63.7611 51.4071V51.5114C64.7432 51.6374 65.4906 51.9785 66.0034 52.5347C66.5205 53.0866 66.7769 53.7776 66.7726 54.6076C66.7769 55.368 66.5575 56.0438 66.1142 56.6348C65.6753 57.2258 65.0691 57.6907 64.2956 58.0297C63.5221 58.3686 62.6356 58.5381 61.6361 58.5381ZM74.0356 58.6489C72.9144 58.6446 71.9497 58.3686 71.1415 57.8211C70.3375 57.2736 69.7183 56.4805 69.2837 55.4419C68.8535 54.4033 68.6406 53.154 68.645 51.6939C68.645 50.2381 68.8601 48.9975 69.2903 47.9719C69.7248 46.9464 70.3441 46.1664 71.148 45.6319C71.9563 45.093 72.9188 44.8236 74.0356 44.8236C75.1524 44.8236 76.1128 45.093 76.9167 45.6319C77.725 46.1707 78.3464 46.9529 78.7809 47.9784C79.2155 48.9996 79.4306 50.2381 79.4262 51.6939C79.4262 53.1583 79.209 54.4098 78.7744 55.4484C78.3442 56.487 77.7271 57.2801 76.9232 57.8276C76.1193 58.3751 75.1567 58.6489 74.0356 58.6489ZM74.0356 56.3088C74.8004 56.3088 75.411 55.9243 75.8672 55.1551C76.3235 54.3859 76.5495 53.2322 76.5451 51.6939C76.5451 50.6814 76.4409 49.8383 76.2323 49.1648C76.028 48.4912 75.7369 47.985 75.3588 47.646C74.9851 47.3071 74.544 47.1376 74.0356 47.1376C73.2751 47.1376 72.6667 47.5178 72.2105 48.2783C71.7542 49.0388 71.5239 50.1773 71.5195 51.6939C71.5195 52.7194 71.6216 53.5755 71.8259 54.2621C72.0345 54.9443 72.3278 55.4571 72.7059 55.8004C73.0839 56.1394 73.5272 56.3088 74.0356 56.3088Z" fill="#1A1A1A"/>
<g clip-path="url(#clip1_2077_6543)">
<path d="M26.3481 122.63L43.4138 113.242L60.4795 94.4656L77.5451 103.854L94.6108 75.6891L111.676 85.0774L128.742 66.3009L145.808 80.3833L162.873 56.9127L179.939 70.995L197.005 52.2186V160.183H26.3481V122.63Z" fill="url(#paint0_linear_2077_6543)"/>
<path d="M26.3481 122.63L43.4138 113.242L60.4795 94.4656L77.5451 103.854L94.6108 75.6891L111.676 85.0774L128.742 66.3009L145.808 80.3833L162.873 56.9127L179.939 70.995L197.005 52.2186" stroke="url(#paint1_linear_2077_6543)" stroke-width="0.750691"/>
</g>
<rect width="1.31111" height="93.0889" transform="translate(162.578 57.6883)" fill="url(#paint2_linear_2077_6543)"/>
<g filter="url(#filter0_f_2077_6543)">
<ellipse cx="193" cy="5.80743" rx="39" ry="34" fill="url(#paint3_linear_2077_6543)"/>
</g>
<g filter="url(#filter1_f_2077_6543)">
<ellipse cx="16.9995" cy="159.307" rx="21" ry="20.5" fill="url(#paint4_linear_2077_6543)"/>
</g>
</g>
<rect x="0.5" y="0.5" width="222.101" height="176" rx="15.2333" stroke="url(#paint5_linear_2077_6543)"/>
<path d="M169.051 86.2937C169.051 83.3086 171.471 80.8887 174.456 80.8887H311.266C314.251 80.8887 316.671 83.3086 316.671 86.2936V99.2936C316.671 102.279 314.251 104.699 311.266 104.699H174.456C171.471 104.699 169.051 102.279 169.051 99.2936V86.2937Z" fill="#FBF5FF" fill-opacity="0.64"/>
<path d="M183.539 95.7667V89.3229H185.001V95.7667H183.539ZM181.048 93.2758V91.8138H187.492V93.2758H181.048ZM192.863 97.4243C192.192 97.4243 191.596 97.3094 191.075 97.0797C190.556 96.85 190.147 96.5303 189.845 96.1206C189.544 95.7109 189.385 95.2375 189.366 94.7005H191.117C191.132 94.9582 191.217 95.1832 191.373 95.3756C191.528 95.565 191.734 95.7124 191.992 95.818C192.25 95.9235 192.538 95.9763 192.858 95.9763C193.199 95.9763 193.502 95.9173 193.766 95.7993C194.03 95.6783 194.236 95.5107 194.385 95.2965C194.534 95.0823 194.607 94.8356 194.604 94.5562C194.607 94.2675 194.532 94.013 194.38 93.7926C194.228 93.5722 194.008 93.4 193.719 93.2758C193.434 93.1517 193.089 93.0896 192.686 93.0896H191.843V91.758H192.686C193.018 91.758 193.308 91.7006 193.556 91.5857C193.808 91.4709 194.005 91.3095 194.148 91.1015C194.29 90.8904 194.36 90.6468 194.357 90.3705C194.36 90.1005 194.3 89.8661 194.176 89.6675C194.054 89.4657 193.882 89.309 193.659 89.1972C193.438 89.0855 193.179 89.0296 192.881 89.0296C192.589 89.0296 192.319 89.0824 192.071 89.1879C191.823 89.2934 191.623 89.444 191.47 89.6395C191.318 89.832 191.238 90.0617 191.228 90.3286H189.566C189.579 89.7947 189.732 89.326 190.027 88.9225C190.325 88.5159 190.722 88.1993 191.219 87.9727C191.716 87.743 192.273 87.6282 192.89 87.6282C193.527 87.6282 194.079 87.7477 194.548 87.9867C195.02 88.2226 195.385 88.5407 195.642 88.9411C195.9 89.3415 196.029 89.7839 196.029 90.2681C196.032 90.8051 195.873 91.2551 195.554 91.6183C195.237 91.9815 194.821 92.2189 194.306 92.3307V92.4052C194.976 92.4983 195.49 92.7466 195.847 93.1501C196.207 93.5505 196.386 94.0487 196.382 94.6447C196.382 95.1785 196.23 95.6565 195.926 96.0787C195.625 96.4977 195.209 96.8267 194.678 97.0657C194.151 97.3047 193.545 97.4243 192.863 97.4243ZM201.37 97.4243C200.678 97.4243 200.063 97.3079 199.526 97.0751C198.992 96.8423 198.573 96.5241 198.269 96.1206C197.968 95.714 197.819 95.253 197.822 94.7378C197.819 94.3374 197.906 93.9695 198.083 93.6343C198.26 93.2991 198.499 93.0197 198.8 92.7963C199.104 92.5697 199.443 92.4253 199.815 92.3632V92.2981C199.325 92.1894 198.927 91.9396 198.623 91.5485C198.322 91.1543 198.173 90.6995 198.176 90.1843C198.173 89.6938 198.31 89.2562 198.586 88.8713C198.862 88.4864 199.241 88.1838 199.722 87.9634C200.203 87.7399 200.752 87.6282 201.37 87.6282C201.982 87.6282 202.526 87.7399 203.004 87.9634C203.485 88.1838 203.864 88.4864 204.14 88.8713C204.42 89.2562 204.559 89.6938 204.559 90.1843C204.559 90.6995 204.406 91.1543 204.098 91.5485C203.794 91.9396 203.402 92.1894 202.921 92.2981V92.3632C203.293 92.4253 203.628 92.5697 203.926 92.7963C204.227 93.0197 204.466 93.2991 204.643 93.6343C204.823 93.9695 204.913 94.3374 204.913 94.7378C204.913 95.253 204.761 95.714 204.457 96.1206C204.153 96.5241 203.734 96.8423 203.2 97.0751C202.669 97.3079 202.059 97.4243 201.37 97.4243ZM201.37 96.0927C201.727 96.0927 202.037 96.0321 202.301 95.9111C202.565 95.7869 202.77 95.6131 202.916 95.3896C203.062 95.1661 203.136 94.9085 203.139 94.6167C203.136 94.3125 203.057 94.044 202.902 93.8112C202.75 93.5753 202.54 93.3907 202.273 93.2572C202.01 93.1237 201.708 93.057 201.37 93.057C201.029 93.057 200.724 93.1237 200.458 93.2572C200.191 93.3907 199.98 93.5753 199.824 93.8112C199.672 94.044 199.598 94.3125 199.601 94.6167C199.598 94.9085 199.669 95.1661 199.815 95.3896C199.961 95.61 200.166 95.7823 200.43 95.9064C200.697 96.0306 201.01 96.0927 201.37 96.0927ZM201.37 91.7487C201.662 91.7487 201.919 91.6897 202.143 91.5717C202.37 91.4538 202.548 91.2893 202.678 91.0782C202.809 90.8671 202.876 90.6235 202.879 90.3472C202.876 90.0741 202.81 89.8351 202.683 89.6302C202.556 89.4223 202.379 89.2624 202.152 89.1507C201.926 89.0358 201.665 88.9784 201.37 88.9784C201.069 88.9784 200.804 89.0358 200.574 89.1507C200.347 89.2624 200.17 89.4223 200.043 89.6302C199.919 89.8351 199.858 90.0741 199.862 90.3472C199.858 90.6235 199.921 90.8671 200.048 91.0782C200.178 91.2862 200.357 91.4507 200.583 91.5717C200.813 91.6897 201.075 91.7487 201.37 91.7487ZM211.542 95.506V95.0032C211.542 94.6338 211.62 94.2939 211.775 93.9835C211.933 93.6731 212.163 93.4233 212.464 93.2339C212.765 93.0446 213.13 92.9499 213.558 92.9499C213.999 92.9499 214.368 93.0446 214.666 93.2339C214.964 93.4201 215.189 93.6685 215.341 93.9789C215.497 94.2893 215.574 94.6307 215.574 95.0032V95.506C215.574 95.8754 215.497 96.2153 215.341 96.5257C215.186 96.8361 214.958 97.0859 214.657 97.2753C214.359 97.4646 213.993 97.5593 213.558 97.5593C213.124 97.5593 212.756 97.4646 212.455 97.2753C212.154 97.0859 211.925 96.8361 211.77 96.5257C211.618 96.2153 211.542 95.8754 211.542 95.506ZM212.757 95.0032V95.506C212.757 95.7512 212.816 95.9763 212.934 96.1811C213.052 96.386 213.26 96.4884 213.558 96.4884C213.859 96.4884 214.066 96.3875 214.177 96.1858C214.292 95.9809 214.35 95.7543 214.35 95.506V95.0032C214.35 94.7548 214.295 94.5283 214.187 94.3234C214.078 94.1154 213.869 94.0115 213.558 94.0115C213.266 94.0115 213.06 94.1154 212.939 94.3234C212.818 94.5283 212.757 94.7548 212.757 95.0032ZM206.695 90.0493V89.5464C206.695 89.1739 206.774 88.8325 206.933 88.5221C207.091 88.2117 207.321 87.9634 207.622 87.7772C207.923 87.5878 208.288 87.4931 208.716 87.4931C209.154 87.4931 209.521 87.5878 209.819 87.7772C210.121 87.9634 210.347 88.2117 210.499 88.5221C210.651 88.8325 210.727 89.1739 210.727 89.5464V90.0493C210.727 90.4217 210.65 90.7632 210.495 91.0736C210.342 91.3808 210.116 91.6276 209.815 91.8138C209.514 92.0001 209.147 92.0932 208.716 92.0932C208.278 92.0932 207.909 92.0001 207.608 91.8138C207.31 91.6276 207.083 91.3793 206.928 91.0689C206.773 90.7585 206.695 90.4186 206.695 90.0493ZM207.92 89.5464V90.0493C207.92 90.2976 207.977 90.5242 208.092 90.729C208.21 90.9308 208.418 91.0317 208.716 91.0317C209.014 91.0317 209.219 90.9308 209.331 90.729C209.445 90.5242 209.503 90.2976 209.503 90.0493V89.5464C209.503 89.2981 209.449 89.0715 209.34 88.8666C209.231 88.6587 209.023 88.5547 208.716 88.5547C208.421 88.5547 208.215 88.6587 208.097 88.8666C207.979 89.0746 207.92 89.3012 207.92 89.5464ZM207.226 97.2939L213.782 87.7585H214.946L208.39 97.2939H207.226ZM227.165 90.1424L224.618 97.2939H222.756L220.209 90.1424H222.006L223.65 95.4548H223.724L225.373 90.1424H227.165ZM233.984 92.0327L232.447 92.2003C232.404 92.0451 232.328 91.8992 232.219 91.7626C232.114 91.6261 231.971 91.5159 231.791 91.4321C231.611 91.3483 231.39 91.3064 231.13 91.3064C230.779 91.3064 230.484 91.3824 230.245 91.5345C230.009 91.6866 229.893 91.8837 229.896 92.1258C229.893 92.3338 229.969 92.5029 230.124 92.6333C230.282 92.7637 230.543 92.8707 230.906 92.9546L232.126 93.2153C232.803 93.3612 233.306 93.5924 233.635 93.909C233.967 94.2256 234.134 94.64 234.137 95.1522C234.134 95.6022 234.002 95.9995 233.742 96.3441C233.484 96.6855 233.126 96.9524 232.666 97.1449C232.207 97.3373 231.679 97.4336 231.083 97.4336C230.208 97.4336 229.503 97.2504 228.969 96.8842C228.435 96.5148 228.117 96.0011 228.015 95.343L229.658 95.1847C229.733 95.5076 229.891 95.7512 230.133 95.9157C230.375 96.0802 230.69 96.1625 231.078 96.1625C231.479 96.1625 231.8 96.0802 232.042 95.9157C232.287 95.7512 232.41 95.5479 232.41 95.3058C232.41 95.1009 232.331 94.9318 232.173 94.7983C232.017 94.6648 231.775 94.5624 231.446 94.491L230.226 94.2349C229.54 94.0922 229.033 93.8516 228.704 93.5133C228.375 93.1718 228.212 92.7404 228.215 92.2189C228.212 91.7782 228.331 91.3964 228.574 91.0736C228.819 90.7476 229.159 90.4962 229.593 90.3193C230.031 90.1393 230.535 90.0493 231.106 90.0493C231.944 90.0493 232.604 90.2277 233.085 90.5847C233.569 90.9416 233.869 91.4243 233.984 92.0327ZM240.465 87.7585V97.2939H238.779V87.7585H240.465ZM244.256 97.4382C243.803 97.4382 243.395 97.3575 243.031 97.1961C242.671 97.0316 242.386 96.7895 242.175 96.4698C241.967 96.1501 241.863 95.7559 241.863 95.2872C241.863 94.8837 241.937 94.55 242.086 94.2862C242.235 94.0223 242.439 93.8112 242.696 93.6529C242.954 93.4946 243.244 93.3751 243.567 93.2944C243.893 93.2106 244.23 93.1501 244.577 93.1129C244.996 93.0694 245.336 93.0306 245.597 92.9965C245.858 92.9592 246.047 92.9033 246.165 92.8288C246.286 92.7512 246.346 92.6317 246.346 92.4703V92.4424C246.346 92.0917 246.242 91.8201 246.034 91.6276C245.827 91.4352 245.527 91.3389 245.136 91.3389C244.723 91.3389 244.396 91.429 244.153 91.609C243.914 91.789 243.753 92.0016 243.669 92.2469L242.096 92.0234C242.22 91.5888 242.425 91.2256 242.71 90.9339C242.996 90.639 243.345 90.4186 243.758 90.2727C244.171 90.1237 244.627 90.0493 245.127 90.0493C245.471 90.0493 245.814 90.0896 246.156 90.1703C246.497 90.251 246.809 90.3845 247.091 90.5707C247.374 90.7538 247.6 91.0037 247.771 91.3203C247.945 91.6369 248.032 92.0327 248.032 92.5076V97.2939H246.412V96.3115H246.356C246.253 96.5101 246.109 96.6964 245.923 96.8702C245.74 97.0409 245.508 97.179 245.229 97.2846C244.953 97.387 244.628 97.4382 244.256 97.4382ZM244.694 96.1997C245.032 96.1997 245.325 96.133 245.574 95.9995C245.822 95.863 246.013 95.6829 246.146 95.4594C246.283 95.236 246.351 94.9923 246.351 94.7285V93.8857C246.298 93.9292 246.208 93.9695 246.081 94.0068C245.957 94.044 245.817 94.0766 245.662 94.1046C245.507 94.1325 245.353 94.1573 245.201 94.1791C245.049 94.2008 244.917 94.2194 244.805 94.2349C244.554 94.2691 244.329 94.3249 244.13 94.4025C243.932 94.4801 243.775 94.5888 243.66 94.7285C243.545 94.865 243.488 95.042 243.488 95.2592C243.488 95.5696 243.601 95.804 243.828 95.9623C244.054 96.1206 244.343 96.1997 244.694 96.1997ZM255.379 92.0327L253.842 92.2003C253.799 92.0451 253.723 91.8992 253.614 91.7626C253.509 91.6261 253.366 91.5159 253.186 91.4321C253.006 91.3483 252.786 91.3064 252.525 91.3064C252.174 91.3064 251.879 91.3824 251.64 91.5345C251.404 91.6866 251.288 91.8837 251.291 92.1258C251.288 92.3338 251.364 92.5029 251.519 92.6333C251.677 92.7637 251.938 92.8707 252.301 92.9546L253.521 93.2153C254.198 93.3612 254.701 93.5924 255.03 93.909C255.362 94.2256 255.529 94.64 255.533 95.1522C255.529 95.6022 255.398 95.9995 255.137 96.3441C254.879 96.6855 254.521 96.9524 254.061 97.1449C253.602 97.3373 253.074 97.4336 252.478 97.4336C251.603 97.4336 250.898 97.2504 250.364 96.8842C249.831 96.5148 249.512 96.0011 249.41 95.343L251.054 95.1847C251.128 95.5076 251.286 95.7512 251.528 95.9157C251.771 96.0802 252.086 96.1625 252.474 96.1625C252.874 96.1625 253.195 96.0802 253.437 95.9157C253.683 95.7512 253.805 95.5479 253.805 95.3058C253.805 95.1009 253.726 94.9318 253.568 94.7983C253.413 94.6648 253.17 94.5624 252.841 94.491L251.622 94.2349C250.936 94.0922 250.428 93.8516 250.099 93.5133C249.77 93.1718 249.607 92.7404 249.61 92.2189C249.607 91.7782 249.727 91.3964 249.969 91.0736C250.214 90.7476 250.554 90.4962 250.988 90.3193C251.426 90.1393 251.93 90.0493 252.502 90.0493C253.34 90.0493 253.999 90.2277 254.48 90.5847C254.965 90.9416 255.264 91.4243 255.379 92.0327ZM260.493 90.1424V91.446H256.382V90.1424H260.493ZM257.397 88.429H259.083V95.1428C259.083 95.3694 259.117 95.5433 259.185 95.6643C259.257 95.7823 259.35 95.863 259.465 95.9064C259.579 95.9499 259.707 95.9716 259.846 95.9716C259.952 95.9716 260.048 95.9638 260.135 95.9483C260.225 95.9328 260.293 95.9188 260.34 95.9064L260.624 97.224C260.534 97.2551 260.405 97.2892 260.237 97.3265C260.073 97.3637 259.871 97.3855 259.632 97.3917C259.21 97.4041 258.83 97.3404 258.491 97.2008C258.153 97.058 257.885 96.8376 257.686 96.5396C257.49 96.2416 257.394 95.8692 257.397 95.4222V88.429ZM265.155 99.9757V90.1424H266.813V91.325H266.911C266.997 91.1512 267.12 90.9665 267.278 90.7709C267.437 90.5723 267.651 90.4031 267.921 90.2634C268.191 90.1206 268.535 90.0493 268.954 90.0493C269.507 90.0493 270.005 90.1905 270.449 90.4729C270.896 90.7523 271.25 91.1667 271.511 91.7161C271.774 92.2624 271.906 92.9328 271.906 93.7274C271.906 94.5127 271.778 95.1801 271.52 95.7295C271.262 96.2789 270.912 96.6979 270.468 96.9866C270.024 97.2753 269.521 97.4196 268.959 97.4196C268.549 97.4196 268.21 97.3513 267.939 97.2147C267.669 97.0782 267.452 96.9136 267.288 96.7212C267.126 96.5257 267.001 96.341 266.911 96.1671H266.841V99.9757H265.155ZM266.808 93.7181C266.808 94.1806 266.873 94.5857 267.004 94.9333C267.137 95.281 267.328 95.5526 267.576 95.7481C267.828 95.9406 268.132 96.0368 268.489 96.0368C268.861 96.0368 269.173 95.9375 269.425 95.7388C269.676 95.537 269.865 95.2623 269.993 94.9147C270.123 94.564 270.188 94.1651 270.188 93.7181C270.188 93.2743 270.125 92.8801 269.997 92.5355C269.87 92.191 269.681 91.9209 269.429 91.7254C269.178 91.5298 268.864 91.4321 268.489 91.4321C268.129 91.4321 267.823 91.5267 267.572 91.7161C267.32 91.9054 267.129 92.1708 266.999 92.5122C266.872 92.8537 266.808 93.2556 266.808 93.7181ZM276.516 97.4336C275.799 97.4336 275.179 97.2846 274.658 96.9866C274.14 96.6855 273.741 96.2603 273.461 95.7109C273.182 95.1584 273.042 94.5081 273.042 93.76C273.042 93.0244 273.182 92.3788 273.461 91.8232C273.744 91.2644 274.138 90.8299 274.644 90.5195C275.15 90.206 275.744 90.0493 276.427 90.0493C276.868 90.0493 277.284 90.1206 277.675 90.2634C278.069 90.4031 278.417 90.6204 278.718 90.9153C279.022 91.2101 279.261 91.5857 279.435 92.042C279.609 92.4952 279.696 93.0353 279.696 93.6623V94.1791H273.834V93.043H278.08C278.077 92.7202 278.007 92.4331 277.871 92.1817C277.734 91.9271 277.543 91.7269 277.298 91.5811C277.056 91.4352 276.773 91.3622 276.451 91.3622C276.106 91.3622 275.803 91.446 275.543 91.6136C275.282 91.7782 275.079 91.9954 274.933 92.2655C274.79 92.5324 274.717 92.8257 274.714 93.1454V94.1372C274.714 94.5531 274.79 94.91 274.942 95.208C275.094 95.5029 275.307 95.7295 275.58 95.8878C275.853 96.043 276.173 96.1206 276.539 96.1206C276.784 96.1206 277.006 96.0864 277.205 96.0182C277.403 95.9468 277.576 95.8428 277.722 95.7062C277.867 95.5696 277.978 95.4005 278.052 95.1987L279.626 95.3756C279.527 95.7916 279.337 96.1547 279.058 96.4651C278.782 96.7724 278.428 97.0114 277.996 97.1821C277.565 97.3498 277.071 97.4336 276.516 97.4336ZM281.122 97.2939V90.1424H282.756V91.3343H282.83C282.961 90.9215 283.184 90.6033 283.501 90.3798C283.82 90.1532 284.185 90.0399 284.595 90.0399C284.688 90.0399 284.792 90.0446 284.907 90.0539C285.025 90.0601 285.123 90.071 285.2 90.0865V91.6369C285.129 91.6121 285.016 91.5904 284.86 91.5717C284.708 91.55 284.561 91.5391 284.418 91.5391C284.111 91.5391 283.834 91.6059 283.589 91.7394C283.347 91.8697 283.156 92.0513 283.017 92.2841C282.877 92.5169 282.807 92.7854 282.807 93.0896V97.2939H281.122ZM286.32 97.2939V90.1424H288.005V97.2939H286.32ZM287.167 89.1274C286.9 89.1274 286.671 89.0389 286.478 88.862C286.286 88.682 286.19 88.4662 286.19 88.2148C286.19 87.9603 286.286 87.7446 286.478 87.5676C286.671 87.3876 286.9 87.2976 287.167 87.2976C287.437 87.2976 287.667 87.3876 287.856 87.5676C288.049 87.7446 288.145 87.9603 288.145 88.2148C288.145 88.4662 288.049 88.682 287.856 88.862C287.667 89.0389 287.437 89.1274 287.167 89.1274ZM292.858 97.4336C292.16 97.4336 291.554 97.2799 291.042 96.9726C290.53 96.6653 290.133 96.2354 289.85 95.6829C289.571 95.1304 289.431 94.4848 289.431 93.7461C289.431 93.0073 289.571 92.3601 289.85 91.8045C290.133 91.2489 290.53 90.8175 291.042 90.5102C291.554 90.2029 292.16 90.0493 292.858 90.0493C293.556 90.0493 294.162 90.2029 294.674 90.5102C295.186 90.8175 295.582 91.2489 295.861 91.8045C296.144 92.3601 296.285 93.0073 296.285 93.7461C296.285 94.4848 296.144 95.1304 295.861 95.6829C295.582 96.2354 295.186 96.6653 294.674 96.9726C294.162 97.2799 293.556 97.4336 292.858 97.4336ZM292.867 96.0833C293.246 96.0833 293.563 95.9794 293.817 95.7714C294.072 95.5603 294.261 95.2779 294.385 94.924C294.512 94.5702 294.576 94.176 294.576 93.7414C294.576 93.3037 294.512 92.908 294.385 92.5541C294.261 92.1972 294.072 91.9132 293.817 91.7021C293.563 91.491 293.246 91.3855 292.867 91.3855C292.479 91.3855 292.157 91.491 291.899 91.7021C291.644 91.9132 291.453 92.1972 291.326 92.5541C291.202 92.908 291.14 93.3037 291.14 93.7414C291.14 94.176 291.202 94.5702 291.326 94.924C291.453 95.2779 291.644 95.5603 291.899 95.7714C292.157 95.9794 292.479 96.0833 292.867 96.0833ZM300.369 97.4196C299.807 97.4196 299.305 97.2753 298.861 96.9866C298.417 96.6979 298.066 96.2789 297.808 95.7295C297.551 95.1801 297.422 94.5127 297.422 93.7274C297.422 92.9328 297.552 92.2624 297.813 91.7161C298.077 91.1667 298.432 90.7523 298.879 90.4729C299.326 90.1905 299.824 90.0493 300.374 90.0493C300.793 90.0493 301.137 90.1206 301.408 90.2634C301.678 90.4031 301.892 90.5723 302.05 90.7709C302.208 90.9665 302.331 91.1512 302.418 91.325H302.488V87.7585H304.178V97.2939H302.52V96.1671H302.418C302.331 96.341 302.205 96.5257 302.041 96.7212C301.876 96.9136 301.659 97.0782 301.389 97.2147C301.119 97.3513 300.779 97.4196 300.369 97.4196ZM300.839 96.0368C301.196 96.0368 301.501 95.9406 301.752 95.7481C302.003 95.5526 302.194 95.281 302.325 94.9333C302.455 94.5857 302.52 94.1806 302.52 93.7181C302.52 93.2556 302.455 92.8537 302.325 92.5122C302.197 92.1708 302.008 91.9054 301.757 91.7161C301.508 91.5267 301.203 91.4321 300.839 91.4321C300.464 91.4321 300.15 91.5298 299.899 91.7254C299.648 91.9209 299.458 92.191 299.331 92.5355C299.204 92.8801 299.14 93.2743 299.14 93.7181C299.14 94.1651 299.204 94.564 299.331 94.9147C299.461 95.2623 299.652 95.537 299.904 95.7388C300.158 95.9375 300.47 96.0368 300.839 96.0368Z" fill="url(#paint6_linear_2077_6543)"/>
<defs>
<filter id="filter0_f_2077_6543" x="13.9995" y="-168.193" width="358" height="348" filterUnits="userSpaceOnUse" color-interpolation-filters="sRGB">
<feFlood flood-opacity="0" result="BackgroundImageFix"/>
<feBlend mode="normal" in="SourceGraphic" in2="BackgroundImageFix" result="shape"/>
<feGaussianBlur stdDeviation="70" result="effect1_foregroundBlur_2077_6543"/>
</filter>
<filter id="filter1_f_2077_6543" x="-104" y="38.8074" width="242" height="241" filterUnits="userSpaceOnUse" color-interpolation-filters="sRGB">
<feFlood flood-opacity="0" result="BackgroundImageFix"/>
<feBlend mode="normal" in="SourceGraphic" in2="BackgroundImageFix" result="shape"/>
<feGaussianBlur stdDeviation="50" result="effect1_foregroundBlur_2077_6543"/>
</filter>
<linearGradient id="paint0_linear_2077_6543" x1="26.3481" y1="52.2186" x2="26.3481" y2="10848.7" gradientUnits="userSpaceOnUse">
<stop stop-color="#D8ADF1" stop-opacity="0.5"/>
<stop offset="1" stop-color="#9E32DD" stop-opacity="0.12"/>
</linearGradient>
<linearGradient id="paint1_linear_2077_6543" x1="205.538" y1="98.6903" x2="114.115" y2="-11.0444" gradientUnits="userSpaceOnUse">
<stop stop-color="#D946EF"/>
<stop offset="1" stop-color="#5B21B6"/>
</linearGradient>
<linearGradient id="paint2_linear_2077_6543" x1="1.37667" y1="61.4387" x2="-0.337559" y2="61.4267" gradientUnits="userSpaceOnUse">
<stop stop-color="#D946EF"/>
<stop offset="1" stop-color="#5B21B6"/>
</linearGradient>
<linearGradient id="paint3_linear_2077_6543" x1="193" y1="-28.1926" x2="193" y2="39.8074" gradientUnits="userSpaceOnUse">
<stop stop-color="#1E92FF" stop-opacity="0.8"/>
<stop offset="1" stop-color="#C30EFF"/>
</linearGradient>
<linearGradient id="paint4_linear_2077_6543" x1="16.9995" y1="138.807" x2="16.9995" y2="179.807" gradientUnits="userSpaceOnUse">
<stop stop-color="#1E92FF" stop-opacity="0.8"/>
<stop offset="1" stop-color="#C30EFF"/>
</linearGradient>
<linearGradient id="paint5_linear_2077_6543" x1="223" y1="-0.192381" x2="111.551" y2="177" gradientUnits="userSpaceOnUse">
<stop stop-color="#D1D1D1" stop-opacity="0.5"/>
<stop offset="1" stop-color="#6B6B6B" stop-opacity="0"/>
</linearGradient>
<linearGradient id="paint6_linear_2077_6543" x1="312.161" y1="94.8739" x2="305.308" y2="61.9791" gradientUnits="userSpaceOnUse">
<stop stop-color="#D946EF"/>
<stop offset="1" stop-color="#5B21B6"/>
</linearGradient>
<clipPath id="clip0_2077_6543">
<rect width="223.101" height="177" rx="15.7333" fill="white"/>
</clipPath>
<clipPath id="clip1_2077_6543">
<rect width="170.657" height="102.695" fill="white" transform="translate(26.2222 47.2)"/>
</clipPath>
</defs>
</svg>
