<svg width="255" height="175" viewBox="0 0 255 175" fill="none" xmlns="http://www.w3.org/2000/svg">
<rect x="0.5" y="0.5" width="254" height="173.919" rx="8.17583" fill="white"/>
<rect x="0.5" y="0.5" width="254" height="173.919" rx="8.17583" stroke="#ECD6F8"/>
<path d="M15.4711 31.4597V19.8234H23.1756V21.8518H17.9313V24.6245H22.6643V26.6529H17.9313V31.4597H15.4711ZM28.1216 31.6302C27.2239 31.6302 26.4512 31.4484 25.8035 31.0847C25.1595 30.7173 24.6633 30.1984 24.3148 29.5279C23.9663 28.8537 23.7921 28.0563 23.7921 27.1359C23.7921 26.2381 23.9663 25.4502 24.3148 24.7722C24.6633 24.0942 25.1538 23.5658 25.7864 23.187C26.4228 22.8082 27.169 22.6188 28.0251 22.6188C28.6008 22.6188 29.1368 22.7116 29.633 22.8972C30.133 23.079 30.5686 23.3537 30.9398 23.7211C31.3148 24.0885 31.6065 24.5506 31.8148 25.1074C32.0232 25.6605 32.1273 26.3082 32.1273 27.0506V27.7154H24.758V26.2154H29.8489C29.8489 25.8669 29.7732 25.5582 29.6216 25.2893C29.4701 25.0203 29.2599 24.8101 28.991 24.6586C28.7258 24.5033 28.4171 24.4256 28.0648 24.4256C27.6974 24.4256 27.3716 24.5109 27.0876 24.6813C26.8073 24.848 26.5876 25.0734 26.4285 25.3574C26.2694 25.6377 26.1879 25.9502 26.1841 26.2949V27.7211C26.1841 28.1529 26.2637 28.526 26.4228 28.8404C26.5857 29.1548 26.8148 29.3972 27.1103 29.5677C27.4057 29.7381 27.7561 29.8234 28.1614 29.8234C28.4304 29.8234 28.6766 29.7855 28.9001 29.7097C29.1235 29.634 29.3148 29.5203 29.4739 29.3688C29.633 29.2173 29.7542 29.0317 29.8376 28.812L32.0762 28.9597C31.9626 29.4976 31.7296 29.9673 31.3773 30.3688C31.0288 30.7665 30.5781 31.0771 30.0251 31.3006C29.4758 31.5203 28.8413 31.6302 28.1216 31.6302ZM36.1955 31.6245C35.6387 31.6245 35.1425 31.5279 34.7069 31.3347C34.2713 31.1377 33.9266 30.848 33.6728 30.4654C33.4228 30.079 33.2978 29.598 33.2978 29.0222C33.2978 28.5374 33.3868 28.1302 33.5648 27.8006C33.7429 27.4711 33.9853 27.2059 34.2921 27.0052C34.5989 26.8044 34.9474 26.6529 35.3376 26.5506C35.7315 26.4484 36.1444 26.3764 36.5762 26.3347C37.0838 26.2817 37.4929 26.2324 37.8035 26.187C38.1141 26.1377 38.3395 26.0658 38.4796 25.9711C38.6198 25.8764 38.6898 25.7362 38.6898 25.5506V25.5165C38.6898 25.1567 38.5762 24.8783 38.3489 24.6813C38.1254 24.4843 37.8073 24.3859 37.3944 24.3859C36.9588 24.3859 36.6122 24.4824 36.3546 24.6756C36.097 24.865 35.9266 25.1037 35.8432 25.3915L33.6046 25.2097C33.7182 24.6794 33.9417 24.2211 34.2751 23.8347C34.6084 23.4446 35.0383 23.1453 35.5648 22.937C36.0951 22.7249 36.7088 22.6188 37.4057 22.6188C37.8906 22.6188 38.3546 22.6756 38.7978 22.7893C39.2448 22.9029 39.6406 23.079 39.9853 23.3177C40.3338 23.5563 40.6084 23.8631 40.8091 24.2381C41.0099 24.6093 41.1103 25.0544 41.1103 25.5734V31.4597H38.8148V30.2495H38.7466C38.6065 30.5222 38.419 30.7627 38.1841 30.9711C37.9493 31.1756 37.6671 31.3366 37.3376 31.454C37.008 31.5677 36.6273 31.6245 36.1955 31.6245ZM36.8887 29.954C37.2448 29.954 37.5591 29.884 37.8319 29.7438C38.1046 29.5999 38.3186 29.4067 38.4739 29.1643C38.6292 28.9218 38.7069 28.6472 38.7069 28.3404V27.4143C38.6311 27.4635 38.527 27.509 38.3944 27.5506C38.2656 27.5885 38.1198 27.6245 37.9569 27.6586C37.794 27.6889 37.6311 27.7173 37.4682 27.7438C37.3054 27.7665 37.1576 27.7874 37.0251 27.8063C36.741 27.848 36.4929 27.9143 36.2807 28.0052C36.0686 28.0961 35.9038 28.2192 35.7864 28.3745C35.669 28.526 35.6103 28.7154 35.6103 28.9427C35.6103 29.2722 35.7296 29.5241 35.9682 29.6984C36.2107 29.8688 36.5175 29.954 36.8887 29.954ZM47.6302 22.7324V24.5506H42.3745V22.7324H47.6302ZM43.5677 20.6415H45.9881V28.7779C45.9881 29.0014 46.0222 29.1756 46.0904 29.3006C46.1586 29.4218 46.2533 29.5071 46.3745 29.5563C46.4995 29.6056 46.6434 29.6302 46.8063 29.6302C46.9199 29.6302 47.0336 29.6207 47.1472 29.6018C47.2609 29.579 47.348 29.562 47.4086 29.5506L47.7893 31.3518C47.6681 31.3896 47.4976 31.4332 47.2779 31.4824C47.0582 31.5355 46.7912 31.5677 46.4768 31.579C45.8934 31.6018 45.3821 31.5241 44.9427 31.3461C44.5071 31.1681 44.1681 30.8915 43.9256 30.5165C43.6832 30.1415 43.5639 29.6681 43.5677 29.0961V20.6415ZM54.8035 27.7438V22.7324H57.2239V31.4597H54.9001V29.8745H54.8091C54.6122 30.3859 54.2845 30.7968 53.8262 31.1074C53.3716 31.4181 52.8167 31.5734 52.1614 31.5734C51.5781 31.5734 51.0648 31.4408 50.6216 31.1756C50.1785 30.9105 49.8319 30.5336 49.5819 30.0449C49.3357 29.5563 49.2107 28.9711 49.2069 28.2893V22.7324H51.6273V27.8574C51.6311 28.3726 51.7694 28.7798 52.0421 29.079C52.3148 29.3783 52.6804 29.5279 53.1387 29.5279C53.4304 29.5279 53.7031 29.4616 53.9569 29.329C54.2107 29.1927 54.4152 28.9919 54.5705 28.7268C54.7296 28.4616 54.8073 28.134 54.8035 27.7438ZM59.16 31.4597V22.7324H61.5066V24.2552H61.5975C61.7566 23.7135 62.0236 23.3044 62.3986 23.0279C62.7736 22.7476 63.2055 22.6074 63.6941 22.6074C63.8153 22.6074 63.946 22.615 64.0861 22.6302C64.2263 22.6453 64.3494 22.6662 64.4555 22.6927V24.8404C64.3418 24.8063 64.1846 24.776 63.9839 24.7495C63.7831 24.723 63.5994 24.7097 63.4327 24.7097C63.0767 24.7097 62.7585 24.7874 62.4782 24.9427C62.2017 25.0942 61.982 25.3063 61.8191 25.579C61.66 25.8518 61.5805 26.1662 61.5805 26.5222V31.4597H59.16ZM69.2779 31.6302C68.3802 31.6302 67.6074 31.4484 66.9597 31.0847C66.3158 30.7173 65.8196 30.1984 65.4711 29.5279C65.1226 28.8537 64.9484 28.0563 64.9484 27.1359C64.9484 26.2381 65.1226 25.4502 65.4711 24.7722C65.8196 24.0942 66.3101 23.5658 66.9427 23.187C67.579 22.8082 68.3252 22.6188 69.1813 22.6188C69.7571 22.6188 70.2931 22.7116 70.7893 22.8972C71.2893 23.079 71.7249 23.3537 72.0961 23.7211C72.4711 24.0885 72.7627 24.5506 72.9711 25.1074C73.1794 25.6605 73.2836 26.3082 73.2836 27.0506V27.7154H65.9143V26.2154H71.0052C71.0052 25.8669 70.9294 25.5582 70.7779 25.2893C70.6264 25.0203 70.4162 24.8101 70.1472 24.6586C69.8821 24.5033 69.5734 24.4256 69.2211 24.4256C68.8537 24.4256 68.5279 24.5109 68.2438 24.6813C67.9635 24.848 67.7438 25.0734 67.5847 25.3574C67.4256 25.6377 67.3442 25.9502 67.3404 26.2949V27.7211C67.3404 28.1529 67.4199 28.526 67.579 28.8404C67.7419 29.1548 67.9711 29.3972 68.2665 29.5677C68.562 29.7381 68.9124 29.8234 69.3177 29.8234C69.5866 29.8234 69.8328 29.7855 70.0563 29.7097C70.2798 29.634 70.4711 29.5203 70.6302 29.3688C70.7893 29.2173 70.9105 29.0317 70.9938 28.812L73.2324 28.9597C73.1188 29.4976 72.8859 29.9673 72.5336 30.3688C72.1851 30.7665 71.7343 31.0771 71.1813 31.3006C70.6321 31.5203 69.9976 31.6302 69.2779 31.6302ZM78.6117 31.4597V19.8234H81.0719V29.4313H86.0606V31.4597H78.6117ZM90.133 31.6245C89.5762 31.6245 89.08 31.5279 88.6444 31.3347C88.2088 31.1377 87.8641 30.848 87.6103 30.4654C87.3603 30.079 87.2353 29.598 87.2353 29.0222C87.2353 28.5374 87.3243 28.1302 87.5023 27.8006C87.6804 27.4711 87.9228 27.2059 88.2296 27.0052C88.5364 26.8044 88.8849 26.6529 89.2751 26.5506C89.669 26.4484 90.0819 26.3764 90.5137 26.3347C91.0213 26.2817 91.4304 26.2324 91.741 26.187C92.0516 26.1377 92.277 26.0658 92.4171 25.9711C92.5573 25.8764 92.6273 25.7362 92.6273 25.5506V25.5165C92.6273 25.1567 92.5137 24.8783 92.2864 24.6813C92.0629 24.4843 91.7448 24.3859 91.3319 24.3859C90.8963 24.3859 90.5497 24.4824 90.2921 24.6756C90.0345 24.865 89.8641 25.1037 89.7807 25.3915L87.5421 25.2097C87.6557 24.6794 87.8792 24.2211 88.2126 23.8347C88.5459 23.4446 88.9758 23.1453 89.5023 22.937C90.0326 22.7249 90.6463 22.6188 91.3432 22.6188C91.8281 22.6188 92.2921 22.6756 92.7353 22.7893C93.1823 22.9029 93.5781 23.079 93.9228 23.3177C94.2713 23.5563 94.5459 23.8631 94.7466 24.2381C94.9474 24.6093 95.0478 25.0544 95.0478 25.5734V31.4597H92.7523V30.2495H92.6841C92.544 30.5222 92.3565 30.7627 92.1216 30.9711C91.8868 31.1756 91.6046 31.3366 91.2751 31.454C90.9455 31.5677 90.5648 31.6245 90.133 31.6245ZM90.8262 29.954C91.1823 29.954 91.4966 29.884 91.7694 29.7438C92.0421 29.5999 92.2561 29.4067 92.4114 29.1643C92.5667 28.9218 92.6444 28.6472 92.6444 28.3404V27.4143C92.5686 27.4635 92.4645 27.509 92.3319 27.5506C92.2031 27.5885 92.0573 27.6245 91.8944 27.6586C91.7315 27.6889 91.5686 27.7173 91.4057 27.7438C91.2429 27.7665 91.0951 27.7874 90.9626 27.8063C90.6785 27.848 90.4304 27.9143 90.2182 28.0052C90.0061 28.0961 89.8413 28.2192 89.7239 28.3745C89.6065 28.526 89.5478 28.7154 89.5478 28.9427C89.5478 29.2722 89.6671 29.5241 89.9057 29.6984C90.1482 29.8688 90.455 29.954 90.8262 29.954ZM102.522 27.7438V22.7324H104.943V31.4597H102.619V29.8745H102.528C102.331 30.3859 102.003 30.7968 101.545 31.1074C101.09 31.4181 100.535 31.5734 99.8802 31.5734C99.2968 31.5734 98.7836 31.4408 98.3404 31.1756C97.8972 30.9105 97.5506 30.5336 97.3006 30.0449C97.0544 29.5563 96.9294 28.9711 96.9256 28.2893V22.7324H99.3461V27.8574C99.3499 28.3726 99.4881 28.7798 99.7609 29.079C100.034 29.3783 100.399 29.5279 100.857 29.5279C101.149 29.5279 101.422 29.4616 101.676 29.329C101.929 29.1927 102.134 28.9919 102.289 28.7268C102.448 28.4616 102.526 28.134 102.522 27.7438ZM109.299 26.4143V31.4597H106.879V22.7324H109.186V24.2722H109.288C109.481 23.7646 109.805 23.3631 110.259 23.0677C110.714 22.7684 111.265 22.6188 111.913 22.6188C112.519 22.6188 113.047 22.7514 113.498 23.0165C113.949 23.2817 114.299 23.6605 114.549 24.1529C114.799 24.6415 114.924 25.2249 114.924 25.9029V31.4597H112.504V26.3347C112.508 25.8006 112.371 25.384 112.095 25.0847C111.818 24.7817 111.437 24.6302 110.953 24.6302C110.627 24.6302 110.339 24.7002 110.089 24.8404C109.843 24.9805 109.65 25.1851 109.509 25.454C109.373 25.7192 109.303 26.0393 109.299 26.4143ZM120.775 31.6302C119.881 31.6302 119.112 31.4408 118.468 31.062C117.828 30.6794 117.336 30.1491 116.991 29.4711C116.65 28.7931 116.48 28.0127 116.48 27.1302C116.48 26.2362 116.652 25.4521 116.997 24.7779C117.345 24.0999 117.839 23.5715 118.48 23.1927C119.12 22.8101 119.881 22.6188 120.764 22.6188C121.525 22.6188 122.192 22.7571 122.764 23.0336C123.336 23.3101 123.788 23.6984 124.122 24.1984C124.455 24.6984 124.639 25.2855 124.673 25.9597H122.389C122.324 25.5241 122.154 25.1737 121.877 24.9086C121.605 24.6396 121.247 24.5052 120.803 24.5052C120.428 24.5052 120.101 24.6074 119.821 24.812C119.544 25.0127 119.328 25.3063 119.173 25.6927C119.017 26.079 118.94 26.5468 118.94 27.0961C118.94 27.6529 119.016 28.1264 119.167 28.5165C119.322 28.9067 119.54 29.204 119.821 29.4086C120.101 29.6131 120.428 29.7154 120.803 29.7154C121.08 29.7154 121.328 29.6586 121.548 29.5449C121.771 29.4313 121.955 29.2665 122.099 29.0506C122.247 28.8309 122.343 28.5677 122.389 28.2609H124.673C124.635 28.9275 124.453 29.5146 124.127 30.0222C123.805 30.526 123.36 30.9199 122.792 31.204C122.224 31.4881 121.552 31.6302 120.775 31.6302ZM128.643 26.4143V31.4597H126.223V19.8234H128.575V24.2722H128.677C128.874 23.7571 129.192 23.3537 129.632 23.062C130.071 22.7665 130.622 22.6188 131.285 22.6188C131.891 22.6188 132.419 22.7514 132.87 23.0165C133.325 23.2779 133.677 23.6548 133.927 24.1472C134.181 24.6359 134.306 25.2211 134.302 25.9029V31.4597H131.882V26.3347C131.885 25.7968 131.749 25.3783 131.473 25.079C131.2 24.7798 130.817 24.6302 130.325 24.6302C129.995 24.6302 129.704 24.7002 129.45 24.8404C129.2 24.9805 129.003 25.1851 128.859 25.454C128.719 25.7192 128.647 26.0393 128.643 26.4143Z" fill="#1A1A1A"/>
<rect x="14.4597" y="48.4597" width="226.081" height="32" rx="16" fill="#F0F0F0"/>
<path d="M42.6942 59.4597L33.5275 68.6264L29.3608 64.4597" stroke="#9E32DD" stroke-width="2" stroke-linecap="round" stroke-linejoin="round"/>
<path d="M54.3759 69.4597V59.2779H58.0052C58.7973 59.2779 59.4536 59.4221 59.9739 59.7104C60.4943 59.9988 60.8837 60.3932 61.1423 60.8937C61.4008 61.3908 61.5301 61.951 61.5301 62.5741C61.5301 63.2005 61.3991 63.7639 61.1373 64.2644C60.8788 64.7616 60.4877 65.156 59.964 65.4476C59.4436 65.736 58.789 65.8802 58.0002 65.8802H55.5045V64.5776H57.861C58.3615 64.5776 58.7675 64.4914 59.0791 64.3191C59.3906 64.1434 59.6193 63.9048 59.7651 63.6032C59.911 63.3016 59.9839 62.9585 59.9839 62.5741C59.9839 62.1896 59.911 61.8482 59.7651 61.5499C59.6193 61.2516 59.389 61.018 59.0741 60.8489C58.7625 60.6799 58.3515 60.5954 57.8411 60.5954H55.9122V69.4597H54.3759ZM64.6982 59.2779V69.4597H63.2117V59.2779H64.6982ZM68.9203 69.6288C68.4364 69.6288 67.9989 69.5393 67.6078 69.3603C67.2167 69.178 66.9068 68.9145 66.6781 68.5698C66.4528 68.2251 66.3401 67.8025 66.3401 67.302C66.3401 66.8712 66.4229 66.5165 66.5886 66.2381C66.7544 65.9597 66.9781 65.7393 67.2598 65.5769C67.5415 65.4145 67.8564 65.2919 68.2044 65.209C68.5524 65.1261 68.9071 65.0632 69.2683 65.0201C69.7257 64.9671 70.0969 64.924 70.382 64.8908C70.667 64.8544 70.8742 64.7964 71.0034 64.7168C71.1327 64.6373 71.1973 64.508 71.1973 64.329V64.2942C71.1973 63.86 71.0747 63.5236 70.8294 63.285C70.5875 63.0464 70.2262 62.927 69.7456 62.927C69.2451 62.927 68.8507 63.0381 68.5624 63.2601C68.2773 63.4789 68.0801 63.7225 67.9707 63.991L66.5737 63.6728C66.7395 63.2088 66.9814 62.8342 67.2996 62.5492C67.6211 62.2609 67.9906 62.052 68.4082 61.9228C68.8259 61.7902 69.265 61.7239 69.7257 61.7239C70.0306 61.7239 70.3538 61.7604 70.6952 61.8333C71.0399 61.9029 71.3614 62.0322 71.6597 62.2211C71.9613 62.41 72.2082 62.6801 72.4004 63.0314C72.5927 63.3795 72.6888 63.8319 72.6888 64.3887V69.4597H71.2371V68.4157H71.1774C71.0813 68.6079 70.9371 68.7968 70.7449 68.9824C70.5527 69.1681 70.3057 69.3222 70.0041 69.4448C69.7025 69.5674 69.3412 69.6288 68.9203 69.6288ZM69.2435 68.4356C69.6545 68.4356 70.0058 68.3544 70.2975 68.192C70.5924 68.0296 70.8162 67.8174 70.9686 67.5556C71.1244 67.2904 71.2023 67.0071 71.2023 66.7055V65.7211C71.1493 65.7741 71.0465 65.8238 70.894 65.8702C70.7449 65.9133 70.5742 65.9514 70.382 65.9846C70.1897 66.0144 70.0025 66.0426 69.8202 66.0691C69.6379 66.0923 69.4854 66.1122 69.3628 66.1288C69.0744 66.1652 68.8109 66.2265 68.5723 66.3127C68.337 66.3989 68.1481 66.5232 68.0055 66.6856C67.8663 66.8447 67.7967 67.0568 67.7967 67.3219C67.7967 67.6898 67.9326 67.9682 68.2044 68.1572C68.4762 68.3428 68.8225 68.4356 69.2435 68.4356ZM76.1552 64.9256V69.4597H74.6687V61.8234H76.0956V63.0663H76.19C76.3657 62.6619 76.6408 62.3371 77.0153 62.0918C77.3932 61.8466 77.8688 61.7239 78.4422 61.7239C78.9625 61.7239 79.4182 61.8333 79.8093 62.052C80.2004 62.2675 80.5037 62.589 80.7191 63.0165C80.9346 63.4441 81.0423 63.9727 81.0423 64.6025V69.4597H79.5558V64.7814C79.5558 64.2279 79.4116 63.7954 79.1233 63.4839C78.8349 63.169 78.4388 63.0116 77.9351 63.0116C77.5904 63.0116 77.2838 63.0861 77.0153 63.2353C76.7502 63.3844 76.5397 63.6032 76.3839 63.8915C76.2315 64.1766 76.1552 64.5213 76.1552 64.9256Z" fill="#414851"/>
<rect x="14.4597" y="88.4597" width="226.081" height="32" rx="16" fill="#F0F0F0"/>
<path d="M42.6942 99.4597L33.5275 108.626L29.3608 104.46" stroke="#9E32DD" stroke-width="2" stroke-linecap="round" stroke-linejoin="round"/>
<path d="M57.6721 109.46H54.3759V99.2779H57.7765C58.7741 99.2779 59.6309 99.4817 60.3468 99.8894C61.0627 100.294 61.6113 100.875 61.9924 101.634C62.3769 102.39 62.5691 103.297 62.5691 104.354C62.5691 105.414 62.3752 106.326 61.9874 107.088C61.603 107.851 61.0462 108.437 60.317 108.848C59.5878 109.256 58.7062 109.46 57.6721 109.46ZM55.9122 108.117H57.5876C58.3631 108.117 59.0078 107.972 59.5215 107.68C60.0353 107.385 60.4197 106.959 60.6749 106.402C60.9301 105.842 61.0578 105.159 61.0578 104.354C61.0578 103.555 60.9301 102.877 60.6749 102.321C60.423 101.764 60.0469 101.341 59.5464 101.053C59.0459 100.764 58.4245 100.62 57.682 100.62H55.9122V108.117ZM67.6513 109.614C66.899 109.614 66.251 109.453 65.7074 109.132C65.1672 108.807 64.7496 108.351 64.4546 107.764C64.1629 107.174 64.0171 106.483 64.0171 105.691C64.0171 104.909 64.1629 104.22 64.4546 103.623C64.7496 103.026 65.1606 102.561 65.6875 102.226C66.2178 101.891 66.8376 101.724 67.5469 101.724C67.9778 101.724 68.3954 101.795 68.7998 101.938C69.2041 102.08 69.567 102.304 69.8885 102.609C70.21 102.914 70.4636 103.31 70.6492 103.797C70.8348 104.281 70.9276 104.869 70.9276 105.562V106.089H64.8573V104.975H69.4709C69.4709 104.584 69.3914 104.238 69.2323 103.936C69.0732 103.631 68.8495 103.391 68.5611 103.215C68.2761 103.04 67.9413 102.952 67.5569 102.952C67.1392 102.952 66.7747 103.055 66.4631 103.26C66.1549 103.462 65.9162 103.727 65.7472 104.056C65.5815 104.38 65.4986 104.733 65.4986 105.115V105.985C65.4986 106.495 65.5881 106.929 65.7671 107.287C65.9494 107.645 66.2029 107.919 66.5277 108.107C66.8526 108.293 67.2321 108.386 67.6662 108.386C67.948 108.386 68.2048 108.346 68.4368 108.267C68.6688 108.184 68.8694 108.061 69.0384 107.899C69.2074 107.736 69.3367 107.536 69.4262 107.297L70.8331 107.551C70.7205 107.965 70.5183 108.328 70.2266 108.639C69.9383 108.948 69.5753 109.188 69.1378 109.36C68.7036 109.529 68.2081 109.614 67.6513 109.614ZM78.8908 101.823L76.1217 109.46H74.5308L71.7566 101.823H73.3525L75.2864 107.7H75.366L77.295 101.823H78.8908ZM83.3193 109.614C82.5669 109.614 81.919 109.453 81.3754 109.132C80.8352 108.807 80.4175 108.351 80.1226 107.764C79.8309 107.174 79.6851 106.483 79.6851 105.691C79.6851 104.909 79.8309 104.22 80.1226 103.623C80.4175 103.026 80.8285 102.561 81.3555 102.226C81.8858 101.891 82.5056 101.724 83.2149 101.724C83.6458 101.724 84.0634 101.795 84.4677 101.938C84.8721 102.08 85.235 102.304 85.5565 102.609C85.878 102.914 86.1316 103.31 86.3172 103.797C86.5028 104.281 86.5956 104.869 86.5956 105.562V106.089H80.5253V104.975H85.1389C85.1389 104.584 85.0593 104.238 84.9003 103.936C84.7412 103.631 84.5174 103.391 84.2291 103.215C83.9441 103.04 83.6093 102.952 83.2248 102.952C82.8072 102.952 82.4426 103.055 82.1311 103.26C81.8228 103.462 81.5842 103.727 81.4152 104.056C81.2495 104.38 81.1666 104.733 81.1666 105.115V105.985C81.1666 106.495 81.2561 106.929 81.4351 107.287C81.6174 107.645 81.8709 107.919 82.1957 108.107C82.5205 108.293 82.9 108.386 83.3342 108.386C83.6159 108.386 83.8728 108.346 84.1048 108.267C84.3368 108.184 84.5373 108.061 84.7064 107.899C84.8754 107.736 85.0047 107.536 85.0941 107.297L86.5011 107.551C86.3884 107.965 86.1862 108.328 85.8946 108.639C85.6062 108.948 85.2433 109.188 84.8058 109.36C84.3716 109.529 83.8761 109.614 83.3193 109.614ZM89.7314 99.2779V109.46H88.2449V99.2779H89.7314ZM94.9478 109.614C94.2319 109.614 93.6072 109.45 93.0736 109.122C92.5399 108.794 92.1256 108.334 91.8307 107.745C91.5357 107.155 91.3882 106.465 91.3882 105.676C91.3882 104.884 91.5357 104.191 91.8307 103.598C92.1256 103.005 92.5399 102.544 93.0736 102.216C93.6072 101.888 94.2319 101.724 94.9478 101.724C95.6638 101.724 96.2885 101.888 96.8221 102.216C97.3557 102.544 97.77 103.005 98.065 103.598C98.36 104.191 98.5075 104.884 98.5075 105.676C98.5075 106.465 98.36 107.155 98.065 107.745C97.77 108.334 97.3557 108.794 96.8221 109.122C96.2885 109.45 95.6638 109.614 94.9478 109.614ZM94.9528 108.366C95.4168 108.366 95.8013 108.243 96.1062 107.998C96.4111 107.753 96.6365 107.426 96.7824 107.019C96.9315 106.611 97.0061 106.162 97.0061 105.671C97.0061 105.184 96.9315 104.737 96.7824 104.329C96.6365 103.918 96.4111 103.588 96.1062 103.34C95.8013 103.091 95.4168 102.967 94.9528 102.967C94.4855 102.967 94.0977 103.091 93.7895 103.34C93.4845 103.588 93.2575 103.918 93.1084 104.329C92.9625 104.737 92.8896 105.184 92.8896 105.671C92.8896 106.162 92.9625 106.611 93.1084 107.019C93.2575 107.426 93.4845 107.753 93.7895 107.998C94.0977 108.243 94.4855 108.366 94.9528 108.366ZM100.167 112.323V101.823H101.618V103.061H101.743C101.829 102.902 101.953 102.718 102.116 102.509C102.278 102.301 102.503 102.118 102.792 101.963C103.08 101.803 103.461 101.724 103.935 101.724C104.552 101.724 105.102 101.88 105.586 102.191C106.07 102.503 106.449 102.952 106.724 103.539C107.003 104.125 107.142 104.831 107.142 105.656C107.142 106.482 107.004 107.189 106.729 107.779C106.454 108.366 106.076 108.818 105.596 109.137C105.115 109.451 104.567 109.609 103.95 109.609C103.486 109.609 103.107 109.531 102.812 109.375C102.52 109.219 102.291 109.037 102.126 108.828C101.96 108.62 101.832 108.434 101.743 108.272H101.653V112.323H100.167ZM101.623 105.642C101.623 106.178 101.701 106.649 101.857 107.053C102.013 107.458 102.238 107.774 102.533 108.003C102.828 108.228 103.189 108.341 103.617 108.341C104.061 108.341 104.432 108.223 104.731 107.988C105.029 107.749 105.254 107.426 105.407 107.019C105.563 106.611 105.64 106.152 105.64 105.642C105.64 105.138 105.564 104.685 105.412 104.284C105.263 103.883 105.037 103.567 104.736 103.335C104.437 103.103 104.064 102.987 103.617 102.987C103.186 102.987 102.822 103.098 102.523 103.32C102.228 103.542 102.005 103.852 101.852 104.249C101.7 104.647 101.623 105.111 101.623 105.642Z" fill="#414851"/>
<rect x="14.4597" y="128.46" width="226.081" height="32" rx="16" fill="#F0F0F0"/>
<path d="M42.6942 139.46L33.5275 148.626L29.3608 144.46" stroke="#9E32DD" stroke-width="2" stroke-linecap="round" stroke-linejoin="round"/>
<path d="M54.3759 149.46V139.278H55.9122V148.137H60.5258V149.46H54.3759ZM64.3813 149.629C63.8974 149.629 63.4599 149.539 63.0688 149.36C62.6777 149.178 62.3678 148.914 62.1391 148.57C61.9137 148.225 61.801 147.803 61.801 147.302C61.801 146.871 61.8839 146.517 62.0496 146.238C62.2153 145.96 62.439 145.739 62.7207 145.577C63.0025 145.414 63.3173 145.292 63.6653 145.209C64.0134 145.126 64.368 145.063 64.7293 145.02C65.1867 144.967 65.5579 144.924 65.8429 144.891C66.1279 144.854 66.3351 144.796 66.4644 144.717C66.5936 144.637 66.6582 144.508 66.6582 144.329V144.294C66.6582 143.86 66.5356 143.524 66.2903 143.285C66.0484 143.046 65.6871 142.927 65.2065 142.927C64.7061 142.927 64.3117 143.038 64.0233 143.26C63.7383 143.479 63.5411 143.723 63.4317 143.991L62.0347 143.673C62.2004 143.209 62.4423 142.834 62.7605 142.549C63.082 142.261 63.4516 142.052 63.8692 141.923C64.2868 141.79 64.726 141.724 65.1867 141.724C65.4916 141.724 65.8147 141.76 66.1561 141.833C66.5008 141.903 66.8223 142.032 67.1206 142.221C67.4222 142.41 67.6691 142.68 67.8614 143.031C68.0536 143.379 68.1497 143.832 68.1497 144.389V149.46H66.698V148.416H66.6384C66.5422 148.608 66.3981 148.797 66.2058 148.982C66.0136 149.168 65.7667 149.322 65.4651 149.445C65.1635 149.567 64.8022 149.629 64.3813 149.629ZM64.7044 148.436C65.1154 148.436 65.4667 148.354 65.7584 148.192C66.0534 148.03 66.2771 147.817 66.4296 147.556C66.5853 147.29 66.6632 147.007 66.6632 146.705V145.721C66.6102 145.774 66.5074 145.824 66.355 145.87C66.2058 145.913 66.0351 145.951 65.8429 145.985C65.6507 146.014 65.4634 146.043 65.2811 146.069C65.0988 146.092 64.9464 146.112 64.8237 146.129C64.5354 146.165 64.2719 146.227 64.0332 146.313C63.7979 146.399 63.609 146.523 63.4665 146.686C63.3273 146.845 63.2577 147.057 63.2577 147.322C63.2577 147.69 63.3936 147.968 63.6653 148.157C63.9371 148.343 64.2835 148.436 64.7044 148.436ZM74.967 146.293V141.823H76.4585V149.46H74.9968V148.137H74.9173C74.7416 148.545 74.4599 148.885 74.0721 149.156C73.6877 149.425 73.2087 149.559 72.6353 149.559C72.1448 149.559 71.7106 149.451 71.3328 149.236C70.9583 149.017 70.6633 148.694 70.4478 148.267C70.2357 147.839 70.1297 147.31 70.1297 146.681V141.823H71.6162V146.502C71.6162 147.022 71.7603 147.436 72.0487 147.745C72.337 148.053 72.7116 148.207 73.1723 148.207C73.4507 148.207 73.7274 148.137 74.0025 147.998C74.2809 147.859 74.5113 147.648 74.6936 147.367C74.8792 147.085 74.9703 146.727 74.967 146.293ZM79.9423 144.926V149.46H78.4558V141.823H79.8827V143.066H79.9771C80.1528 142.662 80.4279 142.337 80.8024 142.092C81.1803 141.847 81.6559 141.724 82.2293 141.724C82.7496 141.724 83.2054 141.833 83.5965 142.052C83.9876 142.267 84.2908 142.589 84.5063 143.017C84.7217 143.444 84.8294 143.973 84.8294 144.602V149.46H83.3429V144.781C83.3429 144.228 83.1987 143.795 82.9104 143.484C82.622 143.169 82.226 143.012 81.7222 143.012C81.3775 143.012 81.0709 143.086 80.8024 143.235C80.5373 143.384 80.3268 143.603 80.171 143.892C80.0186 144.177 79.9423 144.521 79.9423 144.926ZM90.0396 149.614C89.3005 149.614 88.6642 149.446 88.1305 149.112C87.6002 148.774 87.1926 148.308 86.9075 147.715C86.6225 147.121 86.48 146.442 86.48 145.676C86.48 144.901 86.6258 144.216 86.9175 143.623C87.2091 143.026 87.6201 142.561 88.1504 142.226C88.6807 141.891 89.3055 141.724 90.0247 141.724C90.6047 141.724 91.1218 141.832 91.5759 142.047C92.0299 142.259 92.3962 142.557 92.6746 142.942C92.9563 143.326 93.1237 143.776 93.1767 144.289H91.73C91.6504 143.931 91.4681 143.623 91.1831 143.365C90.9014 143.106 90.5235 142.977 90.0496 142.977C89.6353 142.977 89.2724 143.086 88.9608 143.305C88.6526 143.52 88.4123 143.829 88.2399 144.23C88.0676 144.627 87.9814 145.098 87.9814 145.642C87.9814 146.198 88.0659 146.679 88.235 147.083C88.404 147.488 88.6426 147.801 88.9509 148.023C89.2624 148.245 89.6287 148.356 90.0496 148.356C90.3313 148.356 90.5865 148.305 90.8152 148.202C91.0472 148.096 91.2411 147.945 91.3969 147.749C91.556 147.554 91.667 147.319 91.73 147.044H93.1767C93.1237 147.537 92.9629 147.978 92.6945 148.366C92.426 148.754 92.0664 149.059 91.6156 149.281C91.1682 149.503 90.6429 149.614 90.0396 149.614ZM96.2529 144.926V149.46H94.7664V139.278H96.233V143.066H96.3275C96.5064 142.655 96.7799 142.329 97.1478 142.087C97.5157 141.845 97.9963 141.724 98.5895 141.724C99.1132 141.724 99.5706 141.832 99.9617 142.047C100.356 142.263 100.661 142.584 100.876 143.012C101.095 143.436 101.205 143.966 101.205 144.602V149.46H99.7181V144.781C99.7181 144.221 99.5739 143.787 99.2856 143.479C98.9972 143.167 98.5962 143.012 98.0824 143.012C97.7311 143.012 97.4162 143.086 97.1378 143.235C96.8627 143.384 96.6456 143.603 96.4866 143.892C96.3308 144.177 96.2529 144.521 96.2529 144.926Z" fill="#414851"/>
</svg>
