<svg width="346" height="185" viewBox="0 0 346 185" fill="none" xmlns="http://www.w3.org/2000/svg">
<g clip-path="url(#clip0_2078_7403)">
<rect width="346" height="185" rx="14" fill="#F8F7F8"/>
<rect width="48" height="59" transform="translate(4 126)" fill="white"/>
<rect x="4" y="149" width="48" height="36" rx="2" fill="url(#paint0_linear_2078_7403)"/>
<rect width="49" height="50" transform="translate(60 135)" fill="white"/>
<rect x="60" y="135" width="49" height="50" rx="2" fill="url(#paint1_linear_2078_7403)"/>
<rect width="49" height="69" transform="translate(117 116)" fill="white"/>
<rect x="117" y="116" width="49" height="69" rx="2" fill="url(#paint2_linear_2078_7403)"/>
<rect width="49" height="79" transform="translate(174 106)" fill="white"/>
<rect x="174" y="92" width="49" height="93" rx="2" fill="url(#paint3_linear_2078_7403)"/>
<rect width="49" height="127" transform="translate(231 58)" fill="white"/>
<rect x="231" y="58" width="49" height="127" rx="2" fill="url(#paint4_linear_2078_7403)"/>
<rect width="49" height="169" transform="translate(288 16)" fill="white"/>
<rect x="288" y="16" width="49" height="169" rx="2" fill="url(#paint5_linear_2078_7403)"/>
<path d="M30.1641 35.2187C29.0391 35.2187 28.0391 35.026 27.1641 34.6406C26.2943 34.2552 25.6068 33.7187 25.1016 33.0312C24.5964 32.3437 24.3281 31.5495 24.2969 30.6484H27.2344C27.2604 31.0807 27.4036 31.4583 27.6641 31.7812C27.9245 32.099 28.2708 32.3464 28.7031 32.5234C29.1354 32.7005 29.6198 32.7891 30.1563 32.7891C30.7292 32.7891 31.237 32.6901 31.6797 32.4922C32.1224 32.2891 32.4688 32.0078 32.7188 31.6484C32.9688 31.2891 33.0911 30.875 33.0859 30.4062C33.0911 29.9219 32.9661 29.4948 32.7109 29.125C32.4557 28.7552 32.0859 28.4661 31.6016 28.2578C31.1224 28.0495 30.5443 27.9453 29.8672 27.9453H28.4531V25.7109H29.8672C30.4245 25.7109 30.9115 25.6146 31.3281 25.4219C31.75 25.2292 32.0807 24.9583 32.3203 24.6094C32.5599 24.2552 32.6771 23.8464 32.6719 23.3828C32.6771 22.9297 32.5755 22.5365 32.3672 22.2031C32.1641 21.8646 31.875 21.6016 31.5 21.4141C31.1302 21.2266 30.6953 21.1328 30.1953 21.1328C29.7057 21.1328 29.2526 21.2214 28.8359 21.3984C28.4193 21.5755 28.0833 21.8281 27.8281 22.1563C27.5729 22.4792 27.4375 22.8646 27.4219 23.3125H24.6328C24.6536 22.4167 24.9115 21.6302 25.4062 20.9531C25.9062 20.2708 26.5729 19.7396 27.4063 19.3594C28.2396 18.974 29.1745 18.7812 30.2109 18.7812C31.2786 18.7812 32.2057 18.9818 32.9922 19.3828C33.7839 19.7786 34.3958 20.3125 34.8281 20.9844C35.2604 21.6562 35.4766 22.3984 35.4766 23.2109C35.4818 24.112 35.2161 24.8672 34.6797 25.4766C34.1484 26.0859 33.4505 26.4844 32.5859 26.6719V26.7969C33.7109 26.9531 34.5729 27.3698 35.1719 28.0469C35.776 28.7187 36.0755 29.5547 36.0703 30.5547C36.0703 31.4505 35.8151 32.2526 35.3047 32.9609C34.7995 33.6641 34.1016 34.2161 33.2109 34.6172C32.3255 35.0182 31.3099 35.2187 30.1641 35.2187ZM40.0527 35.1719C39.5788 35.1719 39.1725 35.0052 38.834 34.6719C38.4954 34.3385 38.3288 33.9323 38.334 33.4531C38.3288 32.9844 38.4954 32.5833 38.834 32.25C39.1725 31.9167 39.5788 31.75 40.0527 31.75C40.5111 31.75 40.9095 31.9167 41.248 32.25C41.5918 32.5833 41.7663 32.9844 41.7715 33.4531C41.7663 33.7708 41.6829 34.0599 41.5215 34.3203C41.3652 34.5807 41.1569 34.7891 40.8965 34.9453C40.6413 35.0964 40.36 35.1719 40.0527 35.1719ZM44.6602 35V32.9062L50.2148 27.4609C50.7461 26.9245 51.1888 26.4479 51.543 26.0312C51.8971 25.6146 52.1628 25.2109 52.3398 24.8203C52.5169 24.4297 52.6055 24.013 52.6055 23.5703C52.6055 23.0651 52.4909 22.6328 52.2617 22.2734C52.0326 21.9089 51.7174 21.6276 51.3164 21.4297C50.9154 21.2318 50.4596 21.1328 49.9492 21.1328C49.4232 21.1328 48.9622 21.2422 48.5664 21.4609C48.1706 21.6745 47.8633 21.9792 47.6445 22.375C47.431 22.7708 47.3242 23.2422 47.3242 23.7891H44.5664C44.5664 22.7734 44.7982 21.8906 45.2617 21.1406C45.7253 20.3906 46.3633 19.8099 47.1758 19.3984C47.9935 18.987 48.931 18.7812 49.9883 18.7812C51.0612 18.7812 52.0039 18.9818 52.8164 19.3828C53.6289 19.7839 54.2591 20.3333 54.707 21.0312C55.1602 21.7292 55.3867 22.526 55.3867 23.4219C55.3867 24.0208 55.2721 24.6094 55.043 25.1875C54.8138 25.7656 54.4102 26.4062 53.832 27.1094C53.2591 27.8125 52.4544 28.6641 51.418 29.6641L48.6602 32.4687V32.5781H55.6289V35H44.6602ZM60.668 23L63.0898 27.4297L65.5508 23H68.543L64.9258 29L68.6055 35H65.6289L63.0898 30.6797L60.5742 35H57.5742L61.2305 29L57.668 23H60.668Z" fill="#1A1A1A"/>
<path d="M26.321 64.179C25.8371 64.179 25.398 64.0878 25.0036 63.9055C24.6091 63.7199 24.2959 63.4531 24.0639 63.1051C23.8319 62.7538 23.7159 62.3295 23.7159 61.8324C23.7159 61.3949 23.8021 61.0402 23.9744 60.7685C24.1468 60.4934 24.3771 60.2779 24.6655 60.1222C24.9538 59.9664 25.272 59.8504 25.62 59.7741C25.9714 59.6946 26.3243 59.6316 26.679 59.5852C27.143 59.5256 27.5192 59.4808 27.8075 59.451C28.0992 59.4179 28.3113 59.3632 28.4439 59.2869C28.5798 59.2107 28.6477 59.0781 28.6477 58.8892V58.8494C28.6477 58.3589 28.5135 57.9777 28.245 57.706C27.9799 57.4342 27.5772 57.2983 27.0369 57.2983C26.4768 57.2983 26.0376 57.4209 25.7195 57.6662C25.4013 57.9115 25.1776 58.1733 25.0483 58.4517L23.9347 58.054C24.1335 57.59 24.3987 57.2287 24.7301 56.9702C25.0649 56.7083 25.4295 56.526 25.8239 56.4233C26.2216 56.3172 26.6127 56.2642 26.9972 56.2642C27.2424 56.2642 27.5241 56.294 27.8423 56.3537C28.1638 56.41 28.4737 56.5277 28.772 56.7067C29.0736 56.8857 29.3239 57.1558 29.5227 57.517C29.7216 57.8783 29.821 58.3622 29.821 58.9688V64H28.6477V62.9659H28.5881C28.5085 63.1316 28.3759 63.3089 28.1903 63.4979C28.0047 63.6868 27.7578 63.8475 27.4496 63.9801C27.1413 64.1127 26.7652 64.179 26.321 64.179ZM26.5 63.125C26.964 63.125 27.3551 63.0339 27.6733 62.8516C27.9948 62.6693 28.2367 62.4339 28.3991 62.1456C28.5649 61.8572 28.6477 61.554 28.6477 61.2358V60.1619C28.598 60.2216 28.4886 60.2763 28.3196 60.326C28.1539 60.3724 27.9616 60.4138 27.7429 60.4503C27.5275 60.4834 27.317 60.5133 27.1115 60.5398C26.9093 60.563 26.7453 60.5829 26.6193 60.5994C26.3144 60.6392 26.0294 60.7038 25.7642 60.7933C25.5024 60.8795 25.2902 61.0104 25.1278 61.1861C24.9688 61.3584 24.8892 61.5937 24.8892 61.892C24.8892 62.2997 25.04 62.608 25.3416 62.8168C25.6465 63.0223 26.0327 63.125 26.5 63.125ZM37.9334 56.3636L35.1096 64H33.9164L31.0925 56.3636H32.3652L34.4732 62.4489H34.5527L36.6607 56.3636H37.9334ZM42.291 67.0227C41.7243 67.0227 41.237 66.9498 40.8294 66.804C40.4217 66.6615 40.082 66.4725 39.8102 66.2372C39.5417 66.0052 39.3279 65.7566 39.1689 65.4915L40.1035 64.8352C40.2096 64.9744 40.3438 65.1335 40.5062 65.3125C40.6686 65.4948 40.8907 65.6522 41.1724 65.7848C41.4574 65.9207 41.8303 65.9886 42.291 65.9886C42.9075 65.9886 43.4163 65.8395 43.8173 65.5412C44.2183 65.2429 44.4189 64.7756 44.4189 64.1392V62.5881H44.3194C44.2333 62.7273 44.1106 62.8996 43.9515 63.1051C43.7958 63.3073 43.5704 63.4879 43.2754 63.647C42.9837 63.8028 42.5893 63.8807 42.0922 63.8807C41.4757 63.8807 40.9222 63.7348 40.4316 63.4432C39.9444 63.1515 39.5583 62.7273 39.2733 62.1705C38.9915 61.6136 38.8507 60.9375 38.8507 60.142C38.8507 59.3598 38.9882 58.6787 39.2633 58.0987C39.5384 57.5154 39.9212 57.0646 40.4118 56.7464C40.9023 56.425 41.469 56.2642 42.112 56.2642C42.6092 56.2642 43.0036 56.3471 43.2953 56.5128C43.5903 56.6752 43.8156 56.8608 43.9714 57.0696C44.1305 57.2751 44.2531 57.4441 44.3393 57.5767H44.4586V56.3636H45.5922V64.2188C45.5922 64.875 45.443 65.4086 45.1447 65.8196C44.8497 66.2339 44.452 66.5372 43.9515 66.7294C43.4544 66.925 42.9009 67.0227 42.291 67.0227ZM42.2512 62.8267C42.7219 62.8267 43.1196 62.719 43.4444 62.5036C43.7692 62.2881 44.0162 61.9782 44.1852 61.5739C44.3542 61.1695 44.4387 60.6856 44.4387 60.1222C44.4387 59.572 44.3559 59.0864 44.1902 58.6655C44.0244 58.2446 43.7792 57.9148 43.4544 57.6761C43.1296 57.4375 42.7285 57.3182 42.2512 57.3182C41.7541 57.3182 41.3398 57.4441 41.0083 57.696C40.6802 57.9479 40.4333 58.286 40.2676 58.7102C40.1052 59.1345 40.024 59.6051 40.024 60.1222C40.024 60.6525 40.1068 61.1214 40.2725 61.5291C40.4416 61.9335 40.6902 62.2517 41.0183 62.4837C41.3497 62.7124 41.7607 62.8267 42.2512 62.8267ZM48.595 64.0795C48.3497 64.0795 48.1393 63.9917 47.9636 63.8161C47.7879 63.6404 47.7001 63.4299 47.7001 63.1847C47.7001 62.9394 47.7879 62.7289 47.9636 62.5533C48.1393 62.3776 48.3497 62.2898 48.595 62.2898C48.8403 62.2898 49.0507 62.3776 49.2264 62.5533C49.402 62.7289 49.4899 62.9394 49.4899 63.1847C49.4899 63.3471 49.4484 63.4962 49.3656 63.6321C49.286 63.768 49.1783 63.8774 49.0424 63.9602C48.9099 64.0398 48.7607 64.0795 48.595 64.0795ZM55.5328 64V56.3636H56.6664V57.517H56.7459C56.8851 57.1392 57.137 56.8326 57.5016 56.5973C57.8662 56.362 58.2772 56.2443 58.7346 56.2443C58.8207 56.2443 58.9284 56.246 59.0577 56.2493C59.187 56.2526 59.2847 56.2576 59.351 56.2642V57.4574C59.3113 57.4474 59.2201 57.4325 59.0776 57.4126C58.9384 57.3894 58.7909 57.3778 58.6351 57.3778C58.2639 57.3778 57.9325 57.4557 57.6408 57.6115C57.3525 57.764 57.1238 57.9761 56.9547 58.2479C56.789 58.5163 56.7061 58.8229 56.7061 59.1676V64H55.5328ZM63.7111 64.1591C62.9753 64.1591 62.3406 63.9967 61.807 63.6719C61.2767 63.3438 60.8674 62.8864 60.579 62.2997C60.294 61.7098 60.1515 61.0237 60.1515 60.2415C60.1515 59.4593 60.294 58.7699 60.579 58.1733C60.8674 57.5734 61.2684 57.1061 61.7821 56.7713C62.2992 56.4332 62.9024 56.2642 63.5918 56.2642C63.9895 56.2642 64.3823 56.3305 64.7701 56.4631C65.1578 56.5956 65.5108 56.8111 65.829 57.1094C66.1472 57.4044 66.4007 57.7955 66.5897 58.2827C66.7786 58.7699 66.873 59.3698 66.873 60.0824V60.5795H60.9867V59.5653H65.6799C65.6799 59.1345 65.5937 58.75 65.4213 58.4119C65.2523 58.0739 65.0104 57.8071 64.6955 57.6115C64.3839 57.416 64.016 57.3182 63.5918 57.3182C63.1245 57.3182 62.7201 57.4342 62.3787 57.6662C62.0407 57.8949 61.7805 58.1932 61.5982 58.5611C61.4159 58.929 61.3248 59.3234 61.3248 59.7443V60.4205C61.3248 60.9972 61.4242 61.486 61.623 61.8871C61.8252 62.2848 62.1053 62.5881 62.4632 62.7969C62.8212 63.0024 63.2372 63.1051 63.7111 63.1051C64.0194 63.1051 64.2978 63.062 64.5463 62.9759C64.7982 62.8864 65.0153 62.7538 65.1976 62.5781C65.3799 62.3991 65.5208 62.1771 65.6202 61.9119L66.7537 62.2301C66.6344 62.6146 66.4339 62.9527 66.1522 63.2443C65.8704 63.5327 65.5224 63.758 65.1081 63.9205C64.6938 64.0795 64.2282 64.1591 63.7111 64.1591ZM74.6697 56.3636L71.8459 64H70.6527L67.8288 56.3636H69.1016L71.2095 62.4489H71.2891L73.397 56.3636H74.6697ZM79.1467 64.1591C78.4109 64.1591 77.7762 63.9967 77.2425 63.6719C76.7122 63.3438 76.3029 62.8864 76.0146 62.2997C75.7295 61.7098 75.587 61.0237 75.587 60.2415C75.587 59.4593 75.7295 58.7699 76.0146 58.1733C76.3029 57.5734 76.704 57.1061 77.2177 56.7713C77.7347 56.4332 78.3379 56.2642 79.0273 56.2642C79.4251 56.2642 79.8178 56.3305 80.2056 56.4631C80.5934 56.5956 80.9464 56.8111 81.2646 57.1094C81.5827 57.4044 81.8363 57.7955 82.0252 58.2827C82.2141 58.7699 82.3086 59.3698 82.3086 60.0824V60.5795H76.4222V59.5653H81.1154C81.1154 59.1345 81.0292 58.75 80.8569 58.4119C80.6879 58.0739 80.4459 57.8071 80.131 57.6115C79.8195 57.416 79.4516 57.3182 79.0273 57.3182C78.56 57.3182 78.1557 57.4342 77.8143 57.6662C77.4762 57.8949 77.216 58.1932 77.0337 58.5611C76.8514 58.929 76.7603 59.3234 76.7603 59.7443V60.4205C76.7603 60.9972 76.8597 61.486 77.0586 61.8871C77.2608 62.2848 77.5408 62.5881 77.8988 62.7969C78.2567 63.0024 78.6727 63.1051 79.1467 63.1051C79.4549 63.1051 79.7333 63.062 79.9819 62.9759C80.2338 62.8864 80.4509 62.7538 80.6332 62.5781C80.8155 62.3991 80.9563 62.1771 81.0558 61.9119L82.1893 62.2301C82.07 62.6146 81.8694 62.9527 81.5877 63.2443C81.306 63.5327 80.958 63.758 80.5437 63.9205C80.1294 64.0795 79.6637 64.1591 79.1467 64.1591ZM85.2667 59.4062V64H84.0934V56.3636H85.2269V57.5568H85.3263C85.5053 57.169 85.7771 56.8575 86.1417 56.6222C86.5063 56.3835 86.9769 56.2642 87.5536 56.2642C88.0707 56.2642 88.5231 56.3703 88.9109 56.5824C89.2987 56.7912 89.6003 57.1094 89.8157 57.5369C90.0311 57.9612 90.1388 58.4981 90.1388 59.1477V64H88.9656V59.2273C88.9656 58.6274 88.8098 58.16 88.4982 57.8253C88.1867 57.4872 87.7591 57.3182 87.2156 57.3182C86.841 57.3182 86.5063 57.3994 86.2113 57.5618C85.9196 57.7242 85.6893 57.9612 85.5202 58.2727C85.3512 58.5843 85.2667 58.9621 85.2667 59.4062ZM97.0953 60.8778V56.3636H98.2686V64H97.0953V62.7074H97.0158C96.8368 63.0952 96.5584 63.425 96.1806 63.6967C95.8027 63.9652 95.3255 64.0994 94.7488 64.0994C94.2715 64.0994 93.8472 63.995 93.476 63.7862C93.1048 63.5741 92.8132 63.2559 92.601 62.8317C92.3889 62.4041 92.2828 61.8655 92.2828 61.2159V56.3636H93.4561V61.1364C93.4561 61.6932 93.6119 62.1373 93.9235 62.4688C94.2383 62.8002 94.6394 62.9659 95.1266 62.9659C95.4183 62.9659 95.7149 62.8913 96.0165 62.7422C96.3214 62.593 96.5766 62.3643 96.7821 62.0561C96.9909 61.7479 97.0953 61.3551 97.0953 60.8778ZM103.619 64.1591C102.884 64.1591 102.249 63.9967 101.715 63.6719C101.185 63.3438 100.776 62.8864 100.487 62.2997C100.202 61.7098 100.06 61.0237 100.06 60.2415C100.06 59.4593 100.202 58.7699 100.487 58.1733C100.776 57.5734 101.177 57.1061 101.69 56.7713C102.207 56.4332 102.811 56.2642 103.5 56.2642C103.898 56.2642 104.29 56.3305 104.678 56.4631C105.066 56.5956 105.419 56.8111 105.737 57.1094C106.055 57.4044 106.309 57.7955 106.498 58.2827C106.687 58.7699 106.781 59.3698 106.781 60.0824V60.5795H100.895V59.5653H105.588C105.588 59.1345 105.502 58.75 105.33 58.4119C105.161 58.0739 104.919 57.8071 104.604 57.6115C104.292 57.416 103.924 57.3182 103.5 57.3182C103.033 57.3182 102.628 57.4342 102.287 57.6662C101.949 57.8949 101.689 58.1932 101.506 58.5611C101.324 58.929 101.233 59.3234 101.233 59.7443V60.4205C101.233 60.9972 101.332 61.486 101.531 61.8871C101.733 62.2848 102.013 62.5881 102.371 62.7969C102.729 63.0024 103.145 63.1051 103.619 63.1051C103.928 63.1051 104.206 63.062 104.455 62.9759C104.706 62.8864 104.924 62.7538 105.106 62.5781C105.288 62.3991 105.429 62.1771 105.528 61.9119L106.662 62.2301C106.543 62.6146 106.342 62.9527 106.06 63.2443C105.779 63.5327 105.431 63.758 105.016 63.9205C104.602 64.0795 104.136 64.1591 103.619 64.1591ZM115.586 67.0227C115.019 67.0227 114.532 66.9498 114.124 66.804C113.717 66.6615 113.377 66.4725 113.105 66.2372C112.837 66.0052 112.623 65.7566 112.464 65.4915L113.398 64.8352C113.504 64.9744 113.639 65.1335 113.801 65.3125C113.964 65.4948 114.186 65.6522 114.467 65.7848C114.752 65.9207 115.125 65.9886 115.586 65.9886C116.202 65.9886 116.711 65.8395 117.112 65.5412C117.513 65.2429 117.714 64.7756 117.714 64.1392V62.5881H117.614C117.528 62.7273 117.406 62.8996 117.246 63.1051C117.091 63.3073 116.865 63.4879 116.57 63.647C116.279 63.8028 115.884 63.8807 115.387 63.8807C114.771 63.8807 114.217 63.7348 113.727 63.4432C113.239 63.1515 112.853 62.7273 112.568 62.1705C112.286 61.6136 112.146 60.9375 112.146 60.142C112.146 59.3598 112.283 58.6787 112.558 58.0987C112.833 57.5154 113.216 57.0646 113.707 56.7464C114.197 56.425 114.764 56.2642 115.407 56.2642C115.904 56.2642 116.299 56.3471 116.59 56.5128C116.885 56.6752 117.111 56.8608 117.266 57.0696C117.425 57.2751 117.548 57.4441 117.634 57.5767H117.754V56.3636H118.887V64.2188C118.887 64.875 118.738 65.4086 118.44 65.8196C118.145 66.2339 117.747 66.5372 117.246 66.7294C116.749 66.925 116.196 67.0227 115.586 67.0227ZM115.546 62.8267C116.017 62.8267 116.415 62.719 116.739 62.5036C117.064 62.2881 117.311 61.9782 117.48 61.5739C117.649 61.1695 117.734 60.6856 117.734 60.1222C117.734 59.572 117.651 59.0864 117.485 58.6655C117.319 58.2446 117.074 57.9148 116.749 57.6761C116.424 57.4375 116.023 57.3182 115.546 57.3182C115.049 57.3182 114.635 57.4441 114.303 57.696C113.975 57.9479 113.728 58.286 113.562 58.7102C113.4 59.1345 113.319 59.6051 113.319 60.1222C113.319 60.6525 113.402 61.1214 113.567 61.5291C113.737 61.9335 113.985 62.2517 114.313 62.4837C114.645 62.7124 115.056 62.8267 115.546 62.8267ZM121.035 64V56.3636H122.168V57.517H122.248C122.387 57.1392 122.639 56.8326 123.004 56.5973C123.368 56.362 123.779 56.2443 124.237 56.2443C124.323 56.2443 124.43 56.246 124.56 56.2493C124.689 56.2526 124.787 56.2576 124.853 56.2642V57.4574C124.813 57.4474 124.722 57.4325 124.58 57.4126C124.44 57.3894 124.293 57.3778 124.137 57.3778C123.766 57.3778 123.434 57.4557 123.143 57.6115C122.854 57.764 122.626 57.9761 122.457 58.2479C122.291 58.5163 122.208 58.8229 122.208 59.1676V64H121.035ZM129.114 64.1591C128.424 64.1591 127.819 63.995 127.299 63.6669C126.782 63.3388 126.378 62.8797 126.086 62.2898C125.798 61.6998 125.653 61.0104 125.653 60.2216C125.653 59.4261 125.798 58.7318 126.086 58.1385C126.378 57.5452 126.782 57.0845 127.299 56.7564C127.819 56.4283 128.424 56.2642 129.114 56.2642C129.803 56.2642 130.406 56.4283 130.923 56.7564C131.444 57.0845 131.848 57.5452 132.136 58.1385C132.428 58.7318 132.574 59.4261 132.574 60.2216C132.574 61.0104 132.428 61.6998 132.136 62.2898C131.848 62.8797 131.444 63.3388 130.923 63.6669C130.406 63.995 129.803 64.1591 129.114 64.1591ZM129.114 63.1051C129.637 63.1051 130.068 62.9709 130.406 62.7024C130.744 62.4339 130.995 62.081 131.157 61.6435C131.319 61.206 131.401 60.732 131.401 60.2216C131.401 59.7112 131.319 59.2356 131.157 58.7947C130.995 58.3539 130.744 57.9976 130.406 57.7259C130.068 57.4541 129.637 57.3182 129.114 57.3182C128.59 57.3182 128.159 57.4541 127.821 57.7259C127.483 57.9976 127.233 58.3539 127.07 58.7947C126.908 59.2356 126.827 59.7112 126.827 60.2216C126.827 60.732 126.908 61.206 127.07 61.6435C127.233 62.081 127.483 62.4339 127.821 62.7024C128.159 62.9709 128.59 63.1051 129.114 63.1051ZM135.835 64L133.509 56.3636H134.741L136.392 62.2102H136.472L138.102 56.3636H139.355L140.966 62.1903H141.045L142.696 56.3636H143.929L141.602 64H140.449L138.778 58.1335H138.659L136.989 64H135.835ZM148.801 56.3636V57.358H144.844V56.3636H148.801ZM145.997 54.5341H147.17V61.8125C147.17 62.1439 147.219 62.3925 147.315 62.5582C147.414 62.7206 147.54 62.83 147.692 62.8864C147.848 62.9394 148.012 62.9659 148.185 62.9659C148.314 62.9659 148.42 62.9593 148.503 62.946C148.586 62.9295 148.652 62.9162 148.702 62.9062L148.94 63.9602C148.861 63.9901 148.75 64.0199 148.607 64.0497C148.465 64.0829 148.284 64.0994 148.065 64.0994C147.734 64.0994 147.409 64.0282 147.091 63.8857C146.776 63.7431 146.514 63.526 146.305 63.2344C146.1 62.9427 145.997 62.5748 145.997 62.1307V54.5341ZM151.903 59.4062V64H150.73V53.8182H151.903V57.5568H152.003C152.182 57.1624 152.45 56.8492 152.808 56.6172C153.17 56.3819 153.65 56.2642 154.25 56.2642C154.77 56.2642 155.226 56.3686 155.617 56.5774C156.008 56.7829 156.312 57.0994 156.527 57.527C156.746 57.9512 156.855 58.4915 156.855 59.1477V64H155.682V59.2273C155.682 58.6207 155.524 58.1518 155.21 57.8203C154.898 57.4856 154.465 57.3182 153.912 57.3182C153.527 57.3182 153.183 57.3994 152.878 57.5618C152.576 57.7242 152.338 57.9612 152.162 58.2727C151.99 58.5843 151.903 58.9621 151.903 59.4062Z" fill="#515A65"/>
</g>
<defs>
<linearGradient id="paint0_linear_2078_7403" x1="28" y1="149" x2="28" y2="185" gradientUnits="userSpaceOnUse">
<stop stop-color="#ECD6F8"/>
<stop offset="1" stop-color="#D8ADF1"/>
</linearGradient>
<linearGradient id="paint1_linear_2078_7403" x1="84.5" y1="135" x2="84.5" y2="185" gradientUnits="userSpaceOnUse">
<stop stop-color="#ECD6F8"/>
<stop offset="1" stop-color="#D8ADF1"/>
</linearGradient>
<linearGradient id="paint2_linear_2078_7403" x1="141.5" y1="116" x2="141.5" y2="185" gradientUnits="userSpaceOnUse">
<stop stop-color="#ECD6F8"/>
<stop offset="1" stop-color="#D8ADF1"/>
</linearGradient>
<linearGradient id="paint3_linear_2078_7403" x1="198.5" y1="92" x2="198.5" y2="185" gradientUnits="userSpaceOnUse">
<stop stop-color="#ECD6F8"/>
<stop offset="1" stop-color="#D8ADF1"/>
</linearGradient>
<linearGradient id="paint4_linear_2078_7403" x1="255.5" y1="58" x2="255.5" y2="185" gradientUnits="userSpaceOnUse">
<stop stop-color="#ECD6F8"/>
<stop offset="1" stop-color="#D8ADF1"/>
</linearGradient>
<linearGradient id="paint5_linear_2078_7403" x1="312.5" y1="16" x2="312.5" y2="185" gradientUnits="userSpaceOnUse">
<stop stop-color="#ECD6F8"/>
<stop offset="1" stop-color="#D8ADF1"/>
</linearGradient>
<clipPath id="clip0_2078_7403">
<rect width="346" height="185" rx="14" fill="white"/>
</clipPath>
</defs>
</svg>
